<svg xmlns="http://www.w3.org/2000/svg" width="328" height="350" style="background:#1e1e2e;font-family:monospace">
<text x="164" y="22" fill="#cdd6f4" font-size="14" text-anchor="middle" font-weight="bold">Aggregate Algorithm Summary</text>
<text x="164" y="40" fill="#a6adc8" font-size="10" text-anchor="middle">Mean overall F1 and pitch accuracy across all songs.</text>
<line x1="60" y1="270" x2="308" y2="270" stroke="#313244" stroke-width="1"/>
<text x="55" y="274" fill="#a6adc8" font-size="9" text-anchor="end">0.0</text>
<line x1="60" y1="230" x2="308" y2="230" stroke="#313244" stroke-width="1"/>
<text x="55" y="234" fill="#a6adc8" font-size="9" text-anchor="end">0.2</text>
<line x1="60" y1="190" x2="308" y2="190" stroke="#313244" stroke-width="1"/>
<text x="55" y="194" fill="#a6adc8" font-size="9" text-anchor="end">0.4</text>
<line x1="60" y1="150" x2="308" y2="150" stroke="#313244" stroke-width="1"/>
<text x="55" y="154" fill="#a6adc8" font-size="9" text-anchor="end">0.6</text>
<line x1="60" y1="110" x2="308" y2="110" stroke="#313244" stroke-width="1"/>
<text x="55" y="114" fill="#a6adc8" font-size="9" text-anchor="end">0.8</text>
<line x1="60" y1="70" x2="308" y2="70" stroke="#313244" stroke-width="1"/>
<text x="55" y="74" fill="#a6adc8" font-size="9" text-anchor="end">1.0</text>
<rect x="70" y="197" width="26" height="73" fill="#56b6c2" rx="2"/>
<text x="84" y="193" fill="#56b6c2" font-size="8" text-anchor="middle">0.369</text>
<rect x="98" y="234" width="26" height="36" fill="#ff8f5a" rx="2"/>
<text x="112" y="230" fill="#ff8f5a" font-size="8" text-anchor="middle">0.181</text>
<text x="98" y="286" fill="#a6adc8" font-size="8" text-anchor="middle" transform="rotate(-20 98 286)">melodic_yin_octave_hps</text>
<rect x="146" y="198" width="26" height="72" fill="#56b6c2" rx="2"/>
<text x="160" y="194" fill="#56b6c2" font-size="8" text-anchor="middle">0.361</text>
<rect x="174" y="242" width="26" height="28" fill="#ff8f5a" rx="2"/>
<text x="188" y="238" fill="#ff8f5a" font-size="8" text-anchor="middle">0.143</text>
<text x="174" y="286" fill="#a6adc8" font-size="8" text-anchor="middle" transform="rotate(-20 174 286)">melodic_combined</text>
<rect x="222" y="198" width="26" height="72" fill="#56b6c2" rx="2"/>
<text x="236" y="194" fill="#56b6c2" font-size="8" text-anchor="middle">0.361</text>
<rect x="250" y="217" width="26" height="53" fill="#ff8f5a" rx="2"/>
<text x="264" y="213" fill="#ff8f5a" font-size="8" text-anchor="middle">0.269</text>
<text x="250" y="286" fill="#a6adc8" font-size="8" text-anchor="middle" transform="rotate(-20 250 286)">melodic_octave_fix</text>
<rect x="60" y="322" width="12" height="12" fill="#56b6c2" rx="2"/>
<text x="76" y="332" fill="#cdd6f4" font-size="9">Mean F1</text>
<rect x="220" y="322" width="12" height="12" fill="#ff8f5a" rx="2"/>
<text x="236" y="332" fill="#cdd6f4" font-size="9">Pitch Acc</text>
</svg>