<svg xmlns="http://www.w3.org/2000/svg" width="776" height="238" style="background:#1e1e2e;font-family:monospace">
<text x="388" y="22" fill="#cdd6f4" font-size="14" text-anchor="middle" font-weight="bold">Bass F1 by Song</text>
<text x="388" y="40" fill="#a6adc8" font-size="10" text-anchor="middle">Per-song F1 for bass instrument tracks.</text>
<text x="236" y="62" fill="#a6adc8" font-size="9" text-anchor="end" transform="rotate(-35 236 62)">psalm_1_bass</text>
<text x="316" y="62" fill="#a6adc8" font-size="9" text-anchor="end" transform="rotate(-35 316 62)">psalm_2_bass</text>
<text x="396" y="62" fill="#a6adc8" font-size="9" text-anchor="end" transform="rotate(-35 396 62)">psalm_3_bass</text>
<text x="476" y="62" fill="#a6adc8" font-size="9" text-anchor="end" transform="rotate(-35 476 62)">psalm_4_bass</text>
<text x="556" y="62" fill="#a6adc8" font-size="9" text-anchor="end" transform="rotate(-35 556 62)">psalm_5_bass</text>
<text x="636" y="62" fill="#a6adc8" font-size="9" text-anchor="end" transform="rotate(-35 636 62)">psalm_6_bass</text>
<text x="716" y="62" fill="#a6adc8" font-size="9" text-anchor="end" transform="rotate(-35 716 62)">psalm_7_bass</text>
<text x="188" y="92" fill="#cdd6f4" font-size="10" text-anchor="end">melodic_yin_octave_hps</text>
<rect x="196" y="70" width="78" height="34" fill="#f0cb18" rx="3"/>
<text x="236" y="92" fill="#1e1e2e" font-size="11" text-anchor="middle">0.522</text>
<rect x="276" y="70" width="78" height="34" fill="#f0cb18" rx="3"/>
<text x="316" y="92" fill="#1e1e2e" font-size="11" text-anchor="middle">0.522</text>
<rect x="356" y="70" width="78" height="34" fill="#f58e2a" rx="3"/>
<text x="396" y="92" fill="#cdd6f4" font-size="11" text-anchor="middle">0.273</text>
<rect x="436" y="70" width="78" height="34" fill="#f6a123" rx="3"/>
<text x="476" y="92" fill="#cdd6f4" font-size="11" text-anchor="middle">0.342</text>
<rect x="516" y="70" width="78" height="34" fill="#f59129" rx="3"/>
<text x="556" y="92" fill="#cdd6f4" font-size="11" text-anchor="middle">0.284</text>
<rect x="596" y="70" width="78" height="34" fill="#f8b81b" rx="3"/>
<text x="636" y="92" fill="#1e1e2e" font-size="11" text-anchor="middle">0.428</text>
<rect x="676" y="70" width="78" height="34" fill="#f37d30" rx="3"/>
<text x="716" y="92" fill="#cdd6f4" font-size="11" text-anchor="middle">0.210</text>
<text x="188" y="128" fill="#cdd6f4" font-size="10" text-anchor="end">melodic_combined</text>
<rect x="196" y="106" width="78" height="34" fill="#f6cb16" rx="3"/>
<text x="236" y="128" fill="#1e1e2e" font-size="11" text-anchor="middle">0.508</text>
<rect x="276" y="106" width="78" height="34" fill="#e8cb1a" rx="3"/>
<text x="316" y="128" fill="#1e1e2e" font-size="11" text-anchor="middle">0.540</text>
<rect x="356" y="106" width="78" height="34" fill="#f4862d" rx="3"/>
<text x="396" y="128" fill="#cdd6f4" font-size="11" text-anchor="middle">0.243</text>
<rect x="436" y="106" width="78" height="34" fill="#f59727" rx="3"/>
<text x="476" y="128" fill="#cdd6f4" font-size="11" text-anchor="middle">0.306</text>
<rect x="516" y="106" width="78" height="34" fill="#f59727" rx="3"/>
<text x="556" y="128" fill="#cdd6f4" font-size="11" text-anchor="middle">0.308</text>
<rect x="596" y="106" width="78" height="34" fill="#f7b21d" rx="3"/>
<text x="636" y="128" fill="#1e1e2e" font-size="11" text-anchor="middle">0.405</text>
<rect x="676" y="106" width="78" height="34" fill="#f37e2f" rx="3"/>
<text x="716" y="128" fill="#cdd6f4" font-size="11" text-anchor="middle">0.213</text>
<text x="188" y="164" fill="#cdd6f4" font-size="10" text-anchor="end">melodic_octave_fix</text>
<rect x="196" y="142" width="78" height="34" fill="#f6cb16" rx="3"/>
<text x="236" y="164" fill="#1e1e2e" font-size="11" text-anchor="middle">0.508</text>
<rect x="276" y="142" width="78" height="34" fill="#e8cb1a" rx="3"/>
<text x="316" y="164" fill="#1e1e2e" font-size="11" text-anchor="middle">0.540</text>
<rect x="356" y="142" width="78" height="34" fill="#f4862d" rx="3"/>
<text x="396" y="164" fill="#cdd6f4" font-size="11" text-anchor="middle">0.243</text>
<rect x="436" y="142" width="78" height="34" fill="#f59727" rx="3"/>
<text x="476" y="164" fill="#cdd6f4" font-size="11" text-anchor="middle">0.306</text>
<rect x="516" y="142" width="78" height="34" fill="#f59727" rx="3"/>
<text x="556" y="164" fill="#cdd6f4" font-size="11" text-anchor="middle">0.308</text>
<rect x="596" y="142" width="78" height="34" fill="#f7b21d" rx="3"/>
<text x="636" y="164" fill="#1e1e2e" font-size="11" text-anchor="middle">0.405</text>
<rect x="676" y="142" width="78" height="34" fill="#f37e2f" rx="3"/>
<text x="716" y="164" fill="#cdd6f4" font-size="11" text-anchor="middle">0.213</text>
</svg>