<svg xmlns="http://www.w3.org/2000/svg" width="776" height="238" style="background:#1e1e2e;font-family:monospace">
<text x="388" y="22" fill="#cdd6f4" font-size="14" text-anchor="middle" font-weight="bold">Pitch Accuracy by Song</text>
<text x="388" y="40" fill="#a6adc8" font-size="10" text-anchor="middle">Fraction of matched notes with correct pitch (±1 semitone).</text>
<text x="236" y="62" fill="#a6adc8" font-size="9" text-anchor="end" transform="rotate(-35 236 62)">psalm_1_bass</text>
<text x="316" y="62" fill="#a6adc8" font-size="9" text-anchor="end" transform="rotate(-35 316 62)">psalm_2_bass</text>
<text x="396" y="62" fill="#a6adc8" font-size="9" text-anchor="end" transform="rotate(-35 396 62)">psalm_3_bass</text>
<text x="476" y="62" fill="#a6adc8" font-size="9" text-anchor="end" transform="rotate(-35 476 62)">psalm_4_bass</text>
<text x="556" y="62" fill="#a6adc8" font-size="9" text-anchor="end" transform="rotate(-35 556 62)">psalm_5_bass</text>
<text x="636" y="62" fill="#a6adc8" font-size="9" text-anchor="end" transform="rotate(-35 636 62)">psalm_6_bass</text>
<text x="716" y="62" fill="#a6adc8" font-size="9" text-anchor="end" transform="rotate(-35 716 62)">psalm_7_bass</text>
<text x="188" y="92" fill="#cdd6f4" font-size="10" text-anchor="end">melodic_yin_octave_hps</text>
<rect x="196" y="70" width="78" height="34" fill="#ef4543" rx="3"/>
<text x="236" y="92" fill="#cdd6f4" font-size="11" text-anchor="middle">0.006</text>
<rect x="276" y="70" width="78" height="34" fill="#ef4842" rx="3"/>
<text x="316" y="92" fill="#cdd6f4" font-size="11" text-anchor="middle">0.015</text>
<rect x="356" y="70" width="78" height="34" fill="#f16737" rx="3"/>
<text x="396" y="92" fill="#cdd6f4" font-size="11" text-anchor="middle">0.131</text>
<rect x="436" y="70" width="78" height="34" fill="#82c83d" rx="3"/>
<text x="476" y="92" fill="#1e1e2e" font-size="11" text-anchor="middle">0.776</text>
<rect x="516" y="70" width="78" height="34" fill="#f15d3b" rx="3"/>
<text x="556" y="92" fill="#cdd6f4" font-size="11" text-anchor="middle">0.093</text>
<rect x="596" y="70" width="78" height="34" fill="#f16538" rx="3"/>
<text x="636" y="92" fill="#cdd6f4" font-size="11" text-anchor="middle">0.124</text>
<rect x="676" y="70" width="78" height="34" fill="#f16538" rx="3"/>
<text x="716" y="92" fill="#cdd6f4" font-size="11" text-anchor="middle">0.123</text>
<text x="188" y="128" fill="#cdd6f4" font-size="10" text-anchor="end">melodic_combined</text>
<rect x="196" y="106" width="78" height="34" fill="#ef4444" rx="3"/>
<text x="236" y="128" fill="#cdd6f4" font-size="11" text-anchor="middle">0.000</text>
<rect x="276" y="106" width="78" height="34" fill="#ef4443" rx="3"/>
<text x="316" y="128" fill="#cdd6f4" font-size="11" text-anchor="middle">0.003</text>
<rect x="356" y="106" width="78" height="34" fill="#f05b3b" rx="3"/>
<text x="396" y="128" fill="#cdd6f4" font-size="11" text-anchor="middle">0.087</text>
<rect x="436" y="106" width="78" height="34" fill="#aec92e" rx="3"/>
<text x="476" y="128" fill="#1e1e2e" font-size="11" text-anchor="middle">0.675</text>
<rect x="516" y="106" width="78" height="34" fill="#ef4f3f" rx="3"/>
<text x="556" y="128" fill="#cdd6f4" font-size="11" text-anchor="middle">0.043</text>
<rect x="596" y="106" width="78" height="34" fill="#f15e3a" rx="3"/>
<text x="636" y="128" fill="#cdd6f4" font-size="11" text-anchor="middle">0.099</text>
<rect x="676" y="106" width="78" height="34" fill="#f15d3b" rx="3"/>
<text x="716" y="128" fill="#cdd6f4" font-size="11" text-anchor="middle">0.095</text>
<text x="188" y="164" fill="#cdd6f4" font-size="10" text-anchor="end">melodic_octave_fix</text>
<rect x="196" y="142" width="78" height="34" fill="#f69d25" rx="3"/>
<text x="236" y="164" fill="#cdd6f4" font-size="11" text-anchor="middle">0.330</text>
<rect x="276" y="142" width="78" height="34" fill="#ef4444" rx="3"/>
<text x="316" y="164" fill="#cdd6f4" font-size="11" text-anchor="middle">0.000</text>
<rect x="356" y="142" width="78" height="34" fill="#f4892b" rx="3"/>
<text x="396" y="164" fill="#cdd6f4" font-size="11" text-anchor="middle">0.256</text>
<rect x="436" y="142" width="78" height="34" fill="#f69c25" rx="3"/>
<text x="476" y="164" fill="#cdd6f4" font-size="11" text-anchor="middle">0.325</text>
<rect x="516" y="142" width="78" height="34" fill="#f9c118" rx="3"/>
<text x="556" y="164" fill="#1e1e2e" font-size="11" text-anchor="middle">0.460</text>
<rect x="596" y="142" width="78" height="34" fill="#f59129" rx="3"/>
<text x="636" y="164" fill="#cdd6f4" font-size="11" text-anchor="middle">0.285</text>
<rect x="676" y="142" width="78" height="34" fill="#f4812e" rx="3"/>
<text x="716" y="164" fill="#cdd6f4" font-size="11" text-anchor="middle">0.228</text>
</svg>