<svg xmlns="http://www.w3.org/2000/svg" width="760" height="202" style="background:#1e1e2e;font-family:monospace">
<text x="380" y="22" fill="#cdd6f4" font-size="14" text-anchor="middle" font-weight="bold">Pitch Accuracy by Song</text>
<text x="380" y="40" fill="#a6adc8" font-size="10" text-anchor="middle">Fraction of matched notes with correct pitch (±1 semitone).</text>
<text x="220" y="62" fill="#a6adc8" font-size="9" text-anchor="end" transform="rotate(-35 220 62)">psalm_1_bass</text>
<text x="300" y="62" fill="#a6adc8" font-size="9" text-anchor="end" transform="rotate(-35 300 62)">psalm_2_bass</text>
<text x="380" y="62" fill="#a6adc8" font-size="9" text-anchor="end" transform="rotate(-35 380 62)">psalm_3_bass</text>
<text x="460" y="62" fill="#a6adc8" font-size="9" text-anchor="end" transform="rotate(-35 460 62)">psalm_4_bass</text>
<text x="540" y="62" fill="#a6adc8" font-size="9" text-anchor="end" transform="rotate(-35 540 62)">psalm_5_bass</text>
<text x="620" y="62" fill="#a6adc8" font-size="9" text-anchor="end" transform="rotate(-35 620 62)">psalm_6_bass</text>
<text x="700" y="62" fill="#a6adc8" font-size="9" text-anchor="end" transform="rotate(-35 700 62)">psalm_7_bass</text>
<text x="172" y="92" fill="#cdd6f4" font-size="10" text-anchor="end">melodic_basic_pitch</text>
<rect x="180" y="70" width="78" height="34" fill="#f26c35" rx="3"/>
<text x="220" y="92" fill="#cdd6f4" font-size="11" text-anchor="middle">0.150</text>
<rect x="260" y="70" width="78" height="34" fill="#f4cb16" rx="3"/>
<text x="300" y="92" fill="#1e1e2e" font-size="11" text-anchor="middle">0.513</text>
<rect x="340" y="70" width="78" height="34" fill="#ef4444" rx="3"/>
<text x="380" y="92" fill="#cdd6f4" font-size="11" text-anchor="middle">0.000</text>
<rect x="420" y="70" width="78" height="34" fill="#ef4444" rx="3"/>
<text x="460" y="92" fill="#cdd6f4" font-size="11" text-anchor="middle">0.000</text>
<rect x="500" y="70" width="78" height="34" fill="#f15f3a" rx="3"/>
<text x="540" y="92" fill="#cdd6f4" font-size="11" text-anchor="middle">0.100</text>
<rect x="580" y="70" width="78" height="34" fill="#f69b25" rx="3"/>
<text x="620" y="92" fill="#cdd6f4" font-size="11" text-anchor="middle">0.320</text>
<rect x="660" y="70" width="78" height="34" fill="#f0533e" rx="3"/>
<text x="700" y="92" fill="#cdd6f4" font-size="11" text-anchor="middle">0.059</text>
<text x="172" y="128" fill="#cdd6f4" font-size="10" text-anchor="end">melodic_pyin</text>
<rect x="180" y="106" width="78" height="34" fill="#ef4444" rx="3"/>
<text x="220" y="128" fill="#cdd6f4" font-size="11" text-anchor="middle">0.000</text>
<rect x="260" y="106" width="78" height="34" fill="#f8b91b" rx="3"/>
<text x="300" y="128" fill="#1e1e2e" font-size="11" text-anchor="middle">0.431</text>
<rect x="340" y="106" width="78" height="34" fill="#ef4444" rx="3"/>
<text x="380" y="128" fill="#cdd6f4" font-size="11" text-anchor="middle">0.000</text>
<rect x="420" y="106" width="78" height="34" fill="#ef4444" rx="3"/>
<text x="460" y="128" fill="#cdd6f4" font-size="11" text-anchor="middle">0.000</text>
<rect x="500" y="106" width="78" height="34" fill="#f26d35" rx="3"/>
<text x="540" y="128" fill="#cdd6f4" font-size="11" text-anchor="middle">0.154</text>
<rect x="580" y="106" width="78" height="34" fill="#f4852d" rx="3"/>
<text x="620" y="128" fill="#cdd6f4" font-size="11" text-anchor="middle">0.240</text>
<rect x="660" y="106" width="78" height="34" fill="#f37732" rx="3"/>
<text x="700" y="128" fill="#cdd6f4" font-size="11" text-anchor="middle">0.188</text>
</svg>