<svg xmlns="http://www.w3.org/2000/svg" width="1240" height="350" style="background:#1e1e2e;font-family:monospace">
<text x="620" y="22" fill="#cdd6f4" font-size="14" text-anchor="middle" font-weight="bold">Aggregate Algorithm Summary</text>
<text x="620" y="40" fill="#a6adc8" font-size="10" text-anchor="middle">Mean overall F1 and pitch accuracy across all songs.</text>
<line x1="60" y1="270" x2="1220" y2="270" stroke="#313244" stroke-width="1"/>
<text x="55" y="274" fill="#a6adc8" font-size="9" text-anchor="end">0.0</text>
<line x1="60" y1="230" x2="1220" y2="230" stroke="#313244" stroke-width="1"/>
<text x="55" y="234" fill="#a6adc8" font-size="9" text-anchor="end">0.2</text>
<line x1="60" y1="190" x2="1220" y2="190" stroke="#313244" stroke-width="1"/>
<text x="55" y="194" fill="#a6adc8" font-size="9" text-anchor="end">0.4</text>
<line x1="60" y1="150" x2="1220" y2="150" stroke="#313244" stroke-width="1"/>
<text x="55" y="154" fill="#a6adc8" font-size="9" text-anchor="end">0.6</text>
<line x1="60" y1="110" x2="1220" y2="110" stroke="#313244" stroke-width="1"/>
<text x="55" y="114" fill="#a6adc8" font-size="9" text-anchor="end">0.8</text>
<line x1="60" y1="70" x2="1220" y2="70" stroke="#313244" stroke-width="1"/>
<text x="55" y="74" fill="#a6adc8" font-size="9" text-anchor="end">1.0</text>
<rect x="70" y="251" width="26" height="19" fill="#56b6c2" rx="2"/>
<text x="84" y="247" fill="#56b6c2" font-size="8" text-anchor="middle">0.097</text>
<rect x="98" y="254" width="26" height="16" fill="#ff8f5a" rx="2"/>
<text x="112" y="250" fill="#ff8f5a" font-size="8" text-anchor="middle">0.084</text>
<text x="98" y="286" fill="#a6adc8" font-size="8" text-anchor="middle" transform="rotate(-20 98 286)">melodic_basic_pitch</text>
<rect x="146" y="254" width="26" height="16" fill="#56b6c2" rx="2"/>
<text x="160" y="250" fill="#56b6c2" font-size="8" text-anchor="middle">0.082</text>
<rect x="174" y="256" width="26" height="14" fill="#ff8f5a" rx="2"/>
<text x="188" y="252" fill="#ff8f5a" font-size="8" text-anchor="middle">0.073</text>
<text x="174" y="286" fill="#a6adc8" font-size="8" text-anchor="middle" transform="rotate(-20 174 286)">melodic_pyin</text>
<rect x="222" y="229" width="26" height="41" fill="#56b6c2" rx="2"/>
<text x="236" y="225" fill="#56b6c2" font-size="8" text-anchor="middle">0.207</text>
<rect x="250" y="232" width="26" height="38" fill="#ff8f5a" rx="2"/>
<text x="264" y="228" fill="#ff8f5a" font-size="8" text-anchor="middle">0.195</text>
<text x="250" y="286" fill="#a6adc8" font-size="8" text-anchor="middle" transform="rotate(-20 250 286)">melodic_yin</text>
<rect x="298" y="223" width="26" height="47" fill="#56b6c2" rx="2"/>
<text x="312" y="219" fill="#56b6c2" font-size="8" text-anchor="middle">0.237</text>
<rect x="326" y="237" width="26" height="33" fill="#ff8f5a" rx="2"/>
<text x="340" y="233" fill="#ff8f5a" font-size="8" text-anchor="middle">0.169</text>
<text x="326" y="286" fill="#a6adc8" font-size="8" text-anchor="middle" transform="rotate(-20 326 286)">melodic_onset_yin</text>
<rect x="374" y="223" width="26" height="47" fill="#56b6c2" rx="2"/>
<text x="388" y="219" fill="#56b6c2" font-size="8" text-anchor="middle">0.240</text>
<rect x="402" y="233" width="26" height="37" fill="#ff8f5a" rx="2"/>
<text x="416" y="229" fill="#ff8f5a" font-size="8" text-anchor="middle">0.187</text>
<text x="402" y="286" fill="#a6adc8" font-size="8" text-anchor="middle" transform="rotate(-20 402 286)">melodic_hpss_yin</text>
<rect x="450" y="221" width="26" height="49" fill="#56b6c2" rx="2"/>
<text x="464" y="217" fill="#56b6c2" font-size="8" text-anchor="middle">0.250</text>
<rect x="478" y="230" width="26" height="40" fill="#ff8f5a" rx="2"/>
<text x="492" y="226" fill="#ff8f5a" font-size="8" text-anchor="middle">0.202</text>
<text x="478" y="286" fill="#a6adc8" font-size="8" text-anchor="middle" transform="rotate(-20 478 286)">melodic_fft_hps</text>
<rect x="526" y="246" width="26" height="24" fill="#56b6c2" rx="2"/>
<text x="540" y="242" fill="#56b6c2" font-size="8" text-anchor="middle">0.121</text>
<rect x="554" y="225" width="26" height="45" fill="#ff8f5a" rx="2"/>
<text x="568" y="221" fill="#ff8f5a" font-size="8" text-anchor="middle">0.225</text>
<text x="554" y="286" fill="#a6adc8" font-size="8" text-anchor="middle" transform="rotate(-20 554 286)">melodic_librosa_pyin</text>
<rect x="602" y="229" width="26" height="41" fill="#56b6c2" rx="2"/>
<text x="616" y="225" fill="#56b6c2" font-size="8" text-anchor="middle">0.207</text>
<rect x="630" y="229" width="26" height="41" fill="#ff8f5a" rx="2"/>
<text x="644" y="225" fill="#ff8f5a" font-size="8" text-anchor="middle">0.207</text>
<text x="630" y="286" fill="#a6adc8" font-size="8" text-anchor="middle" transform="rotate(-20 630 286)">melodic_yin_t020</text>
<rect x="678" y="221" width="26" height="49" fill="#56b6c2" rx="2"/>
<text x="692" y="217" fill="#56b6c2" font-size="8" text-anchor="middle">0.247</text>
<rect x="706" y="233" width="26" height="37" fill="#ff8f5a" rx="2"/>
<text x="720" y="229" fill="#ff8f5a" font-size="8" text-anchor="middle">0.187</text>
<text x="706" y="286" fill="#a6adc8" font-size="8" text-anchor="middle" transform="rotate(-20 706 286)">melodic_yin_bass80</text>
<rect x="754" y="212" width="26" height="58" fill="#56b6c2" rx="2"/>
<text x="768" y="208" fill="#56b6c2" font-size="8" text-anchor="middle">0.295</text>
<rect x="782" y="236" width="26" height="34" fill="#ff8f5a" rx="2"/>
<text x="796" y="232" fill="#ff8f5a" font-size="8" text-anchor="middle">0.174</text>
<text x="782" y="286" fill="#a6adc8" font-size="8" text-anchor="middle" transform="rotate(-20 782 286)">melodic_combined</text>
<rect x="830" y="218" width="26" height="52" fill="#56b6c2" rx="2"/>
<text x="844" y="214" fill="#56b6c2" font-size="8" text-anchor="middle">0.265</text>
<rect x="858" y="238" width="26" height="32" fill="#ff8f5a" rx="2"/>
<text x="872" y="234" fill="#ff8f5a" font-size="8" text-anchor="middle">0.165</text>
<text x="858" y="286" fill="#a6adc8" font-size="8" text-anchor="middle" transform="rotate(-20 858 286)">melodic_hpss_onset</text>
<rect x="906" y="236" width="26" height="34" fill="#56b6c2" rx="2"/>
<text x="920" y="232" fill="#56b6c2" font-size="8" text-anchor="middle">0.175</text>
<rect x="934" y="236" width="26" height="34" fill="#ff8f5a" rx="2"/>
<text x="948" y="232" fill="#ff8f5a" font-size="8" text-anchor="middle">0.173</text>
<text x="934" y="286" fill="#a6adc8" font-size="8" text-anchor="middle" transform="rotate(-20 934 286)">melodic_pyin_long</text>
<rect x="982" y="212" width="26" height="58" fill="#56b6c2" rx="2"/>
<text x="996" y="208" fill="#56b6c2" font-size="8" text-anchor="middle">0.295</text>
<rect x="1010" y="232" width="26" height="38" fill="#ff8f5a" rx="2"/>
<text x="1024" y="228" fill="#ff8f5a" font-size="8" text-anchor="middle">0.192</text>
<text x="1010" y="286" fill="#a6adc8" font-size="8" text-anchor="middle" transform="rotate(-20 1010 286)">melodic_octave_fix</text>
<rect x="1058" y="216" width="26" height="54" fill="#56b6c2" rx="2"/>
<text x="1072" y="212" fill="#56b6c2" font-size="8" text-anchor="middle">0.272</text>
<rect x="1086" y="232" width="26" height="38" fill="#ff8f5a" rx="2"/>
<text x="1100" y="228" fill="#ff8f5a" font-size="8" text-anchor="middle">0.191</text>
<text x="1086" y="286" fill="#a6adc8" font-size="8" text-anchor="middle" transform="rotate(-20 1086 286)">melodic_adaptive</text>
<rect x="1134" y="212" width="26" height="58" fill="#56b6c2" rx="2"/>
<text x="1148" y="208" fill="#56b6c2" font-size="8" text-anchor="middle">0.290</text>
<rect x="1162" y="237" width="26" height="33" fill="#ff8f5a" rx="2"/>
<text x="1176" y="233" fill="#ff8f5a" font-size="8" text-anchor="middle">0.168</text>
<text x="1162" y="286" fill="#a6adc8" font-size="8" text-anchor="middle" transform="rotate(-20 1162 286)">melodic_hpss_combined</text>
<rect x="60" y="322" width="12" height="12" fill="#56b6c2" rx="2"/>
<text x="76" y="332" fill="#cdd6f4" font-size="9">Mean F1</text>
<rect x="220" y="322" width="12" height="12" fill="#ff8f5a" rx="2"/>
<text x="236" y="332" fill="#cdd6f4" font-size="9">Pitch Acc</text>
</svg>