<svg xmlns="http://www.w3.org/2000/svg" width="768" height="670" style="background:#1e1e2e;font-family:monospace">
<text x="384" y="22" fill="#cdd6f4" font-size="14" text-anchor="middle" font-weight="bold">Bass F1 by Song</text>
<text x="384" y="40" fill="#a6adc8" font-size="10" text-anchor="middle">Per-song F1 for bass instrument tracks.</text>
<text x="228" y="62" fill="#a6adc8" font-size="9" text-anchor="end" transform="rotate(-35 228 62)">psalm_1_bass</text>
<text x="308" y="62" fill="#a6adc8" font-size="9" text-anchor="end" transform="rotate(-35 308 62)">psalm_2_bass</text>
<text x="388" y="62" fill="#a6adc8" font-size="9" text-anchor="end" transform="rotate(-35 388 62)">psalm_3_bass</text>
<text x="468" y="62" fill="#a6adc8" font-size="9" text-anchor="end" transform="rotate(-35 468 62)">psalm_4_bass</text>
<text x="548" y="62" fill="#a6adc8" font-size="9" text-anchor="end" transform="rotate(-35 548 62)">psalm_5_bass</text>
<text x="628" y="62" fill="#a6adc8" font-size="9" text-anchor="end" transform="rotate(-35 628 62)">psalm_6_bass</text>
<text x="708" y="62" fill="#a6adc8" font-size="9" text-anchor="end" transform="rotate(-35 708 62)">psalm_7_bass</text>
<text x="180" y="92" fill="#cdd6f4" font-size="10" text-anchor="end">melodic_basic_pitch</text>
<rect x="188" y="70" width="78" height="34" fill="#f15e3a" rx="3"/>
<text x="228" y="92" fill="#cdd6f4" font-size="11" text-anchor="middle">0.097</text>
<rect x="268" y="70" width="78" height="34" fill="#f48b2b" rx="3"/>
<text x="308" y="92" fill="#cdd6f4" font-size="11" text-anchor="middle">0.264</text>
<rect x="348" y="70" width="78" height="34" fill="#ef4d40" rx="3"/>
<text x="388" y="92" fill="#cdd6f4" font-size="11" text-anchor="middle">0.034</text>
<rect x="428" y="70" width="78" height="34" fill="#ef4842" rx="3"/>
<text x="468" y="92" fill="#cdd6f4" font-size="11" text-anchor="middle">0.017</text>
<rect x="508" y="70" width="78" height="34" fill="#f0553d" rx="3"/>
<text x="548" y="92" fill="#cdd6f4" font-size="11" text-anchor="middle">0.066</text>
<rect x="588" y="70" width="78" height="34" fill="#f26e35" rx="3"/>
<text x="628" y="92" fill="#cdd6f4" font-size="11" text-anchor="middle">0.155</text>
<rect x="668" y="70" width="78" height="34" fill="#ef503f" rx="3"/>
<text x="708" y="92" fill="#cdd6f4" font-size="11" text-anchor="middle">0.045</text>
<text x="180" y="128" fill="#cdd6f4" font-size="10" text-anchor="end">melodic_pyin</text>
<rect x="188" y="106" width="78" height="34" fill="#f0593c" rx="3"/>
<text x="228" y="128" fill="#cdd6f4" font-size="11" text-anchor="middle">0.078</text>
<rect x="268" y="106" width="78" height="34" fill="#f59926" rx="3"/>
<text x="308" y="128" fill="#cdd6f4" font-size="11" text-anchor="middle">0.315</text>
<rect x="348" y="106" width="78" height="34" fill="#ef4942" rx="3"/>
<text x="388" y="128" fill="#cdd6f4" font-size="11" text-anchor="middle">0.019</text>
<rect x="428" y="106" width="78" height="34" fill="#ef4a41" rx="3"/>
<text x="468" y="128" fill="#cdd6f4" font-size="11" text-anchor="middle">0.024</text>
<rect x="508" y="106" width="78" height="34" fill="#ef503f" rx="3"/>
<text x="548" y="128" fill="#cdd6f4" font-size="11" text-anchor="middle">0.045</text>
<rect x="588" y="106" width="78" height="34" fill="#f26f34" rx="3"/>
<text x="628" y="128" fill="#cdd6f4" font-size="11" text-anchor="middle">0.161</text>
<rect x="668" y="106" width="78" height="34" fill="#ef4f3f" rx="3"/>
<text x="708" y="128" fill="#cdd6f4" font-size="11" text-anchor="middle">0.043</text>
<text x="180" y="164" fill="#cdd6f4" font-size="10" text-anchor="end">melodic_yin</text>
<rect x="188" y="142" width="78" height="34" fill="#f4872c" rx="3"/>
<text x="228" y="164" fill="#cdd6f4" font-size="11" text-anchor="middle">0.248</text>
<rect x="268" y="142" width="78" height="34" fill="#f9c616" rx="3"/>
<text x="308" y="164" fill="#1e1e2e" font-size="11" text-anchor="middle">0.480</text>
<rect x="348" y="142" width="78" height="34" fill="#f26c36" rx="3"/>
<text x="388" y="164" fill="#cdd6f4" font-size="11" text-anchor="middle">0.148</text>
<rect x="428" y="142" width="78" height="34" fill="#f59029" rx="3"/>
<text x="468" y="164" fill="#cdd6f4" font-size="11" text-anchor="middle">0.280</text>
<rect x="508" y="142" width="78" height="34" fill="#f37f2f" rx="3"/>
<text x="548" y="164" fill="#cdd6f4" font-size="11" text-anchor="middle">0.219</text>
<rect x="588" y="142" width="78" height="34" fill="#f69c25" rx="3"/>
<text x="628" y="164" fill="#cdd6f4" font-size="11" text-anchor="middle">0.324</text>
<rect x="668" y="142" width="78" height="34" fill="#f26c36" rx="3"/>
<text x="708" y="164" fill="#cdd6f4" font-size="11" text-anchor="middle">0.148</text>
<text x="180" y="200" fill="#cdd6f4" font-size="10" text-anchor="end">melodic_onset_yin</text>
<rect x="188" y="178" width="78" height="34" fill="#f69c25" rx="3"/>
<text x="228" y="200" fill="#cdd6f4" font-size="11" text-anchor="middle">0.326</text>
<rect x="268" y="178" width="78" height="34" fill="#f1cb17" rx="3"/>
<text x="308" y="200" fill="#1e1e2e" font-size="11" text-anchor="middle">0.520</text>
<rect x="348" y="178" width="78" height="34" fill="#f37931" rx="3"/>
<text x="388" y="200" fill="#cdd6f4" font-size="11" text-anchor="middle">0.195</text>
<rect x="428" y="178" width="78" height="34" fill="#f48d2a" rx="3"/>
<text x="468" y="200" fill="#cdd6f4" font-size="11" text-anchor="middle">0.269</text>
<rect x="508" y="178" width="78" height="34" fill="#f4882c" rx="3"/>
<text x="548" y="200" fill="#cdd6f4" font-size="11" text-anchor="middle">0.253</text>
<rect x="588" y="178" width="78" height="34" fill="#f7a721" rx="3"/>
<text x="628" y="200" fill="#cdd6f4" font-size="11" text-anchor="middle">0.366</text>
<rect x="668" y="178" width="78" height="34" fill="#f26e35" rx="3"/>
<text x="708" y="200" fill="#cdd6f4" font-size="11" text-anchor="middle">0.155</text>
<text x="180" y="236" fill="#cdd6f4" font-size="10" text-anchor="end">melodic_hpss_yin</text>
<rect x="188" y="214" width="78" height="34" fill="#f4882c" rx="3"/>
<text x="228" y="236" fill="#cdd6f4" font-size="11" text-anchor="middle">0.251</text>
<rect x="268" y="214" width="78" height="34" fill="#f9c517" rx="3"/>
<text x="308" y="236" fill="#1e1e2e" font-size="11" text-anchor="middle">0.476</text>
<rect x="348" y="214" width="78" height="34" fill="#f26d35" rx="3"/>
<text x="388" y="236" fill="#cdd6f4" font-size="11" text-anchor="middle">0.154</text>
<rect x="428" y="214" width="78" height="34" fill="#f59328" rx="3"/>
<text x="468" y="236" fill="#cdd6f4" font-size="11" text-anchor="middle">0.291</text>
<rect x="508" y="214" width="78" height="34" fill="#f37b30" rx="3"/>
<text x="548" y="236" fill="#cdd6f4" font-size="11" text-anchor="middle">0.205</text>
<rect x="588" y="214" width="78" height="34" fill="#f69b25" rx="3"/>
<text x="628" y="236" fill="#cdd6f4" font-size="11" text-anchor="middle">0.323</text>
<rect x="668" y="214" width="78" height="34" fill="#f26c36" rx="3"/>
<text x="708" y="236" fill="#cdd6f4" font-size="11" text-anchor="middle">0.149</text>
<text x="180" y="272" fill="#cdd6f4" font-size="10" text-anchor="end">melodic_fft_hps</text>
<rect x="188" y="250" width="78" height="34" fill="#f8b61c" rx="3"/>
<text x="228" y="272" fill="#1e1e2e" font-size="11" text-anchor="middle">0.421</text>
<rect x="268" y="250" width="78" height="34" fill="#eccb19" rx="3"/>
<text x="308" y="272" fill="#1e1e2e" font-size="11" text-anchor="middle">0.531</text>
<rect x="348" y="250" width="78" height="34" fill="#f37632" rx="3"/>
<text x="388" y="272" fill="#cdd6f4" font-size="11" text-anchor="middle">0.186</text>
<rect x="428" y="250" width="78" height="34" fill="#f59328" rx="3"/>
<text x="468" y="272" fill="#cdd6f4" font-size="11" text-anchor="middle">0.291</text>
<rect x="508" y="250" width="78" height="34" fill="#f4812e" rx="3"/>
<text x="548" y="272" fill="#cdd6f4" font-size="11" text-anchor="middle">0.228</text>
<rect x="588" y="250" width="78" height="34" fill="#f4872c" rx="3"/>
<text x="628" y="272" fill="#cdd6f4" font-size="11" text-anchor="middle">0.250</text>
<rect x="668" y="250" width="78" height="34" fill="#f27433" rx="3"/>
<text x="708" y="272" fill="#cdd6f4" font-size="11" text-anchor="middle">0.178</text>
<text x="180" y="308" fill="#cdd6f4" font-size="10" text-anchor="end">melodic_librosa_pyin</text>
<rect x="188" y="286" width="78" height="34" fill="#f05c3b" rx="3"/>
<text x="228" y="308" fill="#cdd6f4" font-size="11" text-anchor="middle">0.091</text>
<rect x="268" y="286" width="78" height="34" fill="#f4852d" rx="3"/>
<text x="308" y="308" fill="#cdd6f4" font-size="11" text-anchor="middle">0.239</text>
<rect x="348" y="286" width="78" height="34" fill="#f0563d" rx="3"/>
<text x="388" y="308" fill="#cdd6f4" font-size="11" text-anchor="middle">0.067</text>
<rect x="428" y="286" width="78" height="34" fill="#f16837" rx="3"/>
<text x="468" y="308" fill="#cdd6f4" font-size="11" text-anchor="middle">0.132</text>
<rect x="508" y="286" width="78" height="34" fill="#f26a36" rx="3"/>
<text x="548" y="308" fill="#cdd6f4" font-size="11" text-anchor="middle">0.141</text>
<rect x="588" y="286" width="78" height="34" fill="#f4832d" rx="3"/>
<text x="628" y="308" fill="#cdd6f4" font-size="11" text-anchor="middle">0.234</text>
<rect x="668" y="286" width="78" height="34" fill="#ef4f40" rx="3"/>
<text x="708" y="308" fill="#cdd6f4" font-size="11" text-anchor="middle">0.041</text>
<text x="180" y="344" fill="#cdd6f4" font-size="10" text-anchor="end">melodic_yin_t020</text>
<rect x="188" y="322" width="78" height="34" fill="#f4832d" rx="3"/>
<text x="228" y="344" fill="#cdd6f4" font-size="11" text-anchor="middle">0.235</text>
<rect x="268" y="322" width="78" height="34" fill="#f9c317" rx="3"/>
<text x="308" y="344" fill="#1e1e2e" font-size="11" text-anchor="middle">0.469</text>
<rect x="348" y="322" width="78" height="34" fill="#f26b36" rx="3"/>
<text x="388" y="344" fill="#cdd6f4" font-size="11" text-anchor="middle">0.145</text>
<rect x="428" y="322" width="78" height="34" fill="#f58e2a" rx="3"/>
<text x="468" y="344" fill="#cdd6f4" font-size="11" text-anchor="middle">0.276</text>
<rect x="508" y="322" width="78" height="34" fill="#f37c30" rx="3"/>
<text x="548" y="344" fill="#cdd6f4" font-size="11" text-anchor="middle">0.209</text>
<rect x="588" y="322" width="78" height="34" fill="#f6a123" rx="3"/>
<text x="628" y="344" fill="#cdd6f4" font-size="11" text-anchor="middle">0.343</text>
<rect x="668" y="322" width="78" height="34" fill="#f26f35" rx="3"/>
<text x="708" y="344" fill="#cdd6f4" font-size="11" text-anchor="middle">0.159</text>
<text x="180" y="380" fill="#cdd6f4" font-size="10" text-anchor="end">melodic_yin_bass80</text>
<rect x="188" y="358" width="78" height="34" fill="#f7aa20" rx="3"/>
<text x="228" y="380" fill="#cdd6f4" font-size="11" text-anchor="middle">0.377</text>
<rect x="268" y="358" width="78" height="34" fill="#cfca23" rx="3"/>
<text x="308" y="380" fill="#1e1e2e" font-size="11" text-anchor="middle">0.598</text>
<rect x="348" y="358" width="78" height="34" fill="#f4842d" rx="3"/>
<text x="388" y="380" fill="#cdd6f4" font-size="11" text-anchor="middle">0.238</text>
<rect x="428" y="358" width="78" height="34" fill="#f8b91b" rx="3"/>
<text x="468" y="380" fill="#1e1e2e" font-size="11" text-anchor="middle">0.431</text>
<rect x="508" y="358" width="78" height="34" fill="#f37931" rx="3"/>
<text x="548" y="380" fill="#cdd6f4" font-size="11" text-anchor="middle">0.195</text>
<rect x="588" y="358" width="78" height="34" fill="#f7a821" rx="3"/>
<text x="628" y="380" fill="#cdd6f4" font-size="11" text-anchor="middle">0.371</text>
<rect x="668" y="358" width="78" height="34" fill="#f27333" rx="3"/>
<text x="708" y="380" fill="#cdd6f4" font-size="11" text-anchor="middle">0.173</text>
<text x="180" y="416" fill="#cdd6f4" font-size="10" text-anchor="end">melodic_combined</text>
<rect x="188" y="394" width="78" height="34" fill="#f6cb16" rx="3"/>
<text x="228" y="416" fill="#1e1e2e" font-size="11" text-anchor="middle">0.508</text>
<rect x="268" y="394" width="78" height="34" fill="#e8cb1a" rx="3"/>
<text x="308" y="416" fill="#1e1e2e" font-size="11" text-anchor="middle">0.540</text>
<rect x="348" y="394" width="78" height="34" fill="#f4862d" rx="3"/>
<text x="388" y="416" fill="#cdd6f4" font-size="11" text-anchor="middle">0.243</text>
<rect x="428" y="394" width="78" height="34" fill="#f59727" rx="3"/>
<text x="468" y="416" fill="#cdd6f4" font-size="11" text-anchor="middle">0.306</text>
<rect x="508" y="394" width="78" height="34" fill="#f59727" rx="3"/>
<text x="548" y="416" fill="#cdd6f4" font-size="11" text-anchor="middle">0.308</text>
<rect x="588" y="394" width="78" height="34" fill="#f7b21d" rx="3"/>
<text x="628" y="416" fill="#1e1e2e" font-size="11" text-anchor="middle">0.405</text>
<rect x="668" y="394" width="78" height="34" fill="#f37e2f" rx="3"/>
<text x="708" y="416" fill="#cdd6f4" font-size="11" text-anchor="middle">0.213</text>
<text x="180" y="452" fill="#cdd6f4" font-size="10" text-anchor="end">melodic_hpss_onset</text>
<rect x="188" y="430" width="78" height="34" fill="#f69d25" rx="3"/>
<text x="228" y="452" fill="#cdd6f4" font-size="11" text-anchor="middle">0.329</text>
<rect x="268" y="430" width="78" height="34" fill="#f0cb18" rx="3"/>
<text x="308" y="452" fill="#1e1e2e" font-size="11" text-anchor="middle">0.523</text>
<rect x="348" y="430" width="78" height="34" fill="#f37931" rx="3"/>
<text x="388" y="452" fill="#cdd6f4" font-size="11" text-anchor="middle">0.197</text>
<rect x="428" y="430" width="78" height="34" fill="#f59029" rx="3"/>
<text x="468" y="452" fill="#cdd6f4" font-size="11" text-anchor="middle">0.281</text>
<rect x="508" y="430" width="78" height="34" fill="#f48a2b" rx="3"/>
<text x="548" y="452" fill="#cdd6f4" font-size="11" text-anchor="middle">0.260</text>
<rect x="588" y="430" width="78" height="34" fill="#f7a721" rx="3"/>
<text x="628" y="452" fill="#cdd6f4" font-size="11" text-anchor="middle">0.365</text>
<rect x="668" y="430" width="78" height="34" fill="#f27034" rx="3"/>
<text x="708" y="452" fill="#cdd6f4" font-size="11" text-anchor="middle">0.162</text>
<text x="180" y="488" fill="#cdd6f4" font-size="10" text-anchor="end">melodic_pyin_long</text>
<rect x="188" y="466" width="78" height="34" fill="#f6a422" rx="3"/>
<text x="228" y="488" fill="#cdd6f4" font-size="11" text-anchor="middle">0.354</text>
<rect x="268" y="466" width="78" height="34" fill="#f9c417" rx="3"/>
<text x="308" y="488" fill="#1e1e2e" font-size="11" text-anchor="middle">0.471</text>
<rect x="348" y="466" width="78" height="34" fill="#f16538" rx="3"/>
<text x="388" y="488" fill="#cdd6f4" font-size="11" text-anchor="middle">0.124</text>
<rect x="428" y="466" width="78" height="34" fill="#f37632" rx="3"/>
<text x="468" y="488" fill="#cdd6f4" font-size="11" text-anchor="middle">0.187</text>
<rect x="508" y="466" width="78" height="34" fill="#f37a31" rx="3"/>
<text x="548" y="488" fill="#cdd6f4" font-size="11" text-anchor="middle">0.202</text>
<rect x="588" y="466" width="78" height="34" fill="#f59527" rx="3"/>
<text x="628" y="488" fill="#cdd6f4" font-size="11" text-anchor="middle">0.299</text>
<rect x="668" y="466" width="78" height="34" fill="#ef4f40" rx="3"/>
<text x="708" y="488" fill="#cdd6f4" font-size="11" text-anchor="middle">0.042</text>
<text x="180" y="524" fill="#cdd6f4" font-size="10" text-anchor="end">melodic_octave_fix</text>
<rect x="188" y="502" width="78" height="34" fill="#f6cb16" rx="3"/>
<text x="228" y="524" fill="#1e1e2e" font-size="11" text-anchor="middle">0.508</text>
<rect x="268" y="502" width="78" height="34" fill="#e8cb1a" rx="3"/>
<text x="308" y="524" fill="#1e1e2e" font-size="11" text-anchor="middle">0.540</text>
<rect x="348" y="502" width="78" height="34" fill="#f4862d" rx="3"/>
<text x="388" y="524" fill="#cdd6f4" font-size="11" text-anchor="middle">0.243</text>
<rect x="428" y="502" width="78" height="34" fill="#f59727" rx="3"/>
<text x="468" y="524" fill="#cdd6f4" font-size="11" text-anchor="middle">0.306</text>
<rect x="508" y="502" width="78" height="34" fill="#f59727" rx="3"/>
<text x="548" y="524" fill="#cdd6f4" font-size="11" text-anchor="middle">0.308</text>
<rect x="588" y="502" width="78" height="34" fill="#f7b21d" rx="3"/>
<text x="628" y="524" fill="#1e1e2e" font-size="11" text-anchor="middle">0.405</text>
<rect x="668" y="502" width="78" height="34" fill="#f37e2f" rx="3"/>
<text x="708" y="524" fill="#cdd6f4" font-size="11" text-anchor="middle">0.213</text>
<text x="180" y="560" fill="#cdd6f4" font-size="10" text-anchor="end">melodic_adaptive</text>
<rect x="188" y="538" width="78" height="34" fill="#f7ac1f" rx="3"/>
<text x="228" y="560" fill="#cdd6f4" font-size="11" text-anchor="middle">0.384</text>
<rect x="268" y="538" width="78" height="34" fill="#f2cb17" rx="3"/>
<text x="308" y="560" fill="#1e1e2e" font-size="11" text-anchor="middle">0.518</text>
<rect x="348" y="538" width="78" height="34" fill="#f37632" rx="3"/>
<text x="388" y="560" fill="#cdd6f4" font-size="11" text-anchor="middle">0.186</text>
<rect x="428" y="538" width="78" height="34" fill="#f59a26" rx="3"/>
<text x="468" y="560" fill="#cdd6f4" font-size="11" text-anchor="middle">0.317</text>
<rect x="508" y="538" width="78" height="34" fill="#f3802e" rx="3"/>
<text x="548" y="560" fill="#cdd6f4" font-size="11" text-anchor="middle">0.224</text>
<rect x="588" y="538" width="78" height="34" fill="#f6a223" rx="3"/>
<text x="628" y="560" fill="#cdd6f4" font-size="11" text-anchor="middle">0.348</text>
<rect x="668" y="538" width="78" height="34" fill="#f37532" rx="3"/>
<text x="708" y="560" fill="#cdd6f4" font-size="11" text-anchor="middle">0.183</text>
<text x="180" y="596" fill="#cdd6f4" font-size="10" text-anchor="end">melodic_hpss_combined</text>
<rect x="188" y="574" width="78" height="34" fill="#f8cb15" rx="3"/>
<text x="228" y="596" fill="#1e1e2e" font-size="11" text-anchor="middle">0.504</text>
<rect x="268" y="574" width="78" height="34" fill="#e8cb1a" rx="3"/>
<text x="308" y="596" fill="#1e1e2e" font-size="11" text-anchor="middle">0.539</text>
<rect x="348" y="574" width="78" height="34" fill="#f4852d" rx="3"/>
<text x="388" y="596" fill="#cdd6f4" font-size="11" text-anchor="middle">0.242</text>
<rect x="428" y="574" width="78" height="34" fill="#f69c25" rx="3"/>
<text x="468" y="596" fill="#cdd6f4" font-size="11" text-anchor="middle">0.326</text>
<rect x="508" y="574" width="78" height="34" fill="#f59029" rx="3"/>
<text x="548" y="596" fill="#cdd6f4" font-size="11" text-anchor="middle">0.281</text>
<rect x="588" y="574" width="78" height="34" fill="#f7b01e" rx="3"/>
<text x="628" y="596" fill="#cdd6f4" font-size="11" text-anchor="middle">0.398</text>
<rect x="668" y="574" width="78" height="34" fill="#f37c30" rx="3"/>
<text x="708" y="596" fill="#cdd6f4" font-size="11" text-anchor="middle">0.207</text>
</svg>