<svg xmlns="http://www.w3.org/2000/svg" width="1660" height="350" style="background:#1e1e2e;font-family:monospace">
<text x="830" y="22" fill="#cdd6f4" font-size="14" text-anchor="middle" font-weight="bold">Per-Instrument Mean F1</text>
<text x="830" y="40" fill="#a6adc8" font-size="10" text-anchor="middle">Algorithm performance broken down by instrument.</text>
<line x1="60" y1="270" x2="1640" y2="270" stroke="#313244" stroke-width="1"/>
<text x="55" y="274" fill="#a6adc8" font-size="9" text-anchor="end">0.0</text>
<line x1="60" y1="230" x2="1640" y2="230" stroke="#313244" stroke-width="1"/>
<text x="55" y="234" fill="#a6adc8" font-size="9" text-anchor="end">0.2</text>
<line x1="60" y1="190" x2="1640" y2="190" stroke="#313244" stroke-width="1"/>
<text x="55" y="194" fill="#a6adc8" font-size="9" text-anchor="end">0.4</text>
<line x1="60" y1="150" x2="1640" y2="150" stroke="#313244" stroke-width="1"/>
<text x="55" y="154" fill="#a6adc8" font-size="9" text-anchor="end">0.6</text>
<line x1="60" y1="110" x2="1640" y2="110" stroke="#313244" stroke-width="1"/>
<text x="55" y="114" fill="#a6adc8" font-size="9" text-anchor="end">0.8</text>
<line x1="60" y1="70" x2="1640" y2="70" stroke="#313244" stroke-width="1"/>
<text x="55" y="74" fill="#a6adc8" font-size="9" text-anchor="end">1.0</text>
<rect x="70" y="251" width="26" height="19" fill="#7bd389" rx="2"/>
<text x="84" y="247" fill="#7bd389" font-size="8" text-anchor="middle">0.097</text>
<rect x="98" y="266" width="26" height="4" fill="#ff8f5a" rx="2"/>
<text x="112" y="262" fill="#ff8f5a" font-size="8" text-anchor="middle">0.024</text>
<rect x="126" y="231" width="26" height="39" fill="#5aa9e6" rx="2"/>
<text x="140" y="227" fill="#5aa9e6" font-size="8" text-anchor="middle">0.197</text>
<text x="112" y="286" fill="#a6adc8" font-size="8" text-anchor="middle" transform="rotate(-20 112 286)">melodic_basic_pitch</text>
<rect x="174" y="251" width="26" height="19" fill="#7bd389" rx="2"/>
<text x="188" y="247" fill="#7bd389" font-size="8" text-anchor="middle">0.098</text>
<rect x="202" y="268" width="26" height="2" fill="#ff8f5a" rx="2"/>
<text x="216" y="264" fill="#ff8f5a" font-size="8" text-anchor="middle">0.012</text>
<rect x="230" y="239" width="26" height="31" fill="#5aa9e6" rx="2"/>
<text x="244" y="235" fill="#5aa9e6" font-size="8" text-anchor="middle">0.159</text>
<text x="216" y="286" fill="#a6adc8" font-size="8" text-anchor="middle" transform="rotate(-20 216 286)">melodic_pyin</text>
<rect x="278" y="218" width="26" height="52" fill="#7bd389" rx="2"/>
<text x="292" y="214" fill="#7bd389" font-size="8" text-anchor="middle">0.264</text>
<rect x="306" y="244" width="26" height="26" fill="#ff8f5a" rx="2"/>
<text x="320" y="240" fill="#ff8f5a" font-size="8" text-anchor="middle">0.132</text>
<rect x="334" y="224" width="26" height="46" fill="#5aa9e6" rx="2"/>
<text x="348" y="220" fill="#5aa9e6" font-size="8" text-anchor="middle">0.232</text>
<text x="320" y="286" fill="#a6adc8" font-size="8" text-anchor="middle" transform="rotate(-20 320 286)">melodic_yin</text>
<rect x="382" y="211" width="26" height="59" fill="#7bd389" rx="2"/>
<text x="396" y="207" fill="#7bd389" font-size="8" text-anchor="middle">0.298</text>
<rect x="410" y="235" width="26" height="35" fill="#ff8f5a" rx="2"/>
<text x="424" y="231" fill="#ff8f5a" font-size="8" text-anchor="middle">0.178</text>
<rect x="438" y="223" width="26" height="47" fill="#5aa9e6" rx="2"/>
<text x="452" y="219" fill="#5aa9e6" font-size="8" text-anchor="middle">0.235</text>
<text x="424" y="286" fill="#a6adc8" font-size="8" text-anchor="middle" transform="rotate(-20 424 286)">melodic_onset_yin</text>
<rect x="486" y="218" width="26" height="52" fill="#7bd389" rx="2"/>
<text x="500" y="214" fill="#7bd389" font-size="8" text-anchor="middle">0.264</text>
<rect x="514" y="230" width="26" height="40" fill="#ff8f5a" rx="2"/>
<text x="528" y="226" fill="#ff8f5a" font-size="8" text-anchor="middle">0.201</text>
<rect x="542" y="218" width="26" height="52" fill="#5aa9e6" rx="2"/>
<text x="556" y="214" fill="#5aa9e6" font-size="8" text-anchor="middle">0.260</text>
<text x="528" y="286" fill="#a6adc8" font-size="8" text-anchor="middle" transform="rotate(-20 528 286)">melodic_hpss_yin</text>
<rect x="590" y="211" width="26" height="59" fill="#7bd389" rx="2"/>
<text x="604" y="207" fill="#7bd389" font-size="8" text-anchor="middle">0.298</text>
<rect x="618" y="233" width="26" height="37" fill="#ff8f5a" rx="2"/>
<text x="632" y="229" fill="#ff8f5a" font-size="8" text-anchor="middle">0.186</text>
<rect x="646" y="216" width="26" height="54" fill="#5aa9e6" rx="2"/>
<text x="660" y="212" fill="#5aa9e6" font-size="8" text-anchor="middle">0.272</text>
<text x="632" y="286" fill="#a6adc8" font-size="8" text-anchor="middle" transform="rotate(-20 632 286)">melodic_fft_hps</text>
<rect x="694" y="244" width="26" height="26" fill="#7bd389" rx="2"/>
<text x="708" y="240" fill="#7bd389" font-size="8" text-anchor="middle">0.135</text>
<rect x="722" y="251" width="26" height="19" fill="#ff8f5a" rx="2"/>
<text x="736" y="247" fill="#ff8f5a" font-size="8" text-anchor="middle">0.097</text>
<rect x="750" y="244" width="26" height="26" fill="#5aa9e6" rx="2"/>
<text x="764" y="240" fill="#5aa9e6" font-size="8" text-anchor="middle">0.135</text>
<text x="736" y="286" fill="#a6adc8" font-size="8" text-anchor="middle" transform="rotate(-20 736 286)">melodic_librosa_pyin</text>
<rect x="798" y="218" width="26" height="52" fill="#7bd389" rx="2"/>
<text x="812" y="214" fill="#7bd389" font-size="8" text-anchor="middle">0.262</text>
<rect x="826" y="244" width="26" height="26" fill="#ff8f5a" rx="2"/>
<text x="840" y="240" fill="#ff8f5a" font-size="8" text-anchor="middle">0.132</text>
<rect x="854" y="224" width="26" height="46" fill="#5aa9e6" rx="2"/>
<text x="868" y="220" fill="#5aa9e6" font-size="8" text-anchor="middle">0.234</text>
<text x="840" y="286" fill="#a6adc8" font-size="8" text-anchor="middle" transform="rotate(-20 840 286)">melodic_yin_t020</text>
<rect x="902" y="202" width="26" height="68" fill="#7bd389" rx="2"/>
<text x="916" y="198" fill="#7bd389" font-size="8" text-anchor="middle">0.340</text>
<rect x="930" y="242" width="26" height="28" fill="#ff8f5a" rx="2"/>
<text x="944" y="238" fill="#ff8f5a" font-size="8" text-anchor="middle">0.140</text>
<rect x="958" y="217" width="26" height="53" fill="#5aa9e6" rx="2"/>
<text x="972" y="213" fill="#5aa9e6" font-size="8" text-anchor="middle">0.266</text>
<text x="944" y="286" fill="#a6adc8" font-size="8" text-anchor="middle" transform="rotate(-20 944 286)">melodic_yin_bass80</text>
<rect x="1006" y="198" width="26" height="72" fill="#7bd389" rx="2"/>
<text x="1020" y="194" fill="#7bd389" font-size="8" text-anchor="middle">0.361</text>
<rect x="1034" y="220" width="26" height="50" fill="#ff8f5a" rx="2"/>
<text x="1048" y="216" fill="#ff8f5a" font-size="8" text-anchor="middle">0.251</text>
<rect x="1062" y="218" width="26" height="52" fill="#5aa9e6" rx="2"/>
<text x="1076" y="214" fill="#5aa9e6" font-size="8" text-anchor="middle">0.263</text>
<text x="1048" y="286" fill="#a6adc8" font-size="8" text-anchor="middle" transform="rotate(-20 1048 286)">melodic_combined</text>
<rect x="1110" y="210" width="26" height="60" fill="#7bd389" rx="2"/>
<text x="1124" y="206" fill="#7bd389" font-size="8" text-anchor="middle">0.302</text>
<rect x="1138" y="223" width="26" height="47" fill="#ff8f5a" rx="2"/>
<text x="1152" y="219" fill="#ff8f5a" font-size="8" text-anchor="middle">0.240</text>
<rect x="1166" y="221" width="26" height="49" fill="#5aa9e6" rx="2"/>
<text x="1180" y="217" fill="#5aa9e6" font-size="8" text-anchor="middle">0.248</text>
<text x="1152" y="286" fill="#a6adc8" font-size="8" text-anchor="middle" transform="rotate(-20 1152 286)">melodic_hpss_onset</text>
<rect x="1214" y="223" width="26" height="47" fill="#7bd389" rx="2"/>
<text x="1228" y="219" fill="#7bd389" font-size="8" text-anchor="middle">0.240</text>
<rect x="1242" y="240" width="26" height="30" fill="#ff8f5a" rx="2"/>
<text x="1256" y="236" fill="#ff8f5a" font-size="8" text-anchor="middle">0.152</text>
<rect x="1270" y="247" width="26" height="23" fill="#5aa9e6" rx="2"/>
<text x="1284" y="243" fill="#5aa9e6" font-size="8" text-anchor="middle">0.116</text>
<text x="1256" y="286" fill="#a6adc8" font-size="8" text-anchor="middle" transform="rotate(-20 1256 286)">melodic_pyin_long</text>
<rect x="1318" y="198" width="26" height="72" fill="#7bd389" rx="2"/>
<text x="1332" y="194" fill="#7bd389" font-size="8" text-anchor="middle">0.361</text>
<rect x="1346" y="220" width="26" height="50" fill="#ff8f5a" rx="2"/>
<text x="1360" y="216" fill="#ff8f5a" font-size="8" text-anchor="middle">0.251</text>
<rect x="1374" y="218" width="26" height="52" fill="#5aa9e6" rx="2"/>
<text x="1388" y="214" fill="#5aa9e6" font-size="8" text-anchor="middle">0.263</text>
<text x="1360" y="286" fill="#a6adc8" font-size="8" text-anchor="middle" transform="rotate(-20 1360 286)">melodic_octave_fix</text>
<rect x="1422" y="209" width="26" height="61" fill="#7bd389" rx="2"/>
<text x="1436" y="205" fill="#7bd389" font-size="8" text-anchor="middle">0.309</text>
<rect x="1450" y="222" width="26" height="48" fill="#ff8f5a" rx="2"/>
<text x="1464" y="218" fill="#ff8f5a" font-size="8" text-anchor="middle">0.243</text>
<rect x="1478" y="218" width="26" height="52" fill="#5aa9e6" rx="2"/>
<text x="1492" y="214" fill="#5aa9e6" font-size="8" text-anchor="middle">0.263</text>
<text x="1464" y="286" fill="#a6adc8" font-size="8" text-anchor="middle" transform="rotate(-20 1464 286)">melodic_adaptive</text>
<rect x="1526" y="199" width="26" height="71" fill="#7bd389" rx="2"/>
<text x="1540" y="195" fill="#7bd389" font-size="8" text-anchor="middle">0.357</text>
<rect x="1554" y="218" width="26" height="52" fill="#ff8f5a" rx="2"/>
<text x="1568" y="214" fill="#ff8f5a" font-size="8" text-anchor="middle">0.264</text>
<rect x="1582" y="224" width="26" height="46" fill="#5aa9e6" rx="2"/>
<text x="1596" y="220" fill="#5aa9e6" font-size="8" text-anchor="middle">0.233</text>
<text x="1568" y="286" fill="#a6adc8" font-size="8" text-anchor="middle" transform="rotate(-20 1568 286)">melodic_hpss_combined</text>
<rect x="60" y="322" width="12" height="12" fill="#7bd389" rx="2"/>
<text x="76" y="332" fill="#cdd6f4" font-size="9">bass</text>
<rect x="220" y="322" width="12" height="12" fill="#ff8f5a" rx="2"/>
<text x="236" y="332" fill="#cdd6f4" font-size="9">lead_guitar</text>
<rect x="380" y="322" width="12" height="12" fill="#5aa9e6" rx="2"/>
<text x="396" y="332" fill="#cdd6f4" font-size="9">keys</text>
</svg>