<svg xmlns="http://www.w3.org/2000/svg" width="1728" height="670" style="background:#1e1e2e;font-family:monospace">
<text x="864" y="22" fill="#cdd6f4" font-size="14" text-anchor="middle" font-weight="bold">Octave Error Rate by Song</text>
<text x="864" y="40" fill="#a6adc8" font-size="10" text-anchor="middle">Fraction of matched notes with correct chroma but wrong octave. Lower is better.</text>
<text x="228" y="62" fill="#a6adc8" font-size="9" text-anchor="end" transform="rotate(-35 228 62)">psalm_1_bass</text>
<text x="308" y="62" fill="#a6adc8" font-size="9" text-anchor="end" transform="rotate(-35 308 62)">psalm_1_guit</text>
<text x="388" y="62" fill="#a6adc8" font-size="9" text-anchor="end" transform="rotate(-35 388 62)">psalm_1_synt</text>
<text x="468" y="62" fill="#a6adc8" font-size="9" text-anchor="end" transform="rotate(-35 468 62)">psalm_2_bass</text>
<text x="548" y="62" fill="#a6adc8" font-size="9" text-anchor="end" transform="rotate(-35 548 62)">psalm_2_guit</text>
<text x="628" y="62" fill="#a6adc8" font-size="9" text-anchor="end" transform="rotate(-35 628 62)">psalm_2_synt</text>
<text x="708" y="62" fill="#a6adc8" font-size="9" text-anchor="end" transform="rotate(-35 708 62)">psalm_3_bass</text>
<text x="788" y="62" fill="#a6adc8" font-size="9" text-anchor="end" transform="rotate(-35 788 62)">psalm_3_guit</text>
<text x="868" y="62" fill="#a6adc8" font-size="9" text-anchor="end" transform="rotate(-35 868 62)">psalm_4_bass</text>
<text x="948" y="62" fill="#a6adc8" font-size="9" text-anchor="end" transform="rotate(-35 948 62)">psalm_4_guit</text>
<text x="1028" y="62" fill="#a6adc8" font-size="9" text-anchor="end" transform="rotate(-35 1028 62)">psalm_4_synt</text>
<text x="1108" y="62" fill="#a6adc8" font-size="9" text-anchor="end" transform="rotate(-35 1108 62)">psalm_5_bass</text>
<text x="1188" y="62" fill="#a6adc8" font-size="9" text-anchor="end" transform="rotate(-35 1188 62)">psalm_5_guit</text>
<text x="1268" y="62" fill="#a6adc8" font-size="9" text-anchor="end" transform="rotate(-35 1268 62)">psalm_5_synt</text>
<text x="1348" y="62" fill="#a6adc8" font-size="9" text-anchor="end" transform="rotate(-35 1348 62)">psalm_6_bass</text>
<text x="1428" y="62" fill="#a6adc8" font-size="9" text-anchor="end" transform="rotate(-35 1428 62)">psalm_6_guit</text>
<text x="1508" y="62" fill="#a6adc8" font-size="9" text-anchor="end" transform="rotate(-35 1508 62)">psalm_7_bass</text>
<text x="1588" y="62" fill="#a6adc8" font-size="9" text-anchor="end" transform="rotate(-35 1588 62)">psalm_7_guit</text>
<text x="1668" y="62" fill="#a6adc8" font-size="9" text-anchor="end" transform="rotate(-35 1668 62)">psalm_7_synt</text>
<text x="180" y="92" fill="#cdd6f4" font-size="10" text-anchor="end">melodic_basic_pitch</text>
<rect x="188" y="70" width="78" height="34" fill="#f15f3a" rx="3"/>
<text x="228" y="92" fill="#cdd6f4" font-size="11" text-anchor="middle">0.100</text>
<rect x="268" y="70" width="78" height="34" fill="#22c55e" rx="3"/>
<text x="308" y="92" fill="#1e1e2e" font-size="11" text-anchor="middle">1.000</text>
<rect x="348" y="70" width="78" height="34" fill="#f0563d" rx="3"/>
<text x="388" y="92" fill="#cdd6f4" font-size="11" text-anchor="middle">0.067</text>
<rect x="428" y="70" width="78" height="34" fill="#f16438" rx="3"/>
<text x="468" y="92" fill="#cdd6f4" font-size="11" text-anchor="middle">0.120</text>
<rect x="508" y="70" width="78" height="34" fill="#ef4444" rx="3"/>
<text x="548" y="92" fill="#cdd6f4" font-size="11" text-anchor="middle">0.000</text>
<rect x="588" y="70" width="78" height="34" fill="#f0593c" rx="3"/>
<text x="628" y="92" fill="#cdd6f4" font-size="11" text-anchor="middle">0.078</text>
<rect x="668" y="70" width="78" height="34" fill="#ef4444" rx="3"/>
<text x="708" y="92" fill="#cdd6f4" font-size="11" text-anchor="middle">0.000</text>
<rect x="748" y="70" width="78" height="34" fill="#f05c3b" rx="3"/>
<text x="788" y="92" fill="#cdd6f4" font-size="11" text-anchor="middle">0.091</text>
<rect x="828" y="70" width="78" height="34" fill="#ef4444" rx="3"/>
<text x="868" y="92" fill="#cdd6f4" font-size="11" text-anchor="middle">0.000</text>
<rect x="908" y="70" width="78" height="34" fill="#ef4444" rx="3"/>
<text x="948" y="92" fill="#cdd6f4" font-size="11" text-anchor="middle">0.000</text>
<rect x="988" y="70" width="78" height="34" fill="#f16438" rx="3"/>
<text x="1028" y="92" fill="#cdd6f4" font-size="11" text-anchor="middle">0.118</text>
<rect x="1068" y="70" width="78" height="34" fill="#ef4444" rx="3"/>
<text x="1108" y="92" fill="#cdd6f4" font-size="11" text-anchor="middle">0.000</text>
<rect x="1148" y="70" width="78" height="34" fill="#f05a3c" rx="3"/>
<text x="1188" y="92" fill="#cdd6f4" font-size="11" text-anchor="middle">0.083</text>
<rect x="1228" y="70" width="78" height="34" fill="#f0553e" rx="3"/>
<text x="1268" y="92" fill="#cdd6f4" font-size="11" text-anchor="middle">0.062</text>
<rect x="1308" y="70" width="78" height="34" fill="#f26f34" rx="3"/>
<text x="1348" y="92" fill="#cdd6f4" font-size="11" text-anchor="middle">0.160</text>
<rect x="1388" y="70" width="78" height="34" fill="#f59428" rx="3"/>
<text x="1428" y="92" fill="#cdd6f4" font-size="11" text-anchor="middle">0.296</text>
<rect x="1468" y="70" width="78" height="34" fill="#f05b3b" rx="3"/>
<text x="1508" y="92" fill="#cdd6f4" font-size="11" text-anchor="middle">0.088</text>
<rect x="1548" y="70" width="78" height="34" fill="#ef4444" rx="3"/>
<text x="1588" y="92" fill="#cdd6f4" font-size="11" text-anchor="middle">0.000</text>
<rect x="1628" y="70" width="78" height="34" fill="#ef4444" rx="3"/>
<text x="1668" y="92" fill="#cdd6f4" font-size="11" text-anchor="middle">0.000</text>
<text x="180" y="128" fill="#cdd6f4" font-size="10" text-anchor="end">melodic_pyin</text>
<rect x="188" y="106" width="78" height="34" fill="#ef4444" rx="3"/>
<text x="228" y="128" fill="#cdd6f4" font-size="11" text-anchor="middle">0.000</text>
<rect x="268" y="106" width="78" height="34" fill="#ef4444" rx="3"/>
<text x="308" y="128" fill="#cdd6f4" font-size="11" text-anchor="middle">0.000</text>
<rect x="348" y="106" width="78" height="34" fill="#f0543e" rx="3"/>
<text x="388" y="128" fill="#cdd6f4" font-size="11" text-anchor="middle">0.061</text>
<rect x="428" y="106" width="78" height="34" fill="#ef4f3f" rx="3"/>
<text x="468" y="128" fill="#cdd6f4" font-size="11" text-anchor="middle">0.044</text>
<rect x="508" y="106" width="78" height="34" fill="#ef4f40" rx="3"/>
<text x="548" y="128" fill="#cdd6f4" font-size="11" text-anchor="middle">0.042</text>
<rect x="588" y="106" width="78" height="34" fill="#f0503f" rx="3"/>
<text x="628" y="128" fill="#cdd6f4" font-size="11" text-anchor="middle">0.046</text>
<rect x="668" y="106" width="78" height="34" fill="#f05c3b" rx="3"/>
<text x="708" y="128" fill="#cdd6f4" font-size="11" text-anchor="middle">0.091</text>
<rect x="748" y="106" width="78" height="34" fill="#f27134" rx="3"/>
<text x="788" y="128" fill="#cdd6f4" font-size="11" text-anchor="middle">0.167</text>
<rect x="828" y="106" width="78" height="34" fill="#ef4444" rx="3"/>
<text x="868" y="128" fill="#cdd6f4" font-size="11" text-anchor="middle">0.000</text>
<rect x="908" y="106" width="78" height="34" fill="#ef4444" rx="3"/>
<text x="948" y="128" fill="#cdd6f4" font-size="11" text-anchor="middle">0.000</text>
<rect x="988" y="106" width="78" height="34" fill="#f0523f" rx="3"/>
<text x="1028" y="128" fill="#cdd6f4" font-size="11" text-anchor="middle">0.052</text>
<rect x="1068" y="106" width="78" height="34" fill="#f0583c" rx="3"/>
<text x="1108" y="128" fill="#cdd6f4" font-size="11" text-anchor="middle">0.077</text>
<rect x="1148" y="106" width="78" height="34" fill="#f16638" rx="3"/>
<text x="1188" y="128" fill="#cdd6f4" font-size="11" text-anchor="middle">0.125</text>
<rect x="1228" y="106" width="78" height="34" fill="#ef4444" rx="3"/>
<text x="1268" y="128" fill="#cdd6f4" font-size="11" text-anchor="middle">0.000</text>
<rect x="1308" y="106" width="78" height="34" fill="#f0593c" rx="3"/>
<text x="1348" y="128" fill="#cdd6f4" font-size="11" text-anchor="middle">0.080</text>
<rect x="1388" y="106" width="78" height="34" fill="#f37e2f" rx="3"/>
<text x="1428" y="128" fill="#cdd6f4" font-size="11" text-anchor="middle">0.214</text>
<rect x="1468" y="106" width="78" height="34" fill="#f26e35" rx="3"/>
<text x="1508" y="128" fill="#cdd6f4" font-size="11" text-anchor="middle">0.156</text>
<rect x="1548" y="106" width="78" height="34" fill="#facc15" rx="3"/>
<text x="1588" y="128" fill="#1e1e2e" font-size="11" text-anchor="middle">0.500</text>
<rect x="1628" y="106" width="78" height="34" fill="#ef4444" rx="3"/>
<text x="1668" y="128" fill="#cdd6f4" font-size="11" text-anchor="middle">0.000</text>
<text x="180" y="164" fill="#cdd6f4" font-size="10" text-anchor="end">melodic_yin</text>
<rect x="188" y="142" width="78" height="34" fill="#f4832e" rx="3"/>
<text x="228" y="164" fill="#cdd6f4" font-size="11" text-anchor="middle">0.233</text>
<rect x="268" y="142" width="78" height="34" fill="#f37632" rx="3"/>
<text x="308" y="164" fill="#cdd6f4" font-size="11" text-anchor="middle">0.185</text>
<rect x="348" y="142" width="78" height="34" fill="#f37931" rx="3"/>
<text x="388" y="164" fill="#cdd6f4" font-size="11" text-anchor="middle">0.195</text>
<rect x="428" y="142" width="78" height="34" fill="#f6a123" rx="3"/>
<text x="468" y="164" fill="#cdd6f4" font-size="11" text-anchor="middle">0.345</text>
<rect x="508" y="142" width="78" height="34" fill="#f7aa20" rx="3"/>
<text x="548" y="164" fill="#cdd6f4" font-size="11" text-anchor="middle">0.376</text>
<rect x="588" y="142" width="78" height="34" fill="#f48a2b" rx="3"/>
<text x="628" y="164" fill="#cdd6f4" font-size="11" text-anchor="middle">0.260</text>
<rect x="668" y="142" width="78" height="34" fill="#f16638" rx="3"/>
<text x="708" y="164" fill="#cdd6f4" font-size="11" text-anchor="middle">0.126</text>
<rect x="748" y="142" width="78" height="34" fill="#f15c3b" rx="3"/>
<text x="788" y="164" fill="#cdd6f4" font-size="11" text-anchor="middle">0.092</text>
<rect x="828" y="142" width="78" height="34" fill="#f27333" rx="3"/>
<text x="868" y="164" fill="#cdd6f4" font-size="11" text-anchor="middle">0.174</text>
<rect x="908" y="142" width="78" height="34" fill="#f37d30" rx="3"/>
<text x="948" y="164" fill="#cdd6f4" font-size="11" text-anchor="middle">0.210</text>
<rect x="988" y="142" width="78" height="34" fill="#f48c2a" rx="3"/>
<text x="1028" y="164" fill="#cdd6f4" font-size="11" text-anchor="middle">0.267</text>
<rect x="1068" y="142" width="78" height="34" fill="#f48d2a" rx="3"/>
<text x="1108" y="164" fill="#cdd6f4" font-size="11" text-anchor="middle">0.272</text>
<rect x="1148" y="142" width="78" height="34" fill="#f59328" rx="3"/>
<text x="1188" y="164" fill="#cdd6f4" font-size="11" text-anchor="middle">0.292</text>
<rect x="1228" y="142" width="78" height="34" fill="#f8b61c" rx="3"/>
<text x="1268" y="164" fill="#1e1e2e" font-size="11" text-anchor="middle">0.421</text>
<rect x="1308" y="142" width="78" height="34" fill="#f37931" rx="3"/>
<text x="1348" y="164" fill="#cdd6f4" font-size="11" text-anchor="middle">0.198</text>
<rect x="1388" y="142" width="78" height="34" fill="#f26a36" rx="3"/>
<text x="1428" y="164" fill="#cdd6f4" font-size="11" text-anchor="middle">0.142</text>
<rect x="1468" y="142" width="78" height="34" fill="#f58f29" rx="3"/>
<text x="1508" y="164" fill="#cdd6f4" font-size="11" text-anchor="middle">0.279</text>
<rect x="1548" y="142" width="78" height="34" fill="#f48b2b" rx="3"/>
<text x="1588" y="164" fill="#cdd6f4" font-size="11" text-anchor="middle">0.264</text>
<rect x="1628" y="142" width="78" height="34" fill="#f7b01e" rx="3"/>
<text x="1668" y="164" fill="#cdd6f4" font-size="11" text-anchor="middle">0.400</text>
<text x="180" y="200" fill="#cdd6f4" font-size="10" text-anchor="end">melodic_onset_yin</text>
<rect x="188" y="178" width="78" height="34" fill="#f26f34" rx="3"/>
<text x="228" y="200" fill="#cdd6f4" font-size="11" text-anchor="middle">0.161</text>
<rect x="268" y="178" width="78" height="34" fill="#f37831" rx="3"/>
<text x="308" y="200" fill="#cdd6f4" font-size="11" text-anchor="middle">0.194</text>
<rect x="348" y="178" width="78" height="34" fill="#f37632" rx="3"/>
<text x="388" y="200" fill="#cdd6f4" font-size="11" text-anchor="middle">0.187</text>
<rect x="428" y="178" width="78" height="34" fill="#f59029" rx="3"/>
<text x="468" y="200" fill="#cdd6f4" font-size="11" text-anchor="middle">0.281</text>
<rect x="508" y="178" width="78" height="34" fill="#f6a123" rx="3"/>
<text x="548" y="200" fill="#cdd6f4" font-size="11" text-anchor="middle">0.345</text>
<rect x="588" y="178" width="78" height="34" fill="#f4822e" rx="3"/>
<text x="628" y="200" fill="#cdd6f4" font-size="11" text-anchor="middle">0.229</text>
<rect x="668" y="178" width="78" height="34" fill="#f1603a" rx="3"/>
<text x="708" y="200" fill="#cdd6f4" font-size="11" text-anchor="middle">0.106</text>
<rect x="748" y="178" width="78" height="34" fill="#f15d3b" rx="3"/>
<text x="788" y="200" fill="#cdd6f4" font-size="11" text-anchor="middle">0.092</text>
<rect x="828" y="178" width="78" height="34" fill="#f27333" rx="3"/>
<text x="868" y="200" fill="#cdd6f4" font-size="11" text-anchor="middle">0.176</text>
<rect x="908" y="178" width="78" height="34" fill="#f37632" rx="3"/>
<text x="948" y="200" fill="#cdd6f4" font-size="11" text-anchor="middle">0.184</text>
<rect x="988" y="178" width="78" height="34" fill="#f48c2a" rx="3"/>
<text x="1028" y="200" fill="#cdd6f4" font-size="11" text-anchor="middle">0.266</text>
<rect x="1068" y="178" width="78" height="34" fill="#f37b30" rx="3"/>
<text x="1108" y="200" fill="#cdd6f4" font-size="11" text-anchor="middle">0.203</text>
<rect x="1148" y="178" width="78" height="34" fill="#f37d30" rx="3"/>
<text x="1188" y="200" fill="#cdd6f4" font-size="11" text-anchor="middle">0.212</text>
<rect x="1228" y="178" width="78" height="34" fill="#f8bb1a" rx="3"/>
<text x="1268" y="200" fill="#1e1e2e" font-size="11" text-anchor="middle">0.438</text>
<rect x="1308" y="178" width="78" height="34" fill="#f27233" rx="3"/>
<text x="1348" y="200" fill="#cdd6f4" font-size="11" text-anchor="middle">0.173</text>
<rect x="1388" y="178" width="78" height="34" fill="#f16638" rx="3"/>
<text x="1428" y="200" fill="#cdd6f4" font-size="11" text-anchor="middle">0.127</text>
<rect x="1468" y="178" width="78" height="34" fill="#f59029" rx="3"/>
<text x="1508" y="200" fill="#cdd6f4" font-size="11" text-anchor="middle">0.281</text>
<rect x="1548" y="178" width="78" height="34" fill="#f59029" rx="3"/>
<text x="1588" y="200" fill="#cdd6f4" font-size="11" text-anchor="middle">0.280</text>
<rect x="1628" y="178" width="78" height="34" fill="#f4882c" rx="3"/>
<text x="1668" y="200" fill="#cdd6f4" font-size="11" text-anchor="middle">0.250</text>
<text x="180" y="236" fill="#cdd6f4" font-size="10" text-anchor="end">melodic_hpss_yin</text>
<rect x="188" y="214" width="78" height="34" fill="#f3812e" rx="3"/>
<text x="228" y="236" fill="#cdd6f4" font-size="11" text-anchor="middle">0.227</text>
<rect x="268" y="214" width="78" height="34" fill="#f27034" rx="3"/>
<text x="308" y="236" fill="#cdd6f4" font-size="11" text-anchor="middle">0.162</text>
<rect x="348" y="214" width="78" height="34" fill="#f27233" rx="3"/>
<text x="388" y="236" fill="#cdd6f4" font-size="11" text-anchor="middle">0.171</text>
<rect x="428" y="214" width="78" height="34" fill="#f69c25" rx="3"/>
<text x="468" y="236" fill="#cdd6f4" font-size="11" text-anchor="middle">0.325</text>
<rect x="508" y="214" width="78" height="34" fill="#f6a322" rx="3"/>
<text x="548" y="236" fill="#cdd6f4" font-size="11" text-anchor="middle">0.352</text>
<rect x="588" y="214" width="78" height="34" fill="#f4832d" rx="3"/>
<text x="628" y="236" fill="#cdd6f4" font-size="11" text-anchor="middle">0.235</text>
<rect x="668" y="214" width="78" height="34" fill="#f26937" rx="3"/>
<text x="708" y="236" fill="#cdd6f4" font-size="11" text-anchor="middle">0.138</text>
<rect x="748" y="214" width="78" height="34" fill="#f16837" rx="3"/>
<text x="788" y="236" fill="#cdd6f4" font-size="11" text-anchor="middle">0.133</text>
<rect x="828" y="214" width="78" height="34" fill="#f16837" rx="3"/>
<text x="868" y="236" fill="#cdd6f4" font-size="11" text-anchor="middle">0.133</text>
<rect x="908" y="214" width="78" height="34" fill="#f27433" rx="3"/>
<text x="948" y="236" fill="#cdd6f4" font-size="11" text-anchor="middle">0.180</text>
<rect x="988" y="214" width="78" height="34" fill="#f48b2b" rx="3"/>
<text x="1028" y="236" fill="#cdd6f4" font-size="11" text-anchor="middle">0.264</text>
<rect x="1068" y="214" width="78" height="34" fill="#f48b2b" rx="3"/>
<text x="1108" y="236" fill="#cdd6f4" font-size="11" text-anchor="middle">0.262</text>
<rect x="1148" y="214" width="78" height="34" fill="#f26e35" rx="3"/>
<text x="1188" y="236" fill="#cdd6f4" font-size="11" text-anchor="middle">0.158</text>
<rect x="1228" y="214" width="78" height="34" fill="#f6a223" rx="3"/>
<text x="1268" y="236" fill="#cdd6f4" font-size="11" text-anchor="middle">0.346</text>
<rect x="1308" y="214" width="78" height="34" fill="#f37732" rx="3"/>
<text x="1348" y="236" fill="#cdd6f4" font-size="11" text-anchor="middle">0.189</text>
<rect x="1388" y="214" width="78" height="34" fill="#f26a36" rx="3"/>
<text x="1428" y="236" fill="#cdd6f4" font-size="11" text-anchor="middle">0.140</text>
<rect x="1468" y="214" width="78" height="34" fill="#f4862c" rx="3"/>
<text x="1508" y="236" fill="#cdd6f4" font-size="11" text-anchor="middle">0.246</text>
<rect x="1548" y="214" width="78" height="34" fill="#f6a422" rx="3"/>
<text x="1588" y="236" fill="#cdd6f4" font-size="11" text-anchor="middle">0.354</text>
<rect x="1628" y="214" width="78" height="34" fill="#f7b01e" rx="3"/>
<text x="1668" y="236" fill="#cdd6f4" font-size="11" text-anchor="middle">0.400</text>
<text x="180" y="272" fill="#cdd6f4" font-size="10" text-anchor="end">melodic_fft_hps</text>
<rect x="188" y="250" width="78" height="34" fill="#f37532" rx="3"/>
<text x="228" y="272" fill="#cdd6f4" font-size="11" text-anchor="middle">0.183</text>
<rect x="268" y="250" width="78" height="34" fill="#f26b36" rx="3"/>
<text x="308" y="272" fill="#cdd6f4" font-size="11" text-anchor="middle">0.144</text>
<rect x="348" y="250" width="78" height="34" fill="#f26936" rx="3"/>
<text x="388" y="272" fill="#cdd6f4" font-size="11" text-anchor="middle">0.138</text>
<rect x="428" y="250" width="78" height="34" fill="#f1603a" rx="3"/>
<text x="468" y="272" fill="#cdd6f4" font-size="11" text-anchor="middle">0.106</text>
<rect x="508" y="250" width="78" height="34" fill="#f37c30" rx="3"/>
<text x="548" y="272" fill="#cdd6f4" font-size="11" text-anchor="middle">0.208</text>
<rect x="588" y="250" width="78" height="34" fill="#f16638" rx="3"/>
<text x="628" y="272" fill="#cdd6f4" font-size="11" text-anchor="middle">0.125</text>
<rect x="668" y="250" width="78" height="34" fill="#f05c3b" rx="3"/>
<text x="708" y="272" fill="#cdd6f4" font-size="11" text-anchor="middle">0.090</text>
<rect x="748" y="250" width="78" height="34" fill="#f16638" rx="3"/>
<text x="788" y="272" fill="#cdd6f4" font-size="11" text-anchor="middle">0.125</text>
<rect x="828" y="250" width="78" height="34" fill="#ef4444" rx="3"/>
<text x="868" y="272" fill="#cdd6f4" font-size="11" text-anchor="middle">0.000</text>
<rect x="908" y="250" width="78" height="34" fill="#f4812e" rx="3"/>
<text x="948" y="272" fill="#cdd6f4" font-size="11" text-anchor="middle">0.228</text>
<rect x="988" y="250" width="78" height="34" fill="#f37632" rx="3"/>
<text x="1028" y="272" fill="#cdd6f4" font-size="11" text-anchor="middle">0.185</text>
<rect x="1068" y="250" width="78" height="34" fill="#f26f35" rx="3"/>
<text x="1108" y="272" fill="#cdd6f4" font-size="11" text-anchor="middle">0.159</text>
<rect x="1148" y="250" width="78" height="34" fill="#f16438" rx="3"/>
<text x="1188" y="272" fill="#cdd6f4" font-size="11" text-anchor="middle">0.121</text>
<rect x="1228" y="250" width="78" height="34" fill="#f6a621" rx="3"/>
<text x="1268" y="272" fill="#cdd6f4" font-size="11" text-anchor="middle">0.364</text>
<rect x="1308" y="250" width="78" height="34" fill="#ef4e40" rx="3"/>
<text x="1348" y="272" fill="#cdd6f4" font-size="11" text-anchor="middle">0.038</text>
<rect x="1388" y="250" width="78" height="34" fill="#f26e35" rx="3"/>
<text x="1428" y="272" fill="#cdd6f4" font-size="11" text-anchor="middle">0.157</text>
<rect x="1468" y="250" width="78" height="34" fill="#f4832e" rx="3"/>
<text x="1508" y="272" fill="#cdd6f4" font-size="11" text-anchor="middle">0.233</text>
<rect x="1548" y="250" width="78" height="34" fill="#f37831" rx="3"/>
<text x="1588" y="272" fill="#cdd6f4" font-size="11" text-anchor="middle">0.193</text>
<rect x="1628" y="250" width="78" height="34" fill="#facc15" rx="3"/>
<text x="1668" y="272" fill="#1e1e2e" font-size="11" text-anchor="middle">0.500</text>
<text x="180" y="308" fill="#cdd6f4" font-size="10" text-anchor="end">melodic_librosa_pyin</text>
<rect x="188" y="286" width="78" height="34" fill="#e4cb1c" rx="3"/>
<text x="228" y="308" fill="#1e1e2e" font-size="11" text-anchor="middle">0.550</text>
<rect x="268" y="286" width="78" height="34" fill="#f27134" rx="3"/>
<text x="308" y="308" fill="#cdd6f4" font-size="11" text-anchor="middle">0.167</text>
<rect x="348" y="286" width="78" height="34" fill="#f0583c" rx="3"/>
<text x="388" y="308" fill="#cdd6f4" font-size="11" text-anchor="middle">0.076</text>
<rect x="428" y="286" width="78" height="34" fill="#ddcb1e" rx="3"/>
<text x="468" y="308" fill="#1e1e2e" font-size="11" text-anchor="middle">0.566</text>
<rect x="508" y="286" width="78" height="34" fill="#f59229" rx="3"/>
<text x="548" y="308" fill="#cdd6f4" font-size="11" text-anchor="middle">0.287</text>
<rect x="588" y="286" width="78" height="34" fill="#f4842d" rx="3"/>
<text x="628" y="308" fill="#cdd6f4" font-size="11" text-anchor="middle">0.235</text>
<rect x="668" y="286" width="78" height="34" fill="#f37c30" rx="3"/>
<text x="708" y="308" fill="#cdd6f4" font-size="11" text-anchor="middle">0.209</text>
<rect x="748" y="286" width="78" height="34" fill="#f0553d" rx="3"/>
<text x="788" y="308" fill="#cdd6f4" font-size="11" text-anchor="middle">0.066</text>
<rect x="828" y="286" width="78" height="34" fill="#f37632" rx="3"/>
<text x="868" y="308" fill="#cdd6f4" font-size="11" text-anchor="middle">0.184</text>
<rect x="908" y="286" width="78" height="34" fill="#f16538" rx="3"/>
<text x="948" y="308" fill="#cdd6f4" font-size="11" text-anchor="middle">0.122</text>
<rect x="988" y="286" width="78" height="34" fill="#f27433" rx="3"/>
<text x="1028" y="308" fill="#cdd6f4" font-size="11" text-anchor="middle">0.179</text>
<rect x="1068" y="286" width="78" height="34" fill="#e3cb1c" rx="3"/>
<text x="1108" y="308" fill="#1e1e2e" font-size="11" text-anchor="middle">0.553</text>
<rect x="1148" y="286" width="78" height="34" fill="#f59129" rx="3"/>
<text x="1188" y="308" fill="#cdd6f4" font-size="11" text-anchor="middle">0.286</text>
<rect x="1228" y="286" width="78" height="34" fill="#22c55e" rx="3"/>
<text x="1268" y="308" fill="#1e1e2e" font-size="11" text-anchor="middle">1.000</text>
<rect x="1308" y="286" width="78" height="34" fill="#f7a821" rx="3"/>
<text x="1348" y="308" fill="#cdd6f4" font-size="11" text-anchor="middle">0.370</text>
<rect x="1388" y="286" width="78" height="34" fill="#f16338" rx="3"/>
<text x="1428" y="308" fill="#cdd6f4" font-size="11" text-anchor="middle">0.118</text>
<rect x="1468" y="286" width="78" height="34" fill="#f59328" rx="3"/>
<text x="1508" y="308" fill="#cdd6f4" font-size="11" text-anchor="middle">0.294</text>
<rect x="1548" y="286" width="78" height="34" fill="#f4842d" rx="3"/>
<text x="1588" y="308" fill="#cdd6f4" font-size="11" text-anchor="middle">0.236</text>
<rect x="1628" y="286" width="78" height="34" fill="#22c55e" rx="3"/>
<text x="1668" y="308" fill="#1e1e2e" font-size="11" text-anchor="middle">1.000</text>
<text x="180" y="344" fill="#cdd6f4" font-size="10" text-anchor="end">melodic_yin_t020</text>
<rect x="188" y="322" width="78" height="34" fill="#f27333" rx="3"/>
<text x="228" y="344" fill="#cdd6f4" font-size="11" text-anchor="middle">0.174</text>
<rect x="268" y="322" width="78" height="34" fill="#f27333" rx="3"/>
<text x="308" y="344" fill="#cdd6f4" font-size="11" text-anchor="middle">0.175</text>
<rect x="348" y="322" width="78" height="34" fill="#f37a31" rx="3"/>
<text x="388" y="344" fill="#cdd6f4" font-size="11" text-anchor="middle">0.200</text>
<rect x="428" y="322" width="78" height="34" fill="#f6a023" rx="3"/>
<text x="468" y="344" fill="#cdd6f4" font-size="11" text-anchor="middle">0.341</text>
<rect x="508" y="322" width="78" height="34" fill="#f7ac1f" rx="3"/>
<text x="548" y="344" fill="#cdd6f4" font-size="11" text-anchor="middle">0.386</text>
<rect x="588" y="322" width="78" height="34" fill="#f3802e" rx="3"/>
<text x="628" y="344" fill="#cdd6f4" font-size="11" text-anchor="middle">0.224</text>
<rect x="668" y="322" width="78" height="34" fill="#f16438" rx="3"/>
<text x="708" y="344" fill="#cdd6f4" font-size="11" text-anchor="middle">0.119</text>
<rect x="748" y="322" width="78" height="34" fill="#f05a3c" rx="3"/>
<text x="788" y="344" fill="#cdd6f4" font-size="11" text-anchor="middle">0.083</text>
<rect x="828" y="322" width="78" height="34" fill="#f27034" rx="3"/>
<text x="868" y="344" fill="#cdd6f4" font-size="11" text-anchor="middle">0.163</text>
<rect x="908" y="322" width="78" height="34" fill="#f37632" rx="3"/>
<text x="948" y="344" fill="#cdd6f4" font-size="11" text-anchor="middle">0.184</text>
<rect x="988" y="322" width="78" height="34" fill="#f48a2b" rx="3"/>
<text x="1028" y="344" fill="#cdd6f4" font-size="11" text-anchor="middle">0.260</text>
<rect x="1068" y="322" width="78" height="34" fill="#f37f2f" rx="3"/>
<text x="1108" y="344" fill="#cdd6f4" font-size="11" text-anchor="middle">0.218</text>
<rect x="1148" y="322" width="78" height="34" fill="#f58e2a" rx="3"/>
<text x="1188" y="344" fill="#cdd6f4" font-size="11" text-anchor="middle">0.275</text>
<rect x="1228" y="322" width="78" height="34" fill="#f59428" rx="3"/>
<text x="1268" y="344" fill="#cdd6f4" font-size="11" text-anchor="middle">0.296</text>
<rect x="1308" y="322" width="78" height="34" fill="#f37831" rx="3"/>
<text x="1348" y="344" fill="#cdd6f4" font-size="11" text-anchor="middle">0.192</text>
<rect x="1388" y="322" width="78" height="34" fill="#f26d35" rx="3"/>
<text x="1428" y="344" fill="#cdd6f4" font-size="11" text-anchor="middle">0.151</text>
<rect x="1468" y="322" width="78" height="34" fill="#f4822e" rx="3"/>
<text x="1508" y="344" fill="#cdd6f4" font-size="11" text-anchor="middle">0.230</text>
<rect x="1548" y="322" width="78" height="34" fill="#f59726" rx="3"/>
<text x="1588" y="344" fill="#cdd6f4" font-size="11" text-anchor="middle">0.309</text>
<rect x="1628" y="322" width="78" height="34" fill="#f7b01e" rx="3"/>
<text x="1668" y="344" fill="#cdd6f4" font-size="11" text-anchor="middle">0.400</text>
<text x="180" y="380" fill="#cdd6f4" font-size="10" text-anchor="end">melodic_yin_bass80</text>
<rect x="188" y="358" width="78" height="34" fill="#f6cb16" rx="3"/>
<text x="228" y="380" fill="#1e1e2e" font-size="11" text-anchor="middle">0.508</text>
<rect x="268" y="358" width="78" height="34" fill="#f6a123" rx="3"/>
<text x="308" y="380" fill="#cdd6f4" font-size="11" text-anchor="middle">0.342</text>
<rect x="348" y="358" width="78" height="34" fill="#f16737" rx="3"/>
<text x="388" y="380" fill="#cdd6f4" font-size="11" text-anchor="middle">0.132</text>
<rect x="428" y="358" width="78" height="34" fill="#bac92a" rx="3"/>
<text x="468" y="380" fill="#1e1e2e" font-size="11" text-anchor="middle">0.647</text>
<rect x="508" y="358" width="78" height="34" fill="#f7a821" rx="3"/>
<text x="548" y="380" fill="#cdd6f4" font-size="11" text-anchor="middle">0.371</text>
<rect x="588" y="358" width="78" height="34" fill="#f3812e" rx="3"/>
<text x="628" y="380" fill="#cdd6f4" font-size="11" text-anchor="middle">0.225</text>
<rect x="668" y="358" width="78" height="34" fill="#f6a223" rx="3"/>
<text x="708" y="380" fill="#cdd6f4" font-size="11" text-anchor="middle">0.348</text>
<rect x="748" y="358" width="78" height="34" fill="#f05b3b" rx="3"/>
<text x="788" y="380" fill="#cdd6f4" font-size="11" text-anchor="middle">0.086</text>
<rect x="828" y="358" width="78" height="34" fill="#ef4d40" rx="3"/>
<text x="868" y="380" fill="#cdd6f4" font-size="11" text-anchor="middle">0.034</text>
<rect x="908" y="358" width="78" height="34" fill="#f59a26" rx="3"/>
<text x="948" y="380" fill="#cdd6f4" font-size="11" text-anchor="middle">0.317</text>
<rect x="988" y="358" width="78" height="34" fill="#f4842d" rx="3"/>
<text x="1028" y="380" fill="#cdd6f4" font-size="11" text-anchor="middle">0.237</text>
<rect x="1068" y="358" width="78" height="34" fill="#e8cb1b" rx="3"/>
<text x="1108" y="380" fill="#1e1e2e" font-size="11" text-anchor="middle">0.541</text>
<rect x="1148" y="358" width="78" height="34" fill="#f4842d" rx="3"/>
<text x="1188" y="380" fill="#cdd6f4" font-size="11" text-anchor="middle">0.235</text>
<rect x="1228" y="358" width="78" height="34" fill="#f8b81b" rx="3"/>
<text x="1268" y="380" fill="#1e1e2e" font-size="11" text-anchor="middle">0.429</text>
<rect x="1308" y="358" width="78" height="34" fill="#e5cb1b" rx="3"/>
<text x="1348" y="380" fill="#1e1e2e" font-size="11" text-anchor="middle">0.548</text>
<rect x="1388" y="358" width="78" height="34" fill="#f27034" rx="3"/>
<text x="1428" y="380" fill="#cdd6f4" font-size="11" text-anchor="middle">0.164</text>
<rect x="1468" y="358" width="78" height="34" fill="#f8b71c" rx="3"/>
<text x="1508" y="380" fill="#1e1e2e" font-size="11" text-anchor="middle">0.425</text>
<rect x="1548" y="358" width="78" height="34" fill="#f37f2f" rx="3"/>
<text x="1588" y="380" fill="#cdd6f4" font-size="11" text-anchor="middle">0.218</text>
<rect x="1628" y="358" width="78" height="34" fill="#f69e24" rx="3"/>
<text x="1668" y="380" fill="#cdd6f4" font-size="11" text-anchor="middle">0.333</text>
<text x="180" y="416" fill="#cdd6f4" font-size="10" text-anchor="end">melodic_combined</text>
<rect x="188" y="394" width="78" height="34" fill="#f26d35" rx="3"/>
<text x="228" y="416" fill="#cdd6f4" font-size="11" text-anchor="middle">0.151</text>
<rect x="268" y="394" width="78" height="34" fill="#f16737" rx="3"/>
<text x="308" y="416" fill="#cdd6f4" font-size="11" text-anchor="middle">0.129</text>
<rect x="348" y="394" width="78" height="34" fill="#f26a36" rx="3"/>
<text x="388" y="416" fill="#cdd6f4" font-size="11" text-anchor="middle">0.143</text>
<rect x="428" y="394" width="78" height="34" fill="#f15e3a" rx="3"/>
<text x="468" y="416" fill="#cdd6f4" font-size="11" text-anchor="middle">0.096</text>
<rect x="508" y="394" width="78" height="34" fill="#f4832e" rx="3"/>
<text x="548" y="416" fill="#cdd6f4" font-size="11" text-anchor="middle">0.233</text>
<rect x="588" y="394" width="78" height="34" fill="#f26c35" rx="3"/>
<text x="628" y="416" fill="#cdd6f4" font-size="11" text-anchor="middle">0.149</text>
<rect x="668" y="394" width="78" height="34" fill="#f16139" rx="3"/>
<text x="708" y="416" fill="#cdd6f4" font-size="11" text-anchor="middle">0.110</text>
<rect x="748" y="394" width="78" height="34" fill="#f16538" rx="3"/>
<text x="788" y="416" fill="#cdd6f4" font-size="11" text-anchor="middle">0.124</text>
<rect x="828" y="394" width="78" height="34" fill="#ef4b41" rx="3"/>
<text x="868" y="416" fill="#cdd6f4" font-size="11" text-anchor="middle">0.026</text>
<rect x="908" y="394" width="78" height="34" fill="#f37931" rx="3"/>
<text x="948" y="416" fill="#cdd6f4" font-size="11" text-anchor="middle">0.198</text>
<rect x="988" y="394" width="78" height="34" fill="#f27433" rx="3"/>
<text x="1028" y="416" fill="#cdd6f4" font-size="11" text-anchor="middle">0.178</text>
<rect x="1068" y="394" width="78" height="34" fill="#f48c2a" rx="3"/>
<text x="1108" y="416" fill="#cdd6f4" font-size="11" text-anchor="middle">0.267</text>
<rect x="1148" y="394" width="78" height="34" fill="#f16239" rx="3"/>
<text x="1188" y="416" fill="#cdd6f4" font-size="11" text-anchor="middle">0.111</text>
<rect x="1228" y="394" width="78" height="34" fill="#f69a26" rx="3"/>
<text x="1268" y="416" fill="#cdd6f4" font-size="11" text-anchor="middle">0.318</text>
<rect x="1308" y="394" width="78" height="34" fill="#f27034" rx="3"/>
<text x="1348" y="416" fill="#cdd6f4" font-size="11" text-anchor="middle">0.163</text>
<rect x="1388" y="394" width="78" height="34" fill="#f26c36" rx="3"/>
<text x="1428" y="416" fill="#cdd6f4" font-size="11" text-anchor="middle">0.148</text>
<rect x="1468" y="394" width="78" height="34" fill="#f37632" rx="3"/>
<text x="1508" y="416" fill="#cdd6f4" font-size="11" text-anchor="middle">0.185</text>
<rect x="1548" y="394" width="78" height="34" fill="#f3802f" rx="3"/>
<text x="1588" y="416" fill="#cdd6f4" font-size="11" text-anchor="middle">0.222</text>
<rect x="1628" y="394" width="78" height="34" fill="#f7b01e" rx="3"/>
<text x="1668" y="416" fill="#cdd6f4" font-size="11" text-anchor="middle">0.400</text>
<text x="180" y="452" fill="#cdd6f4" font-size="10" text-anchor="end">melodic_hpss_onset</text>
<rect x="188" y="430" width="78" height="34" fill="#f27134" rx="3"/>
<text x="228" y="452" fill="#cdd6f4" font-size="11" text-anchor="middle">0.167</text>
<rect x="268" y="430" width="78" height="34" fill="#f3802e" rx="3"/>
<text x="308" y="452" fill="#cdd6f4" font-size="11" text-anchor="middle">0.224</text>
<rect x="348" y="430" width="78" height="34" fill="#f26f34" rx="3"/>
<text x="388" y="452" fill="#cdd6f4" font-size="11" text-anchor="middle">0.161</text>
<rect x="428" y="430" width="78" height="34" fill="#f48e2a" rx="3"/>
<text x="468" y="452" fill="#cdd6f4" font-size="11" text-anchor="middle">0.272</text>
<rect x="508" y="430" width="78" height="34" fill="#f59926" rx="3"/>
<text x="548" y="452" fill="#cdd6f4" font-size="11" text-anchor="middle">0.313</text>
<rect x="588" y="430" width="78" height="34" fill="#f3812e" rx="3"/>
<text x="628" y="452" fill="#cdd6f4" font-size="11" text-anchor="middle">0.226</text>
<rect x="668" y="430" width="78" height="34" fill="#f16239" rx="3"/>
<text x="708" y="452" fill="#cdd6f4" font-size="11" text-anchor="middle">0.110</text>
<rect x="748" y="430" width="78" height="34" fill="#f16339" rx="3"/>
<text x="788" y="452" fill="#cdd6f4" font-size="11" text-anchor="middle">0.116</text>
<rect x="828" y="430" width="78" height="34" fill="#f16339" rx="3"/>
<text x="868" y="452" fill="#cdd6f4" font-size="11" text-anchor="middle">0.116</text>
<rect x="908" y="430" width="78" height="34" fill="#f27333" rx="3"/>
<text x="948" y="452" fill="#cdd6f4" font-size="11" text-anchor="middle">0.174</text>
<rect x="988" y="430" width="78" height="34" fill="#f4842d" rx="3"/>
<text x="1028" y="452" fill="#cdd6f4" font-size="11" text-anchor="middle">0.235</text>
<rect x="1068" y="430" width="78" height="34" fill="#f27134" rx="3"/>
<text x="1108" y="452" fill="#cdd6f4" font-size="11" text-anchor="middle">0.167</text>
<rect x="1148" y="430" width="78" height="34" fill="#f16638" rx="3"/>
<text x="1188" y="452" fill="#cdd6f4" font-size="11" text-anchor="middle">0.126</text>
<rect x="1228" y="430" width="78" height="34" fill="#f6a223" rx="3"/>
<text x="1268" y="452" fill="#cdd6f4" font-size="11" text-anchor="middle">0.348</text>
<rect x="1308" y="430" width="78" height="34" fill="#f27134" rx="3"/>
<text x="1348" y="452" fill="#cdd6f4" font-size="11" text-anchor="middle">0.166</text>
<rect x="1388" y="430" width="78" height="34" fill="#f16638" rx="3"/>
<text x="1428" y="452" fill="#cdd6f4" font-size="11" text-anchor="middle">0.125</text>
<rect x="1468" y="430" width="78" height="34" fill="#f48c2a" rx="3"/>
<text x="1508" y="452" fill="#cdd6f4" font-size="11" text-anchor="middle">0.267</text>
<rect x="1548" y="430" width="78" height="34" fill="#f69d25" rx="3"/>
<text x="1588" y="452" fill="#cdd6f4" font-size="11" text-anchor="middle">0.330</text>
<rect x="1628" y="430" width="78" height="34" fill="#f4882c" rx="3"/>
<text x="1668" y="452" fill="#cdd6f4" font-size="11" text-anchor="middle">0.250</text>
<text x="180" y="488" fill="#cdd6f4" font-size="10" text-anchor="end">melodic_pyin_long</text>
<rect x="188" y="466" width="78" height="34" fill="#cfca23" rx="3"/>
<text x="228" y="488" fill="#1e1e2e" font-size="11" text-anchor="middle">0.598</text>
<rect x="268" y="466" width="78" height="34" fill="#f58e2a" rx="3"/>
<text x="308" y="488" fill="#cdd6f4" font-size="11" text-anchor="middle">0.274</text>
<rect x="348" y="466" width="78" height="34" fill="#f0523f" rx="3"/>
<text x="388" y="488" fill="#cdd6f4" font-size="11" text-anchor="middle">0.052</text>
<rect x="428" y="466" width="78" height="34" fill="#a3c932" rx="3"/>
<text x="468" y="488" fill="#1e1e2e" font-size="11" text-anchor="middle">0.701</text>
<rect x="508" y="466" width="78" height="34" fill="#f59826" rx="3"/>
<text x="548" y="488" fill="#cdd6f4" font-size="11" text-anchor="middle">0.310</text>
<rect x="588" y="466" width="78" height="34" fill="#f58f29" rx="3"/>
<text x="628" y="488" fill="#cdd6f4" font-size="11" text-anchor="middle">0.278</text>
<rect x="668" y="466" width="78" height="34" fill="#f59228" rx="3"/>
<text x="708" y="488" fill="#cdd6f4" font-size="11" text-anchor="middle">0.289</text>
<rect x="748" y="466" width="78" height="34" fill="#f0543e" rx="3"/>
<text x="788" y="488" fill="#cdd6f4" font-size="11" text-anchor="middle">0.060</text>
<rect x="828" y="466" width="78" height="34" fill="#f0543e" rx="3"/>
<text x="868" y="488" fill="#cdd6f4" font-size="11" text-anchor="middle">0.061</text>
<rect x="908" y="466" width="78" height="34" fill="#f27433" rx="3"/>
<text x="948" y="488" fill="#cdd6f4" font-size="11" text-anchor="middle">0.179</text>
<rect x="988" y="466" width="78" height="34" fill="#f4842d" rx="3"/>
<text x="1028" y="488" fill="#cdd6f4" font-size="11" text-anchor="middle">0.236</text>
<rect x="1068" y="466" width="78" height="34" fill="#c7ca26" rx="3"/>
<text x="1108" y="488" fill="#1e1e2e" font-size="11" text-anchor="middle">0.617</text>
<rect x="1148" y="466" width="78" height="34" fill="#f26a36" rx="3"/>
<text x="1188" y="488" fill="#cdd6f4" font-size="11" text-anchor="middle">0.143</text>
<rect x="1228" y="466" width="78" height="34" fill="#dbcb1f" rx="3"/>
<text x="1268" y="488" fill="#1e1e2e" font-size="11" text-anchor="middle">0.571</text>
<rect x="1308" y="466" width="78" height="34" fill="#f7cb15" rx="3"/>
<text x="1348" y="488" fill="#1e1e2e" font-size="11" text-anchor="middle">0.505</text>
<rect x="1388" y="466" width="78" height="34" fill="#f16339" rx="3"/>
<text x="1428" y="488" fill="#cdd6f4" font-size="11" text-anchor="middle">0.117</text>
<rect x="1468" y="466" width="78" height="34" fill="#f69e24" rx="3"/>
<text x="1508" y="488" fill="#cdd6f4" font-size="11" text-anchor="middle">0.333</text>
<rect x="1548" y="466" width="78" height="34" fill="#f37d2f" rx="3"/>
<text x="1588" y="488" fill="#cdd6f4" font-size="11" text-anchor="middle">0.213</text>
<rect x="1628" y="466" width="78" height="34" fill="#22c55e" rx="3"/>
<text x="1668" y="488" fill="#1e1e2e" font-size="11" text-anchor="middle">1.000</text>
<text x="180" y="524" fill="#cdd6f4" font-size="10" text-anchor="end">melodic_octave_fix</text>
<rect x="188" y="502" width="78" height="34" fill="#ef4444" rx="3"/>
<text x="228" y="524" fill="#cdd6f4" font-size="11" text-anchor="middle">0.000</text>
<rect x="268" y="502" width="78" height="34" fill="#f37a31" rx="3"/>
<text x="308" y="524" fill="#cdd6f4" font-size="11" text-anchor="middle">0.200</text>
<rect x="348" y="502" width="78" height="34" fill="#f15f3a" rx="3"/>
<text x="388" y="524" fill="#cdd6f4" font-size="11" text-anchor="middle">0.101</text>
<rect x="428" y="502" width="78" height="34" fill="#f15e3a" rx="3"/>
<text x="468" y="524" fill="#cdd6f4" font-size="11" text-anchor="middle">0.099</text>
<rect x="508" y="502" width="78" height="34" fill="#f37931" rx="3"/>
<text x="548" y="524" fill="#cdd6f4" font-size="11" text-anchor="middle">0.198</text>
<rect x="588" y="502" width="78" height="34" fill="#f59727" rx="3"/>
<text x="628" y="524" fill="#cdd6f4" font-size="11" text-anchor="middle">0.306</text>
<rect x="668" y="502" width="78" height="34" fill="#ef4c40" rx="3"/>
<text x="708" y="524" fill="#cdd6f4" font-size="11" text-anchor="middle">0.032</text>
<rect x="748" y="502" width="78" height="34" fill="#f16837" rx="3"/>
<text x="788" y="524" fill="#cdd6f4" font-size="11" text-anchor="middle">0.134</text>
<rect x="828" y="502" width="78" height="34" fill="#f58f29" rx="3"/>
<text x="868" y="524" fill="#cdd6f4" font-size="11" text-anchor="middle">0.279</text>
<rect x="908" y="502" width="78" height="34" fill="#f16737" rx="3"/>
<text x="948" y="524" fill="#cdd6f4" font-size="11" text-anchor="middle">0.131</text>
<rect x="988" y="502" width="78" height="34" fill="#f48a2b" rx="3"/>
<text x="1028" y="524" fill="#cdd6f4" font-size="11" text-anchor="middle">0.257</text>
<rect x="1068" y="502" width="78" height="34" fill="#ef4543" rx="3"/>
<text x="1108" y="524" fill="#cdd6f4" font-size="11" text-anchor="middle">0.005</text>
<rect x="1148" y="502" width="78" height="34" fill="#f15e3a" rx="3"/>
<text x="1188" y="524" fill="#cdd6f4" font-size="11" text-anchor="middle">0.099</text>
<rect x="1228" y="502" width="78" height="34" fill="#f8bf19" rx="3"/>
<text x="1268" y="524" fill="#1e1e2e" font-size="11" text-anchor="middle">0.455</text>
<rect x="1308" y="502" width="78" height="34" fill="#f0533e" rx="3"/>
<text x="1348" y="524" fill="#cdd6f4" font-size="11" text-anchor="middle">0.058</text>
<rect x="1388" y="502" width="78" height="34" fill="#f26a36" rx="3"/>
<text x="1428" y="524" fill="#cdd6f4" font-size="11" text-anchor="middle">0.142</text>
<rect x="1468" y="502" width="78" height="34" fill="#f16637" rx="3"/>
<text x="1508" y="524" fill="#cdd6f4" font-size="11" text-anchor="middle">0.128</text>
<rect x="1548" y="502" width="78" height="34" fill="#f4842d" rx="3"/>
<text x="1588" y="524" fill="#cdd6f4" font-size="11" text-anchor="middle">0.238</text>
<rect x="1628" y="502" width="78" height="34" fill="#f7b01e" rx="3"/>
<text x="1668" y="524" fill="#cdd6f4" font-size="11" text-anchor="middle">0.400</text>
<text x="180" y="560" fill="#cdd6f4" font-size="10" text-anchor="end">melodic_adaptive</text>
<rect x="188" y="538" width="78" height="34" fill="#f37632" rx="3"/>
<text x="228" y="560" fill="#cdd6f4" font-size="11" text-anchor="middle">0.186</text>
<rect x="268" y="538" width="78" height="34" fill="#f15d3b" rx="3"/>
<text x="308" y="560" fill="#cdd6f4" font-size="11" text-anchor="middle">0.095</text>
<rect x="348" y="538" width="78" height="34" fill="#f26a36" rx="3"/>
<text x="388" y="560" fill="#cdd6f4" font-size="11" text-anchor="middle">0.143</text>
<rect x="428" y="538" width="78" height="34" fill="#f27034" rx="3"/>
<text x="468" y="560" fill="#cdd6f4" font-size="11" text-anchor="middle">0.162</text>
<rect x="508" y="538" width="78" height="34" fill="#f4862d" rx="3"/>
<text x="548" y="560" fill="#cdd6f4" font-size="11" text-anchor="middle">0.244</text>
<rect x="588" y="538" width="78" height="34" fill="#f26c35" rx="3"/>
<text x="628" y="560" fill="#cdd6f4" font-size="11" text-anchor="middle">0.149</text>
<rect x="668" y="538" width="78" height="34" fill="#f26f34" rx="3"/>
<text x="708" y="560" fill="#cdd6f4" font-size="11" text-anchor="middle">0.160</text>
<rect x="748" y="538" width="78" height="34" fill="#f26d35" rx="3"/>
<text x="788" y="560" fill="#cdd6f4" font-size="11" text-anchor="middle">0.152</text>
<rect x="828" y="538" width="78" height="34" fill="#ef4d40" rx="3"/>
<text x="868" y="560" fill="#cdd6f4" font-size="11" text-anchor="middle">0.035</text>
<rect x="908" y="538" width="78" height="34" fill="#f37732" rx="3"/>
<text x="948" y="560" fill="#cdd6f4" font-size="11" text-anchor="middle">0.189</text>
<rect x="988" y="538" width="78" height="34" fill="#f27433" rx="3"/>
<text x="1028" y="560" fill="#cdd6f4" font-size="11" text-anchor="middle">0.178</text>
<rect x="1068" y="538" width="78" height="34" fill="#f6a223" rx="3"/>
<text x="1108" y="560" fill="#cdd6f4" font-size="11" text-anchor="middle">0.346</text>
<rect x="1148" y="538" width="78" height="34" fill="#f16538" rx="3"/>
<text x="1188" y="560" fill="#cdd6f4" font-size="11" text-anchor="middle">0.122</text>
<rect x="1228" y="538" width="78" height="34" fill="#f69a26" rx="3"/>
<text x="1268" y="560" fill="#cdd6f4" font-size="11" text-anchor="middle">0.318</text>
<rect x="1308" y="538" width="78" height="34" fill="#f4832e" rx="3"/>
<text x="1348" y="560" fill="#cdd6f4" font-size="11" text-anchor="middle">0.232</text>
<rect x="1388" y="538" width="78" height="34" fill="#f26b36" rx="3"/>
<text x="1428" y="560" fill="#cdd6f4" font-size="11" text-anchor="middle">0.143</text>
<rect x="1468" y="538" width="78" height="34" fill="#f48b2b" rx="3"/>
<text x="1508" y="560" fill="#cdd6f4" font-size="11" text-anchor="middle">0.262</text>
<rect x="1548" y="538" width="78" height="34" fill="#f4862d" rx="3"/>
<text x="1588" y="560" fill="#cdd6f4" font-size="11" text-anchor="middle">0.243</text>
<rect x="1628" y="538" width="78" height="34" fill="#f7b01e" rx="3"/>
<text x="1668" y="560" fill="#cdd6f4" font-size="11" text-anchor="middle">0.400</text>
<text x="180" y="596" fill="#cdd6f4" font-size="10" text-anchor="end">melodic_hpss_combined</text>
<rect x="188" y="574" width="78" height="34" fill="#f26a36" rx="3"/>
<text x="228" y="596" fill="#cdd6f4" font-size="11" text-anchor="middle">0.141</text>
<rect x="268" y="574" width="78" height="34" fill="#f26b36" rx="3"/>
<text x="308" y="596" fill="#cdd6f4" font-size="11" text-anchor="middle">0.144</text>
<rect x="348" y="574" width="78" height="34" fill="#f26d35" rx="3"/>
<text x="388" y="596" fill="#cdd6f4" font-size="11" text-anchor="middle">0.154</text>
<rect x="428" y="574" width="78" height="34" fill="#f05b3b" rx="3"/>
<text x="468" y="596" fill="#cdd6f4" font-size="11" text-anchor="middle">0.087</text>
<rect x="508" y="574" width="78" height="34" fill="#f3802e" rx="3"/>
<text x="548" y="596" fill="#cdd6f4" font-size="11" text-anchor="middle">0.224</text>
<rect x="588" y="574" width="78" height="34" fill="#f26d35" rx="3"/>
<text x="628" y="596" fill="#cdd6f4" font-size="11" text-anchor="middle">0.153</text>
<rect x="668" y="574" width="78" height="34" fill="#f16438" rx="3"/>
<text x="708" y="596" fill="#cdd6f4" font-size="11" text-anchor="middle">0.119</text>
<rect x="748" y="574" width="78" height="34" fill="#f27034" rx="3"/>
<text x="788" y="596" fill="#cdd6f4" font-size="11" text-anchor="middle">0.165</text>
<rect x="828" y="574" width="78" height="34" fill="#ef4543" rx="3"/>
<text x="868" y="596" fill="#cdd6f4" font-size="11" text-anchor="middle">0.006</text>
<rect x="908" y="574" width="78" height="34" fill="#f37c30" rx="3"/>
<text x="948" y="596" fill="#cdd6f4" font-size="11" text-anchor="middle">0.207</text>
<rect x="988" y="574" width="78" height="34" fill="#f27433" rx="3"/>
<text x="1028" y="596" fill="#cdd6f4" font-size="11" text-anchor="middle">0.179</text>
<rect x="1068" y="574" width="78" height="34" fill="#f58f29" rx="3"/>
<text x="1108" y="596" fill="#cdd6f4" font-size="11" text-anchor="middle">0.279</text>
<rect x="1148" y="574" width="78" height="34" fill="#f26c35" rx="3"/>
<text x="1188" y="596" fill="#cdd6f4" font-size="11" text-anchor="middle">0.150</text>
<rect x="1228" y="574" width="78" height="34" fill="#f7b01e" rx="3"/>
<text x="1268" y="596" fill="#cdd6f4" font-size="11" text-anchor="middle">0.400</text>
<rect x="1308" y="574" width="78" height="34" fill="#f16737" rx="3"/>
<text x="1348" y="596" fill="#cdd6f4" font-size="11" text-anchor="middle">0.131</text>
<rect x="1388" y="574" width="78" height="34" fill="#f16737" rx="3"/>
<text x="1428" y="596" fill="#cdd6f4" font-size="11" text-anchor="middle">0.131</text>
<rect x="1468" y="574" width="78" height="34" fill="#f4842d" rx="3"/>
<text x="1508" y="596" fill="#cdd6f4" font-size="11" text-anchor="middle">0.235</text>
<rect x="1548" y="574" width="78" height="34" fill="#f48d2a" rx="3"/>
<text x="1588" y="596" fill="#cdd6f4" font-size="11" text-anchor="middle">0.270</text>
<rect x="1628" y="574" width="78" height="34" fill="#ef4444" rx="3"/>
<text x="1668" y="596" fill="#cdd6f4" font-size="11" text-anchor="middle">0.000</text>
</svg>