<svg xmlns="http://www.w3.org/2000/svg" width="808" height="274" style="background:#1e1e2e;font-family:monospace">
<text x="404" y="22" fill="#cdd6f4" font-size="14" text-anchor="middle" font-weight="bold">Octave Error Rate by Song</text>
<text x="404" y="40" fill="#a6adc8" font-size="10" text-anchor="middle">Fraction of matched notes with correct chroma but wrong octave. Lower is better.</text>
<text x="268" y="62" fill="#a6adc8" font-size="9" text-anchor="end" transform="rotate(-35 268 62)">psalm_1_bass</text>
<text x="348" y="62" fill="#a6adc8" font-size="9" text-anchor="end" transform="rotate(-35 348 62)">psalm_2_bass</text>
<text x="428" y="62" fill="#a6adc8" font-size="9" text-anchor="end" transform="rotate(-35 428 62)">psalm_3_bass</text>
<text x="508" y="62" fill="#a6adc8" font-size="9" text-anchor="end" transform="rotate(-35 508 62)">psalm_4_bass</text>
<text x="588" y="62" fill="#a6adc8" font-size="9" text-anchor="end" transform="rotate(-35 588 62)">psalm_5_bass</text>
<text x="668" y="62" fill="#a6adc8" font-size="9" text-anchor="end" transform="rotate(-35 668 62)">psalm_6_bass</text>
<text x="748" y="62" fill="#a6adc8" font-size="9" text-anchor="end" transform="rotate(-35 748 62)">psalm_7_bass</text>
<text x="220" y="92" fill="#cdd6f4" font-size="10" text-anchor="end">melodic_yin_octave_hps_fix</text>
<rect x="228" y="70" width="78" height="34" fill="#ef4444" rx="3"/>
<text x="268" y="92" fill="#cdd6f4" font-size="11" text-anchor="middle">0.000</text>
<rect x="308" y="70" width="78" height="34" fill="#f7b11e" rx="3"/>
<text x="348" y="92" fill="#1e1e2e" font-size="11" text-anchor="middle">0.402</text>
<rect x="388" y="70" width="78" height="34" fill="#f15d3b" rx="3"/>
<text x="428" y="92" fill="#cdd6f4" font-size="11" text-anchor="middle">0.095</text>
<rect x="468" y="70" width="78" height="34" fill="#f69d25" rx="3"/>
<text x="508" y="92" fill="#cdd6f4" font-size="11" text-anchor="middle">0.328</text>
<rect x="548" y="70" width="78" height="34" fill="#ef4742" rx="3"/>
<text x="588" y="92" fill="#cdd6f4" font-size="11" text-anchor="middle">0.013</text>
<rect x="628" y="70" width="78" height="34" fill="#f0593c" rx="3"/>
<text x="668" y="92" fill="#cdd6f4" font-size="11" text-anchor="middle">0.079</text>
<rect x="708" y="70" width="78" height="34" fill="#f27233" rx="3"/>
<text x="748" y="92" fill="#cdd6f4" font-size="11" text-anchor="middle">0.171</text>
<text x="220" y="128" fill="#cdd6f4" font-size="10" text-anchor="end">melodic_yin_octave_hps</text>
<rect x="228" y="106" width="78" height="34" fill="#f6a024" rx="3"/>
<text x="268" y="128" fill="#cdd6f4" font-size="11" text-anchor="middle">0.339</text>
<rect x="308" y="106" width="78" height="34" fill="#f7ae1f" rx="3"/>
<text x="348" y="128" fill="#cdd6f4" font-size="11" text-anchor="middle">0.390</text>
<rect x="388" y="106" width="78" height="34" fill="#f59527" rx="3"/>
<text x="428" y="128" fill="#cdd6f4" font-size="11" text-anchor="middle">0.299</text>
<rect x="468" y="106" width="78" height="34" fill="#ef4e40" rx="3"/>
<text x="508" y="128" fill="#cdd6f4" font-size="11" text-anchor="middle">0.040</text>
<rect x="548" y="106" width="78" height="34" fill="#f6a522" rx="3"/>
<text x="588" y="128" fill="#cdd6f4" font-size="11" text-anchor="middle">0.358</text>
<rect x="628" y="106" width="78" height="34" fill="#f6a522" rx="3"/>
<text x="668" y="128" fill="#cdd6f4" font-size="11" text-anchor="middle">0.360</text>
<rect x="708" y="106" width="78" height="34" fill="#f48b2b" rx="3"/>
<text x="748" y="128" fill="#cdd6f4" font-size="11" text-anchor="middle">0.262</text>
<text x="220" y="164" fill="#cdd6f4" font-size="10" text-anchor="end">melodic_combined</text>
<rect x="228" y="142" width="78" height="34" fill="#f26d35" rx="3"/>
<text x="268" y="164" fill="#cdd6f4" font-size="11" text-anchor="middle">0.151</text>
<rect x="308" y="142" width="78" height="34" fill="#f15e3a" rx="3"/>
<text x="348" y="164" fill="#cdd6f4" font-size="11" text-anchor="middle">0.096</text>
<rect x="388" y="142" width="78" height="34" fill="#f16139" rx="3"/>
<text x="428" y="164" fill="#cdd6f4" font-size="11" text-anchor="middle">0.110</text>
<rect x="468" y="142" width="78" height="34" fill="#ef4b41" rx="3"/>
<text x="508" y="164" fill="#cdd6f4" font-size="11" text-anchor="middle">0.026</text>
<rect x="548" y="142" width="78" height="34" fill="#f48c2a" rx="3"/>
<text x="588" y="164" fill="#cdd6f4" font-size="11" text-anchor="middle">0.267</text>
<rect x="628" y="142" width="78" height="34" fill="#f27034" rx="3"/>
<text x="668" y="164" fill="#cdd6f4" font-size="11" text-anchor="middle">0.163</text>
<rect x="708" y="142" width="78" height="34" fill="#f37632" rx="3"/>
<text x="748" y="164" fill="#cdd6f4" font-size="11" text-anchor="middle">0.185</text>
<text x="220" y="200" fill="#cdd6f4" font-size="10" text-anchor="end">melodic_octave_fix</text>
<rect x="228" y="178" width="78" height="34" fill="#ef4444" rx="3"/>
<text x="268" y="200" fill="#cdd6f4" font-size="11" text-anchor="middle">0.000</text>
<rect x="308" y="178" width="78" height="34" fill="#f15e3a" rx="3"/>
<text x="348" y="200" fill="#cdd6f4" font-size="11" text-anchor="middle">0.099</text>
<rect x="388" y="178" width="78" height="34" fill="#ef4c40" rx="3"/>
<text x="428" y="200" fill="#cdd6f4" font-size="11" text-anchor="middle">0.032</text>
<rect x="468" y="178" width="78" height="34" fill="#f58f29" rx="3"/>
<text x="508" y="200" fill="#cdd6f4" font-size="11" text-anchor="middle">0.279</text>
<rect x="548" y="178" width="78" height="34" fill="#ef4543" rx="3"/>
<text x="588" y="200" fill="#cdd6f4" font-size="11" text-anchor="middle">0.005</text>
<rect x="628" y="178" width="78" height="34" fill="#f0533e" rx="3"/>
<text x="668" y="200" fill="#cdd6f4" font-size="11" text-anchor="middle">0.058</text>
<rect x="708" y="178" width="78" height="34" fill="#f16637" rx="3"/>
<text x="748" y="200" fill="#cdd6f4" font-size="11" text-anchor="middle">0.128</text>
</svg>