<svg xmlns="http://www.w3.org/2000/svg" width="808" height="274" style="background:#1e1e2e;font-family:monospace">
<text x="404" y="22" fill="#cdd6f4" font-size="14" text-anchor="middle" font-weight="bold">Overall Note F1 by Song</text>
<text x="404" y="40" fill="#a6adc8" font-size="10" text-anchor="middle">Rows are algorithms, columns are song/instrument combos. Higher is better.</text>
<text x="268" y="62" fill="#a6adc8" font-size="9" text-anchor="end" transform="rotate(-35 268 62)">psalm_1_bass</text>
<text x="348" y="62" fill="#a6adc8" font-size="9" text-anchor="end" transform="rotate(-35 348 62)">psalm_2_bass</text>
<text x="428" y="62" fill="#a6adc8" font-size="9" text-anchor="end" transform="rotate(-35 428 62)">psalm_3_bass</text>
<text x="508" y="62" fill="#a6adc8" font-size="9" text-anchor="end" transform="rotate(-35 508 62)">psalm_4_bass</text>
<text x="588" y="62" fill="#a6adc8" font-size="9" text-anchor="end" transform="rotate(-35 588 62)">psalm_5_bass</text>
<text x="668" y="62" fill="#a6adc8" font-size="9" text-anchor="end" transform="rotate(-35 668 62)">psalm_6_bass</text>
<text x="748" y="62" fill="#a6adc8" font-size="9" text-anchor="end" transform="rotate(-35 748 62)">psalm_7_bass</text>
<text x="220" y="92" fill="#cdd6f4" font-size="10" text-anchor="end">melodic_yin_octave_hps_fix</text>
<rect x="228" y="70" width="78" height="34" fill="#f0cb18" rx="3"/>
<text x="268" y="92" fill="#1e1e2e" font-size="11" text-anchor="middle">0.522</text>
<rect x="308" y="70" width="78" height="34" fill="#f0cb18" rx="3"/>
<text x="348" y="92" fill="#1e1e2e" font-size="11" text-anchor="middle">0.522</text>
<rect x="388" y="70" width="78" height="34" fill="#f58e2a" rx="3"/>
<text x="428" y="92" fill="#cdd6f4" font-size="11" text-anchor="middle">0.273</text>
<rect x="468" y="70" width="78" height="34" fill="#f6a123" rx="3"/>
<text x="508" y="92" fill="#cdd6f4" font-size="11" text-anchor="middle">0.342</text>
<rect x="548" y="70" width="78" height="34" fill="#f59129" rx="3"/>
<text x="588" y="92" fill="#cdd6f4" font-size="11" text-anchor="middle">0.284</text>
<rect x="628" y="70" width="78" height="34" fill="#f8b81b" rx="3"/>
<text x="668" y="92" fill="#1e1e2e" font-size="11" text-anchor="middle">0.428</text>
<rect x="708" y="70" width="78" height="34" fill="#f37d30" rx="3"/>
<text x="748" y="92" fill="#cdd6f4" font-size="11" text-anchor="middle">0.210</text>
<text x="220" y="128" fill="#cdd6f4" font-size="10" text-anchor="end">melodic_yin_octave_hps</text>
<rect x="228" y="106" width="78" height="34" fill="#f0cb18" rx="3"/>
<text x="268" y="128" fill="#1e1e2e" font-size="11" text-anchor="middle">0.522</text>
<rect x="308" y="106" width="78" height="34" fill="#f0cb18" rx="3"/>
<text x="348" y="128" fill="#1e1e2e" font-size="11" text-anchor="middle">0.522</text>
<rect x="388" y="106" width="78" height="34" fill="#f58e2a" rx="3"/>
<text x="428" y="128" fill="#cdd6f4" font-size="11" text-anchor="middle">0.273</text>
<rect x="468" y="106" width="78" height="34" fill="#f6a123" rx="3"/>
<text x="508" y="128" fill="#cdd6f4" font-size="11" text-anchor="middle">0.342</text>
<rect x="548" y="106" width="78" height="34" fill="#f59129" rx="3"/>
<text x="588" y="128" fill="#cdd6f4" font-size="11" text-anchor="middle">0.284</text>
<rect x="628" y="106" width="78" height="34" fill="#f8b81b" rx="3"/>
<text x="668" y="128" fill="#1e1e2e" font-size="11" text-anchor="middle">0.428</text>
<rect x="708" y="106" width="78" height="34" fill="#f37d30" rx="3"/>
<text x="748" y="128" fill="#cdd6f4" font-size="11" text-anchor="middle">0.210</text>
<text x="220" y="164" fill="#cdd6f4" font-size="10" text-anchor="end">melodic_combined</text>
<rect x="228" y="142" width="78" height="34" fill="#f6cb16" rx="3"/>
<text x="268" y="164" fill="#1e1e2e" font-size="11" text-anchor="middle">0.508</text>
<rect x="308" y="142" width="78" height="34" fill="#e8cb1a" rx="3"/>
<text x="348" y="164" fill="#1e1e2e" font-size="11" text-anchor="middle">0.540</text>
<rect x="388" y="142" width="78" height="34" fill="#f4862d" rx="3"/>
<text x="428" y="164" fill="#cdd6f4" font-size="11" text-anchor="middle">0.243</text>
<rect x="468" y="142" width="78" height="34" fill="#f59727" rx="3"/>
<text x="508" y="164" fill="#cdd6f4" font-size="11" text-anchor="middle">0.306</text>
<rect x="548" y="142" width="78" height="34" fill="#f59727" rx="3"/>
<text x="588" y="164" fill="#cdd6f4" font-size="11" text-anchor="middle">0.308</text>
<rect x="628" y="142" width="78" height="34" fill="#f7b21d" rx="3"/>
<text x="668" y="164" fill="#1e1e2e" font-size="11" text-anchor="middle">0.405</text>
<rect x="708" y="142" width="78" height="34" fill="#f37e2f" rx="3"/>
<text x="748" y="164" fill="#cdd6f4" font-size="11" text-anchor="middle">0.213</text>
<text x="220" y="200" fill="#cdd6f4" font-size="10" text-anchor="end">melodic_octave_fix</text>
<rect x="228" y="178" width="78" height="34" fill="#f6cb16" rx="3"/>
<text x="268" y="200" fill="#1e1e2e" font-size="11" text-anchor="middle">0.508</text>
<rect x="308" y="178" width="78" height="34" fill="#e8cb1a" rx="3"/>
<text x="348" y="200" fill="#1e1e2e" font-size="11" text-anchor="middle">0.540</text>
<rect x="388" y="178" width="78" height="34" fill="#f4862d" rx="3"/>
<text x="428" y="200" fill="#cdd6f4" font-size="11" text-anchor="middle">0.243</text>
<rect x="468" y="178" width="78" height="34" fill="#f59727" rx="3"/>
<text x="508" y="200" fill="#cdd6f4" font-size="11" text-anchor="middle">0.306</text>
<rect x="548" y="178" width="78" height="34" fill="#f59727" rx="3"/>
<text x="588" y="200" fill="#cdd6f4" font-size="11" text-anchor="middle">0.308</text>
<rect x="628" y="178" width="78" height="34" fill="#f7b21d" rx="3"/>
<text x="668" y="200" fill="#1e1e2e" font-size="11" text-anchor="middle">0.405</text>
<rect x="708" y="178" width="78" height="34" fill="#f37e2f" rx="3"/>
<text x="748" y="200" fill="#cdd6f4" font-size="11" text-anchor="middle">0.213</text>
</svg>