<svg xmlns="http://www.w3.org/2000/svg" width="932" height="350" style="background:#1e1e2e;font-family:monospace">
<text x="466" y="22" fill="#cdd6f4" font-size="14" text-anchor="middle" font-weight="bold">Per-Instrument Mean F1</text>
<text x="466" y="40" fill="#a6adc8" font-size="10" text-anchor="middle">Algorithm performance broken down by instrument.</text>
<line x1="60" y1="270" x2="912" y2="270" stroke="#313244" stroke-width="1"/>
<text x="55" y="274" fill="#a6adc8" font-size="9" text-anchor="end">0.0</text>
<line x1="60" y1="230" x2="912" y2="230" stroke="#313244" stroke-width="1"/>
<text x="55" y="234" fill="#a6adc8" font-size="9" text-anchor="end">0.2</text>
<line x1="60" y1="190" x2="912" y2="190" stroke="#313244" stroke-width="1"/>
<text x="55" y="194" fill="#a6adc8" font-size="9" text-anchor="end">0.4</text>
<line x1="60" y1="150" x2="912" y2="150" stroke="#313244" stroke-width="1"/>
<text x="55" y="154" fill="#a6adc8" font-size="9" text-anchor="end">0.6</text>
<line x1="60" y1="110" x2="912" y2="110" stroke="#313244" stroke-width="1"/>
<text x="55" y="114" fill="#a6adc8" font-size="9" text-anchor="end">0.8</text>
<line x1="60" y1="70" x2="912" y2="70" stroke="#313244" stroke-width="1"/>
<text x="55" y="74" fill="#a6adc8" font-size="9" text-anchor="end">1.0</text>
<rect x="70" y="251" width="26" height="19" fill="#7bd389" rx="2"/>
<text x="84" y="247" fill="#7bd389" font-size="8" text-anchor="middle">0.097</text>
<rect x="98" y="266" width="26" height="4" fill="#ff8f5a" rx="2"/>
<text x="112" y="262" fill="#ff8f5a" font-size="8" text-anchor="middle">0.024</text>
<rect x="126" y="231" width="26" height="39" fill="#5aa9e6" rx="2"/>
<text x="140" y="227" fill="#5aa9e6" font-size="8" text-anchor="middle">0.197</text>
<text x="112" y="286" fill="#a6adc8" font-size="8" text-anchor="middle" transform="rotate(-20 112 286)">melodic_basic_pitch</text>
<rect x="174" y="251" width="26" height="19" fill="#7bd389" rx="2"/>
<text x="188" y="247" fill="#7bd389" font-size="8" text-anchor="middle">0.098</text>
<rect x="202" y="268" width="26" height="2" fill="#ff8f5a" rx="2"/>
<text x="216" y="264" fill="#ff8f5a" font-size="8" text-anchor="middle">0.012</text>
<rect x="230" y="239" width="26" height="31" fill="#5aa9e6" rx="2"/>
<text x="244" y="235" fill="#5aa9e6" font-size="8" text-anchor="middle">0.159</text>
<text x="216" y="286" fill="#a6adc8" font-size="8" text-anchor="middle" transform="rotate(-20 216 286)">melodic_pyin</text>
<rect x="278" y="218" width="26" height="52" fill="#7bd389" rx="2"/>
<text x="292" y="214" fill="#7bd389" font-size="8" text-anchor="middle">0.264</text>
<rect x="306" y="244" width="26" height="26" fill="#ff8f5a" rx="2"/>
<text x="320" y="240" fill="#ff8f5a" font-size="8" text-anchor="middle">0.132</text>
<rect x="334" y="224" width="26" height="46" fill="#5aa9e6" rx="2"/>
<text x="348" y="220" fill="#5aa9e6" font-size="8" text-anchor="middle">0.232</text>
<text x="320" y="286" fill="#a6adc8" font-size="8" text-anchor="middle" transform="rotate(-20 320 286)">melodic_yin</text>
<rect x="382" y="211" width="26" height="59" fill="#7bd389" rx="2"/>
<text x="396" y="207" fill="#7bd389" font-size="8" text-anchor="middle">0.298</text>
<rect x="410" y="235" width="26" height="35" fill="#ff8f5a" rx="2"/>
<text x="424" y="231" fill="#ff8f5a" font-size="8" text-anchor="middle">0.178</text>
<rect x="438" y="223" width="26" height="47" fill="#5aa9e6" rx="2"/>
<text x="452" y="219" fill="#5aa9e6" font-size="8" text-anchor="middle">0.235</text>
<text x="424" y="286" fill="#a6adc8" font-size="8" text-anchor="middle" transform="rotate(-20 424 286)">melodic_onset_yin</text>
<rect x="486" y="218" width="26" height="52" fill="#7bd389" rx="2"/>
<text x="500" y="214" fill="#7bd389" font-size="8" text-anchor="middle">0.264</text>
<rect x="514" y="230" width="26" height="40" fill="#ff8f5a" rx="2"/>
<text x="528" y="226" fill="#ff8f5a" font-size="8" text-anchor="middle">0.201</text>
<rect x="542" y="218" width="26" height="52" fill="#5aa9e6" rx="2"/>
<text x="556" y="214" fill="#5aa9e6" font-size="8" text-anchor="middle">0.260</text>
<text x="528" y="286" fill="#a6adc8" font-size="8" text-anchor="middle" transform="rotate(-20 528 286)">melodic_hpss_yin</text>
<rect x="590" y="211" width="26" height="59" fill="#7bd389" rx="2"/>
<text x="604" y="207" fill="#7bd389" font-size="8" text-anchor="middle">0.298</text>
<rect x="618" y="233" width="26" height="37" fill="#ff8f5a" rx="2"/>
<text x="632" y="229" fill="#ff8f5a" font-size="8" text-anchor="middle">0.186</text>
<rect x="646" y="216" width="26" height="54" fill="#5aa9e6" rx="2"/>
<text x="660" y="212" fill="#5aa9e6" font-size="8" text-anchor="middle">0.272</text>
<text x="632" y="286" fill="#a6adc8" font-size="8" text-anchor="middle" transform="rotate(-20 632 286)">melodic_fft_hps</text>
<rect x="694" y="269" width="26" height="1" fill="#7bd389" rx="2"/>
<text x="708" y="265" fill="#7bd389" font-size="8" text-anchor="middle">0.000</text>
<rect x="722" y="269" width="26" height="1" fill="#ff8f5a" rx="2"/>
<text x="736" y="265" fill="#ff8f5a" font-size="8" text-anchor="middle">0.000</text>
<rect x="750" y="269" width="26" height="1" fill="#5aa9e6" rx="2"/>
<text x="764" y="265" fill="#5aa9e6" font-size="8" text-anchor="middle">0.000</text>
<text x="736" y="286" fill="#a6adc8" font-size="8" text-anchor="middle" transform="rotate(-20 736 286)">melodic_crepe</text>
<rect x="798" y="244" width="26" height="26" fill="#7bd389" rx="2"/>
<text x="812" y="240" fill="#7bd389" font-size="8" text-anchor="middle">0.135</text>
<rect x="826" y="251" width="26" height="19" fill="#ff8f5a" rx="2"/>
<text x="840" y="247" fill="#ff8f5a" font-size="8" text-anchor="middle">0.097</text>
<rect x="854" y="244" width="26" height="26" fill="#5aa9e6" rx="2"/>
<text x="868" y="240" fill="#5aa9e6" font-size="8" text-anchor="middle">0.135</text>
<text x="840" y="286" fill="#a6adc8" font-size="8" text-anchor="middle" transform="rotate(-20 840 286)">melodic_librosa_pyin</text>
<rect x="60" y="322" width="12" height="12" fill="#7bd389" rx="2"/>
<text x="76" y="332" fill="#cdd6f4" font-size="9">bass</text>
<rect x="220" y="322" width="12" height="12" fill="#ff8f5a" rx="2"/>
<text x="236" y="332" fill="#cdd6f4" font-size="9">lead_guitar</text>
<rect x="380" y="322" width="12" height="12" fill="#5aa9e6" rx="2"/>
<text x="396" y="332" fill="#cdd6f4" font-size="9">keys</text>
</svg>