<svg xmlns="http://www.w3.org/2000/svg" width="760" height="418" style="background:#1e1e2e;font-family:monospace">
<text x="380" y="22" fill="#cdd6f4" font-size="14" text-anchor="middle" font-weight="bold">Lead_Guitar F1 by Song</text>
<text x="380" y="40" fill="#a6adc8" font-size="10" text-anchor="middle">Per-song F1 for lead_guitar instrument tracks.</text>
<text x="220" y="62" fill="#a6adc8" font-size="9" text-anchor="end" transform="rotate(-35 220 62)">psalm_1_guit</text>
<text x="300" y="62" fill="#a6adc8" font-size="9" text-anchor="end" transform="rotate(-35 300 62)">psalm_2_guit</text>
<text x="380" y="62" fill="#a6adc8" font-size="9" text-anchor="end" transform="rotate(-35 380 62)">psalm_3_guit</text>
<text x="460" y="62" fill="#a6adc8" font-size="9" text-anchor="end" transform="rotate(-35 460 62)">psalm_4_guit</text>
<text x="540" y="62" fill="#a6adc8" font-size="9" text-anchor="end" transform="rotate(-35 540 62)">psalm_5_guit</text>
<text x="620" y="62" fill="#a6adc8" font-size="9" text-anchor="end" transform="rotate(-35 620 62)">psalm_6_guit</text>
<text x="700" y="62" fill="#a6adc8" font-size="9" text-anchor="end" transform="rotate(-35 700 62)">psalm_7_guit</text>
<text x="172" y="92" fill="#cdd6f4" font-size="10" text-anchor="end">melodic_basic_pitch</text>
<rect x="180" y="70" width="78" height="34" fill="#ef4443" rx="3"/>
<text x="220" y="92" fill="#cdd6f4" font-size="11" text-anchor="middle">0.003</text>
<rect x="260" y="70" width="78" height="34" fill="#ef4d40" rx="3"/>
<text x="300" y="92" fill="#cdd6f4" font-size="11" text-anchor="middle">0.036</text>
<rect x="340" y="70" width="78" height="34" fill="#ef4842" rx="3"/>
<text x="380" y="92" fill="#cdd6f4" font-size="11" text-anchor="middle">0.018</text>
<rect x="420" y="70" width="78" height="34" fill="#ef4543" rx="3"/>
<text x="460" y="92" fill="#cdd6f4" font-size="11" text-anchor="middle">0.005</text>
<rect x="500" y="70" width="78" height="34" fill="#f0553d" rx="3"/>
<text x="540" y="92" fill="#cdd6f4" font-size="11" text-anchor="middle">0.064</text>
<rect x="580" y="70" width="78" height="34" fill="#ef4842" rx="3"/>
<text x="620" y="92" fill="#cdd6f4" font-size="11" text-anchor="middle">0.018</text>
<rect x="660" y="70" width="78" height="34" fill="#ef4a41" rx="3"/>
<text x="700" y="92" fill="#cdd6f4" font-size="11" text-anchor="middle">0.026</text>
<text x="172" y="128" fill="#cdd6f4" font-size="10" text-anchor="end">melodic_pyin</text>
<rect x="180" y="106" width="78" height="34" fill="#ef4444" rx="3"/>
<text x="220" y="128" fill="#cdd6f4" font-size="11" text-anchor="middle">0.000</text>
<rect x="260" y="106" width="78" height="34" fill="#ef4a41" rx="3"/>
<text x="300" y="128" fill="#cdd6f4" font-size="11" text-anchor="middle">0.023</text>
<rect x="340" y="106" width="78" height="34" fill="#ef4643" rx="3"/>
<text x="380" y="128" fill="#cdd6f4" font-size="11" text-anchor="middle">0.010</text>
<rect x="420" y="106" width="78" height="34" fill="#ef4543" rx="3"/>
<text x="460" y="128" fill="#cdd6f4" font-size="11" text-anchor="middle">0.004</text>
<rect x="500" y="106" width="78" height="34" fill="#ef4c40" rx="3"/>
<text x="540" y="128" fill="#cdd6f4" font-size="11" text-anchor="middle">0.032</text>
<rect x="580" y="106" width="78" height="34" fill="#ef4643" rx="3"/>
<text x="620" y="128" fill="#cdd6f4" font-size="11" text-anchor="middle">0.009</text>
<rect x="660" y="106" width="78" height="34" fill="#ef4543" rx="3"/>
<text x="700" y="128" fill="#cdd6f4" font-size="11" text-anchor="middle">0.004</text>
<text x="172" y="164" fill="#cdd6f4" font-size="10" text-anchor="end">melodic_yin</text>
<rect x="180" y="142" width="78" height="34" fill="#f37b30" rx="3"/>
<text x="220" y="164" fill="#cdd6f4" font-size="11" text-anchor="middle">0.205</text>
<rect x="260" y="142" width="78" height="34" fill="#f26d35" rx="3"/>
<text x="300" y="164" fill="#cdd6f4" font-size="11" text-anchor="middle">0.154</text>
<rect x="340" y="142" width="78" height="34" fill="#f16837" rx="3"/>
<text x="380" y="164" fill="#cdd6f4" font-size="11" text-anchor="middle">0.133</text>
<rect x="420" y="142" width="78" height="34" fill="#f05a3c" rx="3"/>
<text x="460" y="164" fill="#cdd6f4" font-size="11" text-anchor="middle">0.083</text>
<rect x="500" y="142" width="78" height="34" fill="#f0583c" rx="3"/>
<text x="540" y="164" fill="#cdd6f4" font-size="11" text-anchor="middle">0.076</text>
<rect x="580" y="142" width="78" height="34" fill="#f26c35" rx="3"/>
<text x="620" y="164" fill="#cdd6f4" font-size="11" text-anchor="middle">0.150</text>
<rect x="660" y="142" width="78" height="34" fill="#f16538" rx="3"/>
<text x="700" y="164" fill="#cdd6f4" font-size="11" text-anchor="middle">0.122</text>
<text x="172" y="200" fill="#cdd6f4" font-size="10" text-anchor="end">melodic_onset_yin</text>
<rect x="180" y="178" width="78" height="34" fill="#f59926" rx="3"/>
<text x="220" y="200" fill="#cdd6f4" font-size="11" text-anchor="middle">0.314</text>
<rect x="260" y="178" width="78" height="34" fill="#f37c30" rx="3"/>
<text x="300" y="200" fill="#cdd6f4" font-size="11" text-anchor="middle">0.208</text>
<rect x="340" y="178" width="78" height="34" fill="#f27034" rx="3"/>
<text x="380" y="200" fill="#cdd6f4" font-size="11" text-anchor="middle">0.163</text>
<rect x="420" y="178" width="78" height="34" fill="#f16637" rx="3"/>
<text x="460" y="200" fill="#cdd6f4" font-size="11" text-anchor="middle">0.129</text>
<rect x="500" y="178" width="78" height="34" fill="#f15d3b" rx="3"/>
<text x="540" y="200" fill="#cdd6f4" font-size="11" text-anchor="middle">0.095</text>
<rect x="580" y="178" width="78" height="34" fill="#f27433" rx="3"/>
<text x="620" y="200" fill="#cdd6f4" font-size="11" text-anchor="middle">0.178</text>
<rect x="660" y="178" width="78" height="34" fill="#f26e35" rx="3"/>
<text x="700" y="200" fill="#cdd6f4" font-size="11" text-anchor="middle">0.158</text>
<text x="172" y="236" fill="#cdd6f4" font-size="10" text-anchor="end">melodic_hpss_yin</text>
<rect x="180" y="214" width="78" height="34" fill="#f48c2b" rx="3"/>
<text x="220" y="236" fill="#cdd6f4" font-size="11" text-anchor="middle">0.266</text>
<rect x="260" y="214" width="78" height="34" fill="#f37e2f" rx="3"/>
<text x="300" y="236" fill="#cdd6f4" font-size="11" text-anchor="middle">0.215</text>
<rect x="340" y="214" width="78" height="34" fill="#f37931" rx="3"/>
<text x="380" y="236" fill="#cdd6f4" font-size="11" text-anchor="middle">0.197</text>
<rect x="420" y="214" width="78" height="34" fill="#f27333" rx="3"/>
<text x="460" y="236" fill="#cdd6f4" font-size="11" text-anchor="middle">0.173</text>
<rect x="500" y="214" width="78" height="34" fill="#f16737" rx="3"/>
<text x="540" y="236" fill="#cdd6f4" font-size="11" text-anchor="middle">0.129</text>
<rect x="580" y="214" width="78" height="34" fill="#f37b30" rx="3"/>
<text x="620" y="236" fill="#cdd6f4" font-size="11" text-anchor="middle">0.203</text>
<rect x="660" y="214" width="78" height="34" fill="#f3802f" rx="3"/>
<text x="700" y="236" fill="#cdd6f4" font-size="11" text-anchor="middle">0.222</text>
<text x="172" y="272" fill="#cdd6f4" font-size="10" text-anchor="end">melodic_fft_hps</text>
<rect x="180" y="250" width="78" height="34" fill="#f4852d" rx="3"/>
<text x="220" y="272" fill="#cdd6f4" font-size="11" text-anchor="middle">0.239</text>
<rect x="260" y="250" width="78" height="34" fill="#f37931" rx="3"/>
<text x="300" y="272" fill="#cdd6f4" font-size="11" text-anchor="middle">0.196</text>
<rect x="340" y="250" width="78" height="34" fill="#f26c36" rx="3"/>
<text x="380" y="272" fill="#cdd6f4" font-size="11" text-anchor="middle">0.148</text>
<rect x="420" y="250" width="78" height="34" fill="#f26f35" rx="3"/>
<text x="460" y="272" fill="#cdd6f4" font-size="11" text-anchor="middle">0.159</text>
<rect x="500" y="250" width="78" height="34" fill="#f26937" rx="3"/>
<text x="540" y="272" fill="#cdd6f4" font-size="11" text-anchor="middle">0.137</text>
<rect x="580" y="250" width="78" height="34" fill="#f37a31" rx="3"/>
<text x="620" y="272" fill="#cdd6f4" font-size="11" text-anchor="middle">0.200</text>
<rect x="660" y="250" width="78" height="34" fill="#f3802f" rx="3"/>
<text x="700" y="272" fill="#cdd6f4" font-size="11" text-anchor="middle">0.223</text>
<text x="172" y="308" fill="#cdd6f4" font-size="10" text-anchor="end">melodic_crepe</text>
<rect x="180" y="286" width="78" height="34" fill="#ef4444" rx="3"/>
<text x="220" y="308" fill="#cdd6f4" font-size="11" text-anchor="middle">0.000</text>
<rect x="260" y="286" width="78" height="34" fill="#ef4444" rx="3"/>
<text x="300" y="308" fill="#cdd6f4" font-size="11" text-anchor="middle">0.000</text>
<rect x="340" y="286" width="78" height="34" fill="#ef4444" rx="3"/>
<text x="380" y="308" fill="#cdd6f4" font-size="11" text-anchor="middle">0.000</text>
<rect x="420" y="286" width="78" height="34" fill="#ef4444" rx="3"/>
<text x="460" y="308" fill="#cdd6f4" font-size="11" text-anchor="middle">0.000</text>
<rect x="500" y="286" width="78" height="34" fill="#ef4444" rx="3"/>
<text x="540" y="308" fill="#cdd6f4" font-size="11" text-anchor="middle">0.000</text>
<rect x="580" y="286" width="78" height="34" fill="#ef4444" rx="3"/>
<text x="620" y="308" fill="#cdd6f4" font-size="11" text-anchor="middle">0.000</text>
<rect x="660" y="286" width="78" height="34" fill="#ef4444" rx="3"/>
<text x="700" y="308" fill="#cdd6f4" font-size="11" text-anchor="middle">0.000</text>
<text x="172" y="344" fill="#cdd6f4" font-size="10" text-anchor="end">melodic_librosa_pyin</text>
<rect x="180" y="322" width="78" height="34" fill="#f16638" rx="3"/>
<text x="220" y="344" fill="#cdd6f4" font-size="11" text-anchor="middle">0.126</text>
<rect x="260" y="322" width="78" height="34" fill="#f05a3c" rx="3"/>
<text x="300" y="344" fill="#cdd6f4" font-size="11" text-anchor="middle">0.083</text>
<rect x="340" y="322" width="78" height="34" fill="#f16637" rx="3"/>
<text x="380" y="344" fill="#cdd6f4" font-size="11" text-anchor="middle">0.128</text>
<rect x="420" y="322" width="78" height="34" fill="#f05a3c" rx="3"/>
<text x="460" y="344" fill="#cdd6f4" font-size="11" text-anchor="middle">0.083</text>
<rect x="500" y="322" width="78" height="34" fill="#f0543e" rx="3"/>
<text x="540" y="344" fill="#cdd6f4" font-size="11" text-anchor="middle">0.059</text>
<rect x="580" y="322" width="78" height="34" fill="#f1603a" rx="3"/>
<text x="620" y="344" fill="#cdd6f4" font-size="11" text-anchor="middle">0.106</text>
<rect x="660" y="322" width="78" height="34" fill="#f15d3b" rx="3"/>
<text x="700" y="344" fill="#cdd6f4" font-size="11" text-anchor="middle">0.094</text>
</svg>