<svg xmlns="http://www.w3.org/2000/svg" width="1720" height="418" style="background:#1e1e2e;font-family:monospace">
<text x="860" y="22" fill="#cdd6f4" font-size="14" text-anchor="middle" font-weight="bold">Pitch Accuracy by Song</text>
<text x="860" y="40" fill="#a6adc8" font-size="10" text-anchor="middle">Fraction of matched notes with correct pitch (±1 semitone).</text>
<text x="220" y="62" fill="#a6adc8" font-size="9" text-anchor="end" transform="rotate(-35 220 62)">psalm_1_bass</text>
<text x="300" y="62" fill="#a6adc8" font-size="9" text-anchor="end" transform="rotate(-35 300 62)">psalm_1_guit</text>
<text x="380" y="62" fill="#a6adc8" font-size="9" text-anchor="end" transform="rotate(-35 380 62)">psalm_1_synt</text>
<text x="460" y="62" fill="#a6adc8" font-size="9" text-anchor="end" transform="rotate(-35 460 62)">psalm_2_bass</text>
<text x="540" y="62" fill="#a6adc8" font-size="9" text-anchor="end" transform="rotate(-35 540 62)">psalm_2_guit</text>
<text x="620" y="62" fill="#a6adc8" font-size="9" text-anchor="end" transform="rotate(-35 620 62)">psalm_2_synt</text>
<text x="700" y="62" fill="#a6adc8" font-size="9" text-anchor="end" transform="rotate(-35 700 62)">psalm_3_bass</text>
<text x="780" y="62" fill="#a6adc8" font-size="9" text-anchor="end" transform="rotate(-35 780 62)">psalm_3_guit</text>
<text x="860" y="62" fill="#a6adc8" font-size="9" text-anchor="end" transform="rotate(-35 860 62)">psalm_4_bass</text>
<text x="940" y="62" fill="#a6adc8" font-size="9" text-anchor="end" transform="rotate(-35 940 62)">psalm_4_guit</text>
<text x="1020" y="62" fill="#a6adc8" font-size="9" text-anchor="end" transform="rotate(-35 1020 62)">psalm_4_synt</text>
<text x="1100" y="62" fill="#a6adc8" font-size="9" text-anchor="end" transform="rotate(-35 1100 62)">psalm_5_bass</text>
<text x="1180" y="62" fill="#a6adc8" font-size="9" text-anchor="end" transform="rotate(-35 1180 62)">psalm_5_guit</text>
<text x="1260" y="62" fill="#a6adc8" font-size="9" text-anchor="end" transform="rotate(-35 1260 62)">psalm_5_synt</text>
<text x="1340" y="62" fill="#a6adc8" font-size="9" text-anchor="end" transform="rotate(-35 1340 62)">psalm_6_bass</text>
<text x="1420" y="62" fill="#a6adc8" font-size="9" text-anchor="end" transform="rotate(-35 1420 62)">psalm_6_guit</text>
<text x="1500" y="62" fill="#a6adc8" font-size="9" text-anchor="end" transform="rotate(-35 1500 62)">psalm_7_bass</text>
<text x="1580" y="62" fill="#a6adc8" font-size="9" text-anchor="end" transform="rotate(-35 1580 62)">psalm_7_guit</text>
<text x="1660" y="62" fill="#a6adc8" font-size="9" text-anchor="end" transform="rotate(-35 1660 62)">psalm_7_synt</text>
<text x="172" y="92" fill="#cdd6f4" font-size="10" text-anchor="end">melodic_basic_pitch</text>
<rect x="180" y="70" width="78" height="34" fill="#f26c35" rx="3"/>
<text x="220" y="92" fill="#cdd6f4" font-size="11" text-anchor="middle">0.150</text>
<rect x="260" y="70" width="78" height="34" fill="#ef4444" rx="3"/>
<text x="300" y="92" fill="#cdd6f4" font-size="11" text-anchor="middle">0.000</text>
<rect x="340" y="70" width="78" height="34" fill="#ef4d40" rx="3"/>
<text x="380" y="92" fill="#cdd6f4" font-size="11" text-anchor="middle">0.033</text>
<rect x="420" y="70" width="78" height="34" fill="#f4cb16" rx="3"/>
<text x="460" y="92" fill="#1e1e2e" font-size="11" text-anchor="middle">0.513</text>
<rect x="500" y="70" width="78" height="34" fill="#ef4444" rx="3"/>
<text x="540" y="92" fill="#cdd6f4" font-size="11" text-anchor="middle">0.000</text>
<rect x="580" y="70" width="78" height="34" fill="#ef4444" rx="3"/>
<text x="620" y="92" fill="#cdd6f4" font-size="11" text-anchor="middle">0.000</text>
<rect x="660" y="70" width="78" height="34" fill="#ef4444" rx="3"/>
<text x="700" y="92" fill="#cdd6f4" font-size="11" text-anchor="middle">0.000</text>
<rect x="740" y="70" width="78" height="34" fill="#ef4444" rx="3"/>
<text x="780" y="92" fill="#cdd6f4" font-size="11" text-anchor="middle">0.000</text>
<rect x="820" y="70" width="78" height="34" fill="#ef4444" rx="3"/>
<text x="860" y="92" fill="#cdd6f4" font-size="11" text-anchor="middle">0.000</text>
<rect x="900" y="70" width="78" height="34" fill="#f4882c" rx="3"/>
<text x="940" y="92" fill="#cdd6f4" font-size="11" text-anchor="middle">0.250</text>
<rect x="980" y="70" width="78" height="34" fill="#ef4742" rx="3"/>
<text x="1020" y="92" fill="#cdd6f4" font-size="11" text-anchor="middle">0.013</text>
<rect x="1060" y="70" width="78" height="34" fill="#f15f3a" rx="3"/>
<text x="1100" y="92" fill="#cdd6f4" font-size="11" text-anchor="middle">0.100</text>
<rect x="1140" y="70" width="78" height="34" fill="#ef4b41" rx="3"/>
<text x="1180" y="92" fill="#cdd6f4" font-size="11" text-anchor="middle">0.028</text>
<rect x="1220" y="70" width="78" height="34" fill="#f16638" rx="3"/>
<text x="1260" y="92" fill="#cdd6f4" font-size="11" text-anchor="middle">0.125</text>
<rect x="1300" y="70" width="78" height="34" fill="#f69b25" rx="3"/>
<text x="1340" y="92" fill="#cdd6f4" font-size="11" text-anchor="middle">0.320</text>
<rect x="1380" y="70" width="78" height="34" fill="#ef4444" rx="3"/>
<text x="1420" y="92" fill="#cdd6f4" font-size="11" text-anchor="middle">0.000</text>
<rect x="1460" y="70" width="78" height="34" fill="#f0533e" rx="3"/>
<text x="1500" y="92" fill="#cdd6f4" font-size="11" text-anchor="middle">0.059</text>
<rect x="1540" y="70" width="78" height="34" fill="#ef4444" rx="3"/>
<text x="1580" y="92" fill="#cdd6f4" font-size="11" text-anchor="middle">0.000</text>
<rect x="1620" y="70" width="78" height="34" fill="#ef4444" rx="3"/>
<text x="1660" y="92" fill="#cdd6f4" font-size="11" text-anchor="middle">0.000</text>
<text x="172" y="128" fill="#cdd6f4" font-size="10" text-anchor="end">melodic_pyin</text>
<rect x="180" y="106" width="78" height="34" fill="#ef4444" rx="3"/>
<text x="220" y="128" fill="#cdd6f4" font-size="11" text-anchor="middle">0.000</text>
<rect x="260" y="106" width="78" height="34" fill="#ef4444" rx="3"/>
<text x="300" y="128" fill="#cdd6f4" font-size="11" text-anchor="middle">0.000</text>
<rect x="340" y="106" width="78" height="34" fill="#f05c3b" rx="3"/>
<text x="380" y="128" fill="#cdd6f4" font-size="11" text-anchor="middle">0.091</text>
<rect x="420" y="106" width="78" height="34" fill="#f8b91b" rx="3"/>
<text x="460" y="128" fill="#1e1e2e" font-size="11" text-anchor="middle">0.431</text>
<rect x="500" y="106" width="78" height="34" fill="#ef4444" rx="3"/>
<text x="540" y="128" fill="#cdd6f4" font-size="11" text-anchor="middle">0.000</text>
<rect x="580" y="106" width="78" height="34" fill="#ef4444" rx="3"/>
<text x="620" y="128" fill="#cdd6f4" font-size="11" text-anchor="middle">0.000</text>
<rect x="660" y="106" width="78" height="34" fill="#ef4444" rx="3"/>
<text x="700" y="128" fill="#cdd6f4" font-size="11" text-anchor="middle">0.000</text>
<rect x="740" y="106" width="78" height="34" fill="#ef4444" rx="3"/>
<text x="780" y="128" fill="#cdd6f4" font-size="11" text-anchor="middle">0.000</text>
<rect x="820" y="106" width="78" height="34" fill="#ef4444" rx="3"/>
<text x="860" y="128" fill="#cdd6f4" font-size="11" text-anchor="middle">0.000</text>
<rect x="900" y="106" width="78" height="34" fill="#ef4444" rx="3"/>
<text x="940" y="128" fill="#cdd6f4" font-size="11" text-anchor="middle">0.000</text>
<rect x="980" y="106" width="78" height="34" fill="#ef4842" rx="3"/>
<text x="1020" y="128" fill="#cdd6f4" font-size="11" text-anchor="middle">0.017</text>
<rect x="1060" y="106" width="78" height="34" fill="#f26d35" rx="3"/>
<text x="1100" y="128" fill="#cdd6f4" font-size="11" text-anchor="middle">0.154</text>
<rect x="1140" y="106" width="78" height="34" fill="#f16638" rx="3"/>
<text x="1180" y="128" fill="#cdd6f4" font-size="11" text-anchor="middle">0.125</text>
<rect x="1220" y="106" width="78" height="34" fill="#f26a36" rx="3"/>
<text x="1260" y="128" fill="#cdd6f4" font-size="11" text-anchor="middle">0.143</text>
<rect x="1300" y="106" width="78" height="34" fill="#f4852d" rx="3"/>
<text x="1340" y="128" fill="#cdd6f4" font-size="11" text-anchor="middle">0.240</text>
<rect x="1380" y="106" width="78" height="34" fill="#ef4444" rx="3"/>
<text x="1420" y="128" fill="#cdd6f4" font-size="11" text-anchor="middle">0.000</text>
<rect x="1460" y="106" width="78" height="34" fill="#f37732" rx="3"/>
<text x="1500" y="128" fill="#cdd6f4" font-size="11" text-anchor="middle">0.188</text>
<rect x="1540" y="106" width="78" height="34" fill="#ef4444" rx="3"/>
<text x="1580" y="128" fill="#cdd6f4" font-size="11" text-anchor="middle">0.000</text>
<rect x="1620" y="106" width="78" height="34" fill="#ef4444" rx="3"/>
<text x="1660" y="128" fill="#cdd6f4" font-size="11" text-anchor="middle">0.000</text>
<text x="172" y="164" fill="#cdd6f4" font-size="10" text-anchor="end">melodic_yin</text>
<rect x="180" y="142" width="78" height="34" fill="#ef4f40" rx="3"/>
<text x="220" y="164" fill="#cdd6f4" font-size="11" text-anchor="middle">0.041</text>
<rect x="260" y="142" width="78" height="34" fill="#f0513f" rx="3"/>
<text x="300" y="164" fill="#cdd6f4" font-size="11" text-anchor="middle">0.049</text>
<rect x="340" y="142" width="78" height="34" fill="#f16638" rx="3"/>
<text x="380" y="164" fill="#cdd6f4" font-size="11" text-anchor="middle">0.126</text>
<rect x="420" y="142" width="78" height="34" fill="#f0513f" rx="3"/>
<text x="460" y="164" fill="#cdd6f4" font-size="11" text-anchor="middle">0.048</text>
<rect x="500" y="142" width="78" height="34" fill="#f26c35" rx="3"/>
<text x="540" y="164" fill="#cdd6f4" font-size="11" text-anchor="middle">0.149</text>
<rect x="580" y="142" width="78" height="34" fill="#f16339" rx="3"/>
<text x="620" y="164" fill="#cdd6f4" font-size="11" text-anchor="middle">0.117</text>
<rect x="660" y="142" width="78" height="34" fill="#f58f29" rx="3"/>
<text x="700" y="164" fill="#cdd6f4" font-size="11" text-anchor="middle">0.279</text>
<rect x="740" y="142" width="78" height="34" fill="#f6a522" rx="3"/>
<text x="780" y="164" fill="#cdd6f4" font-size="11" text-anchor="middle">0.357</text>
<rect x="820" y="142" width="78" height="34" fill="#d6ca20" rx="3"/>
<text x="860" y="164" fill="#1e1e2e" font-size="11" text-anchor="middle">0.581</text>
<rect x="900" y="142" width="78" height="34" fill="#f3802e" rx="3"/>
<text x="940" y="164" fill="#cdd6f4" font-size="11" text-anchor="middle">0.224</text>
<rect x="980" y="142" width="78" height="34" fill="#f26f34" rx="3"/>
<text x="1020" y="164" fill="#cdd6f4" font-size="11" text-anchor="middle">0.160</text>
<rect x="1060" y="142" width="78" height="34" fill="#f59029" rx="3"/>
<text x="1100" y="164" fill="#cdd6f4" font-size="11" text-anchor="middle">0.283</text>
<rect x="1140" y="142" width="78" height="34" fill="#f37c30" rx="3"/>
<text x="1180" y="164" fill="#cdd6f4" font-size="11" text-anchor="middle">0.208</text>
<rect x="1220" y="142" width="78" height="34" fill="#f0523f" rx="3"/>
<text x="1260" y="164" fill="#cdd6f4" font-size="11" text-anchor="middle">0.053</text>
<rect x="1300" y="142" width="78" height="34" fill="#f59228" rx="3"/>
<text x="1340" y="164" fill="#cdd6f4" font-size="11" text-anchor="middle">0.288</text>
<rect x="1380" y="142" width="78" height="34" fill="#f59727" rx="3"/>
<text x="1420" y="164" fill="#cdd6f4" font-size="11" text-anchor="middle">0.308</text>
<rect x="1460" y="142" width="78" height="34" fill="#f27034" rx="3"/>
<text x="1500" y="164" fill="#cdd6f4" font-size="11" text-anchor="middle">0.163</text>
<rect x="1540" y="142" width="78" height="34" fill="#f48b2b" rx="3"/>
<text x="1580" y="164" fill="#cdd6f4" font-size="11" text-anchor="middle">0.264</text>
<rect x="1620" y="142" width="78" height="34" fill="#ef4444" rx="3"/>
<text x="1660" y="164" fill="#cdd6f4" font-size="11" text-anchor="middle">0.000</text>
<text x="172" y="200" fill="#cdd6f4" font-size="10" text-anchor="end">melodic_onset_yin</text>
<rect x="180" y="178" width="78" height="34" fill="#f0523e" rx="3"/>
<text x="220" y="200" fill="#cdd6f4" font-size="11" text-anchor="middle">0.054</text>
<rect x="260" y="178" width="78" height="34" fill="#f0553d" rx="3"/>
<text x="300" y="200" fill="#cdd6f4" font-size="11" text-anchor="middle">0.065</text>
<rect x="340" y="178" width="78" height="34" fill="#f1603a" rx="3"/>
<text x="380" y="200" fill="#cdd6f4" font-size="11" text-anchor="middle">0.106</text>
<rect x="420" y="178" width="78" height="34" fill="#f0513f" rx="3"/>
<text x="460" y="200" fill="#cdd6f4" font-size="11" text-anchor="middle">0.051</text>
<rect x="500" y="178" width="78" height="34" fill="#f26d35" rx="3"/>
<text x="540" y="200" fill="#cdd6f4" font-size="11" text-anchor="middle">0.151</text>
<rect x="580" y="178" width="78" height="34" fill="#f26937" rx="3"/>
<text x="620" y="200" fill="#cdd6f4" font-size="11" text-anchor="middle">0.138</text>
<rect x="660" y="178" width="78" height="34" fill="#f37f2f" rx="3"/>
<text x="700" y="200" fill="#cdd6f4" font-size="11" text-anchor="middle">0.219</text>
<rect x="740" y="178" width="78" height="34" fill="#f59527" rx="3"/>
<text x="780" y="200" fill="#cdd6f4" font-size="11" text-anchor="middle">0.300</text>
<rect x="820" y="178" width="78" height="34" fill="#f8be19" rx="3"/>
<text x="860" y="200" fill="#1e1e2e" font-size="11" text-anchor="middle">0.451</text>
<rect x="900" y="178" width="78" height="34" fill="#f37a31" rx="3"/>
<text x="940" y="200" fill="#cdd6f4" font-size="11" text-anchor="middle">0.200</text>
<rect x="980" y="178" width="78" height="34" fill="#f16339" rx="3"/>
<text x="1020" y="200" fill="#cdd6f4" font-size="11" text-anchor="middle">0.117</text>
<rect x="1060" y="178" width="78" height="34" fill="#f58f2a" rx="3"/>
<text x="1100" y="200" fill="#cdd6f4" font-size="11" text-anchor="middle">0.276</text>
<rect x="1140" y="178" width="78" height="34" fill="#f26d35" rx="3"/>
<text x="1180" y="200" fill="#cdd6f4" font-size="11" text-anchor="middle">0.151</text>
<rect x="1220" y="178" width="78" height="34" fill="#ef4444" rx="3"/>
<text x="1260" y="200" fill="#cdd6f4" font-size="11" text-anchor="middle">0.000</text>
<rect x="1300" y="178" width="78" height="34" fill="#f59029" rx="3"/>
<text x="1340" y="200" fill="#cdd6f4" font-size="11" text-anchor="middle">0.281</text>
<rect x="1380" y="178" width="78" height="34" fill="#f59129" rx="3"/>
<text x="1420" y="200" fill="#cdd6f4" font-size="11" text-anchor="middle">0.283</text>
<rect x="1460" y="178" width="78" height="34" fill="#f26d35" rx="3"/>
<text x="1500" y="200" fill="#cdd6f4" font-size="11" text-anchor="middle">0.151</text>
<rect x="1540" y="178" width="78" height="34" fill="#f37f2f" rx="3"/>
<text x="1580" y="200" fill="#cdd6f4" font-size="11" text-anchor="middle">0.220</text>
<rect x="1620" y="178" width="78" height="34" fill="#ef4444" rx="3"/>
<text x="1660" y="200" fill="#cdd6f4" font-size="11" text-anchor="middle">0.000</text>
<text x="172" y="236" fill="#cdd6f4" font-size="10" text-anchor="end">melodic_hpss_yin</text>
<rect x="180" y="214" width="78" height="34" fill="#ef4e40" rx="3"/>
<text x="220" y="236" fill="#cdd6f4" font-size="11" text-anchor="middle">0.040</text>
<rect x="260" y="214" width="78" height="34" fill="#f15d3b" rx="3"/>
<text x="300" y="236" fill="#cdd6f4" font-size="11" text-anchor="middle">0.094</text>
<rect x="340" y="214" width="78" height="34" fill="#f16538" rx="3"/>
<text x="380" y="236" fill="#cdd6f4" font-size="11" text-anchor="middle">0.124</text>
<rect x="420" y="214" width="78" height="34" fill="#f0543e" rx="3"/>
<text x="460" y="236" fill="#cdd6f4" font-size="11" text-anchor="middle">0.061</text>
<rect x="500" y="214" width="78" height="34" fill="#f16737" rx="3"/>
<text x="540" y="236" fill="#cdd6f4" font-size="11" text-anchor="middle">0.132</text>
<rect x="580" y="214" width="78" height="34" fill="#f16837" rx="3"/>
<text x="620" y="236" fill="#cdd6f4" font-size="11" text-anchor="middle">0.133</text>
<rect x="660" y="214" width="78" height="34" fill="#f58f2a" rx="3"/>
<text x="700" y="236" fill="#cdd6f4" font-size="11" text-anchor="middle">0.276</text>
<rect x="740" y="214" width="78" height="34" fill="#f59826" rx="3"/>
<text x="780" y="236" fill="#cdd6f4" font-size="11" text-anchor="middle">0.310</text>
<rect x="820" y="214" width="78" height="34" fill="#ddcb1e" rx="3"/>
<text x="860" y="236" fill="#1e1e2e" font-size="11" text-anchor="middle">0.567</text>
<rect x="900" y="214" width="78" height="34" fill="#f37f2f" rx="3"/>
<text x="940" y="236" fill="#cdd6f4" font-size="11" text-anchor="middle">0.219</text>
<rect x="980" y="214" width="78" height="34" fill="#f26c35" rx="3"/>
<text x="1020" y="236" fill="#cdd6f4" font-size="11" text-anchor="middle">0.149</text>
<rect x="1060" y="214" width="78" height="34" fill="#f59428" rx="3"/>
<text x="1100" y="236" fill="#cdd6f4" font-size="11" text-anchor="middle">0.298</text>
<rect x="1140" y="214" width="78" height="34" fill="#f16638" rx="3"/>
<text x="1180" y="236" fill="#cdd6f4" font-size="11" text-anchor="middle">0.126</text>
<rect x="1220" y="214" width="78" height="34" fill="#ef4e40" rx="3"/>
<text x="1260" y="236" fill="#cdd6f4" font-size="11" text-anchor="middle">0.038</text>
<rect x="1300" y="214" width="78" height="34" fill="#f59926" rx="3"/>
<text x="1340" y="236" fill="#cdd6f4" font-size="11" text-anchor="middle">0.315</text>
<rect x="1380" y="214" width="78" height="34" fill="#f4862c" rx="3"/>
<text x="1420" y="236" fill="#cdd6f4" font-size="11" text-anchor="middle">0.245</text>
<rect x="1460" y="214" width="78" height="34" fill="#f27433" rx="3"/>
<text x="1500" y="236" fill="#cdd6f4" font-size="11" text-anchor="middle">0.177</text>
<rect x="1540" y="214" width="78" height="34" fill="#f4892b" rx="3"/>
<text x="1580" y="236" fill="#cdd6f4" font-size="11" text-anchor="middle">0.257</text>
<rect x="1620" y="214" width="78" height="34" fill="#ef4444" rx="3"/>
<text x="1660" y="236" fill="#cdd6f4" font-size="11" text-anchor="middle">0.000</text>
<text x="172" y="272" fill="#cdd6f4" font-size="10" text-anchor="end">melodic_fft_hps</text>
<rect x="180" y="250" width="78" height="34" fill="#ef4444" rx="3"/>
<text x="220" y="272" fill="#cdd6f4" font-size="11" text-anchor="middle">0.000</text>
<rect x="260" y="250" width="78" height="34" fill="#f59228" rx="3"/>
<text x="300" y="272" fill="#cdd6f4" font-size="11" text-anchor="middle">0.289</text>
<rect x="340" y="250" width="78" height="34" fill="#f26c36" rx="3"/>
<text x="380" y="272" fill="#cdd6f4" font-size="11" text-anchor="middle">0.149</text>
<rect x="420" y="250" width="78" height="34" fill="#ef4443" rx="3"/>
<text x="460" y="272" fill="#cdd6f4" font-size="11" text-anchor="middle">0.004</text>
<rect x="500" y="250" width="78" height="34" fill="#f48d2a" rx="3"/>
<text x="540" y="272" fill="#cdd6f4" font-size="11" text-anchor="middle">0.269</text>
<rect x="580" y="250" width="78" height="34" fill="#f69b25" rx="3"/>
<text x="620" y="272" fill="#cdd6f4" font-size="11" text-anchor="middle">0.323</text>
<rect x="660" y="250" width="78" height="34" fill="#f1603a" rx="3"/>
<text x="700" y="272" fill="#cdd6f4" font-size="11" text-anchor="middle">0.103</text>
<rect x="740" y="250" width="78" height="34" fill="#f4852d" rx="3"/>
<text x="780" y="272" fill="#cdd6f4" font-size="11" text-anchor="middle">0.241</text>
<rect x="820" y="250" width="78" height="34" fill="#85c83c" rx="3"/>
<text x="860" y="272" fill="#1e1e2e" font-size="11" text-anchor="middle">0.769</text>
<rect x="900" y="250" width="78" height="34" fill="#f37732" rx="3"/>
<text x="940" y="272" fill="#cdd6f4" font-size="11" text-anchor="middle">0.190</text>
<rect x="980" y="250" width="78" height="34" fill="#f48d2a" rx="3"/>
<text x="1020" y="272" fill="#cdd6f4" font-size="11" text-anchor="middle">0.272</text>
<rect x="1060" y="250" width="78" height="34" fill="#ef4a41" rx="3"/>
<text x="1100" y="272" fill="#cdd6f4" font-size="11" text-anchor="middle">0.023</text>
<rect x="1140" y="250" width="78" height="34" fill="#f4832e" rx="3"/>
<text x="1180" y="272" fill="#cdd6f4" font-size="11" text-anchor="middle">0.232</text>
<rect x="1220" y="250" width="78" height="34" fill="#f69a26" rx="3"/>
<text x="1260" y="272" fill="#cdd6f4" font-size="11" text-anchor="middle">0.318</text>
<rect x="1300" y="250" width="78" height="34" fill="#f0583c" rx="3"/>
<text x="1340" y="272" fill="#cdd6f4" font-size="11" text-anchor="middle">0.077</text>
<rect x="1380" y="250" width="78" height="34" fill="#f37931" rx="3"/>
<text x="1420" y="272" fill="#cdd6f4" font-size="11" text-anchor="middle">0.198</text>
<rect x="1460" y="250" width="78" height="34" fill="#f16139" rx="3"/>
<text x="1500" y="272" fill="#cdd6f4" font-size="11" text-anchor="middle">0.107</text>
<rect x="1540" y="250" width="78" height="34" fill="#f58f29" rx="3"/>
<text x="1580" y="272" fill="#cdd6f4" font-size="11" text-anchor="middle">0.279</text>
<rect x="1620" y="250" width="78" height="34" fill="#ef4444" rx="3"/>
<text x="1660" y="272" fill="#cdd6f4" font-size="11" text-anchor="middle">0.000</text>
<text x="172" y="308" fill="#cdd6f4" font-size="10" text-anchor="end">melodic_crepe</text>
<rect x="180" y="286" width="78" height="34" fill="#ef4444" rx="3"/>
<text x="220" y="308" fill="#cdd6f4" font-size="11" text-anchor="middle">0.000</text>
<rect x="260" y="286" width="78" height="34" fill="#ef4444" rx="3"/>
<text x="300" y="308" fill="#cdd6f4" font-size="11" text-anchor="middle">0.000</text>
<rect x="340" y="286" width="78" height="34" fill="#ef4444" rx="3"/>
<text x="380" y="308" fill="#cdd6f4" font-size="11" text-anchor="middle">0.000</text>
<rect x="420" y="286" width="78" height="34" fill="#ef4444" rx="3"/>
<text x="460" y="308" fill="#cdd6f4" font-size="11" text-anchor="middle">0.000</text>
<rect x="500" y="286" width="78" height="34" fill="#ef4444" rx="3"/>
<text x="540" y="308" fill="#cdd6f4" font-size="11" text-anchor="middle">0.000</text>
<rect x="580" y="286" width="78" height="34" fill="#ef4444" rx="3"/>
<text x="620" y="308" fill="#cdd6f4" font-size="11" text-anchor="middle">0.000</text>
<rect x="660" y="286" width="78" height="34" fill="#ef4444" rx="3"/>
<text x="700" y="308" fill="#cdd6f4" font-size="11" text-anchor="middle">0.000</text>
<rect x="740" y="286" width="78" height="34" fill="#ef4444" rx="3"/>
<text x="780" y="308" fill="#cdd6f4" font-size="11" text-anchor="middle">0.000</text>
<rect x="820" y="286" width="78" height="34" fill="#ef4444" rx="3"/>
<text x="860" y="308" fill="#cdd6f4" font-size="11" text-anchor="middle">0.000</text>
<rect x="900" y="286" width="78" height="34" fill="#ef4444" rx="3"/>
<text x="940" y="308" fill="#cdd6f4" font-size="11" text-anchor="middle">0.000</text>
<rect x="980" y="286" width="78" height="34" fill="#ef4444" rx="3"/>
<text x="1020" y="308" fill="#cdd6f4" font-size="11" text-anchor="middle">0.000</text>
<rect x="1060" y="286" width="78" height="34" fill="#ef4444" rx="3"/>
<text x="1100" y="308" fill="#cdd6f4" font-size="11" text-anchor="middle">0.000</text>
<rect x="1140" y="286" width="78" height="34" fill="#ef4444" rx="3"/>
<text x="1180" y="308" fill="#cdd6f4" font-size="11" text-anchor="middle">0.000</text>
<rect x="1220" y="286" width="78" height="34" fill="#ef4444" rx="3"/>
<text x="1260" y="308" fill="#cdd6f4" font-size="11" text-anchor="middle">0.000</text>
<rect x="1300" y="286" width="78" height="34" fill="#ef4444" rx="3"/>
<text x="1340" y="308" fill="#cdd6f4" font-size="11" text-anchor="middle">0.000</text>
<rect x="1380" y="286" width="78" height="34" fill="#ef4444" rx="3"/>
<text x="1420" y="308" fill="#cdd6f4" font-size="11" text-anchor="middle">0.000</text>
<rect x="1460" y="286" width="78" height="34" fill="#ef4444" rx="3"/>
<text x="1500" y="308" fill="#cdd6f4" font-size="11" text-anchor="middle">0.000</text>
<rect x="1540" y="286" width="78" height="34" fill="#ef4444" rx="3"/>
<text x="1580" y="308" fill="#cdd6f4" font-size="11" text-anchor="middle">0.000</text>
<rect x="1620" y="286" width="78" height="34" fill="#ef4444" rx="3"/>
<text x="1660" y="308" fill="#cdd6f4" font-size="11" text-anchor="middle">0.000</text>
<text x="172" y="344" fill="#cdd6f4" font-size="10" text-anchor="end">melodic_librosa_pyin</text>
<rect x="180" y="322" width="78" height="34" fill="#f15f3a" rx="3"/>
<text x="220" y="344" fill="#cdd6f4" font-size="11" text-anchor="middle">0.100</text>
<rect x="260" y="322" width="78" height="34" fill="#f4822e" rx="3"/>
<text x="300" y="344" fill="#cdd6f4" font-size="11" text-anchor="middle">0.229</text>
<rect x="340" y="322" width="78" height="34" fill="#f59627" rx="3"/>
<text x="380" y="344" fill="#cdd6f4" font-size="11" text-anchor="middle">0.303</text>
<rect x="420" y="322" width="78" height="34" fill="#f0543e" rx="3"/>
<text x="460" y="344" fill="#cdd6f4" font-size="11" text-anchor="middle">0.060</text>
<rect x="500" y="322" width="78" height="34" fill="#f59727" rx="3"/>
<text x="540" y="344" fill="#cdd6f4" font-size="11" text-anchor="middle">0.308</text>
<rect x="580" y="322" width="78" height="34" fill="#f8b41d" rx="3"/>
<text x="620" y="344" fill="#1e1e2e" font-size="11" text-anchor="middle">0.412</text>
<rect x="660" y="322" width="78" height="34" fill="#f59627" rx="3"/>
<text x="700" y="344" fill="#cdd6f4" font-size="11" text-anchor="middle">0.302</text>
<rect x="740" y="322" width="78" height="34" fill="#f6a023" rx="3"/>
<text x="780" y="344" fill="#cdd6f4" font-size="11" text-anchor="middle">0.341</text>
<rect x="820" y="322" width="78" height="34" fill="#b5c92c" rx="3"/>
<text x="860" y="344" fill="#1e1e2e" font-size="11" text-anchor="middle">0.658</text>
<rect x="900" y="322" width="78" height="34" fill="#f37b30" rx="3"/>
<text x="940" y="344" fill="#cdd6f4" font-size="11" text-anchor="middle">0.203</text>
<rect x="980" y="322" width="78" height="34" fill="#f26a36" rx="3"/>
<text x="1020" y="344" fill="#cdd6f4" font-size="11" text-anchor="middle">0.143</text>
<rect x="1060" y="322" width="78" height="34" fill="#ef4941" rx="3"/>
<text x="1100" y="344" fill="#cdd6f4" font-size="11" text-anchor="middle">0.021</text>
<rect x="1140" y="322" width="78" height="34" fill="#f05b3b" rx="3"/>
<text x="1180" y="344" fill="#cdd6f4" font-size="11" text-anchor="middle">0.086</text>
<rect x="1220" y="322" width="78" height="34" fill="#ef4444" rx="3"/>
<text x="1260" y="344" fill="#cdd6f4" font-size="11" text-anchor="middle">0.000</text>
<rect x="1300" y="322" width="78" height="34" fill="#f6a422" rx="3"/>
<text x="1340" y="344" fill="#cdd6f4" font-size="11" text-anchor="middle">0.356</text>
<rect x="1380" y="322" width="78" height="34" fill="#f69f24" rx="3"/>
<text x="1420" y="344" fill="#cdd6f4" font-size="11" text-anchor="middle">0.335</text>
<rect x="1460" y="322" width="78" height="34" fill="#f26c36" rx="3"/>
<text x="1500" y="344" fill="#cdd6f4" font-size="11" text-anchor="middle">0.147</text>
<rect x="1540" y="322" width="78" height="34" fill="#f48e2a" rx="3"/>
<text x="1580" y="344" fill="#cdd6f4" font-size="11" text-anchor="middle">0.273</text>
<rect x="1620" y="322" width="78" height="34" fill="#ef4444" rx="3"/>
<text x="1660" y="344" fill="#cdd6f4" font-size="11" text-anchor="middle">0.000</text>
</svg>