<svg xmlns="http://www.w3.org/2000/svg" width="660" height="330" style="background:#1e1e2e;font-family:monospace">
<text x="330" y="22" fill="#cdd6f4" font-size="14" text-anchor="middle" font-weight="bold">Mean Timing MAE by Algorithm</text>
<text x="330" y="40" fill="#a6adc8" font-size="10" text-anchor="middle">Mean matched onset absolute timing error. Lower is better.</text>
<text x="192" y="79" fill="#cdd6f4" font-size="10" text-anchor="end">melodic_basic_pitch</text>
<rect x="200" y="64" width="382" height="22" fill="#facc15" rx="3"/>
<text x="588" y="79" fill="#cdd6f4" font-size="10">34.3ms</text>
<text x="192" y="109" fill="#cdd6f4" font-size="10" text-anchor="end">melodic_pyin</text>
<rect x="200" y="94" width="360" height="22" fill="#facc15" rx="3"/>
<text x="566" y="109" fill="#cdd6f4" font-size="10">32.4ms</text>
<text x="192" y="139" fill="#cdd6f4" font-size="10" text-anchor="end">melodic_yin</text>
<rect x="200" y="124" width="376" height="22" fill="#facc15" rx="3"/>
<text x="582" y="139" fill="#cdd6f4" font-size="10">33.8ms</text>
<text x="192" y="169" fill="#cdd6f4" font-size="10" text-anchor="end">melodic_onset_yin</text>
<rect x="200" y="154" width="371" height="22" fill="#facc15" rx="3"/>
<text x="577" y="169" fill="#cdd6f4" font-size="10">33.3ms</text>
<text x="192" y="199" fill="#cdd6f4" font-size="10" text-anchor="end">melodic_hpss_yin</text>
<rect x="200" y="184" width="372" height="22" fill="#facc15" rx="3"/>
<text x="578" y="199" fill="#cdd6f4" font-size="10">33.4ms</text>
<text x="192" y="229" fill="#cdd6f4" font-size="10" text-anchor="end">melodic_fft_hps</text>
<rect x="200" y="214" width="357" height="22" fill="#facc15" rx="3"/>
<text x="563" y="229" fill="#cdd6f4" font-size="10">32.1ms</text>
<text x="192" y="259" fill="#cdd6f4" font-size="10" text-anchor="end">melodic_crepe</text>
<text x="208" y="259" fill="#6c7086" font-size="10">n/a</text>
<text x="192" y="289" fill="#cdd6f4" font-size="10" text-anchor="end">melodic_librosa_pyin</text>
<rect x="200" y="274" width="400" height="22" fill="#facc15" rx="3"/>
<text x="606" y="289" fill="#cdd6f4" font-size="10">35.9ms</text>
</svg>