<svg xmlns="http://www.w3.org/2000/svg" width="600" height="562" style="background:#1e1e2e;font-family:monospace">
<text x="300" y="22" fill="#cdd6f4" font-size="14" text-anchor="middle" font-weight="bold">Keys F1 by Song</text>
<text x="300" y="40" fill="#a6adc8" font-size="10" text-anchor="middle">Per-song F1 for keys instrument tracks.</text>
<text x="220" y="62" fill="#a6adc8" font-size="9" text-anchor="end" transform="rotate(-35 220 62)">psalm_1_synt</text>
<text x="300" y="62" fill="#a6adc8" font-size="9" text-anchor="end" transform="rotate(-35 300 62)">psalm_2_synt</text>
<text x="380" y="62" fill="#a6adc8" font-size="9" text-anchor="end" transform="rotate(-35 380 62)">psalm_4_synt</text>
<text x="460" y="62" fill="#a6adc8" font-size="9" text-anchor="end" transform="rotate(-35 460 62)">psalm_5_synt</text>
<text x="540" y="62" fill="#a6adc8" font-size="9" text-anchor="end" transform="rotate(-35 540 62)">psalm_7_synt</text>
<text x="172" y="92" fill="#cdd6f4" font-size="10" text-anchor="end">melodic_basic_pitch</text>
<rect x="180" y="70" width="78" height="34" fill="#f16239" rx="3"/>
<text x="220" y="92" fill="#cdd6f4" font-size="11" text-anchor="middle">0.113</text>
<rect x="260" y="70" width="78" height="34" fill="#f27034" rx="3"/>
<text x="300" y="92" fill="#cdd6f4" font-size="11" text-anchor="middle">0.163</text>
<rect x="340" y="70" width="78" height="34" fill="#f27233" rx="3"/>
<text x="380" y="92" fill="#cdd6f4" font-size="11" text-anchor="middle">0.172</text>
<rect x="420" y="70" width="78" height="34" fill="#f6a024" rx="3"/>
<text x="460" y="92" fill="#cdd6f4" font-size="11" text-anchor="middle">0.339</text>
<rect x="500" y="70" width="78" height="34" fill="#f37a31" rx="3"/>
<text x="540" y="92" fill="#cdd6f4" font-size="11" text-anchor="middle">0.200</text>
<text x="172" y="128" fill="#cdd6f4" font-size="10" text-anchor="end">melodic_pyin</text>
<rect x="180" y="106" width="78" height="34" fill="#f16538" rx="3"/>
<text x="220" y="128" fill="#cdd6f4" font-size="11" text-anchor="middle">0.123</text>
<rect x="260" y="106" width="78" height="34" fill="#f27433" rx="3"/>
<text x="300" y="128" fill="#cdd6f4" font-size="11" text-anchor="middle">0.180</text>
<rect x="340" y="106" width="78" height="34" fill="#f26a36" rx="3"/>
<text x="380" y="128" fill="#cdd6f4" font-size="11" text-anchor="middle">0.142</text>
<rect x="420" y="106" width="78" height="34" fill="#f48e2a" rx="3"/>
<text x="460" y="128" fill="#cdd6f4" font-size="11" text-anchor="middle">0.272</text>
<rect x="500" y="106" width="78" height="34" fill="#f0583d" rx="3"/>
<text x="540" y="128" fill="#cdd6f4" font-size="11" text-anchor="middle">0.074</text>
<text x="172" y="164" fill="#cdd6f4" font-size="10" text-anchor="end">melodic_yin</text>
<rect x="180" y="142" width="78" height="34" fill="#f59129" rx="3"/>
<text x="220" y="164" fill="#cdd6f4" font-size="11" text-anchor="middle">0.283</text>
<rect x="260" y="142" width="78" height="34" fill="#f37532" rx="3"/>
<text x="300" y="164" fill="#cdd6f4" font-size="11" text-anchor="middle">0.183</text>
<rect x="340" y="142" width="78" height="34" fill="#f37831" rx="3"/>
<text x="380" y="164" fill="#cdd6f4" font-size="11" text-anchor="middle">0.195</text>
<rect x="420" y="142" width="78" height="34" fill="#f27134" rx="3"/>
<text x="460" y="164" fill="#cdd6f4" font-size="11" text-anchor="middle">0.166</text>
<rect x="500" y="142" width="78" height="34" fill="#f69e24" rx="3"/>
<text x="540" y="164" fill="#cdd6f4" font-size="11" text-anchor="middle">0.333</text>
<text x="172" y="200" fill="#cdd6f4" font-size="10" text-anchor="end">melodic_onset_yin</text>
<rect x="180" y="178" width="78" height="34" fill="#f7a821" rx="3"/>
<text x="220" y="200" fill="#cdd6f4" font-size="11" text-anchor="middle">0.371</text>
<rect x="260" y="178" width="78" height="34" fill="#f37c30" rx="3"/>
<text x="300" y="200" fill="#cdd6f4" font-size="11" text-anchor="middle">0.207</text>
<rect x="340" y="178" width="78" height="34" fill="#f37b30" rx="3"/>
<text x="380" y="200" fill="#cdd6f4" font-size="11" text-anchor="middle">0.206</text>
<rect x="420" y="178" width="78" height="34" fill="#f16837" rx="3"/>
<text x="460" y="200" fill="#cdd6f4" font-size="11" text-anchor="middle">0.133</text>
<rect x="500" y="178" width="78" height="34" fill="#f48a2b" rx="3"/>
<text x="540" y="200" fill="#cdd6f4" font-size="11" text-anchor="middle">0.258</text>
<text x="172" y="236" fill="#cdd6f4" font-size="10" text-anchor="end">melodic_hpss_yin</text>
<rect x="180" y="214" width="78" height="34" fill="#f69e24" rx="3"/>
<text x="220" y="236" fill="#cdd6f4" font-size="11" text-anchor="middle">0.334</text>
<rect x="260" y="214" width="78" height="34" fill="#f37c30" rx="3"/>
<text x="300" y="236" fill="#cdd6f4" font-size="11" text-anchor="middle">0.206</text>
<rect x="340" y="214" width="78" height="34" fill="#f37f2f" rx="3"/>
<text x="380" y="236" fill="#cdd6f4" font-size="11" text-anchor="middle">0.219</text>
<rect x="420" y="214" width="78" height="34" fill="#f37f2f" rx="3"/>
<text x="460" y="236" fill="#cdd6f4" font-size="11" text-anchor="middle">0.220</text>
<rect x="500" y="214" width="78" height="34" fill="#f69b25" rx="3"/>
<text x="540" y="236" fill="#cdd6f4" font-size="11" text-anchor="middle">0.323</text>
<text x="172" y="272" fill="#cdd6f4" font-size="10" text-anchor="end">melodic_fft_hps</text>
<rect x="180" y="250" width="78" height="34" fill="#f59627" rx="3"/>
<text x="220" y="272" fill="#cdd6f4" font-size="11" text-anchor="middle">0.304</text>
<rect x="260" y="250" width="78" height="34" fill="#f37931" rx="3"/>
<text x="300" y="272" fill="#cdd6f4" font-size="11" text-anchor="middle">0.197</text>
<rect x="340" y="250" width="78" height="34" fill="#f37a31" rx="3"/>
<text x="380" y="272" fill="#cdd6f4" font-size="11" text-anchor="middle">0.201</text>
<rect x="420" y="250" width="78" height="34" fill="#f37931" rx="3"/>
<text x="460" y="272" fill="#cdd6f4" font-size="11" text-anchor="middle">0.197</text>
<rect x="500" y="250" width="78" height="34" fill="#f9c118" rx="3"/>
<text x="540" y="272" fill="#1e1e2e" font-size="11" text-anchor="middle">0.462</text>
<text x="172" y="308" fill="#cdd6f4" font-size="10" text-anchor="end">melodic_librosa_pyin</text>
<rect x="180" y="286" width="78" height="34" fill="#f37f2f" rx="3"/>
<text x="220" y="308" fill="#cdd6f4" font-size="11" text-anchor="middle">0.217</text>
<rect x="260" y="286" width="78" height="34" fill="#f27433" rx="3"/>
<text x="300" y="308" fill="#cdd6f4" font-size="11" text-anchor="middle">0.176</text>
<rect x="340" y="286" width="78" height="34" fill="#f26d35" rx="3"/>
<text x="380" y="308" fill="#cdd6f4" font-size="11" text-anchor="middle">0.152</text>
<rect x="420" y="286" width="78" height="34" fill="#ef4c41" rx="3"/>
<text x="460" y="308" fill="#cdd6f4" font-size="11" text-anchor="middle">0.030</text>
<rect x="500" y="286" width="78" height="34" fill="#f15f3a" rx="3"/>
<text x="540" y="308" fill="#cdd6f4" font-size="11" text-anchor="middle">0.100</text>
<text x="172" y="344" fill="#cdd6f4" font-size="10" text-anchor="end">melodic_yin_t020</text>
<rect x="180" y="322" width="78" height="34" fill="#f58e2a" rx="3"/>
<text x="220" y="344" fill="#cdd6f4" font-size="11" text-anchor="middle">0.276</text>
<rect x="260" y="322" width="78" height="34" fill="#f27532" rx="3"/>
<text x="300" y="344" fill="#cdd6f4" font-size="11" text-anchor="middle">0.181</text>
<rect x="340" y="322" width="78" height="34" fill="#f37931" rx="3"/>
<text x="380" y="344" fill="#cdd6f4" font-size="11" text-anchor="middle">0.198</text>
<rect x="420" y="322" width="78" height="34" fill="#f3802f" rx="3"/>
<text x="460" y="344" fill="#cdd6f4" font-size="11" text-anchor="middle">0.221</text>
<rect x="500" y="322" width="78" height="34" fill="#f59328" rx="3"/>
<text x="540" y="344" fill="#cdd6f4" font-size="11" text-anchor="middle">0.294</text>
<text x="172" y="380" fill="#cdd6f4" font-size="10" text-anchor="end">melodic_yin_bass80</text>
<rect x="180" y="358" width="78" height="34" fill="#f69f24" rx="3"/>
<text x="220" y="380" fill="#cdd6f4" font-size="11" text-anchor="middle">0.338</text>
<rect x="260" y="358" width="78" height="34" fill="#f37832" rx="3"/>
<text x="300" y="380" fill="#cdd6f4" font-size="11" text-anchor="middle">0.191</text>
<rect x="340" y="358" width="78" height="34" fill="#f37e2f" rx="3"/>
<text x="380" y="380" fill="#cdd6f4" font-size="11" text-anchor="middle">0.214</text>
<rect x="420" y="358" width="78" height="34" fill="#f37732" rx="3"/>
<text x="460" y="380" fill="#cdd6f4" font-size="11" text-anchor="middle">0.189</text>
<rect x="500" y="358" width="78" height="34" fill="#f7b01e" rx="3"/>
<text x="540" y="380" fill="#cdd6f4" font-size="11" text-anchor="middle">0.400</text>
<text x="172" y="416" fill="#cdd6f4" font-size="10" text-anchor="end">melodic_combined</text>
<rect x="180" y="394" width="78" height="34" fill="#f6a621" rx="3"/>
<text x="220" y="416" fill="#cdd6f4" font-size="11" text-anchor="middle">0.363</text>
<rect x="260" y="394" width="78" height="34" fill="#f37b30" rx="3"/>
<text x="300" y="416" fill="#cdd6f4" font-size="11" text-anchor="middle">0.205</text>
<rect x="340" y="394" width="78" height="34" fill="#f37c30" rx="3"/>
<text x="380" y="416" fill="#cdd6f4" font-size="11" text-anchor="middle">0.206</text>
<rect x="420" y="394" width="78" height="34" fill="#f37532" rx="3"/>
<text x="460" y="416" fill="#cdd6f4" font-size="11" text-anchor="middle">0.183</text>
<rect x="500" y="394" width="78" height="34" fill="#f6a522" rx="3"/>
<text x="540" y="416" fill="#cdd6f4" font-size="11" text-anchor="middle">0.357</text>
<text x="172" y="452" fill="#cdd6f4" font-size="10" text-anchor="end">melodic_hpss_onset</text>
<rect x="180" y="430" width="78" height="34" fill="#f7a921" rx="3"/>
<text x="220" y="452" fill="#cdd6f4" font-size="11" text-anchor="middle">0.372</text>
<rect x="260" y="430" width="78" height="34" fill="#f37c30" rx="3"/>
<text x="300" y="452" fill="#cdd6f4" font-size="11" text-anchor="middle">0.207</text>
<rect x="340" y="430" width="78" height="34" fill="#f3812e" rx="3"/>
<text x="380" y="452" fill="#cdd6f4" font-size="11" text-anchor="middle">0.225</text>
<rect x="420" y="430" width="78" height="34" fill="#f37632" rx="3"/>
<text x="460" y="452" fill="#cdd6f4" font-size="11" text-anchor="middle">0.185</text>
<rect x="500" y="430" width="78" height="34" fill="#f4882c" rx="3"/>
<text x="540" y="452" fill="#cdd6f4" font-size="11" text-anchor="middle">0.250</text>
<text x="172" y="488" fill="#cdd6f4" font-size="10" text-anchor="end">melodic_pyin_long</text>
<rect x="180" y="466" width="78" height="34" fill="#f27333" rx="3"/>
<text x="220" y="488" fill="#cdd6f4" font-size="11" text-anchor="middle">0.176</text>
<rect x="260" y="466" width="78" height="34" fill="#f26f35" rx="3"/>
<text x="300" y="488" fill="#cdd6f4" font-size="11" text-anchor="middle">0.158</text>
<rect x="340" y="466" width="78" height="34" fill="#f26f34" rx="3"/>
<text x="380" y="488" fill="#cdd6f4" font-size="11" text-anchor="middle">0.161</text>
<rect x="420" y="466" width="78" height="34" fill="#f0523e" rx="3"/>
<text x="460" y="488" fill="#cdd6f4" font-size="11" text-anchor="middle">0.054</text>
<rect x="500" y="466" width="78" height="34" fill="#ef4c41" rx="3"/>
<text x="540" y="488" fill="#cdd6f4" font-size="11" text-anchor="middle">0.031</text>
</svg>