<svg xmlns="http://www.w3.org/2000/svg" width="1720" height="562" style="background:#1e1e2e;font-family:monospace">
<text x="860" y="22" fill="#cdd6f4" font-size="14" text-anchor="middle" font-weight="bold">Overall Note F1 by Song</text>
<text x="860" y="40" fill="#a6adc8" font-size="10" text-anchor="middle">Rows are algorithms, columns are song/instrument combos. Higher is better.</text>
<text x="220" y="62" fill="#a6adc8" font-size="9" text-anchor="end" transform="rotate(-35 220 62)">psalm_1_bass</text>
<text x="300" y="62" fill="#a6adc8" font-size="9" text-anchor="end" transform="rotate(-35 300 62)">psalm_1_guit</text>
<text x="380" y="62" fill="#a6adc8" font-size="9" text-anchor="end" transform="rotate(-35 380 62)">psalm_1_synt</text>
<text x="460" y="62" fill="#a6adc8" font-size="9" text-anchor="end" transform="rotate(-35 460 62)">psalm_2_bass</text>
<text x="540" y="62" fill="#a6adc8" font-size="9" text-anchor="end" transform="rotate(-35 540 62)">psalm_2_guit</text>
<text x="620" y="62" fill="#a6adc8" font-size="9" text-anchor="end" transform="rotate(-35 620 62)">psalm_2_synt</text>
<text x="700" y="62" fill="#a6adc8" font-size="9" text-anchor="end" transform="rotate(-35 700 62)">psalm_3_bass</text>
<text x="780" y="62" fill="#a6adc8" font-size="9" text-anchor="end" transform="rotate(-35 780 62)">psalm_3_guit</text>
<text x="860" y="62" fill="#a6adc8" font-size="9" text-anchor="end" transform="rotate(-35 860 62)">psalm_4_bass</text>
<text x="940" y="62" fill="#a6adc8" font-size="9" text-anchor="end" transform="rotate(-35 940 62)">psalm_4_guit</text>
<text x="1020" y="62" fill="#a6adc8" font-size="9" text-anchor="end" transform="rotate(-35 1020 62)">psalm_4_synt</text>
<text x="1100" y="62" fill="#a6adc8" font-size="9" text-anchor="end" transform="rotate(-35 1100 62)">psalm_5_bass</text>
<text x="1180" y="62" fill="#a6adc8" font-size="9" text-anchor="end" transform="rotate(-35 1180 62)">psalm_5_guit</text>
<text x="1260" y="62" fill="#a6adc8" font-size="9" text-anchor="end" transform="rotate(-35 1260 62)">psalm_5_synt</text>
<text x="1340" y="62" fill="#a6adc8" font-size="9" text-anchor="end" transform="rotate(-35 1340 62)">psalm_6_bass</text>
<text x="1420" y="62" fill="#a6adc8" font-size="9" text-anchor="end" transform="rotate(-35 1420 62)">psalm_6_guit</text>
<text x="1500" y="62" fill="#a6adc8" font-size="9" text-anchor="end" transform="rotate(-35 1500 62)">psalm_7_bass</text>
<text x="1580" y="62" fill="#a6adc8" font-size="9" text-anchor="end" transform="rotate(-35 1580 62)">psalm_7_guit</text>
<text x="1660" y="62" fill="#a6adc8" font-size="9" text-anchor="end" transform="rotate(-35 1660 62)">psalm_7_synt</text>
<text x="172" y="92" fill="#cdd6f4" font-size="10" text-anchor="end">melodic_basic_pitch</text>
<rect x="180" y="70" width="78" height="34" fill="#f15e3a" rx="3"/>
<text x="220" y="92" fill="#cdd6f4" font-size="11" text-anchor="middle">0.097</text>
<rect x="260" y="70" width="78" height="34" fill="#ef4443" rx="3"/>
<text x="300" y="92" fill="#cdd6f4" font-size="11" text-anchor="middle">0.003</text>
<rect x="340" y="70" width="78" height="34" fill="#f16239" rx="3"/>
<text x="380" y="92" fill="#cdd6f4" font-size="11" text-anchor="middle">0.113</text>
<rect x="420" y="70" width="78" height="34" fill="#f48b2b" rx="3"/>
<text x="460" y="92" fill="#cdd6f4" font-size="11" text-anchor="middle">0.264</text>
<rect x="500" y="70" width="78" height="34" fill="#ef4d40" rx="3"/>
<text x="540" y="92" fill="#cdd6f4" font-size="11" text-anchor="middle">0.036</text>
<rect x="580" y="70" width="78" height="34" fill="#f27034" rx="3"/>
<text x="620" y="92" fill="#cdd6f4" font-size="11" text-anchor="middle">0.163</text>
<rect x="660" y="70" width="78" height="34" fill="#ef4d40" rx="3"/>
<text x="700" y="92" fill="#cdd6f4" font-size="11" text-anchor="middle">0.034</text>
<rect x="740" y="70" width="78" height="34" fill="#ef4842" rx="3"/>
<text x="780" y="92" fill="#cdd6f4" font-size="11" text-anchor="middle">0.018</text>
<rect x="820" y="70" width="78" height="34" fill="#ef4842" rx="3"/>
<text x="860" y="92" fill="#cdd6f4" font-size="11" text-anchor="middle">0.017</text>
<rect x="900" y="70" width="78" height="34" fill="#ef4543" rx="3"/>
<text x="940" y="92" fill="#cdd6f4" font-size="11" text-anchor="middle">0.005</text>
<rect x="980" y="70" width="78" height="34" fill="#f27233" rx="3"/>
<text x="1020" y="92" fill="#cdd6f4" font-size="11" text-anchor="middle">0.172</text>
<rect x="1060" y="70" width="78" height="34" fill="#f0553d" rx="3"/>
<text x="1100" y="92" fill="#cdd6f4" font-size="11" text-anchor="middle">0.066</text>
<rect x="1140" y="70" width="78" height="34" fill="#f0553d" rx="3"/>
<text x="1180" y="92" fill="#cdd6f4" font-size="11" text-anchor="middle">0.064</text>
<rect x="1220" y="70" width="78" height="34" fill="#f6a024" rx="3"/>
<text x="1260" y="92" fill="#cdd6f4" font-size="11" text-anchor="middle">0.339</text>
<rect x="1300" y="70" width="78" height="34" fill="#f26e35" rx="3"/>
<text x="1340" y="92" fill="#cdd6f4" font-size="11" text-anchor="middle">0.155</text>
<rect x="1380" y="70" width="78" height="34" fill="#ef4842" rx="3"/>
<text x="1420" y="92" fill="#cdd6f4" font-size="11" text-anchor="middle">0.018</text>
<rect x="1460" y="70" width="78" height="34" fill="#ef503f" rx="3"/>
<text x="1500" y="92" fill="#cdd6f4" font-size="11" text-anchor="middle">0.045</text>
<rect x="1540" y="70" width="78" height="34" fill="#ef4a41" rx="3"/>
<text x="1580" y="92" fill="#cdd6f4" font-size="11" text-anchor="middle">0.026</text>
<rect x="1620" y="70" width="78" height="34" fill="#f37a31" rx="3"/>
<text x="1660" y="92" fill="#cdd6f4" font-size="11" text-anchor="middle">0.200</text>
<text x="172" y="128" fill="#cdd6f4" font-size="10" text-anchor="end">melodic_pyin</text>
<rect x="180" y="106" width="78" height="34" fill="#f0593c" rx="3"/>
<text x="220" y="128" fill="#cdd6f4" font-size="11" text-anchor="middle">0.078</text>
<rect x="260" y="106" width="78" height="34" fill="#ef4444" rx="3"/>
<text x="300" y="128" fill="#cdd6f4" font-size="11" text-anchor="middle">0.000</text>
<rect x="340" y="106" width="78" height="34" fill="#f16538" rx="3"/>
<text x="380" y="128" fill="#cdd6f4" font-size="11" text-anchor="middle">0.123</text>
<rect x="420" y="106" width="78" height="34" fill="#f59926" rx="3"/>
<text x="460" y="128" fill="#cdd6f4" font-size="11" text-anchor="middle">0.315</text>
<rect x="500" y="106" width="78" height="34" fill="#ef4a41" rx="3"/>
<text x="540" y="128" fill="#cdd6f4" font-size="11" text-anchor="middle">0.023</text>
<rect x="580" y="106" width="78" height="34" fill="#f27433" rx="3"/>
<text x="620" y="128" fill="#cdd6f4" font-size="11" text-anchor="middle">0.180</text>
<rect x="660" y="106" width="78" height="34" fill="#ef4942" rx="3"/>
<text x="700" y="128" fill="#cdd6f4" font-size="11" text-anchor="middle">0.019</text>
<rect x="740" y="106" width="78" height="34" fill="#ef4643" rx="3"/>
<text x="780" y="128" fill="#cdd6f4" font-size="11" text-anchor="middle">0.010</text>
<rect x="820" y="106" width="78" height="34" fill="#ef4a41" rx="3"/>
<text x="860" y="128" fill="#cdd6f4" font-size="11" text-anchor="middle">0.024</text>
<rect x="900" y="106" width="78" height="34" fill="#ef4543" rx="3"/>
<text x="940" y="128" fill="#cdd6f4" font-size="11" text-anchor="middle">0.004</text>
<rect x="980" y="106" width="78" height="34" fill="#f26a36" rx="3"/>
<text x="1020" y="128" fill="#cdd6f4" font-size="11" text-anchor="middle">0.142</text>
<rect x="1060" y="106" width="78" height="34" fill="#ef503f" rx="3"/>
<text x="1100" y="128" fill="#cdd6f4" font-size="11" text-anchor="middle">0.045</text>
<rect x="1140" y="106" width="78" height="34" fill="#ef4c40" rx="3"/>
<text x="1180" y="128" fill="#cdd6f4" font-size="11" text-anchor="middle">0.032</text>
<rect x="1220" y="106" width="78" height="34" fill="#f48e2a" rx="3"/>
<text x="1260" y="128" fill="#cdd6f4" font-size="11" text-anchor="middle">0.272</text>
<rect x="1300" y="106" width="78" height="34" fill="#f26f34" rx="3"/>
<text x="1340" y="128" fill="#cdd6f4" font-size="11" text-anchor="middle">0.161</text>
<rect x="1380" y="106" width="78" height="34" fill="#ef4643" rx="3"/>
<text x="1420" y="128" fill="#cdd6f4" font-size="11" text-anchor="middle">0.009</text>
<rect x="1460" y="106" width="78" height="34" fill="#ef4f3f" rx="3"/>
<text x="1500" y="128" fill="#cdd6f4" font-size="11" text-anchor="middle">0.043</text>
<rect x="1540" y="106" width="78" height="34" fill="#ef4543" rx="3"/>
<text x="1580" y="128" fill="#cdd6f4" font-size="11" text-anchor="middle">0.004</text>
<rect x="1620" y="106" width="78" height="34" fill="#f0583d" rx="3"/>
<text x="1660" y="128" fill="#cdd6f4" font-size="11" text-anchor="middle">0.074</text>
<text x="172" y="164" fill="#cdd6f4" font-size="10" text-anchor="end">melodic_yin</text>
<rect x="180" y="142" width="78" height="34" fill="#f4872c" rx="3"/>
<text x="220" y="164" fill="#cdd6f4" font-size="11" text-anchor="middle">0.248</text>
<rect x="260" y="142" width="78" height="34" fill="#f37b30" rx="3"/>
<text x="300" y="164" fill="#cdd6f4" font-size="11" text-anchor="middle">0.205</text>
<rect x="340" y="142" width="78" height="34" fill="#f59129" rx="3"/>
<text x="380" y="164" fill="#cdd6f4" font-size="11" text-anchor="middle">0.283</text>
<rect x="420" y="142" width="78" height="34" fill="#f9c616" rx="3"/>
<text x="460" y="164" fill="#1e1e2e" font-size="11" text-anchor="middle">0.480</text>
<rect x="500" y="142" width="78" height="34" fill="#f26d35" rx="3"/>
<text x="540" y="164" fill="#cdd6f4" font-size="11" text-anchor="middle">0.154</text>
<rect x="580" y="142" width="78" height="34" fill="#f37532" rx="3"/>
<text x="620" y="164" fill="#cdd6f4" font-size="11" text-anchor="middle">0.183</text>
<rect x="660" y="142" width="78" height="34" fill="#f26c36" rx="3"/>
<text x="700" y="164" fill="#cdd6f4" font-size="11" text-anchor="middle">0.148</text>
<rect x="740" y="142" width="78" height="34" fill="#f16837" rx="3"/>
<text x="780" y="164" fill="#cdd6f4" font-size="11" text-anchor="middle">0.133</text>
<rect x="820" y="142" width="78" height="34" fill="#f59029" rx="3"/>
<text x="860" y="164" fill="#cdd6f4" font-size="11" text-anchor="middle">0.280</text>
<rect x="900" y="142" width="78" height="34" fill="#f05a3c" rx="3"/>
<text x="940" y="164" fill="#cdd6f4" font-size="11" text-anchor="middle">0.083</text>
<rect x="980" y="142" width="78" height="34" fill="#f37831" rx="3"/>
<text x="1020" y="164" fill="#cdd6f4" font-size="11" text-anchor="middle">0.195</text>
<rect x="1060" y="142" width="78" height="34" fill="#f37f2f" rx="3"/>
<text x="1100" y="164" fill="#cdd6f4" font-size="11" text-anchor="middle">0.219</text>
<rect x="1140" y="142" width="78" height="34" fill="#f0583c" rx="3"/>
<text x="1180" y="164" fill="#cdd6f4" font-size="11" text-anchor="middle">0.076</text>
<rect x="1220" y="142" width="78" height="34" fill="#f27134" rx="3"/>
<text x="1260" y="164" fill="#cdd6f4" font-size="11" text-anchor="middle">0.166</text>
<rect x="1300" y="142" width="78" height="34" fill="#f69c25" rx="3"/>
<text x="1340" y="164" fill="#cdd6f4" font-size="11" text-anchor="middle">0.324</text>
<rect x="1380" y="142" width="78" height="34" fill="#f26c35" rx="3"/>
<text x="1420" y="164" fill="#cdd6f4" font-size="11" text-anchor="middle">0.150</text>
<rect x="1460" y="142" width="78" height="34" fill="#f26c36" rx="3"/>
<text x="1500" y="164" fill="#cdd6f4" font-size="11" text-anchor="middle">0.148</text>
<rect x="1540" y="142" width="78" height="34" fill="#f16538" rx="3"/>
<text x="1580" y="164" fill="#cdd6f4" font-size="11" text-anchor="middle">0.122</text>
<rect x="1620" y="142" width="78" height="34" fill="#f69e24" rx="3"/>
<text x="1660" y="164" fill="#cdd6f4" font-size="11" text-anchor="middle">0.333</text>
<text x="172" y="200" fill="#cdd6f4" font-size="10" text-anchor="end">melodic_onset_yin</text>
<rect x="180" y="178" width="78" height="34" fill="#f69c25" rx="3"/>
<text x="220" y="200" fill="#cdd6f4" font-size="11" text-anchor="middle">0.326</text>
<rect x="260" y="178" width="78" height="34" fill="#f59926" rx="3"/>
<text x="300" y="200" fill="#cdd6f4" font-size="11" text-anchor="middle">0.314</text>
<rect x="340" y="178" width="78" height="34" fill="#f7a821" rx="3"/>
<text x="380" y="200" fill="#cdd6f4" font-size="11" text-anchor="middle">0.371</text>
<rect x="420" y="178" width="78" height="34" fill="#f1cb17" rx="3"/>
<text x="460" y="200" fill="#1e1e2e" font-size="11" text-anchor="middle">0.520</text>
<rect x="500" y="178" width="78" height="34" fill="#f37c30" rx="3"/>
<text x="540" y="200" fill="#cdd6f4" font-size="11" text-anchor="middle">0.208</text>
<rect x="580" y="178" width="78" height="34" fill="#f37c30" rx="3"/>
<text x="620" y="200" fill="#cdd6f4" font-size="11" text-anchor="middle">0.207</text>
<rect x="660" y="178" width="78" height="34" fill="#f37931" rx="3"/>
<text x="700" y="200" fill="#cdd6f4" font-size="11" text-anchor="middle">0.195</text>
<rect x="740" y="178" width="78" height="34" fill="#f27034" rx="3"/>
<text x="780" y="200" fill="#cdd6f4" font-size="11" text-anchor="middle">0.163</text>
<rect x="820" y="178" width="78" height="34" fill="#f48d2a" rx="3"/>
<text x="860" y="200" fill="#cdd6f4" font-size="11" text-anchor="middle">0.269</text>
<rect x="900" y="178" width="78" height="34" fill="#f16637" rx="3"/>
<text x="940" y="200" fill="#cdd6f4" font-size="11" text-anchor="middle">0.129</text>
<rect x="980" y="178" width="78" height="34" fill="#f37b30" rx="3"/>
<text x="1020" y="200" fill="#cdd6f4" font-size="11" text-anchor="middle">0.206</text>
<rect x="1060" y="178" width="78" height="34" fill="#f4882c" rx="3"/>
<text x="1100" y="200" fill="#cdd6f4" font-size="11" text-anchor="middle">0.253</text>
<rect x="1140" y="178" width="78" height="34" fill="#f15d3b" rx="3"/>
<text x="1180" y="200" fill="#cdd6f4" font-size="11" text-anchor="middle">0.095</text>
<rect x="1220" y="178" width="78" height="34" fill="#f16837" rx="3"/>
<text x="1260" y="200" fill="#cdd6f4" font-size="11" text-anchor="middle">0.133</text>
<rect x="1300" y="178" width="78" height="34" fill="#f7a721" rx="3"/>
<text x="1340" y="200" fill="#cdd6f4" font-size="11" text-anchor="middle">0.366</text>
<rect x="1380" y="178" width="78" height="34" fill="#f27433" rx="3"/>
<text x="1420" y="200" fill="#cdd6f4" font-size="11" text-anchor="middle">0.178</text>
<rect x="1460" y="178" width="78" height="34" fill="#f26e35" rx="3"/>
<text x="1500" y="200" fill="#cdd6f4" font-size="11" text-anchor="middle">0.155</text>
<rect x="1540" y="178" width="78" height="34" fill="#f26e35" rx="3"/>
<text x="1580" y="200" fill="#cdd6f4" font-size="11" text-anchor="middle">0.158</text>
<rect x="1620" y="178" width="78" height="34" fill="#f48a2b" rx="3"/>
<text x="1660" y="200" fill="#cdd6f4" font-size="11" text-anchor="middle">0.258</text>
<text x="172" y="236" fill="#cdd6f4" font-size="10" text-anchor="end">melodic_hpss_yin</text>
<rect x="180" y="214" width="78" height="34" fill="#f4882c" rx="3"/>
<text x="220" y="236" fill="#cdd6f4" font-size="11" text-anchor="middle">0.251</text>
<rect x="260" y="214" width="78" height="34" fill="#f48c2b" rx="3"/>
<text x="300" y="236" fill="#cdd6f4" font-size="11" text-anchor="middle">0.266</text>
<rect x="340" y="214" width="78" height="34" fill="#f69e24" rx="3"/>
<text x="380" y="236" fill="#cdd6f4" font-size="11" text-anchor="middle">0.334</text>
<rect x="420" y="214" width="78" height="34" fill="#f9c517" rx="3"/>
<text x="460" y="236" fill="#1e1e2e" font-size="11" text-anchor="middle">0.476</text>
<rect x="500" y="214" width="78" height="34" fill="#f37e2f" rx="3"/>
<text x="540" y="236" fill="#cdd6f4" font-size="11" text-anchor="middle">0.215</text>
<rect x="580" y="214" width="78" height="34" fill="#f37c30" rx="3"/>
<text x="620" y="236" fill="#cdd6f4" font-size="11" text-anchor="middle">0.206</text>
<rect x="660" y="214" width="78" height="34" fill="#f26d35" rx="3"/>
<text x="700" y="236" fill="#cdd6f4" font-size="11" text-anchor="middle">0.154</text>
<rect x="740" y="214" width="78" height="34" fill="#f37931" rx="3"/>
<text x="780" y="236" fill="#cdd6f4" font-size="11" text-anchor="middle">0.197</text>
<rect x="820" y="214" width="78" height="34" fill="#f59328" rx="3"/>
<text x="860" y="236" fill="#cdd6f4" font-size="11" text-anchor="middle">0.291</text>
<rect x="900" y="214" width="78" height="34" fill="#f27333" rx="3"/>
<text x="940" y="236" fill="#cdd6f4" font-size="11" text-anchor="middle">0.173</text>
<rect x="980" y="214" width="78" height="34" fill="#f37f2f" rx="3"/>
<text x="1020" y="236" fill="#cdd6f4" font-size="11" text-anchor="middle">0.219</text>
<rect x="1060" y="214" width="78" height="34" fill="#f37b30" rx="3"/>
<text x="1100" y="236" fill="#cdd6f4" font-size="11" text-anchor="middle">0.205</text>
<rect x="1140" y="214" width="78" height="34" fill="#f16737" rx="3"/>
<text x="1180" y="236" fill="#cdd6f4" font-size="11" text-anchor="middle">0.129</text>
<rect x="1220" y="214" width="78" height="34" fill="#f37f2f" rx="3"/>
<text x="1260" y="236" fill="#cdd6f4" font-size="11" text-anchor="middle">0.220</text>
<rect x="1300" y="214" width="78" height="34" fill="#f69b25" rx="3"/>
<text x="1340" y="236" fill="#cdd6f4" font-size="11" text-anchor="middle">0.323</text>
<rect x="1380" y="214" width="78" height="34" fill="#f37b30" rx="3"/>
<text x="1420" y="236" fill="#cdd6f4" font-size="11" text-anchor="middle">0.203</text>
<rect x="1460" y="214" width="78" height="34" fill="#f26c36" rx="3"/>
<text x="1500" y="236" fill="#cdd6f4" font-size="11" text-anchor="middle">0.149</text>
<rect x="1540" y="214" width="78" height="34" fill="#f3802f" rx="3"/>
<text x="1580" y="236" fill="#cdd6f4" font-size="11" text-anchor="middle">0.222</text>
<rect x="1620" y="214" width="78" height="34" fill="#f69b25" rx="3"/>
<text x="1660" y="236" fill="#cdd6f4" font-size="11" text-anchor="middle">0.323</text>
<text x="172" y="272" fill="#cdd6f4" font-size="10" text-anchor="end">melodic_fft_hps</text>
<rect x="180" y="250" width="78" height="34" fill="#f8b61c" rx="3"/>
<text x="220" y="272" fill="#1e1e2e" font-size="11" text-anchor="middle">0.421</text>
<rect x="260" y="250" width="78" height="34" fill="#f4852d" rx="3"/>
<text x="300" y="272" fill="#cdd6f4" font-size="11" text-anchor="middle">0.239</text>
<rect x="340" y="250" width="78" height="34" fill="#f59627" rx="3"/>
<text x="380" y="272" fill="#cdd6f4" font-size="11" text-anchor="middle">0.304</text>
<rect x="420" y="250" width="78" height="34" fill="#eccb19" rx="3"/>
<text x="460" y="272" fill="#1e1e2e" font-size="11" text-anchor="middle">0.531</text>
<rect x="500" y="250" width="78" height="34" fill="#f37931" rx="3"/>
<text x="540" y="272" fill="#cdd6f4" font-size="11" text-anchor="middle">0.196</text>
<rect x="580" y="250" width="78" height="34" fill="#f37931" rx="3"/>
<text x="620" y="272" fill="#cdd6f4" font-size="11" text-anchor="middle">0.197</text>
<rect x="660" y="250" width="78" height="34" fill="#f37632" rx="3"/>
<text x="700" y="272" fill="#cdd6f4" font-size="11" text-anchor="middle">0.186</text>
<rect x="740" y="250" width="78" height="34" fill="#f26c36" rx="3"/>
<text x="780" y="272" fill="#cdd6f4" font-size="11" text-anchor="middle">0.148</text>
<rect x="820" y="250" width="78" height="34" fill="#f59328" rx="3"/>
<text x="860" y="272" fill="#cdd6f4" font-size="11" text-anchor="middle">0.291</text>
<rect x="900" y="250" width="78" height="34" fill="#f26f35" rx="3"/>
<text x="940" y="272" fill="#cdd6f4" font-size="11" text-anchor="middle">0.159</text>
<rect x="980" y="250" width="78" height="34" fill="#f37a31" rx="3"/>
<text x="1020" y="272" fill="#cdd6f4" font-size="11" text-anchor="middle">0.201</text>
<rect x="1060" y="250" width="78" height="34" fill="#f4812e" rx="3"/>
<text x="1100" y="272" fill="#cdd6f4" font-size="11" text-anchor="middle">0.228</text>
<rect x="1140" y="250" width="78" height="34" fill="#f26937" rx="3"/>
<text x="1180" y="272" fill="#cdd6f4" font-size="11" text-anchor="middle">0.137</text>
<rect x="1220" y="250" width="78" height="34" fill="#f37931" rx="3"/>
<text x="1260" y="272" fill="#cdd6f4" font-size="11" text-anchor="middle">0.197</text>
<rect x="1300" y="250" width="78" height="34" fill="#f4872c" rx="3"/>
<text x="1340" y="272" fill="#cdd6f4" font-size="11" text-anchor="middle">0.250</text>
<rect x="1380" y="250" width="78" height="34" fill="#f37a31" rx="3"/>
<text x="1420" y="272" fill="#cdd6f4" font-size="11" text-anchor="middle">0.200</text>
<rect x="1460" y="250" width="78" height="34" fill="#f27433" rx="3"/>
<text x="1500" y="272" fill="#cdd6f4" font-size="11" text-anchor="middle">0.178</text>
<rect x="1540" y="250" width="78" height="34" fill="#f3802f" rx="3"/>
<text x="1580" y="272" fill="#cdd6f4" font-size="11" text-anchor="middle">0.223</text>
<rect x="1620" y="250" width="78" height="34" fill="#f9c118" rx="3"/>
<text x="1660" y="272" fill="#1e1e2e" font-size="11" text-anchor="middle">0.462</text>
<text x="172" y="308" fill="#cdd6f4" font-size="10" text-anchor="end">melodic_librosa_pyin</text>
<rect x="180" y="286" width="78" height="34" fill="#f05c3b" rx="3"/>
<text x="220" y="308" fill="#cdd6f4" font-size="11" text-anchor="middle">0.091</text>
<rect x="260" y="286" width="78" height="34" fill="#f16638" rx="3"/>
<text x="300" y="308" fill="#cdd6f4" font-size="11" text-anchor="middle">0.126</text>
<rect x="340" y="286" width="78" height="34" fill="#f37f2f" rx="3"/>
<text x="380" y="308" fill="#cdd6f4" font-size="11" text-anchor="middle">0.217</text>
<rect x="420" y="286" width="78" height="34" fill="#f4852d" rx="3"/>
<text x="460" y="308" fill="#cdd6f4" font-size="11" text-anchor="middle">0.239</text>
<rect x="500" y="286" width="78" height="34" fill="#f05a3c" rx="3"/>
<text x="540" y="308" fill="#cdd6f4" font-size="11" text-anchor="middle">0.083</text>
<rect x="580" y="286" width="78" height="34" fill="#f27433" rx="3"/>
<text x="620" y="308" fill="#cdd6f4" font-size="11" text-anchor="middle">0.176</text>
<rect x="660" y="286" width="78" height="34" fill="#f0563d" rx="3"/>
<text x="700" y="308" fill="#cdd6f4" font-size="11" text-anchor="middle">0.067</text>
<rect x="740" y="286" width="78" height="34" fill="#f16637" rx="3"/>
<text x="780" y="308" fill="#cdd6f4" font-size="11" text-anchor="middle">0.128</text>
<rect x="820" y="286" width="78" height="34" fill="#f16837" rx="3"/>
<text x="860" y="308" fill="#cdd6f4" font-size="11" text-anchor="middle">0.132</text>
<rect x="900" y="286" width="78" height="34" fill="#f05a3c" rx="3"/>
<text x="940" y="308" fill="#cdd6f4" font-size="11" text-anchor="middle">0.083</text>
<rect x="980" y="286" width="78" height="34" fill="#f26d35" rx="3"/>
<text x="1020" y="308" fill="#cdd6f4" font-size="11" text-anchor="middle">0.152</text>
<rect x="1060" y="286" width="78" height="34" fill="#f26a36" rx="3"/>
<text x="1100" y="308" fill="#cdd6f4" font-size="11" text-anchor="middle">0.141</text>
<rect x="1140" y="286" width="78" height="34" fill="#f0543e" rx="3"/>
<text x="1180" y="308" fill="#cdd6f4" font-size="11" text-anchor="middle">0.059</text>
<rect x="1220" y="286" width="78" height="34" fill="#ef4c41" rx="3"/>
<text x="1260" y="308" fill="#cdd6f4" font-size="11" text-anchor="middle">0.030</text>
<rect x="1300" y="286" width="78" height="34" fill="#f4832d" rx="3"/>
<text x="1340" y="308" fill="#cdd6f4" font-size="11" text-anchor="middle">0.234</text>
<rect x="1380" y="286" width="78" height="34" fill="#f1603a" rx="3"/>
<text x="1420" y="308" fill="#cdd6f4" font-size="11" text-anchor="middle">0.106</text>
<rect x="1460" y="286" width="78" height="34" fill="#ef4f40" rx="3"/>
<text x="1500" y="308" fill="#cdd6f4" font-size="11" text-anchor="middle">0.041</text>
<rect x="1540" y="286" width="78" height="34" fill="#f15d3b" rx="3"/>
<text x="1580" y="308" fill="#cdd6f4" font-size="11" text-anchor="middle">0.094</text>
<rect x="1620" y="286" width="78" height="34" fill="#f15f3a" rx="3"/>
<text x="1660" y="308" fill="#cdd6f4" font-size="11" text-anchor="middle">0.100</text>
<text x="172" y="344" fill="#cdd6f4" font-size="10" text-anchor="end">melodic_yin_t020</text>
<rect x="180" y="322" width="78" height="34" fill="#f4832d" rx="3"/>
<text x="220" y="344" fill="#cdd6f4" font-size="11" text-anchor="middle">0.235</text>
<rect x="260" y="322" width="78" height="34" fill="#f37a31" rx="3"/>
<text x="300" y="344" fill="#cdd6f4" font-size="11" text-anchor="middle">0.202</text>
<rect x="340" y="322" width="78" height="34" fill="#f58e2a" rx="3"/>
<text x="380" y="344" fill="#cdd6f4" font-size="11" text-anchor="middle">0.276</text>
<rect x="420" y="322" width="78" height="34" fill="#f9c317" rx="3"/>
<text x="460" y="344" fill="#1e1e2e" font-size="11" text-anchor="middle">0.469</text>
<rect x="500" y="322" width="78" height="34" fill="#f26e35" rx="3"/>
<text x="540" y="344" fill="#cdd6f4" font-size="11" text-anchor="middle">0.156</text>
<rect x="580" y="322" width="78" height="34" fill="#f27532" rx="3"/>
<text x="620" y="344" fill="#cdd6f4" font-size="11" text-anchor="middle">0.181</text>
<rect x="660" y="322" width="78" height="34" fill="#f26b36" rx="3"/>
<text x="700" y="344" fill="#cdd6f4" font-size="11" text-anchor="middle">0.145</text>
<rect x="740" y="322" width="78" height="34" fill="#f16737" rx="3"/>
<text x="780" y="344" fill="#cdd6f4" font-size="11" text-anchor="middle">0.131</text>
<rect x="820" y="322" width="78" height="34" fill="#f58e2a" rx="3"/>
<text x="860" y="344" fill="#cdd6f4" font-size="11" text-anchor="middle">0.276</text>
<rect x="900" y="322" width="78" height="34" fill="#f05a3c" rx="3"/>
<text x="940" y="344" fill="#cdd6f4" font-size="11" text-anchor="middle">0.083</text>
<rect x="980" y="322" width="78" height="34" fill="#f37931" rx="3"/>
<text x="1020" y="344" fill="#cdd6f4" font-size="11" text-anchor="middle">0.198</text>
<rect x="1060" y="322" width="78" height="34" fill="#f37c30" rx="3"/>
<text x="1100" y="344" fill="#cdd6f4" font-size="11" text-anchor="middle">0.209</text>
<rect x="1140" y="322" width="78" height="34" fill="#f05a3c" rx="3"/>
<text x="1180" y="344" fill="#cdd6f4" font-size="11" text-anchor="middle">0.081</text>
<rect x="1220" y="322" width="78" height="34" fill="#f3802f" rx="3"/>
<text x="1260" y="344" fill="#cdd6f4" font-size="11" text-anchor="middle">0.221</text>
<rect x="1300" y="322" width="78" height="34" fill="#f6a123" rx="3"/>
<text x="1340" y="344" fill="#cdd6f4" font-size="11" text-anchor="middle">0.343</text>
<rect x="1380" y="322" width="78" height="34" fill="#f26d35" rx="3"/>
<text x="1420" y="344" fill="#cdd6f4" font-size="11" text-anchor="middle">0.153</text>
<rect x="1460" y="322" width="78" height="34" fill="#f26f35" rx="3"/>
<text x="1500" y="344" fill="#cdd6f4" font-size="11" text-anchor="middle">0.159</text>
<rect x="1540" y="322" width="78" height="34" fill="#f16339" rx="3"/>
<text x="1580" y="344" fill="#cdd6f4" font-size="11" text-anchor="middle">0.115</text>
<rect x="1620" y="322" width="78" height="34" fill="#f59328" rx="3"/>
<text x="1660" y="344" fill="#cdd6f4" font-size="11" text-anchor="middle">0.294</text>
<text x="172" y="380" fill="#cdd6f4" font-size="10" text-anchor="end">melodic_yin_bass80</text>
<rect x="180" y="358" width="78" height="34" fill="#f7aa20" rx="3"/>
<text x="220" y="380" fill="#cdd6f4" font-size="11" text-anchor="middle">0.377</text>
<rect x="260" y="358" width="78" height="34" fill="#f37931" rx="3"/>
<text x="300" y="380" fill="#cdd6f4" font-size="11" text-anchor="middle">0.197</text>
<rect x="340" y="358" width="78" height="34" fill="#f69f24" rx="3"/>
<text x="380" y="380" fill="#cdd6f4" font-size="11" text-anchor="middle">0.338</text>
<rect x="420" y="358" width="78" height="34" fill="#cfca23" rx="3"/>
<text x="460" y="380" fill="#1e1e2e" font-size="11" text-anchor="middle">0.598</text>
<rect x="500" y="358" width="78" height="34" fill="#f26a36" rx="3"/>
<text x="540" y="380" fill="#cdd6f4" font-size="11" text-anchor="middle">0.143</text>
<rect x="580" y="358" width="78" height="34" fill="#f37832" rx="3"/>
<text x="620" y="380" fill="#cdd6f4" font-size="11" text-anchor="middle">0.191</text>
<rect x="660" y="358" width="78" height="34" fill="#f4842d" rx="3"/>
<text x="700" y="380" fill="#cdd6f4" font-size="11" text-anchor="middle">0.238</text>
<rect x="740" y="358" width="78" height="34" fill="#f26e35" rx="3"/>
<text x="780" y="380" fill="#cdd6f4" font-size="11" text-anchor="middle">0.158</text>
<rect x="820" y="358" width="78" height="34" fill="#f8b91b" rx="3"/>
<text x="860" y="380" fill="#1e1e2e" font-size="11" text-anchor="middle">0.431</text>
<rect x="900" y="358" width="78" height="34" fill="#f05c3b" rx="3"/>
<text x="940" y="380" fill="#cdd6f4" font-size="11" text-anchor="middle">0.090</text>
<rect x="980" y="358" width="78" height="34" fill="#f37e2f" rx="3"/>
<text x="1020" y="380" fill="#cdd6f4" font-size="11" text-anchor="middle">0.214</text>
<rect x="1060" y="358" width="78" height="34" fill="#f37931" rx="3"/>
<text x="1100" y="380" fill="#cdd6f4" font-size="11" text-anchor="middle">0.195</text>
<rect x="1140" y="358" width="78" height="34" fill="#f05a3c" rx="3"/>
<text x="1180" y="380" fill="#cdd6f4" font-size="11" text-anchor="middle">0.082</text>
<rect x="1220" y="358" width="78" height="34" fill="#f37732" rx="3"/>
<text x="1260" y="380" fill="#cdd6f4" font-size="11" text-anchor="middle">0.189</text>
<rect x="1300" y="358" width="78" height="34" fill="#f7a821" rx="3"/>
<text x="1340" y="380" fill="#cdd6f4" font-size="11" text-anchor="middle">0.371</text>
<rect x="1380" y="358" width="78" height="34" fill="#f26f34" rx="3"/>
<text x="1420" y="380" fill="#cdd6f4" font-size="11" text-anchor="middle">0.161</text>
<rect x="1460" y="358" width="78" height="34" fill="#f27333" rx="3"/>
<text x="1500" y="380" fill="#cdd6f4" font-size="11" text-anchor="middle">0.173</text>
<rect x="1540" y="358" width="78" height="34" fill="#f26c35" rx="3"/>
<text x="1580" y="380" fill="#cdd6f4" font-size="11" text-anchor="middle">0.150</text>
<rect x="1620" y="358" width="78" height="34" fill="#f7b01e" rx="3"/>
<text x="1660" y="380" fill="#cdd6f4" font-size="11" text-anchor="middle">0.400</text>
<text x="172" y="416" fill="#cdd6f4" font-size="10" text-anchor="end">melodic_combined</text>
<rect x="180" y="394" width="78" height="34" fill="#f6cb16" rx="3"/>
<text x="220" y="416" fill="#1e1e2e" font-size="11" text-anchor="middle">0.508</text>
<rect x="260" y="394" width="78" height="34" fill="#f69e24" rx="3"/>
<text x="300" y="416" fill="#cdd6f4" font-size="11" text-anchor="middle">0.334</text>
<rect x="340" y="394" width="78" height="34" fill="#f6a621" rx="3"/>
<text x="380" y="416" fill="#cdd6f4" font-size="11" text-anchor="middle">0.363</text>
<rect x="420" y="394" width="78" height="34" fill="#e8cb1a" rx="3"/>
<text x="460" y="416" fill="#1e1e2e" font-size="11" text-anchor="middle">0.540</text>
<rect x="500" y="394" width="78" height="34" fill="#f59029" rx="3"/>
<text x="540" y="416" fill="#cdd6f4" font-size="11" text-anchor="middle">0.281</text>
<rect x="580" y="394" width="78" height="34" fill="#f37b30" rx="3"/>
<text x="620" y="416" fill="#cdd6f4" font-size="11" text-anchor="middle">0.205</text>
<rect x="660" y="394" width="78" height="34" fill="#f4862d" rx="3"/>
<text x="700" y="416" fill="#cdd6f4" font-size="11" text-anchor="middle">0.243</text>
<rect x="740" y="394" width="78" height="34" fill="#f3802f" rx="3"/>
<text x="780" y="416" fill="#cdd6f4" font-size="11" text-anchor="middle">0.222</text>
<rect x="820" y="394" width="78" height="34" fill="#f59727" rx="3"/>
<text x="860" y="416" fill="#cdd6f4" font-size="11" text-anchor="middle">0.306</text>
<rect x="900" y="394" width="78" height="34" fill="#f4822e" rx="3"/>
<text x="940" y="416" fill="#cdd6f4" font-size="11" text-anchor="middle">0.230</text>
<rect x="980" y="394" width="78" height="34" fill="#f37c30" rx="3"/>
<text x="1020" y="416" fill="#cdd6f4" font-size="11" text-anchor="middle">0.206</text>
<rect x="1060" y="394" width="78" height="34" fill="#f59727" rx="3"/>
<text x="1100" y="416" fill="#cdd6f4" font-size="11" text-anchor="middle">0.308</text>
<rect x="1140" y="394" width="78" height="34" fill="#f27433" rx="3"/>
<text x="1180" y="416" fill="#cdd6f4" font-size="11" text-anchor="middle">0.177</text>
<rect x="1220" y="394" width="78" height="34" fill="#f37532" rx="3"/>
<text x="1260" y="416" fill="#cdd6f4" font-size="11" text-anchor="middle">0.183</text>
<rect x="1300" y="394" width="78" height="34" fill="#f7b21d" rx="3"/>
<text x="1340" y="416" fill="#1e1e2e" font-size="11" text-anchor="middle">0.405</text>
<rect x="1380" y="394" width="78" height="34" fill="#f48d2a" rx="3"/>
<text x="1420" y="416" fill="#cdd6f4" font-size="11" text-anchor="middle">0.270</text>
<rect x="1460" y="394" width="78" height="34" fill="#f37e2f" rx="3"/>
<text x="1500" y="416" fill="#cdd6f4" font-size="11" text-anchor="middle">0.213</text>
<rect x="1540" y="394" width="78" height="34" fill="#f4872c" rx="3"/>
<text x="1580" y="416" fill="#cdd6f4" font-size="11" text-anchor="middle">0.247</text>
<rect x="1620" y="394" width="78" height="34" fill="#f6a522" rx="3"/>
<text x="1660" y="416" fill="#cdd6f4" font-size="11" text-anchor="middle">0.357</text>
<text x="172" y="452" fill="#cdd6f4" font-size="10" text-anchor="end">melodic_hpss_onset</text>
<rect x="180" y="430" width="78" height="34" fill="#f69d25" rx="3"/>
<text x="220" y="452" fill="#cdd6f4" font-size="11" text-anchor="middle">0.329</text>
<rect x="260" y="430" width="78" height="34" fill="#f6a622" rx="3"/>
<text x="300" y="452" fill="#cdd6f4" font-size="11" text-anchor="middle">0.362</text>
<rect x="340" y="430" width="78" height="34" fill="#f7a921" rx="3"/>
<text x="380" y="452" fill="#cdd6f4" font-size="11" text-anchor="middle">0.372</text>
<rect x="420" y="430" width="78" height="34" fill="#f0cb18" rx="3"/>
<text x="460" y="452" fill="#1e1e2e" font-size="11" text-anchor="middle">0.523</text>
<rect x="500" y="430" width="78" height="34" fill="#f48a2b" rx="3"/>
<text x="540" y="452" fill="#cdd6f4" font-size="11" text-anchor="middle">0.259</text>
<rect x="580" y="430" width="78" height="34" fill="#f37c30" rx="3"/>
<text x="620" y="452" fill="#cdd6f4" font-size="11" text-anchor="middle">0.207</text>
<rect x="660" y="430" width="78" height="34" fill="#f37931" rx="3"/>
<text x="700" y="452" fill="#cdd6f4" font-size="11" text-anchor="middle">0.197</text>
<rect x="740" y="430" width="78" height="34" fill="#f3812e" rx="3"/>
<text x="780" y="452" fill="#cdd6f4" font-size="11" text-anchor="middle">0.225</text>
<rect x="820" y="430" width="78" height="34" fill="#f59029" rx="3"/>
<text x="860" y="452" fill="#cdd6f4" font-size="11" text-anchor="middle">0.281</text>
<rect x="900" y="430" width="78" height="34" fill="#f37a31" rx="3"/>
<text x="940" y="452" fill="#cdd6f4" font-size="11" text-anchor="middle">0.202</text>
<rect x="980" y="430" width="78" height="34" fill="#f3812e" rx="3"/>
<text x="1020" y="452" fill="#cdd6f4" font-size="11" text-anchor="middle">0.225</text>
<rect x="1060" y="430" width="78" height="34" fill="#f48a2b" rx="3"/>
<text x="1100" y="452" fill="#cdd6f4" font-size="11" text-anchor="middle">0.260</text>
<rect x="1140" y="430" width="78" height="34" fill="#f26a36" rx="3"/>
<text x="1180" y="452" fill="#cdd6f4" font-size="11" text-anchor="middle">0.141</text>
<rect x="1220" y="430" width="78" height="34" fill="#f37632" rx="3"/>
<text x="1260" y="452" fill="#cdd6f4" font-size="11" text-anchor="middle">0.185</text>
<rect x="1300" y="430" width="78" height="34" fill="#f7a721" rx="3"/>
<text x="1340" y="452" fill="#cdd6f4" font-size="11" text-anchor="middle">0.365</text>
<rect x="1380" y="430" width="78" height="34" fill="#f4852d" rx="3"/>
<text x="1420" y="452" fill="#cdd6f4" font-size="11" text-anchor="middle">0.242</text>
<rect x="1460" y="430" width="78" height="34" fill="#f27034" rx="3"/>
<text x="1500" y="452" fill="#cdd6f4" font-size="11" text-anchor="middle">0.162</text>
<rect x="1540" y="430" width="78" height="34" fill="#f4872c" rx="3"/>
<text x="1580" y="452" fill="#cdd6f4" font-size="11" text-anchor="middle">0.247</text>
<rect x="1620" y="430" width="78" height="34" fill="#f4882c" rx="3"/>
<text x="1660" y="452" fill="#cdd6f4" font-size="11" text-anchor="middle">0.250</text>
<text x="172" y="488" fill="#cdd6f4" font-size="10" text-anchor="end">melodic_pyin_long</text>
<rect x="180" y="466" width="78" height="34" fill="#f6a422" rx="3"/>
<text x="220" y="488" fill="#cdd6f4" font-size="11" text-anchor="middle">0.354</text>
<rect x="260" y="466" width="78" height="34" fill="#f26e35" rx="3"/>
<text x="300" y="488" fill="#cdd6f4" font-size="11" text-anchor="middle">0.155</text>
<rect x="340" y="466" width="78" height="34" fill="#f27333" rx="3"/>
<text x="380" y="488" fill="#cdd6f4" font-size="11" text-anchor="middle">0.176</text>
<rect x="420" y="466" width="78" height="34" fill="#f9c417" rx="3"/>
<text x="460" y="488" fill="#1e1e2e" font-size="11" text-anchor="middle">0.471</text>
<rect x="500" y="466" width="78" height="34" fill="#f26e35" rx="3"/>
<text x="540" y="488" fill="#cdd6f4" font-size="11" text-anchor="middle">0.156</text>
<rect x="580" y="466" width="78" height="34" fill="#f26f35" rx="3"/>
<text x="620" y="488" fill="#cdd6f4" font-size="11" text-anchor="middle">0.158</text>
<rect x="660" y="466" width="78" height="34" fill="#f16538" rx="3"/>
<text x="700" y="488" fill="#cdd6f4" font-size="11" text-anchor="middle">0.124</text>
<rect x="740" y="466" width="78" height="34" fill="#f37732" rx="3"/>
<text x="780" y="488" fill="#cdd6f4" font-size="11" text-anchor="middle">0.189</text>
<rect x="820" y="466" width="78" height="34" fill="#f37632" rx="3"/>
<text x="860" y="488" fill="#cdd6f4" font-size="11" text-anchor="middle">0.187</text>
<rect x="900" y="466" width="78" height="34" fill="#f16737" rx="3"/>
<text x="940" y="488" fill="#cdd6f4" font-size="11" text-anchor="middle">0.130</text>
<rect x="980" y="466" width="78" height="34" fill="#f26f34" rx="3"/>
<text x="1020" y="488" fill="#cdd6f4" font-size="11" text-anchor="middle">0.161</text>
<rect x="1060" y="466" width="78" height="34" fill="#f37a31" rx="3"/>
<text x="1100" y="488" fill="#cdd6f4" font-size="11" text-anchor="middle">0.202</text>
<rect x="1140" y="466" width="78" height="34" fill="#f16837" rx="3"/>
<text x="1180" y="488" fill="#cdd6f4" font-size="11" text-anchor="middle">0.135</text>
<rect x="1220" y="466" width="78" height="34" fill="#f0523e" rx="3"/>
<text x="1260" y="488" fill="#cdd6f4" font-size="11" text-anchor="middle">0.054</text>
<rect x="1300" y="466" width="78" height="34" fill="#f59527" rx="3"/>
<text x="1340" y="488" fill="#cdd6f4" font-size="11" text-anchor="middle">0.299</text>
<rect x="1380" y="466" width="78" height="34" fill="#f16837" rx="3"/>
<text x="1420" y="488" fill="#cdd6f4" font-size="11" text-anchor="middle">0.136</text>
<rect x="1460" y="466" width="78" height="34" fill="#ef4f40" rx="3"/>
<text x="1500" y="488" fill="#cdd6f4" font-size="11" text-anchor="middle">0.042</text>
<rect x="1540" y="466" width="78" height="34" fill="#f26f34" rx="3"/>
<text x="1580" y="488" fill="#cdd6f4" font-size="11" text-anchor="middle">0.160</text>
<rect x="1620" y="466" width="78" height="34" fill="#ef4c41" rx="3"/>
<text x="1660" y="488" fill="#cdd6f4" font-size="11" text-anchor="middle">0.031</text>
</svg>