<svg xmlns="http://www.w3.org/2000/svg" width="660" height="450" style="background:#1e1e2e;font-family:monospace">
<text x="330" y="22" fill="#cdd6f4" font-size="14" text-anchor="middle" font-weight="bold">Mean Timing MAE by Algorithm</text>
<text x="330" y="40" fill="#a6adc8" font-size="10" text-anchor="middle">Mean matched onset absolute timing error. Lower is better.</text>
<text x="192" y="79" fill="#cdd6f4" font-size="10" text-anchor="end">melodic_basic_pitch</text>
<rect x="200" y="64" width="382" height="22" fill="#facc15" rx="3"/>
<text x="588" y="79" fill="#cdd6f4" font-size="10">34.3ms</text>
<text x="192" y="109" fill="#cdd6f4" font-size="10" text-anchor="end">melodic_pyin</text>
<rect x="200" y="94" width="360" height="22" fill="#facc15" rx="3"/>
<text x="566" y="109" fill="#cdd6f4" font-size="10">32.4ms</text>
<text x="192" y="139" fill="#cdd6f4" font-size="10" text-anchor="end">melodic_yin</text>
<rect x="200" y="124" width="376" height="22" fill="#facc15" rx="3"/>
<text x="582" y="139" fill="#cdd6f4" font-size="10">33.8ms</text>
<text x="192" y="169" fill="#cdd6f4" font-size="10" text-anchor="end">melodic_onset_yin</text>
<rect x="200" y="154" width="371" height="22" fill="#facc15" rx="3"/>
<text x="577" y="169" fill="#cdd6f4" font-size="10">33.3ms</text>
<text x="192" y="199" fill="#cdd6f4" font-size="10" text-anchor="end">melodic_hpss_yin</text>
<rect x="200" y="184" width="372" height="22" fill="#facc15" rx="3"/>
<text x="578" y="199" fill="#cdd6f4" font-size="10">33.4ms</text>
<text x="192" y="229" fill="#cdd6f4" font-size="10" text-anchor="end">melodic_fft_hps</text>
<rect x="200" y="214" width="357" height="22" fill="#facc15" rx="3"/>
<text x="563" y="229" fill="#cdd6f4" font-size="10">32.1ms</text>
<text x="192" y="259" fill="#cdd6f4" font-size="10" text-anchor="end">melodic_librosa_pyin</text>
<rect x="200" y="244" width="400" height="22" fill="#facc15" rx="3"/>
<text x="606" y="259" fill="#cdd6f4" font-size="10">35.9ms</text>
<text x="192" y="289" fill="#cdd6f4" font-size="10" text-anchor="end">melodic_yin_t020</text>
<rect x="200" y="274" width="373" height="22" fill="#facc15" rx="3"/>
<text x="579" y="289" fill="#cdd6f4" font-size="10">33.6ms</text>
<text x="192" y="319" fill="#cdd6f4" font-size="10" text-anchor="end">melodic_yin_bass80</text>
<rect x="200" y="304" width="353" height="22" fill="#facc15" rx="3"/>
<text x="559" y="319" fill="#cdd6f4" font-size="10">31.7ms</text>
<text x="192" y="349" fill="#cdd6f4" font-size="10" text-anchor="end">melodic_combined</text>
<rect x="200" y="334" width="354" height="22" fill="#facc15" rx="3"/>
<text x="560" y="349" fill="#cdd6f4" font-size="10">31.9ms</text>
<text x="192" y="379" fill="#cdd6f4" font-size="10" text-anchor="end">melodic_hpss_onset</text>
<rect x="200" y="364" width="363" height="22" fill="#facc15" rx="3"/>
<text x="569" y="379" fill="#cdd6f4" font-size="10">32.7ms</text>
<text x="192" y="409" fill="#cdd6f4" font-size="10" text-anchor="end">melodic_pyin_long</text>
<rect x="200" y="394" width="373" height="22" fill="#facc15" rx="3"/>
<text x="579" y="409" fill="#cdd6f4" font-size="10">33.6ms</text>
</svg>