{
  "payload": {
    "suite_version": "0.3.0",
    "generated_at_utc": "2026-05-02T16:46:01Z",
    "profile": {
      "description": "Prefer in-game recognizability, stable density, and fail-safe local defaults.",
      "drum_engines": [
        "beat_conditioned_multiband_decoder",
        "spectral_flux_multiband",
        "adaptive_beat_grid",
        "combined_filter",
        "dsp_bandpass_improved"
      ],
      "melodic_methods_by_instrument": {
        "bass": [
          "melodic_yin_octave_hps_fix",
          "melodic_adaptive",
          "melodic_yin_bass80",
          "melodic_octave_fix"
        ],
        "keys": [
          "piano_auto",
          "piano_polyphonic_clean",
          "melodic_octave_fix",
          "melodic_hpss_combined"
        ],
        "lead_guitar": [
          "melodic_adaptive",
          "melodic_octave_fix",
          "melodic_combined",
          "basic_pitch"
        ],
        "rhythm_guitar": [
          "melodic_hpss_combined",
          "melodic_adaptive",
          "melodic_octave_fix",
          "melodic_combined"
        ]
      },
      "profile": "gameplay_default",
      "known_profiles": [
        "gameplay_default",
        "fidelity_midi",
        "research_ab"
      ]
    },
    "tolerance_ms": 60.0,
    "model_backends": {
      "mt3": {
        "ok": true,
        "engines": {
          "mr_mt3_drums": {
            "ok": true,
            "backend": "mt3",
            "engine": "mr_mt3_drums",
            "model_id": "mr_mt3",
            "modelpack_id": "mr_mt3",
            "modelpack_version": "hf-main-20260325",
            "checkpoint_path": "D:\\AuralPrimer\\assets\\models\\mr_mt3\\hf-main-20260325\\files\\checkpoints\\mr_mt3\\mt3.pth",
            "modelpack_root": "D:\\AuralPrimer\\assets\\models\\mr_mt3\\hf-main-20260325",
            "size_mb": 176.0,
            "speed_x_realtime": 57.0,
            "description": "MR-MT3 drum transcription baseline"
          },
          "yourmt3_drums": {
            "ok": true,
            "backend": "mt3",
            "engine": "yourmt3_drums",
            "model_id": "yourmt3",
            "modelpack_id": "yourmt3",
            "modelpack_version": "hf-main-20260325",
            "checkpoint_path": "D:\\AuralPrimer\\assets\\models\\yourmt3\\hf-main-20260325\\files\\checkpoints\\yourmt3\\mc13_256_g4_all_v7_mt3f_sqr_rms_moe_wf4_n8k2_silu_rope_rp_b36_nops\\last.ckpt",
            "modelpack_root": "D:\\AuralPrimer\\assets\\models\\yourmt3\\hf-main-20260325",
            "size_mb": 536.0,
            "speed_x_realtime": 15.0,
            "description": "YourMT3 drum transcription research candidate"
          }
        },
        "methods": [
          "mr_mt3_drums",
          "yourmt3_drums"
        ],
        "roles": [
          "drums"
        ],
        "adapter_contract": {
          "availability_check": true,
          "modelpack_resolution": true,
          "decode": "temp_midi",
          "instrument_tagging": true,
          "clear_failure": true,
          "portable_safe_absence": true
        },
        "failure_mode": "clear FileNotFoundError/RuntimeError, no portable requirement"
      },
      "basic_pitch": {
        "ok": true,
        "display_name": "Basic Pitch",
        "module": "basic_pitch",
        "module_candidates": [
          "basic_pitch"
        ],
        "module_available": true,
        "roles": [
          "bass",
          "lead_guitar",
          "rhythm_guitar",
          "keys"
        ],
        "methods": [
          "basic_pitch"
        ],
        "env_files": {},
        "env_values": {},
        "model_path": null,
        "adapter_contract": {
          "availability_check": true,
          "modelpack_resolution": true,
          "decode": "event_decode",
          "instrument_tagging": true,
          "clear_failure": true,
          "portable_safe_absence": true
        },
        "failure_mode": "portable-safe fallback through melodic fallback chain"
      },
      "piano_transkun": {
        "ok": false,
        "display_name": "Transkun",
        "module": null,
        "module_candidates": [
          "transkun"
        ],
        "module_available": false,
        "roles": [
          "keys"
        ],
        "methods": [
          "piano_transkun",
          "piano_transkun_clean"
        ],
        "env_files": {},
        "env_values": {},
        "model_path": null,
        "adapter_contract": {
          "availability_check": true,
          "modelpack_resolution": false,
          "decode": "temp_midi",
          "instrument_tagging": true,
          "clear_failure": true,
          "portable_safe_absence": true
        },
        "failure_mode": "clear RuntimeError, then melodic fallback when used through import"
      },
      "piano_pti": {
        "ok": false,
        "display_name": "piano_transcription_inference",
        "module": null,
        "module_candidates": [
          "piano_transcription_inference"
        ],
        "module_available": false,
        "roles": [
          "keys"
        ],
        "methods": [
          "piano_pti",
          "piano_pti_clean"
        ],
        "env_files": {
          "AURAL_PIANO_PTI_CHECKPOINT": {
            "configured": false,
            "path": null,
            "exists": false
          }
        },
        "env_values": {},
        "model_path": null,
        "adapter_contract": {
          "availability_check": true,
          "modelpack_resolution": true,
          "decode": "temp_midi",
          "instrument_tagging": true,
          "clear_failure": true,
          "portable_safe_absence": true
        },
        "failure_mode": "clear RuntimeError unless checkpoint or explicit download opt-in is configured"
      },
      "piano_hft": {
        "ok": false,
        "display_name": "hFT-Transformer",
        "module": null,
        "module_candidates": [],
        "module_available": false,
        "roles": [
          "keys"
        ],
        "methods": [
          "piano_hft",
          "piano_hft_clean"
        ],
        "env_files": {
          "AURAL_PIANO_HFT_CHECKPOINT": {
            "configured": false,
            "path": null,
            "exists": false
          }
        },
        "env_values": {
          "AURAL_PIANO_HFT_COMMAND": {
            "configured": false,
            "value": null
          }
        },
        "model_path": null,
        "adapter_contract": {
          "availability_check": true,
          "modelpack_resolution": true,
          "decode": "temp_midi",
          "instrument_tagging": true,
          "clear_failure": true,
          "portable_safe_absence": true
        },
        "failure_mode": "clear RuntimeError unless checkpoint and command adapter are configured"
      },
      "torchcrepe": {
        "ok": true,
        "display_name": "torchcrepe",
        "module": "torchcrepe",
        "module_candidates": [
          "torchcrepe",
          "torch"
        ],
        "module_available": true,
        "roles": [
          "bass",
          "lead_guitar",
          "rhythm_guitar"
        ],
        "methods": [
          "torchcrepe"
        ],
        "env_files": {},
        "env_values": {},
        "model_path": null,
        "adapter_contract": {
          "availability_check": true,
          "modelpack_resolution": false,
          "decode": "frame_f0_decode",
          "instrument_tagging": true,
          "clear_failure": true,
          "portable_safe_absence": true
        },
        "failure_mode": "clear RuntimeError, then melodic fallback when used through import"
      },
      "beatnet": {
        "ok": false,
        "display_name": "BeatNet",
        "module": null,
        "module_candidates": [
          "BeatNet",
          "beatnet"
        ],
        "module_available": false,
        "roles": [
          "tempo",
          "drums"
        ],
        "methods": [],
        "env_files": {},
        "env_values": {},
        "model_path": null,
        "adapter_contract": {
          "availability_check": true,
          "modelpack_resolution": false,
          "decode": "beat_downbeat_priors",
          "instrument_tagging": true,
          "clear_failure": true,
          "portable_safe_absence": true
        },
        "failure_mode": "availability-only until wired as a beat/downbeat prior"
      },
      "omnizart": {
        "ok": false,
        "display_name": "Omnizart",
        "module": null,
        "module_candidates": [
          "omnizart"
        ],
        "module_available": false,
        "roles": [
          "research"
        ],
        "methods": [],
        "env_files": {},
        "env_values": {},
        "model_path": null,
        "adapter_contract": {
          "availability_check": true,
          "modelpack_resolution": false,
          "decode": "research_comparator",
          "instrument_tagging": true,
          "clear_failure": true,
          "portable_safe_absence": true
        },
        "failure_mode": "availability-only research comparator; never required for portable import"
      }
    },
    "cases": [
      {
        "case_id": "e7a87286c29ac243b523e00932ec1303-keys",
        "name": "psalm 130 - 5 Stems - keys",
        "role": "keys",
        "family": "piano",
        "wav_path": "D:\\AuralPrimer\\AuralPrimerPortable\\data\\songs\\ingest_psalm_130_5_stems.songpack\\audio\\stems\\keys.wav",
        "reference_path": "D:\\AuralPrimer\\AuralPrimerPortable\\data\\songs\\ingest_psalm_130_5_stems.songpack\\features\\notes.mid",
        "reference_count": 426,
        "reference_meta": {},
        "algorithms": [
          "piano_auto"
        ],
        "results": [
          {
            "algorithm": "piano_auto",
            "note_count": 2013,
            "elapsed_sec": 57.25,
            "prediction": {
              "note_count": 2013,
              "duplicate_predictions": 0,
              "duplicate_rate": 0.0,
              "pitch_min": 29,
              "pitch_max": 96,
              "mean_duration_sec": 0.4264,
              "mean_velocity": 60.13
            },
            "predicted_notes": [
              {
                "t_on": 2.634667,
                "t_off": 2.867981,
                "pitch": 71,
                "velocity": 37,
                "instrument": "keys"
              },
              {
                "t_on": 2.848,
                "t_off": 2.944,
                "pitch": 77,
                "velocity": 45,
                "instrument": "keys"
              },
              {
                "t_on": 2.933333,
                "t_off": 3.420536,
                "pitch": 77,
                "velocity": 60,
                "instrument": "keys"
              },
              {
                "t_on": 3.061333,
                "t_off": 3.416701,
                "pitch": 71,
                "velocity": 44,
                "instrument": "keys"
              },
              {
                "t_on": 3.701333,
                "t_off": 3.797333,
                "pitch": 77,
                "velocity": 43,
                "instrument": "keys"
              },
              {
                "t_on": 3.786667,
                "t_off": 3.882667,
                "pitch": 77,
                "velocity": 65,
                "instrument": "keys"
              },
              {
                "t_on": 3.872,
                "t_off": 4.128,
                "pitch": 77,
                "velocity": 50,
                "instrument": "keys"
              },
              {
                "t_on": 4.117333,
                "t_off": 4.213333,
                "pitch": 77,
                "velocity": 45,
                "instrument": "keys"
              },
              {
                "t_on": 4.202667,
                "t_off": 4.573334,
                "pitch": 77,
                "velocity": 61,
                "instrument": "keys"
              },
              {
                "t_on": 4.533333,
                "t_off": 4.629333,
                "pitch": 70,
                "velocity": 53,
                "instrument": "keys"
              },
              {
                "t_on": 4.544,
                "t_off": 4.64,
                "pitch": 82,
                "velocity": 55,
                "instrument": "keys"
              },
              {
                "t_on": 4.573334,
                "t_off": 4.693333,
                "pitch": 77,
                "velocity": 67,
                "instrument": "keys"
              },
              {
                "t_on": 4.618667,
                "t_off": 4.789333,
                "pitch": 70,
                "velocity": 79,
                "instrument": "keys"
              },
              {
                "t_on": 4.629333,
                "t_off": 4.725334,
                "pitch": 82,
                "velocity": 79,
                "instrument": "keys"
              },
              {
                "t_on": 4.714667,
                "t_off": 4.994667,
                "pitch": 82,
                "velocity": 51,
                "instrument": "keys"
              },
              {
                "t_on": 4.746666,
                "t_off": 5.027836,
                "pitch": 71,
                "velocity": 49,
                "instrument": "keys"
              },
              {
                "t_on": 4.778666,
                "t_off": 4.994667,
                "pitch": 70,
                "velocity": 44,
                "instrument": "keys"
              },
              {
                "t_on": 4.949333,
                "t_off": 5.045333,
                "pitch": 69,
                "velocity": 54,
                "instrument": "keys"
              },
              {
                "t_on": 4.96,
                "t_off": 5.056,
                "pitch": 81,
                "velocity": 54,
                "instrument": "keys"
              },
              {
                "t_on": 4.994667,
                "t_off": 5.186667,
                "pitch": 70,
                "velocity": 50,
                "instrument": "keys"
              },
              {
                "t_on": 4.994667,
                "t_off": 5.197333,
                "pitch": 82,
                "velocity": 54,
                "instrument": "keys"
              },
              {
                "t_on": 5.034667,
                "t_off": 5.210667,
                "pitch": 69,
                "velocity": 84,
                "instrument": "keys"
              },
              {
                "t_on": 5.045333,
                "t_off": 5.141333,
                "pitch": 81,
                "velocity": 82,
                "instrument": "keys"
              },
              {
                "t_on": 5.130667,
                "t_off": 5.210667,
                "pitch": 81,
                "velocity": 61,
                "instrument": "keys"
              },
              {
                "t_on": 5.194667,
                "t_off": 5.290667,
                "pitch": 70,
                "velocity": 47,
                "instrument": "keys"
              },
              {
                "t_on": 5.205333,
                "t_off": 5.301333,
                "pitch": 82,
                "velocity": 62,
                "instrument": "keys"
              },
              {
                "t_on": 5.210667,
                "t_off": 5.639369,
                "pitch": 69,
                "velocity": 68,
                "instrument": "keys"
              },
              {
                "t_on": 5.210667,
                "t_off": 5.637401,
                "pitch": 81,
                "velocity": 66,
                "instrument": "keys"
              },
              {
                "t_on": 5.28,
                "t_off": 5.607708,
                "pitch": 70,
                "velocity": 59,
                "instrument": "keys"
              },
              {
                "t_on": 5.290667,
                "t_off": 5.638877,
                "pitch": 82,
                "velocity": 59,
                "instrument": "keys"
              },
              {
                "t_on": 5.376,
                "t_off": 6.136667,
                "pitch": 54,
                "velocity": 56,
                "instrument": "keys"
              },
              {
                "t_on": 5.386667,
                "t_off": 6.040667,
                "pitch": 61,
                "velocity": 52,
                "instrument": "keys"
              },
              {
                "t_on": 5.386667,
                "t_off": 5.900701,
                "pitch": 64,
                "velocity": 49,
                "instrument": "keys"
              },
              {
                "t_on": 5.386667,
                "t_off": 5.827521,
                "pitch": 76,
                "velocity": 48,
                "instrument": "keys"
              },
              {
                "t_on": 5.482666,
                "t_off": 5.578667,
                "pitch": 53,
                "velocity": 72,
                "instrument": "keys"
              },
              {
                "t_on": 5.493333,
                "t_off": 5.589333,
                "pitch": 60,
                "velocity": 69,
                "instrument": "keys"
              },
              {
                "t_on": 5.493333,
                "t_off": 5.863622,
                "pitch": 65,
                "velocity": 63,
                "instrument": "keys"
              },
              {
                "t_on": 5.568,
                "t_off": 5.664,
                "pitch": 53,
                "velocity": 62,
                "instrument": "keys"
              },
              {
                "t_on": 5.568,
                "t_off": 6.200667,
                "pitch": 72,
                "velocity": 53,
                "instrument": "keys"
              },
              {
                "t_on": 5.578667,
                "t_off": 5.674667,
                "pitch": 60,
                "velocity": 58,
                "instrument": "keys"
              },
              {
                "t_on": 5.653333,
                "t_off": 5.749333,
                "pitch": 53,
                "velocity": 52,
                "instrument": "keys"
              },
              {
                "t_on": 5.664,
                "t_off": 6.19,
                "pitch": 60,
                "velocity": 52,
                "instrument": "keys"
              },
              {
                "t_on": 5.738667,
                "t_off": 5.834667,
                "pitch": 53,
                "velocity": 46,
                "instrument": "keys"
              },
              {
                "t_on": 5.824,
                "t_off": 6.261333,
                "pitch": 53,
                "velocity": 42,
                "instrument": "keys"
              },
              {
                "t_on": 6.218667,
                "t_off": 6.478667,
                "pitch": 78,
                "velocity": 50,
                "instrument": "keys"
              },
              {
                "t_on": 6.250667,
                "t_off": 6.440667,
                "pitch": 53,
                "velocity": 43,
                "instrument": "keys"
              },
              {
                "t_on": 6.250667,
                "t_off": 6.346667,
                "pitch": 77,
                "velocity": 54,
                "instrument": "keys"
              },
              {
                "t_on": 6.336,
                "t_off": 6.432,
                "pitch": 77,
                "velocity": 86,
                "instrument": "keys"
              },
              {
                "t_on": 6.421333,
                "t_off": 6.517333,
                "pitch": 77,
                "velocity": 67,
                "instrument": "keys"
              },
              {
                "t_on": 6.506667,
                "t_off": 6.602667,
                "pitch": 77,
                "velocity": 51,
                "instrument": "keys"
              },
              {
                "t_on": 6.592,
                "t_off": 6.688,
                "pitch": 77,
                "velocity": 51,
                "instrument": "keys"
              },
              {
                "t_on": 6.677333,
                "t_off": 6.773333,
                "pitch": 77,
                "velocity": 55,
                "instrument": "keys"
              },
              {
                "t_on": 6.762667,
                "t_off": 6.858667,
                "pitch": 77,
                "velocity": 72,
                "instrument": "keys"
              },
              {
                "t_on": 6.848,
                "t_off": 6.944,
                "pitch": 77,
                "velocity": 60,
                "instrument": "keys"
              },
              {
                "t_on": 6.933333,
                "t_off": 7.104,
                "pitch": 77,
                "velocity": 53,
                "instrument": "keys"
              },
              {
                "t_on": 7.093333,
                "t_off": 7.189333,
                "pitch": 77,
                "velocity": 48,
                "instrument": "keys"
              },
              {
                "t_on": 7.178667,
                "t_off": 7.388502,
                "pitch": 77,
                "velocity": 58,
                "instrument": "keys"
              },
              {
                "t_on": 7.904,
                "t_off": 8.130667,
                "pitch": 71,
                "velocity": 57,
                "instrument": "keys"
              },
              {
                "t_on": 7.904,
                "t_off": 8.094,
                "pitch": 83,
                "velocity": 56,
                "instrument": "keys"
              },
              {
                "t_on": 7.914667,
                "t_off": 8.172468,
                "pitch": 68,
                "velocity": 56,
                "instrument": "keys"
              },
              {
                "t_on": 7.914667,
                "t_off": 8.104667,
                "pitch": 80,
                "velocity": 58,
                "instrument": "keys"
              },
              {
                "t_on": 7.914667,
                "t_off": 8.010667,
                "pitch": 82,
                "velocity": 56,
                "instrument": "keys"
              },
              {
                "t_on": 7.936,
                "t_off": 8.138667,
                "pitch": 70,
                "velocity": 54,
                "instrument": "keys"
              },
              {
                "t_on": 8.0,
                "t_off": 8.096,
                "pitch": 82,
                "velocity": 101,
                "instrument": "keys"
              },
              {
                "t_on": 8.010667,
                "t_off": 8.386667,
                "pitch": 94,
                "velocity": 100,
                "instrument": "keys"
              },
              {
                "t_on": 8.085333,
                "t_off": 8.493223,
                "pitch": 82,
                "velocity": 76,
                "instrument": "keys"
              },
              {
                "t_on": 8.128,
                "t_off": 8.386667,
                "pitch": 70,
                "velocity": 71,
                "instrument": "keys"
              },
              {
                "t_on": 8.138667,
                "t_off": 8.245333,
                "pitch": 71,
                "velocity": 68,
                "instrument": "keys"
              },
              {
                "t_on": 8.234667,
                "t_off": 8.499567,
                "pitch": 71,
                "velocity": 53,
                "instrument": "keys"
              },
              {
                "t_on": 8.341333,
                "t_off": 8.437333,
                "pitch": 69,
                "velocity": 60,
                "instrument": "keys"
              },
              {
                "t_on": 8.341333,
                "t_off": 8.437333,
                "pitch": 81,
                "velocity": 59,
                "instrument": "keys"
              },
              {
                "t_on": 8.386667,
                "t_off": 8.597334,
                "pitch": 70,
                "velocity": 71,
                "instrument": "keys"
              },
              {
                "t_on": 8.386667,
                "t_off": 8.622994,
                "pitch": 94,
                "velocity": 83,
                "instrument": "keys"
              },
              {
                "t_on": 8.426666,
                "t_off": 8.586667,
                "pitch": 69,
                "velocity": 89,
                "instrument": "keys"
              },
              {
                "t_on": 8.426666,
                "t_off": 8.586667,
                "pitch": 81,
                "velocity": 89,
                "instrument": "keys"
              },
              {
                "t_on": 8.544,
                "t_off": 8.834667,
                "pitch": 83,
                "velocity": 72,
                "instrument": "keys"
              },
              {
                "t_on": 8.554667,
                "t_off": 8.781333,
                "pitch": 71,
                "velocity": 68,
                "instrument": "keys"
              },
              {
                "t_on": 8.554667,
                "t_off": 8.650667,
                "pitch": 82,
                "velocity": 71,
                "instrument": "keys"
              },
              {
                "t_on": 8.586667,
                "t_off": 8.682667,
                "pitch": 70,
                "velocity": 81,
                "instrument": "keys"
              },
              {
                "t_on": 8.594667,
                "t_off": 9.079732,
                "pitch": 69,
                "velocity": 85,
                "instrument": "keys"
              },
              {
                "t_on": 8.594667,
                "t_off": 9.091334,
                "pitch": 81,
                "velocity": 92,
                "instrument": "keys"
              },
              {
                "t_on": 8.64,
                "t_off": 8.736,
                "pitch": 82,
                "velocity": 100,
                "instrument": "keys"
              },
              {
                "t_on": 8.661333,
                "t_off": 9.057973,
                "pitch": 94,
                "velocity": 89,
                "instrument": "keys"
              },
              {
                "t_on": 8.672,
                "t_off": 8.768,
                "pitch": 70,
                "velocity": 91,
                "instrument": "keys"
              },
              {
                "t_on": 8.725333,
                "t_off": 9.454,
                "pitch": 82,
                "velocity": 79,
                "instrument": "keys"
              },
              {
                "t_on": 8.757334,
                "t_off": 9.194667,
                "pitch": 54,
                "velocity": 75,
                "instrument": "keys"
              },
              {
                "t_on": 8.757334,
                "t_off": 9.194667,
                "pitch": 66,
                "velocity": 80,
                "instrument": "keys"
              },
              {
                "t_on": 8.757334,
                "t_off": 9.475334,
                "pitch": 70,
                "velocity": 72,
                "instrument": "keys"
              },
              {
                "t_on": 8.768,
                "t_off": 9.646,
                "pitch": 56,
                "velocity": 76,
                "instrument": "keys"
              },
              {
                "t_on": 8.789333,
                "t_off": 9.4,
                "pitch": 71,
                "velocity": 73,
                "instrument": "keys"
              },
              {
                "t_on": 8.842667,
                "t_off": 8.938667,
                "pitch": 83,
                "velocity": 86,
                "instrument": "keys"
              },
              {
                "t_on": 8.853333,
                "t_off": 8.949333,
                "pitch": 55,
                "velocity": 92,
                "instrument": "keys"
              },
              {
                "t_on": 8.853333,
                "t_off": 8.949333,
                "pitch": 67,
                "velocity": 92,
                "instrument": "keys"
              },
              {
                "t_on": 8.864,
                "t_off": 8.981334,
                "pitch": 62,
                "velocity": 84,
                "instrument": "keys"
              },
              {
                "t_on": 8.885333,
                "t_off": 9.226666,
                "pitch": 77,
                "velocity": 83,
                "instrument": "keys"
              },
              {
                "t_on": 8.928,
                "t_off": 9.357334,
                "pitch": 83,
                "velocity": 72,
                "instrument": "keys"
              },
              {
                "t_on": 8.938666,
                "t_off": 9.034667,
                "pitch": 55,
                "velocity": 80,
                "instrument": "keys"
              },
              {
                "t_on": 8.938666,
                "t_off": 9.034667,
                "pitch": 67,
                "velocity": 78,
                "instrument": "keys"
              },
              {
                "t_on": 8.970667,
                "t_off": 9.088,
                "pitch": 62,
                "velocity": 71,
                "instrument": "keys"
              },
              {
                "t_on": 9.024,
                "t_off": 9.12,
                "pitch": 55,
                "velocity": 75,
                "instrument": "keys"
              },
              {
                "t_on": 9.024,
                "t_off": 9.12,
                "pitch": 67,
                "velocity": 69,
                "instrument": "keys"
              },
              {
                "t_on": 9.077333,
                "t_off": 9.592667,
                "pitch": 62,
                "velocity": 61,
                "instrument": "keys"
              },
              {
                "t_on": 9.109333,
                "t_off": 9.205334,
                "pitch": 55,
                "velocity": 70,
                "instrument": "keys"
              },
              {
                "t_on": 9.109333,
                "t_off": 9.656667,
                "pitch": 67,
                "velocity": 62,
                "instrument": "keys"
              },
              {
                "t_on": 9.12,
                "t_off": 9.765,
                "pitch": 74,
                "velocity": 60,
                "instrument": "keys"
              },
              {
                "t_on": 9.173333,
                "t_off": 9.604906,
                "pitch": 68,
                "velocity": 61,
                "instrument": "keys"
              },
              {
                "t_on": 9.184,
                "t_off": 9.794667,
                "pitch": 54,
                "velocity": 63,
                "instrument": "keys"
              },
              {
                "t_on": 9.184,
                "t_off": 9.592,
                "pitch": 66,
                "velocity": 64,
                "instrument": "keys"
              },
              {
                "t_on": 9.194667,
                "t_off": 9.290666,
                "pitch": 55,
                "velocity": 66,
                "instrument": "keys"
              },
              {
                "t_on": 9.216,
                "t_off": 9.312,
                "pitch": 77,
                "velocity": 65,
                "instrument": "keys"
              },
              {
                "t_on": 9.28,
                "t_off": 9.376,
                "pitch": 55,
                "velocity": 86,
                "instrument": "keys"
              },
              {
                "t_on": 9.301333,
                "t_off": 9.664,
                "pitch": 77,
                "velocity": 91,
                "instrument": "keys"
              },
              {
                "t_on": 9.365334,
                "t_off": 9.461333,
                "pitch": 55,
                "velocity": 71,
                "instrument": "keys"
              },
              {
                "t_on": 9.365334,
                "t_off": 9.461333,
                "pitch": 83,
                "velocity": 70,
                "instrument": "keys"
              },
              {
                "t_on": 9.408,
                "t_off": 9.504,
                "pitch": 71,
                "velocity": 64,
                "instrument": "keys"
              },
              {
                "t_on": 9.450666,
                "t_off": 9.546667,
                "pitch": 55,
                "velocity": 63,
                "instrument": "keys"
              },
              {
                "t_on": 9.450666,
                "t_off": 9.546667,
                "pitch": 83,
                "velocity": 60,
                "instrument": "keys"
              },
              {
                "t_on": 9.493333,
                "t_off": 9.589333,
                "pitch": 71,
                "velocity": 67,
                "instrument": "keys"
              },
              {
                "t_on": 9.536,
                "t_off": 9.654667,
                "pitch": 55,
                "velocity": 57,
                "instrument": "keys"
              },
              {
                "t_on": 9.536,
                "t_off": 9.654667,
                "pitch": 83,
                "velocity": 68,
                "instrument": "keys"
              },
              {
                "t_on": 9.578667,
                "t_off": 9.654667,
                "pitch": 71,
                "velocity": 68,
                "instrument": "keys"
              },
              {
                "t_on": 9.6,
                "t_off": 10.211334,
                "pitch": 66,
                "velocity": 68,
                "instrument": "keys"
              },
              {
                "t_on": 9.610666,
                "t_off": 10.08,
                "pitch": 70,
                "velocity": 72,
                "instrument": "keys"
              },
              {
                "t_on": 9.653334,
                "t_off": 9.845333,
                "pitch": 77,
                "velocity": 94,
                "instrument": "keys"
              },
              {
                "t_on": 9.654667,
                "t_off": 9.888,
                "pitch": 55,
                "velocity": 77,
                "instrument": "keys"
              },
              {
                "t_on": 9.654667,
                "t_off": 10.009062,
                "pitch": 68,
                "velocity": 93,
                "instrument": "keys"
              },
              {
                "t_on": 9.654667,
                "t_off": 9.816,
                "pitch": 71,
                "velocity": 83,
                "instrument": "keys"
              },
              {
                "t_on": 9.654667,
                "t_off": 9.950787,
                "pitch": 83,
                "velocity": 84,
                "instrument": "keys"
              },
              {
                "t_on": 9.706667,
                "t_off": 9.802666,
                "pitch": 82,
                "velocity": 100,
                "instrument": "keys"
              },
              {
                "t_on": 9.792,
                "t_off": 10.227,
                "pitch": 82,
                "velocity": 76,
                "instrument": "keys"
              },
              {
                "t_on": 9.802667,
                "t_off": 10.261464,
                "pitch": 54,
                "velocity": 61,
                "instrument": "keys"
              },
              {
                "t_on": 9.824,
                "t_off": 9.92,
                "pitch": 71,
                "velocity": 70,
                "instrument": "keys"
              },
              {
                "t_on": 9.834666,
                "t_off": 9.930667,
                "pitch": 77,
                "velocity": 67,
                "instrument": "keys"
              },
              {
                "t_on": 9.877334,
                "t_off": 9.973333,
                "pitch": 55,
                "velocity": 65,
                "instrument": "keys"
              },
              {
                "t_on": 9.909333,
                "t_off": 10.253438,
                "pitch": 71,
                "velocity": 75,
                "instrument": "keys"
              },
              {
                "t_on": 9.92,
                "t_off": 10.082667,
                "pitch": 77,
                "velocity": 70,
                "instrument": "keys"
              },
              {
                "t_on": 9.962667,
                "t_off": 10.08,
                "pitch": 55,
                "velocity": 68,
                "instrument": "keys"
              },
              {
                "t_on": 10.037333,
                "t_off": 10.294,
                "pitch": 56,
                "velocity": 63,
                "instrument": "keys"
              },
              {
                "t_on": 10.048,
                "t_off": 10.448,
                "pitch": 72,
                "velocity": 65,
                "instrument": "keys"
              },
              {
                "t_on": 10.058666,
                "t_off": 10.426564,
                "pitch": 65,
                "velocity": 64,
                "instrument": "keys"
              },
              {
                "t_on": 10.08,
                "t_off": 10.294,
                "pitch": 55,
                "velocity": 76,
                "instrument": "keys"
              },
              {
                "t_on": 10.08,
                "t_off": 10.41,
                "pitch": 70,
                "velocity": 92,
                "instrument": "keys"
              },
              {
                "t_on": 10.090667,
                "t_off": 10.294,
                "pitch": 77,
                "velocity": 96,
                "instrument": "keys"
              },
              {
                "t_on": 10.24,
                "t_off": 10.894,
                "pitch": 67,
                "velocity": 81,
                "instrument": "keys"
              },
              {
                "t_on": 10.250667,
                "t_off": 10.776667,
                "pitch": 58,
                "velocity": 72,
                "instrument": "keys"
              },
              {
                "t_on": 10.261333,
                "t_off": 10.552,
                "pitch": 62,
                "velocity": 74,
                "instrument": "keys"
              },
              {
                "t_on": 10.294,
                "t_off": 11.096667,
                "pitch": 55,
                "velocity": 88,
                "instrument": "keys"
              },
              {
                "t_on": 10.294,
                "t_off": 10.808667,
                "pitch": 56,
                "velocity": 91,
                "instrument": "keys"
              },
              {
                "t_on": 10.294,
                "t_off": 10.808667,
                "pitch": 77,
                "velocity": 96,
                "instrument": "keys"
              },
              {
                "t_on": 10.432,
                "t_off": 10.594667,
                "pitch": 74,
                "velocity": 96,
                "instrument": "keys"
              },
              {
                "t_on": 10.474667,
                "t_off": 10.677334,
                "pitch": 49,
                "velocity": 81,
                "instrument": "keys"
              },
              {
                "t_on": 10.474667,
                "t_off": 10.88,
                "pitch": 50,
                "velocity": 81,
                "instrument": "keys"
              },
              {
                "t_on": 10.485333,
                "t_off": 12.16,
                "pitch": 48,
                "velocity": 74,
                "instrument": "keys"
              },
              {
                "t_on": 10.485333,
                "t_off": 10.88,
                "pitch": 51,
                "velocity": 76,
                "instrument": "keys"
              },
              {
                "t_on": 10.496,
                "t_off": 11.406,
                "pitch": 52,
                "velocity": 73,
                "instrument": "keys"
              },
              {
                "t_on": 10.506667,
                "t_off": 10.645333,
                "pitch": 61,
                "velocity": 82,
                "instrument": "keys"
              },
              {
                "t_on": 10.56,
                "t_off": 10.730667,
                "pitch": 62,
                "velocity": 83,
                "instrument": "keys"
              },
              {
                "t_on": 10.602667,
                "t_off": 10.698666,
                "pitch": 74,
                "velocity": 75,
                "instrument": "keys"
              },
              {
                "t_on": 10.634666,
                "t_off": 10.837333,
                "pitch": 61,
                "velocity": 85,
                "instrument": "keys"
              },
              {
                "t_on": 10.666667,
                "t_off": 10.762667,
                "pitch": 49,
                "velocity": 93,
                "instrument": "keys"
              },
              {
                "t_on": 10.688,
                "t_off": 11.034743,
                "pitch": 74,
                "velocity": 79,
                "instrument": "keys"
              },
              {
                "t_on": 10.72,
                "t_off": 11.406,
                "pitch": 62,
                "velocity": 94,
                "instrument": "keys"
              },
              {
                "t_on": 10.752,
                "t_off": 10.869333,
                "pitch": 49,
                "velocity": 96,
                "instrument": "keys"
              },
              {
                "t_on": 10.826667,
                "t_off": 10.922666,
                "pitch": 61,
                "velocity": 90,
                "instrument": "keys"
              },
              {
                "t_on": 10.858666,
                "t_off": 10.954667,
                "pitch": 49,
                "velocity": 95,
                "instrument": "keys"
              },
              {
                "t_on": 10.869333,
                "t_off": 11.138667,
                "pitch": 50,
                "velocity": 96,
                "instrument": "keys"
              },
              {
                "t_on": 10.869333,
                "t_off": 11.712,
                "pitch": 51,
                "velocity": 93,
                "instrument": "keys"
              },
              {
                "t_on": 10.912,
                "t_off": 11.074666,
                "pitch": 61,
                "velocity": 92,
                "instrument": "keys"
              },
              {
                "t_on": 10.944,
                "t_off": 11.04,
                "pitch": 49,
                "velocity": 98,
                "instrument": "keys"
              },
              {
                "t_on": 11.029333,
                "t_off": 11.32,
                "pitch": 49,
                "velocity": 97,
                "instrument": "keys"
              },
              {
                "t_on": 11.082666,
                "t_off": 11.733333,
                "pitch": 61,
                "velocity": 93,
                "instrument": "keys"
              },
              {
                "t_on": 11.093333,
                "t_off": 11.189334,
                "pitch": 69,
                "velocity": 92,
                "instrument": "keys"
              },
              {
                "t_on": 11.093333,
                "t_off": 11.256,
                "pitch": 81,
                "velocity": 88,
                "instrument": "keys"
              },
              {
                "t_on": 11.146667,
                "t_off": 11.573334,
                "pitch": 50,
                "velocity": 101,
                "instrument": "keys"
              },
              {
                "t_on": 11.178667,
                "t_off": 11.274667,
                "pitch": 69,
                "velocity": 102,
                "instrument": "keys"
              },
              {
                "t_on": 11.264,
                "t_off": 11.512,
                "pitch": 69,
                "velocity": 96,
                "instrument": "keys"
              },
              {
                "t_on": 11.264,
                "t_off": 11.426667,
                "pitch": 81,
                "velocity": 97,
                "instrument": "keys"
              },
              {
                "t_on": 11.328,
                "t_off": 11.424,
                "pitch": 49,
                "velocity": 93,
                "instrument": "keys"
              },
              {
                "t_on": 11.413333,
                "t_off": 11.847,
                "pitch": 49,
                "velocity": 84,
                "instrument": "keys"
              },
              {
                "t_on": 11.434667,
                "t_off": 11.530667,
                "pitch": 81,
                "velocity": 78,
                "instrument": "keys"
              },
              {
                "t_on": 11.466666,
                "t_off": 11.562667,
                "pitch": 62,
                "velocity": 78,
                "instrument": "keys"
              },
              {
                "t_on": 11.52,
                "t_off": 11.616,
                "pitch": 69,
                "velocity": 74,
                "instrument": "keys"
              },
              {
                "t_on": 11.52,
                "t_off": 11.616,
                "pitch": 81,
                "velocity": 74,
                "instrument": "keys"
              },
              {
                "t_on": 11.530666,
                "t_off": 11.965667,
                "pitch": 71,
                "velocity": 69,
                "instrument": "keys"
              },
              {
                "t_on": 11.552,
                "t_off": 11.648,
                "pitch": 62,
                "velocity": 74,
                "instrument": "keys"
              },
              {
                "t_on": 11.562667,
                "t_off": 11.658666,
                "pitch": 50,
                "velocity": 85,
                "instrument": "keys"
              },
              {
                "t_on": 11.605333,
                "t_off": 11.907252,
                "pitch": 69,
                "velocity": 72,
                "instrument": "keys"
              },
              {
                "t_on": 11.605333,
                "t_off": 11.778667,
                "pitch": 81,
                "velocity": 68,
                "instrument": "keys"
              },
              {
                "t_on": 11.637333,
                "t_off": 12.344,
                "pitch": 62,
                "velocity": 75,
                "instrument": "keys"
              },
              {
                "t_on": 11.648,
                "t_off": 11.744,
                "pitch": 50,
                "velocity": 81,
                "instrument": "keys"
              },
              {
                "t_on": 11.701333,
                "t_off": 12.149334,
                "pitch": 51,
                "velocity": 79,
                "instrument": "keys"
              },
              {
                "t_on": 11.722667,
                "t_off": 12.301334,
                "pitch": 52,
                "velocity": 82,
                "instrument": "keys"
              },
              {
                "t_on": 11.722667,
                "t_off": 12.259333,
                "pitch": 61,
                "velocity": 76,
                "instrument": "keys"
              },
              {
                "t_on": 11.733334,
                "t_off": 12.077333,
                "pitch": 50,
                "velocity": 85,
                "instrument": "keys"
              },
              {
                "t_on": 11.733334,
                "t_off": 12.149334,
                "pitch": 67,
                "velocity": 82,
                "instrument": "keys"
              },
              {
                "t_on": 11.786667,
                "t_off": 12.676667,
                "pitch": 81,
                "velocity": 93,
                "instrument": "keys"
              },
              {
                "t_on": 11.818666,
                "t_off": 11.914667,
                "pitch": 79,
                "velocity": 101,
                "instrument": "keys"
              },
              {
                "t_on": 11.904,
                "t_off": 12.223911,
                "pitch": 79,
                "velocity": 88,
                "instrument": "keys"
              },
              {
                "t_on": 12.085333,
                "t_off": 13.885333,
                "pitch": 50,
                "velocity": 75,
                "instrument": "keys"
              },
              {
                "t_on": 12.138667,
                "t_off": 14.038667,
                "pitch": 51,
                "velocity": 75,
                "instrument": "keys"
              },
              {
                "t_on": 12.138667,
                "t_off": 12.993667,
                "pitch": 67,
                "velocity": 73,
                "instrument": "keys"
              },
              {
                "t_on": 12.149333,
                "t_off": 13.039333,
                "pitch": 48,
                "velocity": 74,
                "instrument": "keys"
              },
              {
                "t_on": 12.170667,
                "t_off": 13.160667,
                "pitch": 53,
                "velocity": 73,
                "instrument": "keys"
              },
              {
                "t_on": 12.170667,
                "t_off": 13.025667,
                "pitch": 64,
                "velocity": 66,
                "instrument": "keys"
              },
              {
                "t_on": 12.309334,
                "t_off": 12.405333,
                "pitch": 52,
                "velocity": 84,
                "instrument": "keys"
              },
              {
                "t_on": 12.330667,
                "t_off": 12.618666,
                "pitch": 47,
                "velocity": 72,
                "instrument": "keys"
              },
              {
                "t_on": 12.352,
                "t_off": 13.067,
                "pitch": 62,
                "velocity": 74,
                "instrument": "keys"
              },
              {
                "t_on": 12.394667,
                "t_off": 12.490666,
                "pitch": 52,
                "velocity": 86,
                "instrument": "keys"
              },
              {
                "t_on": 12.394667,
                "t_off": 12.533334,
                "pitch": 79,
                "velocity": 71,
                "instrument": "keys"
              },
              {
                "t_on": 12.48,
                "t_off": 12.576,
                "pitch": 52,
                "velocity": 82,
                "instrument": "keys"
              },
              {
                "t_on": 12.522667,
                "t_off": 12.922667,
                "pitch": 79,
                "velocity": 63,
                "instrument": "keys"
              },
              {
                "t_on": 12.565333,
                "t_off": 12.661333,
                "pitch": 52,
                "velocity": 75,
                "instrument": "keys"
              },
              {
                "t_on": 12.608,
                "t_off": 13.078,
                "pitch": 47,
                "velocity": 66,
                "instrument": "keys"
              },
              {
                "t_on": 12.650666,
                "t_off": 12.746667,
                "pitch": 52,
                "velocity": 68,
                "instrument": "keys"
              },
              {
                "t_on": 12.736,
                "t_off": 12.832,
                "pitch": 52,
                "velocity": 65,
                "instrument": "keys"
              },
              {
                "t_on": 12.821333,
                "t_off": 12.928,
                "pitch": 52,
                "velocity": 62,
                "instrument": "keys"
              },
              {
                "t_on": 12.917334,
                "t_off": 13.024,
                "pitch": 52,
                "velocity": 59,
                "instrument": "keys"
              },
              {
                "t_on": 13.013333,
                "t_off": 14.008333,
                "pitch": 52,
                "velocity": 50,
                "instrument": "keys"
              },
              {
                "t_on": 15.626667,
                "t_off": 16.126667,
                "pitch": 45,
                "velocity": 51,
                "instrument": "keys"
              },
              {
                "t_on": 15.626667,
                "t_off": 16.126667,
                "pitch": 47,
                "velocity": 52,
                "instrument": "keys"
              },
              {
                "t_on": 15.637333,
                "t_off": 16.002333,
                "pitch": 40,
                "velocity": 49,
                "instrument": "keys"
              },
              {
                "t_on": 15.637333,
                "t_off": 16.002333,
                "pitch": 42,
                "velocity": 47,
                "instrument": "keys"
              },
              {
                "t_on": 15.637333,
                "t_off": 16.002333,
                "pitch": 44,
                "velocity": 49,
                "instrument": "keys"
              },
              {
                "t_on": 15.637333,
                "t_off": 16.002333,
                "pitch": 46,
                "velocity": 54,
                "instrument": "keys"
              },
              {
                "t_on": 15.712,
                "t_off": 16.007,
                "pitch": 52,
                "velocity": 79,
                "instrument": "keys"
              },
              {
                "t_on": 15.712,
                "t_off": 15.808,
                "pitch": 54,
                "velocity": 78,
                "instrument": "keys"
              },
              {
                "t_on": 15.733334,
                "t_off": 15.993333,
                "pitch": 59,
                "velocity": 69,
                "instrument": "keys"
              },
              {
                "t_on": 15.786667,
                "t_off": 16.094939,
                "pitch": 48,
                "velocity": 68,
                "instrument": "keys"
              },
              {
                "t_on": 15.797334,
                "t_off": 15.987333,
                "pitch": 54,
                "velocity": 61,
                "instrument": "keys"
              },
              {
                "t_on": 19.146667,
                "t_off": 19.791667,
                "pitch": 55,
                "velocity": 48,
                "instrument": "keys"
              },
              {
                "t_on": 19.157333,
                "t_off": 19.480001,
                "pitch": 46,
                "velocity": 47,
                "instrument": "keys"
              },
              {
                "t_on": 19.157333,
                "t_off": 19.767333,
                "pitch": 47,
                "velocity": 47,
                "instrument": "keys"
              },
              {
                "t_on": 19.167999,
                "t_off": 19.743,
                "pitch": 57,
                "velocity": 51,
                "instrument": "keys"
              },
              {
                "t_on": 19.232,
                "t_off": 19.338666,
                "pitch": 48,
                "velocity": 82,
                "instrument": "keys"
              },
              {
                "t_on": 19.232,
                "t_off": 19.328,
                "pitch": 56,
                "velocity": 85,
                "instrument": "keys"
              },
              {
                "t_on": 19.242666,
                "t_off": 19.338666,
                "pitch": 41,
                "velocity": 72,
                "instrument": "keys"
              },
              {
                "t_on": 19.296,
                "t_off": 19.458667,
                "pitch": 36,
                "velocity": 75,
                "instrument": "keys"
              },
              {
                "t_on": 19.317333,
                "t_off": 19.424001,
                "pitch": 56,
                "velocity": 70,
                "instrument": "keys"
              },
              {
                "t_on": 19.327999,
                "t_off": 19.445334,
                "pitch": 41,
                "velocity": 64,
                "instrument": "keys"
              },
              {
                "t_on": 19.327999,
                "t_off": 19.424001,
                "pitch": 48,
                "velocity": 66,
                "instrument": "keys"
              },
              {
                "t_on": 19.413334,
                "t_off": 19.778333,
                "pitch": 48,
                "velocity": 61,
                "instrument": "keys"
              },
              {
                "t_on": 19.413334,
                "t_off": 19.743333,
                "pitch": 56,
                "velocity": 59,
                "instrument": "keys"
              },
              {
                "t_on": 19.434668,
                "t_off": 19.834667,
                "pitch": 41,
                "velocity": 59,
                "instrument": "keys"
              },
              {
                "t_on": 19.466667,
                "t_off": 19.605334,
                "pitch": 36,
                "velocity": 60,
                "instrument": "keys"
              },
              {
                "t_on": 19.488001,
                "t_off": 19.818,
                "pitch": 44,
                "velocity": 52,
                "instrument": "keys"
              },
              {
                "t_on": 19.488001,
                "t_off": 19.818,
                "pitch": 46,
                "velocity": 52,
                "instrument": "keys"
              },
              {
                "t_on": 19.573334,
                "t_off": 19.669333,
                "pitch": 34,
                "velocity": 46,
                "instrument": "keys"
              },
              {
                "t_on": 19.594667,
                "t_off": 19.690667,
                "pitch": 36,
                "velocity": 48,
                "instrument": "keys"
              },
              {
                "t_on": 19.658667,
                "t_off": 20.443667,
                "pitch": 34,
                "velocity": 40,
                "instrument": "keys"
              },
              {
                "t_on": 19.68,
                "t_off": 20.565,
                "pitch": 36,
                "velocity": 42,
                "instrument": "keys"
              },
              {
                "t_on": 22.709333,
                "t_off": 24.163334,
                "pitch": 35,
                "velocity": 48,
                "instrument": "keys"
              },
              {
                "t_on": 22.709333,
                "t_off": 25.059334,
                "pitch": 37,
                "velocity": 51,
                "instrument": "keys"
              },
              {
                "t_on": 22.709333,
                "t_off": 24.664667,
                "pitch": 39,
                "velocity": 51,
                "instrument": "keys"
              },
              {
                "t_on": 22.709333,
                "t_off": 24.622,
                "pitch": 40,
                "velocity": 49,
                "instrument": "keys"
              },
              {
                "t_on": 22.709333,
                "t_off": 24.525999,
                "pitch": 42,
                "velocity": 51,
                "instrument": "keys"
              },
              {
                "t_on": 22.709333,
                "t_off": 24.536667,
                "pitch": 44,
                "velocity": 48,
                "instrument": "keys"
              },
              {
                "t_on": 22.773333,
                "t_off": 22.869334,
                "pitch": 43,
                "velocity": 85,
                "instrument": "keys"
              },
              {
                "t_on": 22.794666,
                "t_off": 22.890666,
                "pitch": 38,
                "velocity": 76,
                "instrument": "keys"
              },
              {
                "t_on": 22.805334,
                "t_off": 23.31,
                "pitch": 52,
                "velocity": 72,
                "instrument": "keys"
              },
              {
                "t_on": 22.816,
                "t_off": 22.912,
                "pitch": 50,
                "velocity": 69,
                "instrument": "keys"
              },
              {
                "t_on": 22.858667,
                "t_off": 22.976001,
                "pitch": 43,
                "velocity": 70,
                "instrument": "keys"
              },
              {
                "t_on": 22.869333,
                "t_off": 22.976001,
                "pitch": 36,
                "velocity": 77,
                "instrument": "keys"
              },
              {
                "t_on": 22.879999,
                "t_off": 22.976001,
                "pitch": 38,
                "velocity": 71,
                "instrument": "keys"
              },
              {
                "t_on": 22.901333,
                "t_off": 22.997332,
                "pitch": 50,
                "velocity": 64,
                "instrument": "keys"
              },
              {
                "t_on": 22.965334,
                "t_off": 23.071999,
                "pitch": 36,
                "velocity": 63,
                "instrument": "keys"
              },
              {
                "t_on": 22.965334,
                "t_off": 23.114667,
                "pitch": 38,
                "velocity": 63,
                "instrument": "keys"
              },
              {
                "t_on": 22.965334,
                "t_off": 23.071999,
                "pitch": 43,
                "velocity": 64,
                "instrument": "keys"
              },
              {
                "t_on": 22.986666,
                "t_off": 23.471902,
                "pitch": 50,
                "velocity": 56,
                "instrument": "keys"
              },
              {
                "t_on": 23.061333,
                "t_off": 23.168,
                "pitch": 36,
                "velocity": 59,
                "instrument": "keys"
              },
              {
                "t_on": 23.061333,
                "t_off": 23.168,
                "pitch": 43,
                "velocity": 60,
                "instrument": "keys"
              },
              {
                "t_on": 23.104,
                "t_off": 23.306666,
                "pitch": 38,
                "velocity": 55,
                "instrument": "keys"
              },
              {
                "t_on": 23.157333,
                "t_off": 23.264001,
                "pitch": 36,
                "velocity": 58,
                "instrument": "keys"
              },
              {
                "t_on": 23.157333,
                "t_off": 23.253333,
                "pitch": 43,
                "velocity": 58,
                "instrument": "keys"
              },
              {
                "t_on": 23.242666,
                "t_off": 23.338666,
                "pitch": 43,
                "velocity": 53,
                "instrument": "keys"
              },
              {
                "t_on": 23.253334,
                "t_off": 23.530667,
                "pitch": 36,
                "velocity": 51,
                "instrument": "keys"
              },
              {
                "t_on": 23.296,
                "t_off": 23.552001,
                "pitch": 38,
                "velocity": 52,
                "instrument": "keys"
              },
              {
                "t_on": 23.327999,
                "t_off": 23.424001,
                "pitch": 43,
                "velocity": 52,
                "instrument": "keys"
              },
              {
                "t_on": 23.413334,
                "t_off": 23.509333,
                "pitch": 43,
                "velocity": 50,
                "instrument": "keys"
              },
              {
                "t_on": 23.498667,
                "t_off": 23.594666,
                "pitch": 43,
                "velocity": 42,
                "instrument": "keys"
              },
              {
                "t_on": 23.52,
                "t_off": 25.059334,
                "pitch": 36,
                "velocity": 43,
                "instrument": "keys"
              },
              {
                "t_on": 23.541334,
                "t_off": 23.637334,
                "pitch": 38,
                "velocity": 44,
                "instrument": "keys"
              },
              {
                "t_on": 23.584,
                "t_off": 24.600666,
                "pitch": 43,
                "velocity": 46,
                "instrument": "keys"
              },
              {
                "t_on": 23.626667,
                "t_off": 23.722667,
                "pitch": 38,
                "velocity": 50,
                "instrument": "keys"
              },
              {
                "t_on": 23.712,
                "t_off": 23.829333,
                "pitch": 38,
                "velocity": 52,
                "instrument": "keys"
              },
              {
                "t_on": 23.818666,
                "t_off": 24.138667,
                "pitch": 38,
                "velocity": 47,
                "instrument": "keys"
              },
              {
                "t_on": 23.989334,
                "t_off": 24.432941,
                "pitch": 64,
                "velocity": 49,
                "instrument": "keys"
              },
              {
                "t_on": 23.989334,
                "t_off": 24.179333,
                "pitch": 66,
                "velocity": 46,
                "instrument": "keys"
              },
              {
                "t_on": 24.021334,
                "t_off": 24.117333,
                "pitch": 46,
                "velocity": 58,
                "instrument": "keys"
              },
              {
                "t_on": 24.074667,
                "t_off": 24.546684,
                "pitch": 52,
                "velocity": 60,
                "instrument": "keys"
              },
              {
                "t_on": 24.106667,
                "t_off": 24.505108,
                "pitch": 46,
                "velocity": 56,
                "instrument": "keys"
              },
              {
                "t_on": 24.128,
                "t_off": 24.448001,
                "pitch": 38,
                "velocity": 53,
                "instrument": "keys"
              },
              {
                "t_on": 24.437334,
                "t_off": 25.07,
                "pitch": 38,
                "velocity": 38,
                "instrument": "keys"
              },
              {
                "t_on": 24.853333,
                "t_off": 24.970666,
                "pitch": 59,
                "velocity": 42,
                "instrument": "keys"
              },
              {
                "t_on": 24.885334,
                "t_off": 25.311392,
                "pitch": 57,
                "velocity": 50,
                "instrument": "keys"
              },
              {
                "t_on": 24.959999,
                "t_off": 25.263248,
                "pitch": 59,
                "velocity": 53,
                "instrument": "keys"
              },
              {
                "t_on": 25.258667,
                "t_off": 25.763333,
                "pitch": 66,
                "velocity": 60,
                "instrument": "keys"
              },
              {
                "t_on": 25.269333,
                "t_off": 25.709333,
                "pitch": 64,
                "velocity": 62,
                "instrument": "keys"
              },
              {
                "t_on": 25.280001,
                "t_off": 25.651648,
                "pitch": 54,
                "velocity": 57,
                "instrument": "keys"
              },
              {
                "t_on": 25.290667,
                "t_off": 25.827334,
                "pitch": 53,
                "velocity": 58,
                "instrument": "keys"
              },
              {
                "t_on": 25.312,
                "t_off": 25.536,
                "pitch": 38,
                "velocity": 66,
                "instrument": "keys"
              },
              {
                "t_on": 25.323334,
                "t_off": 25.743148,
                "pitch": 47,
                "velocity": 82,
                "instrument": "keys"
              },
              {
                "t_on": 25.365334,
                "t_off": 25.461333,
                "pitch": 65,
                "velocity": 99,
                "instrument": "keys"
              },
              {
                "t_on": 25.450666,
                "t_off": 25.546666,
                "pitch": 65,
                "velocity": 86,
                "instrument": "keys"
              },
              {
                "t_on": 25.472,
                "t_off": 26.432,
                "pitch": 84,
                "velocity": 66,
                "instrument": "keys"
              },
              {
                "t_on": 25.525333,
                "t_off": 26.165333,
                "pitch": 38,
                "velocity": 55,
                "instrument": "keys"
              },
              {
                "t_on": 25.535999,
                "t_off": 26.601,
                "pitch": 46,
                "velocity": 64,
                "instrument": "keys"
              },
              {
                "t_on": 25.535999,
                "t_off": 25.886732,
                "pitch": 65,
                "velocity": 60,
                "instrument": "keys"
              },
              {
                "t_on": 25.717333,
                "t_off": 26.165333,
                "pitch": 56,
                "velocity": 59,
                "instrument": "keys"
              },
              {
                "t_on": 25.717333,
                "t_off": 25.813334,
                "pitch": 57,
                "velocity": 59,
                "instrument": "keys"
              },
              {
                "t_on": 25.717333,
                "t_off": 25.824,
                "pitch": 64,
                "velocity": 51,
                "instrument": "keys"
              },
              {
                "t_on": 25.728001,
                "t_off": 25.898667,
                "pitch": 43,
                "velocity": 53,
                "instrument": "keys"
              },
              {
                "t_on": 25.728001,
                "t_off": 26.583,
                "pitch": 44,
                "velocity": 59,
                "instrument": "keys"
              },
              {
                "t_on": 25.728001,
                "t_off": 25.920001,
                "pitch": 55,
                "velocity": 56,
                "instrument": "keys"
              },
              {
                "t_on": 25.792,
                "t_off": 26.437,
                "pitch": 76,
                "velocity": 80,
                "instrument": "keys"
              },
              {
                "t_on": 25.802668,
                "t_off": 25.898667,
                "pitch": 57,
                "velocity": 90,
                "instrument": "keys"
              },
              {
                "t_on": 25.813334,
                "t_off": 26.108333,
                "pitch": 64,
                "velocity": 80,
                "instrument": "keys"
              },
              {
                "t_on": 25.888,
                "t_off": 26.568,
                "pitch": 43,
                "velocity": 74,
                "instrument": "keys"
              },
              {
                "t_on": 25.888,
                "t_off": 26.498,
                "pitch": 57,
                "velocity": 84,
                "instrument": "keys"
              },
              {
                "t_on": 25.909334,
                "t_off": 26.308333,
                "pitch": 55,
                "velocity": 81,
                "instrument": "keys"
              },
              {
                "t_on": 25.92,
                "t_off": 26.565,
                "pitch": 48,
                "velocity": 81,
                "instrument": "keys"
              },
              {
                "t_on": 25.92,
                "t_off": 26.495,
                "pitch": 71,
                "velocity": 75,
                "instrument": "keys"
              },
              {
                "t_on": 25.941334,
                "t_off": 26.516333,
                "pitch": 69,
                "velocity": 73,
                "instrument": "keys"
              },
              {
                "t_on": 26.133333,
                "t_off": 28.312666,
                "pitch": 40,
                "velocity": 95,
                "instrument": "keys"
              },
              {
                "t_on": 26.133333,
                "t_off": 27.971333,
                "pitch": 51,
                "velocity": 98,
                "instrument": "keys"
              },
              {
                "t_on": 26.143999,
                "t_off": 27.672667,
                "pitch": 50,
                "velocity": 88,
                "instrument": "keys"
              },
              {
                "t_on": 26.154667,
                "t_off": 27.672667,
                "pitch": 47,
                "velocity": 79,
                "instrument": "keys"
              },
              {
                "t_on": 26.173333,
                "t_off": 28.515333,
                "pitch": 38,
                "velocity": 94,
                "instrument": "keys"
              },
              {
                "t_on": 26.173333,
                "t_off": 27.843333,
                "pitch": 56,
                "velocity": 97,
                "instrument": "keys"
              },
              {
                "t_on": 26.474667,
                "t_off": 26.783999,
                "pitch": 32,
                "velocity": 91,
                "instrument": "keys"
              },
              {
                "t_on": 26.474667,
                "t_off": 26.666667,
                "pitch": 67,
                "velocity": 88,
                "instrument": "keys"
              },
              {
                "t_on": 26.485332,
                "t_off": 28.440667,
                "pitch": 39,
                "velocity": 91,
                "instrument": "keys"
              },
              {
                "t_on": 26.528,
                "t_off": 28.334,
                "pitch": 37,
                "velocity": 80,
                "instrument": "keys"
              },
              {
                "t_on": 26.570667,
                "t_off": 28.771334,
                "pitch": 35,
                "velocity": 80,
                "instrument": "keys"
              },
              {
                "t_on": 26.613333,
                "t_off": 26.762667,
                "pitch": 52,
                "velocity": 78,
                "instrument": "keys"
              },
              {
                "t_on": 26.613333,
                "t_off": 26.709334,
                "pitch": 55,
                "velocity": 75,
                "instrument": "keys"
              },
              {
                "t_on": 26.656,
                "t_off": 26.752,
                "pitch": 34,
                "velocity": 73,
                "instrument": "keys"
              },
              {
                "t_on": 26.656,
                "t_off": 26.752,
                "pitch": 67,
                "velocity": 68,
                "instrument": "keys"
              },
              {
                "t_on": 26.698668,
                "t_off": 27.10498,
                "pitch": 55,
                "velocity": 73,
                "instrument": "keys"
              },
              {
                "t_on": 26.741333,
                "t_off": 26.837333,
                "pitch": 34,
                "velocity": 69,
                "instrument": "keys"
              },
              {
                "t_on": 26.741333,
                "t_off": 26.954667,
                "pitch": 67,
                "velocity": 64,
                "instrument": "keys"
              },
              {
                "t_on": 26.752001,
                "t_off": 26.848,
                "pitch": 52,
                "velocity": 73,
                "instrument": "keys"
              },
              {
                "t_on": 26.773333,
                "t_off": 26.893333,
                "pitch": 32,
                "velocity": 71,
                "instrument": "keys"
              },
              {
                "t_on": 26.784,
                "t_off": 27.018666,
                "pitch": 59,
                "velocity": 63,
                "instrument": "keys"
              },
              {
                "t_on": 26.826666,
                "t_off": 26.922667,
                "pitch": 34,
                "velocity": 65,
                "instrument": "keys"
              },
              {
                "t_on": 26.837334,
                "t_off": 27.501333,
                "pitch": 52,
                "velocity": 66,
                "instrument": "keys"
              },
              {
                "t_on": 26.912001,
                "t_off": 27.196477,
                "pitch": 34,
                "velocity": 52,
                "instrument": "keys"
              },
              {
                "t_on": 26.944,
                "t_off": 27.04,
                "pitch": 67,
                "velocity": 52,
                "instrument": "keys"
              },
              {
                "t_on": 27.007999,
                "t_off": 27.210667,
                "pitch": 59,
                "velocity": 56,
                "instrument": "keys"
              },
              {
                "t_on": 27.029333,
                "t_off": 27.514961,
                "pitch": 67,
                "velocity": 56,
                "instrument": "keys"
              },
              {
                "t_on": 27.200001,
                "t_off": 27.735,
                "pitch": 59,
                "velocity": 53,
                "instrument": "keys"
              },
              {
                "t_on": 27.306667,
                "t_off": 27.498668,
                "pitch": 34,
                "velocity": 51,
                "instrument": "keys"
              },
              {
                "t_on": 27.424,
                "t_off": 27.773616,
                "pitch": 64,
                "velocity": 53,
                "instrument": "keys"
              },
              {
                "t_on": 27.424,
                "t_off": 27.649,
                "pitch": 66,
                "velocity": 54,
                "instrument": "keys"
              },
              {
                "t_on": 27.445333,
                "t_off": 27.635333,
                "pitch": 65,
                "velocity": 57,
                "instrument": "keys"
              },
              {
                "t_on": 27.488001,
                "t_off": 27.584,
                "pitch": 34,
                "velocity": 60,
                "instrument": "keys"
              },
              {
                "t_on": 27.509333,
                "t_off": 28.046,
                "pitch": 52,
                "velocity": 64,
                "instrument": "keys"
              },
              {
                "t_on": 27.573334,
                "t_off": 28.771334,
                "pitch": 34,
                "velocity": 52,
                "instrument": "keys"
              },
              {
                "t_on": 29.557333,
                "t_off": 29.852333,
                "pitch": 32,
                "velocity": 37,
                "instrument": "keys"
              },
              {
                "t_on": 29.568001,
                "t_off": 29.863,
                "pitch": 43,
                "velocity": 38,
                "instrument": "keys"
              },
              {
                "t_on": 29.568001,
                "t_off": 29.863,
                "pitch": 48,
                "velocity": 38,
                "instrument": "keys"
              },
              {
                "t_on": 29.578667,
                "t_off": 29.674666,
                "pitch": 42,
                "velocity": 42,
                "instrument": "keys"
              },
              {
                "t_on": 29.664,
                "t_off": 29.854,
                "pitch": 42,
                "velocity": 47,
                "instrument": "keys"
              },
              {
                "t_on": 30.848,
                "t_off": 31.239354,
                "pitch": 53,
                "velocity": 39,
                "instrument": "keys"
              },
              {
                "t_on": 32.096001,
                "t_off": 32.191998,
                "pitch": 59,
                "velocity": 40,
                "instrument": "keys"
              },
              {
                "t_on": 32.106667,
                "t_off": 32.202668,
                "pitch": 57,
                "velocity": 40,
                "instrument": "keys"
              },
              {
                "t_on": 32.181332,
                "t_off": 32.277333,
                "pitch": 59,
                "velocity": 55,
                "instrument": "keys"
              },
              {
                "t_on": 32.192001,
                "t_off": 32.792668,
                "pitch": 57,
                "velocity": 52,
                "instrument": "keys"
              },
              {
                "t_on": 32.266666,
                "t_off": 32.856667,
                "pitch": 59,
                "velocity": 50,
                "instrument": "keys"
              },
              {
                "t_on": 32.938667,
                "t_off": 34.038667,
                "pitch": 55,
                "velocity": 47,
                "instrument": "keys"
              },
              {
                "t_on": 32.949333,
                "t_off": 34.049333,
                "pitch": 34,
                "velocity": 53,
                "instrument": "keys"
              },
              {
                "t_on": 32.949333,
                "t_off": 34.049333,
                "pitch": 42,
                "velocity": 52,
                "instrument": "keys"
              },
              {
                "t_on": 32.959999,
                "t_off": 34.125,
                "pitch": 39,
                "velocity": 48,
                "instrument": "keys"
              },
              {
                "t_on": 32.959999,
                "t_off": 34.125,
                "pitch": 40,
                "velocity": 51,
                "instrument": "keys"
              },
              {
                "t_on": 32.959999,
                "t_off": 34.125,
                "pitch": 49,
                "velocity": 51,
                "instrument": "keys"
              },
              {
                "t_on": 33.162666,
                "t_off": 34.052667,
                "pitch": 53,
                "velocity": 76,
                "instrument": "keys"
              },
              {
                "t_on": 33.183998,
                "t_off": 33.28,
                "pitch": 44,
                "velocity": 74,
                "instrument": "keys"
              },
              {
                "t_on": 33.194668,
                "t_off": 33.290665,
                "pitch": 41,
                "velocity": 73,
                "instrument": "keys"
              },
              {
                "t_on": 33.194668,
                "t_off": 33.290665,
                "pitch": 48,
                "velocity": 71,
                "instrument": "keys"
              },
              {
                "t_on": 33.205334,
                "t_off": 33.518376,
                "pitch": 33,
                "velocity": 80,
                "instrument": "keys"
              },
              {
                "t_on": 33.205334,
                "t_off": 34.095333,
                "pitch": 35,
                "velocity": 78,
                "instrument": "keys"
              },
              {
                "t_on": 33.269333,
                "t_off": 33.365334,
                "pitch": 44,
                "velocity": 68,
                "instrument": "keys"
              },
              {
                "t_on": 33.279999,
                "t_off": 33.376,
                "pitch": 41,
                "velocity": 71,
                "instrument": "keys"
              },
              {
                "t_on": 33.279999,
                "t_off": 33.376,
                "pitch": 48,
                "velocity": 70,
                "instrument": "keys"
              },
              {
                "t_on": 33.354668,
                "t_off": 33.503999,
                "pitch": 44,
                "velocity": 57,
                "instrument": "keys"
              },
              {
                "t_on": 33.365334,
                "t_off": 33.461335,
                "pitch": 41,
                "velocity": 62,
                "instrument": "keys"
              },
              {
                "t_on": 33.365334,
                "t_off": 33.461335,
                "pitch": 48,
                "velocity": 59,
                "instrument": "keys"
              },
              {
                "t_on": 33.450668,
                "t_off": 33.546666,
                "pitch": 41,
                "velocity": 54,
                "instrument": "keys"
              },
              {
                "t_on": 33.450668,
                "t_off": 34.195667,
                "pitch": 48,
                "velocity": 52,
                "instrument": "keys"
              },
              {
                "t_on": 33.493332,
                "t_off": 33.589333,
                "pitch": 44,
                "velocity": 48,
                "instrument": "keys"
              },
              {
                "t_on": 33.535999,
                "t_off": 33.632001,
                "pitch": 41,
                "velocity": 48,
                "instrument": "keys"
              },
              {
                "t_on": 33.578667,
                "t_off": 34.083667,
                "pitch": 44,
                "velocity": 44,
                "instrument": "keys"
              },
              {
                "t_on": 33.621334,
                "t_off": 34.056333,
                "pitch": 41,
                "velocity": 48,
                "instrument": "keys"
              },
              {
                "t_on": 33.632,
                "t_off": 33.794666,
                "pitch": 33,
                "velocity": 48,
                "instrument": "keys"
              },
              {
                "t_on": 33.802666,
                "t_off": 34.202667,
                "pitch": 33,
                "velocity": 41,
                "instrument": "keys"
              },
              {
                "t_on": 36.32,
                "t_off": 36.416001,
                "pitch": 41,
                "velocity": 41,
                "instrument": "keys"
              },
              {
                "t_on": 36.32,
                "t_off": 36.416001,
                "pitch": 54,
                "velocity": 41,
                "instrument": "keys"
              },
              {
                "t_on": 36.330666,
                "t_off": 36.426667,
                "pitch": 48,
                "velocity": 39,
                "instrument": "keys"
              },
              {
                "t_on": 36.330666,
                "t_off": 36.931332,
                "pitch": 52,
                "velocity": 38,
                "instrument": "keys"
              },
              {
                "t_on": 36.405334,
                "t_off": 36.512002,
                "pitch": 41,
                "velocity": 58,
                "instrument": "keys"
              },
              {
                "t_on": 36.405334,
                "t_off": 36.717334,
                "pitch": 54,
                "velocity": 57,
                "instrument": "keys"
              },
              {
                "t_on": 36.416,
                "t_off": 36.522668,
                "pitch": 48,
                "velocity": 56,
                "instrument": "keys"
              },
              {
                "t_on": 36.501335,
                "t_off": 36.939824,
                "pitch": 41,
                "velocity": 45,
                "instrument": "keys"
              },
              {
                "t_on": 36.512001,
                "t_off": 36.935697,
                "pitch": 48,
                "velocity": 44,
                "instrument": "keys"
              },
              {
                "t_on": 36.725334,
                "t_off": 37.03997,
                "pitch": 54,
                "velocity": 42,
                "instrument": "keys"
              },
              {
                "t_on": 37.141335,
                "t_off": 37.667332,
                "pitch": 71,
                "velocity": 45,
                "instrument": "keys"
              },
              {
                "t_on": 37.375999,
                "t_off": 37.794666,
                "pitch": 59,
                "velocity": 50,
                "instrument": "keys"
              },
              {
                "t_on": 37.802666,
                "t_off": 38.005334,
                "pitch": 57,
                "velocity": 47,
                "instrument": "keys"
              },
              {
                "t_on": 37.802666,
                "t_off": 38.016,
                "pitch": 59,
                "velocity": 49,
                "instrument": "keys"
              },
              {
                "t_on": 37.855999,
                "t_off": 37.952,
                "pitch": 58,
                "velocity": 62,
                "instrument": "keys"
              },
              {
                "t_on": 37.941334,
                "t_off": 38.048001,
                "pitch": 58,
                "velocity": 59,
                "instrument": "keys"
              },
              {
                "t_on": 37.994667,
                "t_off": 38.218667,
                "pitch": 57,
                "velocity": 57,
                "instrument": "keys"
              },
              {
                "t_on": 38.005333,
                "t_off": 38.208001,
                "pitch": 59,
                "velocity": 57,
                "instrument": "keys"
              },
              {
                "t_on": 38.005333,
                "t_off": 38.520668,
                "pitch": 71,
                "velocity": 62,
                "instrument": "keys"
              },
              {
                "t_on": 38.037334,
                "t_off": 38.698666,
                "pitch": 58,
                "velocity": 75,
                "instrument": "keys"
              },
              {
                "t_on": 38.197334,
                "t_off": 38.616001,
                "pitch": 59,
                "velocity": 56,
                "instrument": "keys"
              },
              {
                "t_on": 38.208,
                "t_off": 38.647998,
                "pitch": 57,
                "velocity": 53,
                "instrument": "keys"
              },
              {
                "t_on": 38.431999,
                "t_off": 38.811573,
                "pitch": 66,
                "velocity": 48,
                "instrument": "keys"
              },
              {
                "t_on": 38.442665,
                "t_off": 38.78098,
                "pitch": 54,
                "velocity": 46,
                "instrument": "keys"
              },
              {
                "t_on": 38.442665,
                "t_off": 38.538667,
                "pitch": 64,
                "velocity": 47,
                "instrument": "keys"
              },
              {
                "t_on": 38.528,
                "t_off": 38.634667,
                "pitch": 64,
                "velocity": 60,
                "instrument": "keys"
              },
              {
                "t_on": 38.624001,
                "t_off": 38.869332,
                "pitch": 59,
                "velocity": 65,
                "instrument": "keys"
              },
              {
                "t_on": 38.624001,
                "t_off": 39.095229,
                "pitch": 64,
                "velocity": 55,
                "instrument": "keys"
              },
              {
                "t_on": 38.634666,
                "t_off": 39.079854,
                "pitch": 46,
                "velocity": 57,
                "instrument": "keys"
              },
              {
                "t_on": 38.645332,
                "t_off": 38.858666,
                "pitch": 71,
                "velocity": 63,
                "instrument": "keys"
              },
              {
                "t_on": 38.655998,
                "t_off": 38.848,
                "pitch": 57,
                "velocity": 65,
                "instrument": "keys"
              },
              {
                "t_on": 38.688,
                "t_off": 38.850665,
                "pitch": 58,
                "velocity": 86,
                "instrument": "keys"
              },
              {
                "t_on": 38.805332,
                "t_off": 38.978668,
                "pitch": 70,
                "velocity": 78,
                "instrument": "keys"
              },
              {
                "t_on": 38.837334,
                "t_off": 40.351998,
                "pitch": 57,
                "velocity": 77,
                "instrument": "keys"
              },
              {
                "t_on": 38.837334,
                "t_off": 39.352665,
                "pitch": 69,
                "velocity": 74,
                "instrument": "keys"
              },
              {
                "t_on": 38.848,
                "t_off": 39.479999,
                "pitch": 71,
                "velocity": 79,
                "instrument": "keys"
              },
              {
                "t_on": 38.858665,
                "t_off": 39.021335,
                "pitch": 58,
                "velocity": 78,
                "instrument": "keys"
              },
              {
                "t_on": 38.858665,
                "t_off": 39.253335,
                "pitch": 59,
                "velocity": 79,
                "instrument": "keys"
              },
              {
                "t_on": 38.986668,
                "t_off": 39.093335,
                "pitch": 70,
                "velocity": 76,
                "instrument": "keys"
              },
              {
                "t_on": 39.029335,
                "t_off": 39.125333,
                "pitch": 58,
                "velocity": 72,
                "instrument": "keys"
              },
              {
                "t_on": 39.082668,
                "t_off": 39.178666,
                "pitch": 70,
                "velocity": 65,
                "instrument": "keys"
              },
              {
                "t_on": 39.114666,
                "t_off": 39.373332,
                "pitch": 58,
                "velocity": 70,
                "instrument": "keys"
              },
              {
                "t_on": 39.167999,
                "t_off": 39.533332,
                "pitch": 70,
                "velocity": 66,
                "instrument": "keys"
              },
              {
                "t_on": 39.167999,
                "t_off": 39.264001,
                "pitch": 86,
                "velocity": 64,
                "instrument": "keys"
              },
              {
                "t_on": 39.242668,
                "t_off": 39.466668,
                "pitch": 59,
                "velocity": 66,
                "instrument": "keys"
              },
              {
                "t_on": 39.253334,
                "t_off": 39.754543,
                "pitch": 86,
                "velocity": 57,
                "instrument": "keys"
              },
              {
                "t_on": 39.274666,
                "t_off": 39.58638,
                "pitch": 54,
                "velocity": 61,
                "instrument": "keys"
              },
              {
                "t_on": 39.274666,
                "t_off": 39.800667,
                "pitch": 64,
                "velocity": 67,
                "instrument": "keys"
              },
              {
                "t_on": 39.274666,
                "t_off": 39.790001,
                "pitch": 66,
                "velocity": 66,
                "instrument": "keys"
              },
              {
                "t_on": 39.381332,
                "t_off": 39.498666,
                "pitch": 58,
                "velocity": 76,
                "instrument": "keys"
              },
              {
                "t_on": 39.381332,
                "t_off": 39.886333,
                "pitch": 65,
                "velocity": 81,
                "instrument": "keys"
              },
              {
                "t_on": 39.456001,
                "t_off": 40.373334,
                "pitch": 59,
                "velocity": 73,
                "instrument": "keys"
              },
              {
                "t_on": 39.477333,
                "t_off": 39.912333,
                "pitch": 56,
                "velocity": 62,
                "instrument": "keys"
              },
              {
                "t_on": 39.487999,
                "t_off": 39.584,
                "pitch": 58,
                "velocity": 69,
                "instrument": "keys"
              },
              {
                "t_on": 39.487999,
                "t_off": 39.605332,
                "pitch": 71,
                "velocity": 65,
                "instrument": "keys"
              },
              {
                "t_on": 39.487999,
                "t_off": 40.023,
                "pitch": 80,
                "velocity": 56,
                "instrument": "keys"
              },
              {
                "t_on": 39.541332,
                "t_off": 39.885333,
                "pitch": 70,
                "velocity": 74,
                "instrument": "keys"
              },
              {
                "t_on": 39.562668,
                "t_off": 39.892667,
                "pitch": 92,
                "velocity": 67,
                "instrument": "keys"
              },
              {
                "t_on": 39.573334,
                "t_off": 39.889546,
                "pitch": 58,
                "velocity": 84,
                "instrument": "keys"
              },
              {
                "t_on": 39.594666,
                "t_off": 39.889667,
                "pitch": 71,
                "velocity": 77,
                "instrument": "keys"
              },
              {
                "t_on": 39.669334,
                "t_off": 43.359333,
                "pitch": 46,
                "velocity": 82,
                "instrument": "keys"
              },
              {
                "t_on": 39.690666,
                "t_off": 41.080666,
                "pitch": 42,
                "velocity": 78,
                "instrument": "keys"
              },
              {
                "t_on": 39.690666,
                "t_off": 43.12,
                "pitch": 45,
                "velocity": 81,
                "instrument": "keys"
              },
              {
                "t_on": 39.701332,
                "t_off": 40.973999,
                "pitch": 44,
                "velocity": 80,
                "instrument": "keys"
              },
              {
                "t_on": 39.712002,
                "t_off": 40.973999,
                "pitch": 34,
                "velocity": 71,
                "instrument": "keys"
              },
              {
                "t_on": 39.754665,
                "t_off": 40.877999,
                "pitch": 53,
                "velocity": 95,
                "instrument": "keys"
              },
              {
                "t_on": 39.872002,
                "t_off": 39.967999,
                "pitch": 52,
                "velocity": 90,
                "instrument": "keys"
              },
              {
                "t_on": 39.872002,
                "t_off": 39.967999,
                "pitch": 54,
                "velocity": 84,
                "instrument": "keys"
              },
              {
                "t_on": 39.893333,
                "t_off": 39.989335,
                "pitch": 41,
                "velocity": 82,
                "instrument": "keys"
              },
              {
                "t_on": 39.893333,
                "t_off": 39.989335,
                "pitch": 70,
                "velocity": 80,
                "instrument": "keys"
              },
              {
                "t_on": 39.903999,
                "t_off": 41.091332,
                "pitch": 48,
                "velocity": 85,
                "instrument": "keys"
              },
              {
                "t_on": 39.946667,
                "t_off": 40.042668,
                "pitch": 58,
                "velocity": 76,
                "instrument": "keys"
              },
              {
                "t_on": 39.957333,
                "t_off": 40.053334,
                "pitch": 52,
                "velocity": 76,
                "instrument": "keys"
              },
              {
                "t_on": 39.957333,
                "t_off": 40.117333,
                "pitch": 54,
                "velocity": 72,
                "instrument": "keys"
              },
              {
                "t_on": 39.978668,
                "t_off": 40.170667,
                "pitch": 41,
                "velocity": 72,
                "instrument": "keys"
              },
              {
                "t_on": 39.978668,
                "t_off": 40.074666,
                "pitch": 70,
                "velocity": 73,
                "instrument": "keys"
              },
              {
                "t_on": 40.032001,
                "t_off": 40.127999,
                "pitch": 58,
                "velocity": 71,
                "instrument": "keys"
              },
              {
                "t_on": 40.042667,
                "t_off": 40.138665,
                "pitch": 52,
                "velocity": 70,
                "instrument": "keys"
              },
              {
                "t_on": 40.063999,
                "t_off": 40.600666,
                "pitch": 70,
                "velocity": 68,
                "instrument": "keys"
              },
              {
                "t_on": 40.106667,
                "t_off": 40.202668,
                "pitch": 54,
                "velocity": 68,
                "instrument": "keys"
              },
              {
                "t_on": 40.117332,
                "t_off": 40.279998,
                "pitch": 58,
                "velocity": 68,
                "instrument": "keys"
              },
              {
                "t_on": 40.127998,
                "t_off": 40.224,
                "pitch": 52,
                "velocity": 66,
                "instrument": "keys"
              },
              {
                "t_on": 40.16,
                "t_off": 40.351998,
                "pitch": 41,
                "velocity": 60,
                "instrument": "keys"
              },
              {
                "t_on": 40.192001,
                "t_off": 40.309335,
                "pitch": 54,
                "velocity": 60,
                "instrument": "keys"
              },
              {
                "t_on": 40.213333,
                "t_off": 40.309335,
                "pitch": 52,
                "velocity": 60,
                "instrument": "keys"
              },
              {
                "t_on": 40.287998,
                "t_off": 40.791999,
                "pitch": 58,
                "velocity": 62,
                "instrument": "keys"
              },
              {
                "t_on": 40.298668,
                "t_off": 40.664001,
                "pitch": 52,
                "velocity": 58,
                "instrument": "keys"
              },
              {
                "t_on": 40.298668,
                "t_off": 40.543999,
                "pitch": 54,
                "velocity": 57,
                "instrument": "keys"
              },
              {
                "t_on": 40.341331,
                "t_off": 41.091332,
                "pitch": 41,
                "velocity": 56,
                "instrument": "keys"
              },
              {
                "t_on": 40.341331,
                "t_off": 40.437333,
                "pitch": 57,
                "velocity": 61,
                "instrument": "keys"
              },
              {
                "t_on": 40.362667,
                "t_off": 40.458669,
                "pitch": 59,
                "velocity": 66,
                "instrument": "keys"
              },
              {
                "t_on": 40.426666,
                "t_off": 40.522668,
                "pitch": 57,
                "velocity": 74,
                "instrument": "keys"
              },
              {
                "t_on": 40.448002,
                "t_off": 40.543999,
                "pitch": 59,
                "velocity": 77,
                "instrument": "keys"
              },
              {
                "t_on": 40.512001,
                "t_off": 41.194665,
                "pitch": 57,
                "velocity": 73,
                "instrument": "keys"
              },
              {
                "t_on": 40.533333,
                "t_off": 40.984001,
                "pitch": 54,
                "velocity": 70,
                "instrument": "keys"
              },
              {
                "t_on": 40.533333,
                "t_off": 41.194665,
                "pitch": 59,
                "velocity": 74,
                "instrument": "keys"
              },
              {
                "t_on": 40.533333,
                "t_off": 41.208,
                "pitch": 71,
                "velocity": 72,
                "instrument": "keys"
              },
              {
                "t_on": 40.672001,
                "t_off": 41.165332,
                "pitch": 52,
                "velocity": 62,
                "instrument": "keys"
              },
              {
                "t_on": 40.757332,
                "t_off": 41.411331,
                "pitch": 86,
                "velocity": 50,
                "instrument": "keys"
              },
              {
                "t_on": 40.789333,
                "t_off": 40.885335,
                "pitch": 70,
                "velocity": 56,
                "instrument": "keys"
              },
              {
                "t_on": 40.799999,
                "t_off": 40.896001,
                "pitch": 58,
                "velocity": 61,
                "instrument": "keys"
              },
              {
                "t_on": 40.874668,
                "t_off": 42.040665,
                "pitch": 70,
                "velocity": 53,
                "instrument": "keys"
              },
              {
                "t_on": 40.885334,
                "t_off": 41.194665,
                "pitch": 58,
                "velocity": 60,
                "instrument": "keys"
              },
              {
                "t_on": 40.981335,
                "t_off": 41.077332,
                "pitch": 64,
                "velocity": 54,
                "instrument": "keys"
              },
              {
                "t_on": 40.981335,
                "t_off": 41.381345,
                "pitch": 66,
                "velocity": 54,
                "instrument": "keys"
              },
              {
                "t_on": 40.992001,
                "t_off": 41.378665,
                "pitch": 54,
                "velocity": 53,
                "instrument": "keys"
              },
              {
                "t_on": 41.066666,
                "t_off": 41.400001,
                "pitch": 64,
                "velocity": 62,
                "instrument": "keys"
              },
              {
                "t_on": 41.173332,
                "t_off": 41.559737,
                "pitch": 52,
                "velocity": 60,
                "instrument": "keys"
              },
              {
                "t_on": 41.183998,
                "t_off": 41.386666,
                "pitch": 57,
                "velocity": 68,
                "instrument": "keys"
              },
              {
                "t_on": 41.183998,
                "t_off": 41.581333,
                "pitch": 58,
                "velocity": 69,
                "instrument": "keys"
              },
              {
                "t_on": 41.183998,
                "t_off": 41.290665,
                "pitch": 59,
                "velocity": 71,
                "instrument": "keys"
              },
              {
                "t_on": 41.216,
                "t_off": 41.634746,
                "pitch": 71,
                "velocity": 70,
                "instrument": "keys"
              },
              {
                "t_on": 41.279999,
                "t_off": 41.376,
                "pitch": 59,
                "velocity": 85,
                "instrument": "keys"
              },
              {
                "t_on": 41.365334,
                "t_off": 42.210666,
                "pitch": 59,
                "velocity": 79,
                "instrument": "keys"
              },
              {
                "t_on": 41.375999,
                "t_off": 42.048001,
                "pitch": 57,
                "velocity": 75,
                "instrument": "keys"
              },
              {
                "t_on": 41.375999,
                "t_off": 42.179333,
                "pitch": 73,
                "velocity": 77,
                "instrument": "keys"
              },
              {
                "t_on": 41.386665,
                "t_off": 42.051335,
                "pitch": 54,
                "velocity": 73,
                "instrument": "keys"
              },
              {
                "t_on": 41.408001,
                "t_off": 41.845334,
                "pitch": 64,
                "velocity": 73,
                "instrument": "keys"
              },
              {
                "t_on": 41.418667,
                "t_off": 41.813332,
                "pitch": 53,
                "velocity": 81,
                "instrument": "keys"
              },
              {
                "t_on": 41.557335,
                "t_off": 41.653333,
                "pitch": 60,
                "velocity": 83,
                "instrument": "keys"
              },
              {
                "t_on": 41.557335,
                "t_off": 41.653333,
                "pitch": 72,
                "velocity": 85,
                "instrument": "keys"
              },
              {
                "t_on": 41.589333,
                "t_off": 41.685334,
                "pitch": 58,
                "velocity": 75,
                "instrument": "keys"
              },
              {
                "t_on": 41.642666,
                "t_off": 41.962666,
                "pitch": 60,
                "velocity": 67,
                "instrument": "keys"
              },
              {
                "t_on": 41.642666,
                "t_off": 41.738667,
                "pitch": 72,
                "velocity": 73,
                "instrument": "keys"
              },
              {
                "t_on": 41.674667,
                "t_off": 41.802666,
                "pitch": 58,
                "velocity": 66,
                "instrument": "keys"
              },
              {
                "t_on": 41.728001,
                "t_off": 41.823998,
                "pitch": 72,
                "velocity": 62,
                "instrument": "keys"
              },
              {
                "t_on": 41.792,
                "t_off": 42.048001,
                "pitch": 58,
                "velocity": 68,
                "instrument": "keys"
              },
              {
                "t_on": 41.802666,
                "t_off": 42.680668,
                "pitch": 53,
                "velocity": 64,
                "instrument": "keys"
              },
              {
                "t_on": 41.802666,
                "t_off": 42.595333,
                "pitch": 65,
                "velocity": 66,
                "instrument": "keys"
              },
              {
                "t_on": 41.813332,
                "t_off": 41.909333,
                "pitch": 72,
                "velocity": 60,
                "instrument": "keys"
              },
              {
                "t_on": 41.834667,
                "t_off": 41.973332,
                "pitch": 64,
                "velocity": 67,
                "instrument": "keys"
              },
              {
                "t_on": 41.898666,
                "t_off": 41.994668,
                "pitch": 72,
                "velocity": 73,
                "instrument": "keys"
              },
              {
                "t_on": 41.952,
                "t_off": 43.332,
                "pitch": 60,
                "velocity": 74,
                "instrument": "keys"
              },
              {
                "t_on": 41.962666,
                "t_off": 42.186665,
                "pitch": 64,
                "velocity": 67,
                "instrument": "keys"
              },
              {
                "t_on": 41.984001,
                "t_off": 42.47081,
                "pitch": 72,
                "velocity": 60,
                "instrument": "keys"
              },
              {
                "t_on": 42.037334,
                "t_off": 42.413333,
                "pitch": 57,
                "velocity": 71,
                "instrument": "keys"
              },
              {
                "t_on": 42.037334,
                "t_off": 42.208001,
                "pitch": 58,
                "velocity": 69,
                "instrument": "keys"
              },
              {
                "t_on": 42.037334,
                "t_off": 42.595333,
                "pitch": 71,
                "velocity": 61,
                "instrument": "keys"
              },
              {
                "t_on": 42.175999,
                "t_off": 42.891,
                "pitch": 64,
                "velocity": 79,
                "instrument": "keys"
              },
              {
                "t_on": 42.197334,
                "t_off": 43.192665,
                "pitch": 58,
                "velocity": 82,
                "instrument": "keys"
              },
              {
                "t_on": 42.218666,
                "t_off": 43.353667,
                "pitch": 56,
                "velocity": 82,
                "instrument": "keys"
              },
              {
                "t_on": 42.218666,
                "t_off": 42.925999,
                "pitch": 59,
                "velocity": 83,
                "instrument": "keys"
              },
              {
                "t_on": 42.229332,
                "t_off": 43.399333,
                "pitch": 76,
                "velocity": 81,
                "instrument": "keys"
              },
              {
                "t_on": 42.250668,
                "t_off": 43.420667,
                "pitch": 73,
                "velocity": 80,
                "instrument": "keys"
              },
              {
                "t_on": 42.410667,
                "t_off": 42.594665,
                "pitch": 81,
                "velocity": 90,
                "instrument": "keys"
              },
              {
                "t_on": 42.421333,
                "t_off": 42.583999,
                "pitch": 57,
                "velocity": 94,
                "instrument": "keys"
              },
              {
                "t_on": 42.485332,
                "t_off": 42.581334,
                "pitch": 69,
                "velocity": 86,
                "instrument": "keys"
              },
              {
                "t_on": 42.570667,
                "t_off": 43.355667,
                "pitch": 69,
                "velocity": 86,
                "instrument": "keys"
              },
              {
                "t_on": 42.591999,
                "t_off": 43.12,
                "pitch": 57,
                "velocity": 81,
                "instrument": "keys"
              },
              {
                "t_on": 42.602665,
                "t_off": 43.422667,
                "pitch": 81,
                "velocity": 75,
                "instrument": "keys"
              },
              {
                "t_on": 43.082668,
                "t_off": 44.259335,
                "pitch": 44,
                "velocity": 88,
                "instrument": "keys"
              },
              {
                "t_on": 43.082668,
                "t_off": 44.397999,
                "pitch": 47,
                "velocity": 90,
                "instrument": "keys"
              },
              {
                "t_on": 43.082668,
                "t_off": 44.312668,
                "pitch": 50,
                "velocity": 92,
                "instrument": "keys"
              },
              {
                "t_on": 43.12,
                "t_off": 44.366001,
                "pitch": 45,
                "velocity": 97,
                "instrument": "keys"
              },
              {
                "t_on": 43.12,
                "t_off": 44.376667,
                "pitch": 57,
                "velocity": 96,
                "instrument": "keys"
              },
              {
                "t_on": 43.12,
                "t_off": 44.472668,
                "pitch": 59,
                "velocity": 97,
                "instrument": "keys"
              },
              {
                "t_on": 43.52,
                "t_off": 43.881703,
                "pitch": 54,
                "velocity": 52,
                "instrument": "keys"
              },
              {
                "t_on": 43.52,
                "t_off": 44.323334,
                "pitch": 70,
                "velocity": 51,
                "instrument": "keys"
              },
              {
                "t_on": 43.701332,
                "t_off": 43.797334,
                "pitch": 89,
                "velocity": 46,
                "instrument": "keys"
              },
              {
                "t_on": 43.743999,
                "t_off": 43.840001,
                "pitch": 80,
                "velocity": 51,
                "instrument": "keys"
              },
              {
                "t_on": 43.786667,
                "t_off": 44.366001,
                "pitch": 89,
                "velocity": 54,
                "instrument": "keys"
              },
              {
                "t_on": 43.807999,
                "t_off": 44.093797,
                "pitch": 86,
                "velocity": 54,
                "instrument": "keys"
              },
              {
                "t_on": 43.829334,
                "t_off": 44.228564,
                "pitch": 80,
                "velocity": 54,
                "instrument": "keys"
              },
              {
                "t_on": 43.925335,
                "t_off": 44.383341,
                "pitch": 58,
                "velocity": 58,
                "instrument": "keys"
              },
              {
                "t_on": 44.448002,
                "t_off": 44.995335,
                "pitch": 54,
                "velocity": 59,
                "instrument": "keys"
              },
              {
                "t_on": 44.458668,
                "t_off": 45.091332,
                "pitch": 64,
                "velocity": 56,
                "instrument": "keys"
              },
              {
                "t_on": 44.501335,
                "t_off": 44.618668,
                "pitch": 46,
                "velocity": 59,
                "instrument": "keys"
              },
              {
                "t_on": 44.576,
                "t_off": 44.672002,
                "pitch": 59,
                "velocity": 54,
                "instrument": "keys"
              },
              {
                "t_on": 44.608002,
                "t_off": 44.703999,
                "pitch": 46,
                "velocity": 60,
                "instrument": "keys"
              },
              {
                "t_on": 44.661335,
                "t_off": 44.97013,
                "pitch": 59,
                "velocity": 59,
                "instrument": "keys"
              },
              {
                "t_on": 44.693333,
                "t_off": 44.984001,
                "pitch": 46,
                "velocity": 60,
                "instrument": "keys"
              },
              {
                "t_on": 44.778667,
                "t_off": 45.223063,
                "pitch": 57,
                "velocity": 57,
                "instrument": "keys"
              },
              {
                "t_on": 44.778667,
                "t_off": 45.411331,
                "pitch": 71,
                "velocity": 60,
                "instrument": "keys"
              },
              {
                "t_on": 44.799999,
                "t_off": 45.287596,
                "pitch": 86,
                "velocity": 53,
                "instrument": "keys"
              },
              {
                "t_on": 44.885334,
                "t_off": 45.891335,
                "pitch": 89,
                "velocity": 55,
                "instrument": "keys"
              },
              {
                "t_on": 44.928001,
                "t_off": 45.023999,
                "pitch": 70,
                "velocity": 54,
                "instrument": "keys"
              },
              {
                "t_on": 44.992001,
                "t_off": 45.304,
                "pitch": 46,
                "velocity": 48,
                "instrument": "keys"
              },
              {
                "t_on": 45.002666,
                "t_off": 45.098668,
                "pitch": 58,
                "velocity": 51,
                "instrument": "keys"
              },
              {
                "t_on": 45.002666,
                "t_off": 45.709999,
                "pitch": 94,
                "velocity": 46,
                "instrument": "keys"
              },
              {
                "t_on": 45.013332,
                "t_off": 45.109334,
                "pitch": 70,
                "velocity": 55,
                "instrument": "keys"
              },
              {
                "t_on": 45.088001,
                "t_off": 45.258668,
                "pitch": 58,
                "velocity": 52,
                "instrument": "keys"
              },
              {
                "t_on": 45.098667,
                "t_off": 45.237332,
                "pitch": 70,
                "velocity": 53,
                "instrument": "keys"
              },
              {
                "t_on": 45.226665,
                "t_off": 45.679166,
                "pitch": 70,
                "velocity": 44,
                "instrument": "keys"
              },
              {
                "t_on": 45.248001,
                "t_off": 45.578667,
                "pitch": 58,
                "velocity": 49,
                "instrument": "keys"
              },
              {
                "t_on": 45.312,
                "t_off": 45.429334,
                "pitch": 46,
                "velocity": 50,
                "instrument": "keys"
              },
              {
                "t_on": 45.418667,
                "t_off": 46.040665,
                "pitch": 46,
                "velocity": 44,
                "instrument": "keys"
              },
              {
                "t_on": 45.568001,
                "t_off": 45.663998,
                "pitch": 58,
                "velocity": 47,
                "instrument": "keys"
              },
              {
                "t_on": 45.621334,
                "t_off": 45.96096,
                "pitch": 59,
                "velocity": 48,
                "instrument": "keys"
              },
              {
                "t_on": 45.621334,
                "t_off": 45.986758,
                "pitch": 71,
                "velocity": 52,
                "instrument": "keys"
              },
              {
                "t_on": 45.653332,
                "t_off": 45.996135,
                "pitch": 58,
                "velocity": 52,
                "instrument": "keys"
              },
              {
                "t_on": 46.080002,
                "t_off": 46.261334,
                "pitch": 64,
                "velocity": 53,
                "instrument": "keys"
              },
              {
                "t_on": 46.250668,
                "t_off": 46.650667,
                "pitch": 64,
                "velocity": 51,
                "instrument": "keys"
              },
              {
                "t_on": 46.271999,
                "t_off": 46.777,
                "pitch": 46,
                "velocity": 49,
                "instrument": "keys"
              },
              {
                "t_on": 46.464001,
                "t_off": 48.270001,
                "pitch": 42,
                "velocity": 58,
                "instrument": "keys"
              },
              {
                "t_on": 46.464001,
                "t_off": 47.664,
                "pitch": 49,
                "velocity": 60,
                "instrument": "keys"
              },
              {
                "t_on": 46.474667,
                "t_off": 48.216667,
                "pitch": 34,
                "velocity": 56,
                "instrument": "keys"
              },
              {
                "t_on": 46.485332,
                "t_off": 47.854,
                "pitch": 38,
                "velocity": 55,
                "instrument": "keys"
              },
              {
                "t_on": 46.485332,
                "t_off": 47.515333,
                "pitch": 47,
                "velocity": 60,
                "instrument": "keys"
              },
              {
                "t_on": 46.495998,
                "t_off": 47.843335,
                "pitch": 40,
                "velocity": 61,
                "instrument": "keys"
              },
              {
                "t_on": 46.645332,
                "t_off": 46.901334,
                "pitch": 41,
                "velocity": 77,
                "instrument": "keys"
              },
              {
                "t_on": 46.698666,
                "t_off": 47.854,
                "pitch": 39,
                "velocity": 66,
                "instrument": "keys"
              },
              {
                "t_on": 46.730667,
                "t_off": 46.826669,
                "pitch": 35,
                "velocity": 71,
                "instrument": "keys"
              },
              {
                "t_on": 46.730667,
                "t_off": 46.826669,
                "pitch": 48,
                "velocity": 72,
                "instrument": "keys"
              },
              {
                "t_on": 46.816002,
                "t_off": 48.216667,
                "pitch": 35,
                "velocity": 65,
                "instrument": "keys"
              },
              {
                "t_on": 46.816002,
                "t_off": 46.912,
                "pitch": 48,
                "velocity": 64,
                "instrument": "keys"
              },
              {
                "t_on": 46.837334,
                "t_off": 47.278972,
                "pitch": 76,
                "velocity": 54,
                "instrument": "keys"
              },
              {
                "t_on": 46.890667,
                "t_off": 46.986668,
                "pitch": 41,
                "velocity": 62,
                "instrument": "keys"
              },
              {
                "t_on": 46.890667,
                "t_off": 47.523335,
                "pitch": 54,
                "velocity": 59,
                "instrument": "keys"
              },
              {
                "t_on": 46.901333,
                "t_off": 46.997334,
                "pitch": 48,
                "velocity": 60,
                "instrument": "keys"
              },
              {
                "t_on": 46.911999,
                "t_off": 47.326808,
                "pitch": 64,
                "velocity": 56,
                "instrument": "keys"
              },
              {
                "t_on": 46.965332,
                "t_off": 47.491333,
                "pitch": 53,
                "velocity": 64,
                "instrument": "keys"
              },
              {
                "t_on": 46.976002,
                "t_off": 47.071999,
                "pitch": 41,
                "velocity": 66,
                "instrument": "keys"
              },
              {
                "t_on": 46.986668,
                "t_off": 47.082665,
                "pitch": 48,
                "velocity": 62,
                "instrument": "keys"
              },
              {
                "t_on": 47.018665,
                "t_off": 47.114667,
                "pitch": 45,
                "velocity": 59,
                "instrument": "keys"
              },
              {
                "t_on": 47.061333,
                "t_off": 47.362667,
                "pitch": 41,
                "velocity": 61,
                "instrument": "keys"
              },
              {
                "t_on": 47.071999,
                "t_off": 47.168,
                "pitch": 48,
                "velocity": 60,
                "instrument": "keys"
              },
              {
                "t_on": 47.104,
                "t_off": 47.674,
                "pitch": 45,
                "velocity": 57,
                "instrument": "keys"
              },
              {
                "t_on": 47.157333,
                "t_off": 47.692333,
                "pitch": 48,
                "velocity": 56,
                "instrument": "keys"
              },
              {
                "t_on": 47.306667,
                "t_off": 47.701667,
                "pitch": 68,
                "velocity": 54,
                "instrument": "keys"
              },
              {
                "t_on": 47.306667,
                "t_off": 47.509332,
                "pitch": 76,
                "velocity": 53,
                "instrument": "keys"
              },
              {
                "t_on": 47.327999,
                "t_off": 48.237999,
                "pitch": 81,
                "velocity": 50,
                "instrument": "keys"
              },
              {
                "t_on": 47.370667,
                "t_off": 47.541333,
                "pitch": 41,
                "velocity": 67,
                "instrument": "keys"
              },
              {
                "t_on": 47.402668,
                "t_off": 47.498666,
                "pitch": 57,
                "velocity": 82,
                "instrument": "keys"
              },
              {
                "t_on": 47.402668,
                "t_off": 47.498666,
                "pitch": 69,
                "velocity": 88,
                "instrument": "keys"
              },
              {
                "t_on": 47.487999,
                "t_off": 48.270001,
                "pitch": 57,
                "velocity": 71,
                "instrument": "keys"
              },
              {
                "t_on": 47.487999,
                "t_off": 48.170667,
                "pitch": 69,
                "velocity": 79,
                "instrument": "keys"
              },
              {
                "t_on": 47.498665,
                "t_off": 47.616002,
                "pitch": 76,
                "velocity": 64,
                "instrument": "keys"
              },
              {
                "t_on": 47.530666,
                "t_off": 47.895999,
                "pitch": 41,
                "velocity": 54,
                "instrument": "keys"
              },
              {
                "t_on": 47.605335,
                "t_off": 47.701333,
                "pitch": 76,
                "velocity": 46,
                "instrument": "keys"
              },
              {
                "t_on": 47.690666,
                "t_off": 48.771332,
                "pitch": 76,
                "velocity": 46,
                "instrument": "keys"
              },
              {
                "t_on": 47.754665,
                "t_off": 48.239112,
                "pitch": 54,
                "velocity": 50,
                "instrument": "keys"
              },
              {
                "t_on": 47.754665,
                "t_off": 47.850667,
                "pitch": 64,
                "velocity": 53,
                "instrument": "keys"
              },
              {
                "t_on": 47.786667,
                "t_off": 48.284332,
                "pitch": 33,
                "velocity": 48,
                "instrument": "keys"
              },
              {
                "t_on": 47.84,
                "t_off": 48.210423,
                "pitch": 64,
                "velocity": 62,
                "instrument": "keys"
              },
              {
                "t_on": 47.882668,
                "t_off": 47.978665,
                "pitch": 88,
                "velocity": 52,
                "instrument": "keys"
              },
              {
                "t_on": 47.903999,
                "t_off": 48.223125,
                "pitch": 41,
                "velocity": 48,
                "instrument": "keys"
              },
              {
                "t_on": 47.967999,
                "t_off": 48.064,
                "pitch": 88,
                "velocity": 45,
                "instrument": "keys"
              },
              {
                "t_on": 48.053333,
                "t_off": 48.325924,
                "pitch": 88,
                "velocity": 38,
                "instrument": "keys"
              },
              {
                "t_on": 48.16,
                "t_off": 48.256001,
                "pitch": 69,
                "velocity": 49,
                "instrument": "keys"
              },
              {
                "t_on": 48.245335,
                "t_off": 48.341332,
                "pitch": 69,
                "velocity": 66,
                "instrument": "keys"
              },
              {
                "t_on": 48.330666,
                "t_off": 48.426667,
                "pitch": 69,
                "velocity": 58,
                "instrument": "keys"
              },
              {
                "t_on": 48.416,
                "t_off": 49.304665,
                "pitch": 69,
                "velocity": 50,
                "instrument": "keys"
              },
              {
                "t_on": 48.48,
                "t_off": 48.752452,
                "pitch": 88,
                "velocity": 39,
                "instrument": "keys"
              },
              {
                "t_on": 48.597332,
                "t_off": 48.693333,
                "pitch": 64,
                "velocity": 42,
                "instrument": "keys"
              },
              {
                "t_on": 48.597332,
                "t_off": 48.752333,
                "pitch": 66,
                "velocity": 38,
                "instrument": "keys"
              },
              {
                "t_on": 48.682667,
                "t_off": 48.821332,
                "pitch": 64,
                "velocity": 53,
                "instrument": "keys"
              },
              {
                "t_on": 48.810665,
                "t_off": 49.368668,
                "pitch": 64,
                "velocity": 46,
                "instrument": "keys"
              },
              {
                "t_on": 49.013332,
                "t_off": 49.478262,
                "pitch": 88,
                "velocity": 37,
                "instrument": "keys"
              },
              {
                "t_on": 49.845333,
                "t_off": 52.174,
                "pitch": 35,
                "velocity": 54,
                "instrument": "keys"
              },
              {
                "t_on": 49.845333,
                "t_off": 52.003334,
                "pitch": 41,
                "velocity": 54,
                "instrument": "keys"
              },
              {
                "t_on": 49.845333,
                "t_off": 52.419335,
                "pitch": 42,
                "velocity": 54,
                "instrument": "keys"
              },
              {
                "t_on": 49.845333,
                "t_off": 52.184666,
                "pitch": 44,
                "velocity": 54,
                "instrument": "keys"
              },
              {
                "t_on": 49.845333,
                "t_off": 52.270001,
                "pitch": 51,
                "velocity": 53,
                "instrument": "keys"
              },
              {
                "t_on": 49.930668,
                "t_off": 50.026666,
                "pitch": 37,
                "velocity": 99,
                "instrument": "keys"
              },
              {
                "t_on": 49.930668,
                "t_off": 50.026666,
                "pitch": 50,
                "velocity": 100,
                "instrument": "keys"
              },
              {
                "t_on": 49.930668,
                "t_off": 50.026666,
                "pitch": 55,
                "velocity": 100,
                "instrument": "keys"
              },
              {
                "t_on": 49.941334,
                "t_off": 50.037335,
                "pitch": 43,
                "velocity": 98,
                "instrument": "keys"
              },
              {
                "t_on": 49.941334,
                "t_off": 50.330264,
                "pitch": 62,
                "velocity": 99,
                "instrument": "keys"
              },
              {
                "t_on": 50.005333,
                "t_off": 50.101334,
                "pitch": 71,
                "velocity": 90,
                "instrument": "keys"
              },
              {
                "t_on": 50.015999,
                "t_off": 52.856667,
                "pitch": 37,
                "velocity": 97,
                "instrument": "keys"
              },
              {
                "t_on": 50.015999,
                "t_off": 50.178668,
                "pitch": 50,
                "velocity": 98,
                "instrument": "keys"
              },
              {
                "t_on": 50.015999,
                "t_off": 50.345026,
                "pitch": 55,
                "velocity": 99,
                "instrument": "keys"
              },
              {
                "t_on": 50.026669,
                "t_off": 50.353838,
                "pitch": 43,
                "velocity": 97,
                "instrument": "keys"
              },
              {
                "t_on": 50.090668,
                "t_off": 50.456538,
                "pitch": 71,
                "velocity": 80,
                "instrument": "keys"
              },
              {
                "t_on": 50.101334,
                "t_off": 50.658668,
                "pitch": 59,
                "velocity": 85,
                "instrument": "keys"
              },
              {
                "t_on": 50.186668,
                "t_off": 50.776,
                "pitch": 50,
                "velocity": 89,
                "instrument": "keys"
              },
              {
                "t_on": 50.368,
                "t_off": 53.07,
                "pitch": 49,
                "velocity": 85,
                "instrument": "keys"
              },
              {
                "t_on": 50.389332,
                "t_off": 51.285332,
                "pitch": 46,
                "velocity": 82,
                "instrument": "keys"
              },
              {
                "t_on": 50.421333,
                "t_off": 51.223998,
                "pitch": 38,
                "velocity": 80,
                "instrument": "keys"
              },
              {
                "t_on": 50.421333,
                "t_off": 51.171334,
                "pitch": 62,
                "velocity": 74,
                "instrument": "keys"
              },
              {
                "t_on": 50.474667,
                "t_off": 50.986668,
                "pitch": 55,
                "velocity": 74,
                "instrument": "keys"
              },
              {
                "t_on": 50.666668,
                "t_off": 51.405334,
                "pitch": 59,
                "velocity": 76,
                "instrument": "keys"
              },
              {
                "t_on": 50.688,
                "t_off": 51.224667,
                "pitch": 71,
                "velocity": 74,
                "instrument": "keys"
              },
              {
                "t_on": 50.698666,
                "t_off": 51.104001,
                "pitch": 45,
                "velocity": 79,
                "instrument": "keys"
              },
              {
                "t_on": 50.698666,
                "t_off": 51.530667,
                "pitch": 57,
                "velocity": 73,
                "instrument": "keys"
              },
              {
                "t_on": 50.730667,
                "t_off": 51.063999,
                "pitch": 89,
                "velocity": 66,
                "instrument": "keys"
              },
              {
                "t_on": 50.784,
                "t_off": 50.880002,
                "pitch": 50,
                "velocity": 83,
                "instrument": "keys"
              },
              {
                "t_on": 50.794666,
                "t_off": 50.890668,
                "pitch": 58,
                "velocity": 84,
                "instrument": "keys"
              },
              {
                "t_on": 50.816002,
                "t_off": 50.978668,
                "pitch": 43,
                "velocity": 81,
                "instrument": "keys"
              },
              {
                "t_on": 50.816002,
                "t_off": 51.512665,
                "pitch": 70,
                "velocity": 78,
                "instrument": "keys"
              },
              {
                "t_on": 50.826668,
                "t_off": 50.944001,
                "pitch": 36,
                "velocity": 77,
                "instrument": "keys"
              },
              {
                "t_on": 50.869335,
                "t_off": 51.008,
                "pitch": 50,
                "velocity": 73,
                "instrument": "keys"
              },
              {
                "t_on": 50.880001,
                "t_off": 53.59,
                "pitch": 39,
                "velocity": 77,
                "instrument": "keys"
              },
              {
                "t_on": 50.880001,
                "t_off": 51.008,
                "pitch": 58,
                "velocity": 72,
                "instrument": "keys"
              },
              {
                "t_on": 50.911999,
                "t_off": 51.661999,
                "pitch": 47,
                "velocity": 72,
                "instrument": "keys"
              },
              {
                "t_on": 50.933334,
                "t_off": 51.811333,
                "pitch": 36,
                "velocity": 68,
                "instrument": "keys"
              },
              {
                "t_on": 50.976002,
                "t_off": 51.376407,
                "pitch": 55,
                "velocity": 61,
                "instrument": "keys"
              },
              {
                "t_on": 50.976002,
                "t_off": 51.491215,
                "pitch": 74,
                "velocity": 58,
                "instrument": "keys"
              },
              {
                "t_on": 50.986668,
                "t_off": 51.821999,
                "pitch": 43,
                "velocity": 70,
                "instrument": "keys"
              },
              {
                "t_on": 50.997334,
                "t_off": 51.288683,
                "pitch": 50,
                "velocity": 60,
                "instrument": "keys"
              },
              {
                "t_on": 50.997334,
                "t_off": 51.744,
                "pitch": 58,
                "velocity": 64,
                "instrument": "keys"
              },
              {
                "t_on": 51.071999,
                "t_off": 51.715332,
                "pitch": 89,
                "velocity": 56,
                "instrument": "keys"
              },
              {
                "t_on": 51.093334,
                "t_off": 51.608001,
                "pitch": 45,
                "velocity": 71,
                "instrument": "keys"
              },
              {
                "t_on": 51.231998,
                "t_off": 51.811333,
                "pitch": 38,
                "velocity": 71,
                "instrument": "keys"
              },
              {
                "t_on": 51.274666,
                "t_off": 52.098667,
                "pitch": 46,
                "velocity": 73,
                "instrument": "keys"
              },
              {
                "t_on": 51.296001,
                "t_off": 51.907334,
                "pitch": 52,
                "velocity": 65,
                "instrument": "keys"
              },
              {
                "t_on": 51.317333,
                "t_off": 51.971333,
                "pitch": 56,
                "velocity": 64,
                "instrument": "keys"
              },
              {
                "t_on": 51.413334,
                "t_off": 51.721863,
                "pitch": 59,
                "velocity": 78,
                "instrument": "keys"
              },
              {
                "t_on": 51.424,
                "t_off": 51.724071,
                "pitch": 50,
                "velocity": 70,
                "instrument": "keys"
              },
              {
                "t_on": 51.52,
                "t_off": 52.120667,
                "pitch": 57,
                "velocity": 67,
                "instrument": "keys"
              },
              {
                "t_on": 51.530666,
                "t_off": 52.152,
                "pitch": 48,
                "velocity": 66,
                "instrument": "keys"
              },
              {
                "t_on": 51.616001,
                "t_off": 52.163334,
                "pitch": 45,
                "velocity": 67,
                "instrument": "keys"
              },
              {
                "t_on": 51.722668,
                "t_off": 52.153057,
                "pitch": 47,
                "velocity": 63,
                "instrument": "keys"
              },
              {
                "t_on": 51.733334,
                "t_off": 52.134137,
                "pitch": 58,
                "velocity": 61,
                "instrument": "keys"
              },
              {
                "t_on": 51.765335,
                "t_off": 52.279762,
                "pitch": 50,
                "velocity": 56,
                "instrument": "keys"
              },
              {
                "t_on": 51.850666,
                "t_off": 51.946667,
                "pitch": 55,
                "velocity": 52,
                "instrument": "keys"
              },
              {
                "t_on": 51.882668,
                "t_off": 51.978665,
                "pitch": 43,
                "velocity": 49,
                "instrument": "keys"
              },
              {
                "t_on": 51.936001,
                "t_off": 52.170667,
                "pitch": 55,
                "velocity": 45,
                "instrument": "keys"
              },
              {
                "t_on": 51.967999,
                "t_off": 53.768,
                "pitch": 43,
                "velocity": 58,
                "instrument": "keys"
              },
              {
                "t_on": 51.978668,
                "t_off": 52.258123,
                "pitch": 54,
                "velocity": 46,
                "instrument": "keys"
              },
              {
                "t_on": 51.978668,
                "t_off": 52.356779,
                "pitch": 66,
                "velocity": 47,
                "instrument": "keys"
              },
              {
                "t_on": 51.989334,
                "t_off": 52.728669,
                "pitch": 65,
                "velocity": 50,
                "instrument": "keys"
              },
              {
                "t_on": 52.010666,
                "t_off": 52.106667,
                "pitch": 64,
                "velocity": 57,
                "instrument": "keys"
              },
              {
                "t_on": 52.096001,
                "t_off": 52.258666,
                "pitch": 38,
                "velocity": 53,
                "instrument": "keys"
              },
              {
                "t_on": 52.096001,
                "t_off": 52.707333,
                "pitch": 64,
                "velocity": 59,
                "instrument": "keys"
              },
              {
                "t_on": 52.106667,
                "t_off": 53.801667,
                "pitch": 46,
                "velocity": 58,
                "instrument": "keys"
              },
              {
                "t_on": 52.16,
                "t_off": 53.283333,
                "pitch": 48,
                "velocity": 58,
                "instrument": "keys"
              },
              {
                "t_on": 52.16,
                "t_off": 52.472,
                "pitch": 55,
                "velocity": 55,
                "instrument": "keys"
              },
              {
                "t_on": 52.170666,
                "t_off": 52.362668,
                "pitch": 59,
                "velocity": 61,
                "instrument": "keys"
              },
              {
                "t_on": 52.181332,
                "t_off": 52.362668,
                "pitch": 57,
                "velocity": 59,
                "instrument": "keys"
              },
              {
                "t_on": 52.192001,
                "t_off": 52.298665,
                "pitch": 71,
                "velocity": 55,
                "instrument": "keys"
              },
              {
                "t_on": 52.266666,
                "t_off": 52.568194,
                "pitch": 38,
                "velocity": 71,
                "instrument": "keys"
              },
              {
                "t_on": 52.277332,
                "t_off": 52.440002,
                "pitch": 58,
                "velocity": 84,
                "instrument": "keys"
              },
              {
                "t_on": 52.287998,
                "t_off": 52.450668,
                "pitch": 71,
                "velocity": 83,
                "instrument": "keys"
              },
              {
                "t_on": 52.352001,
                "t_off": 52.898666,
                "pitch": 57,
                "velocity": 87,
                "instrument": "keys"
              },
              {
                "t_on": 52.352001,
                "t_off": 53.152001,
                "pitch": 59,
                "velocity": 87,
                "instrument": "keys"
              },
              {
                "t_on": 52.373333,
                "t_off": 52.810666,
                "pitch": 54,
                "velocity": 84,
                "instrument": "keys"
              },
              {
                "t_on": 52.383999,
                "t_off": 53.407,
                "pitch": 56,
                "velocity": 90,
                "instrument": "keys"
              },
              {
                "t_on": 52.394665,
                "t_off": 53.704667,
                "pitch": 68,
                "velocity": 88,
                "instrument": "keys"
              },
              {
                "t_on": 52.405334,
                "t_off": 53.750333,
                "pitch": 50,
                "velocity": 82,
                "instrument": "keys"
              },
              {
                "t_on": 52.448002,
                "t_off": 52.543999,
                "pitch": 58,
                "velocity": 101,
                "instrument": "keys"
              },
              {
                "t_on": 52.458668,
                "t_off": 52.554665,
                "pitch": 71,
                "velocity": 102,
                "instrument": "keys"
              },
              {
                "t_on": 52.48,
                "t_off": 52.576001,
                "pitch": 55,
                "velocity": 94,
                "instrument": "keys"
              },
              {
                "t_on": 52.48,
                "t_off": 52.973999,
                "pitch": 94,
                "velocity": 90,
                "instrument": "keys"
              },
              {
                "t_on": 52.533333,
                "t_off": 52.629334,
                "pitch": 58,
                "velocity": 98,
                "instrument": "keys"
              },
              {
                "t_on": 52.543999,
                "t_off": 52.64,
                "pitch": 71,
                "velocity": 99,
                "instrument": "keys"
              },
              {
                "t_on": 52.565334,
                "t_off": 52.714665,
                "pitch": 55,
                "velocity": 91,
                "instrument": "keys"
              },
              {
                "t_on": 52.576,
                "t_off": 53.571,
                "pitch": 70,
                "velocity": 96,
                "instrument": "keys"
              },
              {
                "t_on": 52.618668,
                "t_off": 52.714665,
                "pitch": 58,
                "velocity": 94,
                "instrument": "keys"
              },
              {
                "t_on": 52.629333,
                "t_off": 52.725335,
                "pitch": 71,
                "velocity": 97,
                "instrument": "keys"
              },
              {
                "t_on": 52.703999,
                "t_off": 53.804,
                "pitch": 55,
                "velocity": 94,
                "instrument": "keys"
              },
              {
                "t_on": 52.703999,
                "t_off": 52.821332,
                "pitch": 58,
                "velocity": 100,
                "instrument": "keys"
              },
              {
                "t_on": 52.714668,
                "t_off": 52.877334,
                "pitch": 71,
                "velocity": 98,
                "instrument": "keys"
              },
              {
                "t_on": 52.789333,
                "t_off": 52.885335,
                "pitch": 69,
                "velocity": 100,
                "instrument": "keys"
              },
              {
                "t_on": 52.799999,
                "t_off": 53.795,
                "pitch": 54,
                "velocity": 92,
                "instrument": "keys"
              },
              {
                "t_on": 52.810665,
                "t_off": 53.700667,
                "pitch": 58,
                "velocity": 100,
                "instrument": "keys"
              },
              {
                "t_on": 52.821335,
                "t_off": 53.676333,
                "pitch": 76,
                "velocity": 91,
                "instrument": "keys"
              },
              {
                "t_on": 52.874668,
                "t_off": 52.970666,
                "pitch": 69,
                "velocity": 102,
                "instrument": "keys"
              },
              {
                "t_on": 52.885334,
                "t_off": 52.981332,
                "pitch": 71,
                "velocity": 100,
                "instrument": "keys"
              },
              {
                "t_on": 52.906666,
                "t_off": 53.069332,
                "pitch": 57,
                "velocity": 100,
                "instrument": "keys"
              },
              {
                "t_on": 52.906666,
                "t_off": 53.122665,
                "pitch": 81,
                "velocity": 93,
                "instrument": "keys"
              },
              {
                "t_on": 52.959999,
                "t_off": 53.122665,
                "pitch": 69,
                "velocity": 100,
                "instrument": "keys"
              },
              {
                "t_on": 52.970665,
                "t_off": 53.077332,
                "pitch": 71,
                "velocity": 96,
                "instrument": "keys"
              },
              {
                "t_on": 53.013332,
                "t_off": 53.173333,
                "pitch": 64,
                "velocity": 89,
                "instrument": "keys"
              },
              {
                "t_on": 53.066666,
                "t_off": 53.162667,
                "pitch": 71,
                "velocity": 94,
                "instrument": "keys"
              },
              {
                "t_on": 53.066666,
                "t_off": 53.571667,
                "pitch": 93,
                "velocity": 84,
                "instrument": "keys"
              },
              {
                "t_on": 53.077332,
                "t_off": 53.173333,
                "pitch": 57,
                "velocity": 98,
                "instrument": "keys"
              },
              {
                "t_on": 53.130665,
                "t_off": 53.740667,
                "pitch": 69,
                "velocity": 88,
                "instrument": "keys"
              },
              {
                "t_on": 53.130665,
                "t_off": 53.670667,
                "pitch": 81,
                "velocity": 76,
                "instrument": "keys"
              },
              {
                "t_on": 53.141335,
                "t_off": 53.459646,
                "pitch": 59,
                "velocity": 88,
                "instrument": "keys"
              },
              {
                "t_on": 53.152,
                "t_off": 53.692,
                "pitch": 71,
                "velocity": 86,
                "instrument": "keys"
              },
              {
                "t_on": 53.162666,
                "t_off": 53.807667,
                "pitch": 57,
                "velocity": 88,
                "instrument": "keys"
              },
              {
                "t_on": 53.162666,
                "t_off": 53.807667,
                "pitch": 64,
                "velocity": 88,
                "instrument": "keys"
              },
              {
                "t_on": 53.226665,
                "t_off": 55.235333,
                "pitch": 34,
                "velocity": 76,
                "instrument": "keys"
              },
              {
                "t_on": 53.226665,
                "t_off": 55.310002,
                "pitch": 40,
                "velocity": 79,
                "instrument": "keys"
              },
              {
                "t_on": 53.226665,
                "t_off": 55.096669,
                "pitch": 41,
                "velocity": 79,
                "instrument": "keys"
              },
              {
                "t_on": 53.226665,
                "t_off": 55.139332,
                "pitch": 51,
                "velocity": 82,
                "instrument": "keys"
              },
              {
                "t_on": 53.237335,
                "t_off": 55.256668,
                "pitch": 37,
                "velocity": 78,
                "instrument": "keys"
              },
              {
                "t_on": 53.272,
                "t_off": 55.704666,
                "pitch": 38,
                "velocity": 96,
                "instrument": "keys"
              },
              {
                "t_on": 53.610668,
                "t_off": 54.734001,
                "pitch": 35,
                "velocity": 98,
                "instrument": "keys"
              },
              {
                "t_on": 53.610668,
                "t_off": 55.384667,
                "pitch": 39,
                "velocity": 99,
                "instrument": "keys"
              },
              {
                "t_on": 53.621334,
                "t_off": 54.403332,
                "pitch": 45,
                "velocity": 94,
                "instrument": "keys"
              },
              {
                "t_on": 53.642666,
                "t_off": 53.738667,
                "pitch": 31,
                "velocity": 98,
                "instrument": "keys"
              },
              {
                "t_on": 53.653332,
                "t_off": 53.749333,
                "pitch": 59,
                "velocity": 98,
                "instrument": "keys"
              },
              {
                "t_on": 53.674667,
                "t_off": 53.770665,
                "pitch": 56,
                "velocity": 96,
                "instrument": "keys"
              },
              {
                "t_on": 53.728001,
                "t_off": 53.919605,
                "pitch": 31,
                "velocity": 94,
                "instrument": "keys"
              },
              {
                "t_on": 53.738667,
                "t_off": 54.018669,
                "pitch": 59,
                "velocity": 90,
                "instrument": "keys"
              },
              {
                "t_on": 53.759998,
                "t_off": 54.467335,
                "pitch": 56,
                "velocity": 85,
                "instrument": "keys"
              },
              {
                "t_on": 53.866665,
                "t_off": 54.638001,
                "pitch": 43,
                "velocity": 68,
                "instrument": "keys"
              },
              {
                "t_on": 53.888,
                "t_off": 54.144002,
                "pitch": 92,
                "velocity": 59,
                "instrument": "keys"
              },
              {
                "t_on": 53.962666,
                "t_off": 54.755333,
                "pitch": 52,
                "velocity": 71,
                "instrument": "keys"
              },
              {
                "t_on": 54.015999,
                "t_off": 54.563332,
                "pitch": 67,
                "velocity": 61,
                "instrument": "keys"
              },
              {
                "t_on": 54.026669,
                "t_off": 54.304002,
                "pitch": 59,
                "velocity": 64,
                "instrument": "keys"
              },
              {
                "t_on": 54.069332,
                "t_off": 54.165334,
                "pitch": 31,
                "velocity": 65,
                "instrument": "keys"
              },
              {
                "t_on": 54.101334,
                "t_off": 54.447968,
                "pitch": 86,
                "velocity": 55,
                "instrument": "keys"
              },
              {
                "t_on": 54.133335,
                "t_off": 54.229333,
                "pitch": 92,
                "velocity": 53,
                "instrument": "keys"
              },
              {
                "t_on": 54.154667,
                "t_off": 54.332103,
                "pitch": 31,
                "velocity": 58,
                "instrument": "keys"
              },
              {
                "t_on": 54.175999,
                "t_off": 54.496718,
                "pitch": 89,
                "velocity": 48,
                "instrument": "keys"
              },
              {
                "t_on": 54.218666,
                "t_off": 54.478689,
                "pitch": 92,
                "velocity": 46,
                "instrument": "keys"
              },
              {
                "t_on": 54.293335,
                "t_off": 54.666665,
                "pitch": 59,
                "velocity": 50,
                "instrument": "keys"
              },
              {
                "t_on": 54.314667,
                "t_off": 54.903999,
                "pitch": 71,
                "velocity": 47,
                "instrument": "keys"
              },
              {
                "t_on": 54.335999,
                "t_off": 54.432,
                "pitch": 58,
                "velocity": 60,
                "instrument": "keys"
              },
              {
                "t_on": 54.335999,
                "t_off": 54.432,
                "pitch": 70,
                "velocity": 55,
                "instrument": "keys"
              },
              {
                "t_on": 54.421333,
                "t_off": 54.583999,
                "pitch": 58,
                "velocity": 55,
                "instrument": "keys"
              },
              {
                "t_on": 54.421333,
                "t_off": 54.517335,
                "pitch": 70,
                "velocity": 54,
                "instrument": "keys"
              },
              {
                "t_on": 54.506668,
                "t_off": 54.946666,
                "pitch": 70,
                "velocity": 49,
                "instrument": "keys"
              },
              {
                "t_on": 54.591999,
                "t_off": 55.138667,
                "pitch": 58,
                "velocity": 62,
                "instrument": "keys"
              },
              {
                "t_on": 54.613335,
                "t_off": 55.015314,
                "pitch": 65,
                "velocity": 62,
                "instrument": "keys"
              },
              {
                "t_on": 54.655998,
                "t_off": 54.752,
                "pitch": 59,
                "velocity": 57,
                "instrument": "keys"
              },
              {
                "t_on": 54.741333,
                "t_off": 54.837334,
                "pitch": 59,
                "velocity": 54,
                "instrument": "keys"
              },
              {
                "t_on": 54.826668,
                "t_off": 54.922665,
                "pitch": 59,
                "velocity": 51,
                "instrument": "keys"
              },
              {
                "t_on": 54.911999,
                "t_off": 55.747334,
                "pitch": 59,
                "velocity": 56,
                "instrument": "keys"
              },
              {
                "t_on": 54.911999,
                "t_off": 55.608666,
                "pitch": 71,
                "velocity": 60,
                "instrument": "keys"
              },
              {
                "t_on": 54.954666,
                "t_off": 55.117332,
                "pitch": 70,
                "velocity": 58,
                "instrument": "keys"
              },
              {
                "t_on": 55.125332,
                "t_off": 55.221333,
                "pitch": 70,
                "velocity": 56,
                "instrument": "keys"
              },
              {
                "t_on": 55.136002,
                "t_off": 55.546874,
                "pitch": 94,
                "velocity": 48,
                "instrument": "keys"
              },
              {
                "t_on": 55.146667,
                "t_off": 55.242665,
                "pitch": 58,
                "velocity": 57,
                "instrument": "keys"
              },
              {
                "t_on": 55.210667,
                "t_off": 55.306668,
                "pitch": 70,
                "velocity": 55,
                "instrument": "keys"
              },
              {
                "t_on": 55.231998,
                "t_off": 55.328,
                "pitch": 58,
                "velocity": 58,
                "instrument": "keys"
              },
              {
                "t_on": 55.296001,
                "t_off": 55.654397,
                "pitch": 70,
                "velocity": 49,
                "instrument": "keys"
              },
              {
                "t_on": 55.317333,
                "t_off": 55.7142,
                "pitch": 58,
                "velocity": 49,
                "instrument": "keys"
              },
              {
                "t_on": 55.360001,
                "t_off": 55.874032,
                "pitch": 66,
                "velocity": 51,
                "instrument": "keys"
              },
              {
                "t_on": 55.413334,
                "t_off": 55.842542,
                "pitch": 64,
                "velocity": 60,
                "instrument": "keys"
              },
              {
                "t_on": 55.776001,
                "t_off": 56.010667,
                "pitch": 59,
                "velocity": 44,
                "instrument": "keys"
              },
              {
                "t_on": 55.776001,
                "t_off": 56.155313,
                "pitch": 71,
                "velocity": 46,
                "instrument": "keys"
              },
              {
                "t_on": 55.797333,
                "t_off": 55.893334,
                "pitch": 58,
                "velocity": 49,
                "instrument": "keys"
              },
              {
                "t_on": 55.818668,
                "t_off": 56.187773,
                "pitch": 70,
                "velocity": 60,
                "instrument": "keys"
              },
              {
                "t_on": 55.882668,
                "t_off": 56.430001,
                "pitch": 58,
                "velocity": 54,
                "instrument": "keys"
              },
              {
                "t_on": 56.0,
                "t_off": 56.370185,
                "pitch": 59,
                "velocity": 39,
                "instrument": "keys"
              },
              {
                "t_on": 56.096001,
                "t_off": 56.488399,
                "pitch": 86,
                "velocity": 42,
                "instrument": "keys"
              },
              {
                "t_on": 56.213333,
                "t_off": 56.309335,
                "pitch": 64,
                "velocity": 44,
                "instrument": "keys"
              },
              {
                "t_on": 56.223999,
                "t_off": 56.707265,
                "pitch": 66,
                "velocity": 45,
                "instrument": "keys"
              },
              {
                "t_on": 56.298668,
                "t_off": 56.394666,
                "pitch": 64,
                "velocity": 67,
                "instrument": "keys"
              },
              {
                "t_on": 56.383999,
                "t_off": 56.749,
                "pitch": 64,
                "velocity": 58,
                "instrument": "keys"
              },
              {
                "t_on": 56.608002,
                "t_off": 57.880665,
                "pitch": 39,
                "velocity": 56,
                "instrument": "keys"
              },
              {
                "t_on": 56.618668,
                "t_off": 58.083332,
                "pitch": 42,
                "velocity": 59,
                "instrument": "keys"
              },
              {
                "t_on": 56.618668,
                "t_off": 57.902001,
                "pitch": 47,
                "velocity": 60,
                "instrument": "keys"
              },
              {
                "t_on": 56.629333,
                "t_off": 57.902001,
                "pitch": 45,
                "velocity": 59,
                "instrument": "keys"
              },
              {
                "t_on": 56.629333,
                "t_off": 58.605999,
                "pitch": 53,
                "velocity": 59,
                "instrument": "keys"
              },
              {
                "t_on": 56.746666,
                "t_off": 56.994666,
                "pitch": 59,
                "velocity": 86,
                "instrument": "keys"
              },
              {
                "t_on": 56.757332,
                "t_off": 57.262333,
                "pitch": 61,
                "velocity": 84,
                "instrument": "keys"
              },
              {
                "t_on": 56.778667,
                "t_off": 56.874665,
                "pitch": 41,
                "velocity": 92,
                "instrument": "keys"
              },
              {
                "t_on": 56.778667,
                "t_off": 56.917332,
                "pitch": 64,
                "velocity": 81,
                "instrument": "keys"
              },
              {
                "t_on": 56.863998,
                "t_off": 57.013333,
                "pitch": 41,
                "velocity": 91,
                "instrument": "keys"
              },
              {
                "t_on": 56.885334,
                "t_off": 57.28,
                "pitch": 57,
                "velocity": 85,
                "instrument": "keys"
              },
              {
                "t_on": 56.906666,
                "t_off": 57.656666,
                "pitch": 64,
                "velocity": 79,
                "instrument": "keys"
              },
              {
                "t_on": 56.917332,
                "t_off": 57.087998,
                "pitch": 46,
                "velocity": 92,
                "instrument": "keys"
              },
              {
                "t_on": 56.949333,
                "t_off": 57.518002,
                "pitch": 52,
                "velocity": 82,
                "instrument": "keys"
              },
              {
                "t_on": 57.002666,
                "t_off": 57.165332,
                "pitch": 41,
                "velocity": 77,
                "instrument": "keys"
              },
              {
                "t_on": 57.002666,
                "t_off": 57.165332,
                "pitch": 59,
                "velocity": 75,
                "instrument": "keys"
              },
              {
                "t_on": 57.034668,
                "t_off": 57.485332,
                "pitch": 54,
                "velocity": 77,
                "instrument": "keys"
              },
              {
                "t_on": 57.077332,
                "t_off": 57.173333,
                "pitch": 46,
                "velocity": 84,
                "instrument": "keys"
              },
              {
                "t_on": 57.162666,
                "t_off": 57.521732,
                "pitch": 46,
                "velocity": 77,
                "instrument": "keys"
              },
              {
                "t_on": 57.173332,
                "t_off": 57.336002,
                "pitch": 41,
                "velocity": 70,
                "instrument": "keys"
              },
              {
                "t_on": 57.173332,
                "t_off": 57.398333,
                "pitch": 59,
                "velocity": 68,
                "instrument": "keys"
              },
              {
                "t_on": 57.269333,
                "t_off": 57.726951,
                "pitch": 57,
                "velocity": 59,
                "instrument": "keys"
              },
              {
                "t_on": 57.344002,
                "t_off": 57.933998,
                "pitch": 41,
                "velocity": 60,
                "instrument": "keys"
              },
              {
                "t_on": 57.472,
                "t_off": 57.887204,
                "pitch": 71,
                "velocity": 56,
                "instrument": "keys"
              },
              {
                "t_on": 57.493332,
                "t_off": 57.898667,
                "pitch": 54,
                "velocity": 60,
                "instrument": "keys"
              },
              {
                "t_on": 57.621334,
                "t_off": 57.888001,
                "pitch": 52,
                "velocity": 48,
                "instrument": "keys"
              },
              {
                "t_on": 57.877335,
                "t_off": 57.973332,
                "pitch": 52,
                "velocity": 43,
                "instrument": "keys"
              },
              {
                "t_on": 57.888,
                "t_off": 57.983998,
                "pitch": 54,
                "velocity": 44,
                "instrument": "keys"
              },
              {
                "t_on": 57.962666,
                "t_off": 58.058667,
                "pitch": 52,
                "velocity": 47,
                "instrument": "keys"
              },
              {
                "t_on": 57.973331,
                "t_off": 58.136001,
                "pitch": 54,
                "velocity": 45,
                "instrument": "keys"
              },
              {
                "t_on": 58.048,
                "t_off": 58.144002,
                "pitch": 52,
                "velocity": 50,
                "instrument": "keys"
              },
              {
                "t_on": 58.090668,
                "t_off": 58.805333,
                "pitch": 41,
                "velocity": 51,
                "instrument": "keys"
              },
              {
                "t_on": 58.133335,
                "t_off": 59.011334,
                "pitch": 52,
                "velocity": 65,
                "instrument": "keys"
              },
              {
                "t_on": 58.144001,
                "t_off": 58.893333,
                "pitch": 54,
                "velocity": 70,
                "instrument": "keys"
              },
              {
                "t_on": 58.197334,
                "t_off": 58.630874,
                "pitch": 46,
                "velocity": 68,
                "instrument": "keys"
              },
              {
                "t_on": 58.261333,
                "t_off": 59.396333,
                "pitch": 57,
                "velocity": 63,
                "instrument": "keys"
              },
              {
                "t_on": 58.271999,
                "t_off": 58.861335,
                "pitch": 59,
                "velocity": 64,
                "instrument": "keys"
              },
              {
                "t_on": 58.282665,
                "t_off": 59.182,
                "pitch": 47,
                "velocity": 64,
                "instrument": "keys"
              },
              {
                "t_on": 58.314667,
                "t_off": 59.344667,
                "pitch": 48,
                "velocity": 63,
                "instrument": "keys"
              },
              {
                "t_on": 58.581333,
                "t_off": 59.203335,
                "pitch": 58,
                "velocity": 57,
                "instrument": "keys"
              },
              {
                "t_on": 58.794666,
                "t_off": 59.196,
                "pitch": 41,
                "velocity": 67,
                "instrument": "keys"
              },
              {
                "t_on": 58.869335,
                "t_off": 58.965333,
                "pitch": 59,
                "velocity": 57,
                "instrument": "keys"
              },
              {
                "t_on": 58.901333,
                "t_off": 58.997334,
                "pitch": 54,
                "velocity": 54,
                "instrument": "keys"
              },
              {
                "t_on": 58.954666,
                "t_off": 59.424667,
                "pitch": 59,
                "velocity": 53,
                "instrument": "keys"
              },
              {
                "t_on": 58.986668,
                "t_off": 59.386667,
                "pitch": 54,
                "velocity": 55,
                "instrument": "keys"
              },
              {
                "t_on": 59.018665,
                "t_off": 59.383667,
                "pitch": 46,
                "velocity": 57,
                "instrument": "keys"
              },
              {
                "t_on": 59.040001,
                "t_off": 59.405,
                "pitch": 86,
                "velocity": 48,
                "instrument": "keys"
              },
              {
                "t_on": 59.136002,
                "t_off": 59.402665,
                "pitch": 60,
                "velocity": 62,
                "instrument": "keys"
              },
              {
                "t_on": 59.136002,
                "t_off": 59.594666,
                "pitch": 73,
                "velocity": 64,
                "instrument": "keys"
              },
              {
                "t_on": 59.146667,
                "t_off": 59.821999,
                "pitch": 61,
                "velocity": 67,
                "instrument": "keys"
              },
              {
                "t_on": 59.146667,
                "t_off": 59.454151,
                "pitch": 71,
                "velocity": 66,
                "instrument": "keys"
              },
              {
                "t_on": 59.157333,
                "t_off": 59.417333,
                "pitch": 76,
                "velocity": 59,
                "instrument": "keys"
              },
              {
                "t_on": 59.196,
                "t_off": 59.386,
                "pitch": 41,
                "velocity": 73,
                "instrument": "keys"
              },
              {
                "t_on": 59.317333,
                "t_off": 59.479999,
                "pitch": 72,
                "velocity": 99,
                "instrument": "keys"
              },
              {
                "t_on": 59.360001,
                "t_off": 60.145,
                "pitch": 91,
                "velocity": 77,
                "instrument": "keys"
              },
              {
                "t_on": 59.391998,
                "t_off": 59.488,
                "pitch": 60,
                "velocity": 76,
                "instrument": "keys"
              },
              {
                "t_on": 59.477333,
                "t_off": 59.639999,
                "pitch": 60,
                "velocity": 59,
                "instrument": "keys"
              },
              {
                "t_on": 59.487999,
                "t_off": 59.637334,
                "pitch": 72,
                "velocity": 69,
                "instrument": "keys"
              },
              {
                "t_on": 59.573334,
                "t_off": 60.218333,
                "pitch": 84,
                "velocity": 50,
                "instrument": "keys"
              },
              {
                "t_on": 59.584,
                "t_off": 60.229,
                "pitch": 71,
                "velocity": 60,
                "instrument": "keys"
              },
              {
                "t_on": 59.584,
                "t_off": 59.786668,
                "pitch": 73,
                "velocity": 62,
                "instrument": "keys"
              },
              {
                "t_on": 59.626667,
                "t_off": 59.722668,
                "pitch": 72,
                "velocity": 74,
                "instrument": "keys"
              },
              {
                "t_on": 59.647999,
                "t_off": 59.807999,
                "pitch": 60,
                "velocity": 70,
                "instrument": "keys"
              },
              {
                "t_on": 59.712002,
                "t_off": 59.807999,
                "pitch": 72,
                "velocity": 74,
                "instrument": "keys"
              },
              {
                "t_on": 59.776001,
                "t_off": 59.871999,
                "pitch": 73,
                "velocity": 65,
                "instrument": "keys"
              },
              {
                "t_on": 59.797333,
                "t_off": 59.893334,
                "pitch": 60,
                "velocity": 56,
                "instrument": "keys"
              },
              {
                "t_on": 59.797333,
                "t_off": 60.458669,
                "pitch": 72,
                "velocity": 64,
                "instrument": "keys"
              },
              {
                "t_on": 59.818668,
                "t_off": 60.353667,
                "pitch": 86,
                "velocity": 53,
                "instrument": "keys"
              },
              {
                "t_on": 59.861332,
                "t_off": 59.967999,
                "pitch": 73,
                "velocity": 60,
                "instrument": "keys"
              },
              {
                "t_on": 59.882668,
                "t_off": 60.312,
                "pitch": 60,
                "velocity": 56,
                "instrument": "keys"
              },
              {
                "t_on": 59.957333,
                "t_off": 60.637333,
                "pitch": 73,
                "velocity": 54,
                "instrument": "keys"
              },
              {
                "t_on": 60.010666,
                "t_off": 60.655667,
                "pitch": 61,
                "velocity": 51,
                "instrument": "keys"
              },
              {
                "t_on": 60.032001,
                "t_off": 60.600666,
                "pitch": 42,
                "velocity": 51,
                "instrument": "keys"
              },
              {
                "t_on": 60.096001,
                "t_off": 60.636,
                "pitch": 48,
                "velocity": 57,
                "instrument": "keys"
              },
              {
                "t_on": 60.127998,
                "t_off": 61.112667,
                "pitch": 33,
                "velocity": 48,
                "instrument": "keys"
              },
              {
                "t_on": 60.181332,
                "t_off": 60.651333,
                "pitch": 76,
                "velocity": 49,
                "instrument": "keys"
              },
              {
                "t_on": 60.192001,
                "t_off": 61.112667,
                "pitch": 41,
                "velocity": 50,
                "instrument": "keys"
              },
              {
                "t_on": 60.32,
                "t_off": 60.416001,
                "pitch": 60,
                "velocity": 41,
                "instrument": "keys"
              },
              {
                "t_on": 60.405334,
                "t_off": 61.07,
                "pitch": 60,
                "velocity": 40,
                "instrument": "keys"
              },
              {
                "t_on": 60.448002,
                "t_off": 60.543999,
                "pitch": 72,
                "velocity": 43,
                "instrument": "keys"
              },
              {
                "t_on": 60.48,
                "t_off": 60.919281,
                "pitch": 64,
                "velocity": 45,
                "instrument": "keys"
              },
              {
                "t_on": 60.533333,
                "t_off": 60.629334,
                "pitch": 53,
                "velocity": 51,
                "instrument": "keys"
              },
              {
                "t_on": 60.533333,
                "t_off": 60.693333,
                "pitch": 72,
                "velocity": 50,
                "instrument": "keys"
              },
              {
                "t_on": 60.618668,
                "t_off": 61.142374,
                "pitch": 53,
                "velocity": 43,
                "instrument": "keys"
              },
              {
                "t_on": 60.682667,
                "t_off": 61.050864,
                "pitch": 72,
                "velocity": 38,
                "instrument": "keys"
              },
              {
                "t_on": 60.885334,
                "t_off": 60.981332,
                "pitch": 89,
                "velocity": 38,
                "instrument": "keys"
              },
              {
                "t_on": 60.970665,
                "t_off": 61.281207,
                "pitch": 89,
                "velocity": 37,
                "instrument": "keys"
              },
              {
                "t_on": 61.717335,
                "t_off": 61.813332,
                "pitch": 69,
                "velocity": 41,
                "instrument": "keys"
              },
              {
                "t_on": 61.717335,
                "t_off": 62.339333,
                "pitch": 81,
                "velocity": 36,
                "instrument": "keys"
              },
              {
                "t_on": 61.802666,
                "t_off": 62.212356,
                "pitch": 69,
                "velocity": 43,
                "instrument": "keys"
              },
              {
                "t_on": 61.877335,
                "t_off": 61.973332,
                "pitch": 88,
                "velocity": 38,
                "instrument": "keys"
              },
              {
                "t_on": 61.962666,
                "t_off": 62.058667,
                "pitch": 88,
                "velocity": 38,
                "instrument": "keys"
              },
              {
                "t_on": 62.048,
                "t_off": 62.144002,
                "pitch": 88,
                "velocity": 36,
                "instrument": "keys"
              },
              {
                "t_on": 62.133335,
                "t_off": 62.229333,
                "pitch": 88,
                "velocity": 36,
                "instrument": "keys"
              },
              {
                "t_on": 62.218666,
                "t_off": 62.314668,
                "pitch": 88,
                "velocity": 37,
                "instrument": "keys"
              },
              {
                "t_on": 62.304001,
                "t_off": 62.399998,
                "pitch": 88,
                "velocity": 36,
                "instrument": "keys"
              },
              {
                "t_on": 62.389332,
                "t_off": 62.485333,
                "pitch": 88,
                "velocity": 36,
                "instrument": "keys"
              },
              {
                "t_on": 62.474667,
                "t_off": 62.649403,
                "pitch": 88,
                "velocity": 42,
                "instrument": "keys"
              },
              {
                "t_on": 62.528,
                "t_off": 62.624001,
                "pitch": 69,
                "velocity": 46,
                "instrument": "keys"
              },
              {
                "t_on": 62.528,
                "t_off": 62.624001,
                "pitch": 81,
                "velocity": 46,
                "instrument": "keys"
              },
              {
                "t_on": 62.538666,
                "t_off": 62.890081,
                "pitch": 73,
                "velocity": 38,
                "instrument": "keys"
              },
              {
                "t_on": 62.613335,
                "t_off": 62.709332,
                "pitch": 69,
                "velocity": 55,
                "instrument": "keys"
              },
              {
                "t_on": 62.613335,
                "t_off": 62.709332,
                "pitch": 81,
                "velocity": 53,
                "instrument": "keys"
              },
              {
                "t_on": 62.698666,
                "t_off": 62.794667,
                "pitch": 69,
                "velocity": 44,
                "instrument": "keys"
              },
              {
                "t_on": 62.698666,
                "t_off": 62.794667,
                "pitch": 81,
                "velocity": 42,
                "instrument": "keys"
              },
              {
                "t_on": 62.784,
                "t_off": 62.880002,
                "pitch": 69,
                "velocity": 40,
                "instrument": "keys"
              },
              {
                "t_on": 62.784,
                "t_off": 62.880002,
                "pitch": 81,
                "velocity": 39,
                "instrument": "keys"
              },
              {
                "t_on": 62.869335,
                "t_off": 62.965333,
                "pitch": 69,
                "velocity": 38,
                "instrument": "keys"
              },
              {
                "t_on": 62.869335,
                "t_off": 62.965333,
                "pitch": 81,
                "velocity": 36,
                "instrument": "keys"
              },
              {
                "t_on": 62.954666,
                "t_off": 63.050668,
                "pitch": 69,
                "velocity": 40,
                "instrument": "keys"
              },
              {
                "t_on": 62.954666,
                "t_off": 63.421171,
                "pitch": 81,
                "velocity": 39,
                "instrument": "keys"
              },
              {
                "t_on": 62.986668,
                "t_off": 63.210667,
                "pitch": 88,
                "velocity": 37,
                "instrument": "keys"
              },
              {
                "t_on": 63.040001,
                "t_off": 63.419334,
                "pitch": 69,
                "velocity": 46,
                "instrument": "keys"
              },
              {
                "t_on": 63.200001,
                "t_off": 63.295998,
                "pitch": 88,
                "velocity": 36,
                "instrument": "keys"
              },
              {
                "t_on": 63.285332,
                "t_off": 63.545333,
                "pitch": 88,
                "velocity": 36,
                "instrument": "keys"
              },
              {
                "t_on": 63.402668,
                "t_off": 64.259335,
                "pitch": 47,
                "velocity": 44,
                "instrument": "keys"
              },
              {
                "t_on": 63.402668,
                "t_off": 64.558003,
                "pitch": 54,
                "velocity": 47,
                "instrument": "keys"
              },
              {
                "t_on": 63.413334,
                "t_off": 63.914666,
                "pitch": 63,
                "velocity": 55,
                "instrument": "keys"
              },
              {
                "t_on": 63.419334,
                "t_off": 63.574333,
                "pitch": 69,
                "velocity": 49,
                "instrument": "keys"
              },
              {
                "t_on": 63.605335,
                "t_off": 64.005333,
                "pitch": 48,
                "velocity": 53,
                "instrument": "keys"
              },
              {
                "t_on": 63.701332,
                "t_off": 64.301334,
                "pitch": 56,
                "velocity": 69,
                "instrument": "keys"
              },
              {
                "t_on": 63.786667,
                "t_off": 64.396667,
                "pitch": 62,
                "velocity": 50,
                "instrument": "keys"
              },
              {
                "t_on": 63.850666,
                "t_off": 64.023998,
                "pitch": 55,
                "velocity": 59,
                "instrument": "keys"
              },
              {
                "t_on": 63.882668,
                "t_off": 64.242521,
                "pitch": 71,
                "velocity": 50,
                "instrument": "keys"
              },
              {
                "t_on": 63.903999,
                "t_off": 64.245332,
                "pitch": 63,
                "velocity": 53,
                "instrument": "keys"
              },
              {
                "t_on": 63.936001,
                "t_off": 64.245332,
                "pitch": 75,
                "velocity": 57,
                "instrument": "keys"
              },
              {
                "t_on": 63.946667,
                "t_off": 64.149331,
                "pitch": 51,
                "velocity": 48,
                "instrument": "keys"
              },
              {
                "t_on": 63.978668,
                "t_off": 64.339722,
                "pitch": 83,
                "velocity": 49,
                "instrument": "keys"
              },
              {
                "t_on": 64.031998,
                "t_off": 64.127999,
                "pitch": 55,
                "velocity": 48,
                "instrument": "keys"
              },
              {
                "t_on": 64.042664,
                "t_off": 64.213334,
                "pitch": 68,
                "velocity": 46,
                "instrument": "keys"
              },
              {
                "t_on": 64.096001,
                "t_off": 64.192002,
                "pitch": 67,
                "velocity": 42,
                "instrument": "keys"
              },
              {
                "t_on": 64.117332,
                "t_off": 64.213334,
                "pitch": 55,
                "velocity": 47,
                "instrument": "keys"
              },
              {
                "t_on": 64.138664,
                "t_off": 64.888668,
                "pitch": 51,
                "velocity": 40,
                "instrument": "keys"
              },
              {
                "t_on": 64.181335,
                "t_off": 64.574655,
                "pitch": 67,
                "velocity": 44,
                "instrument": "keys"
              },
              {
                "t_on": 64.202667,
                "t_off": 65.304669,
                "pitch": 55,
                "velocity": 47,
                "instrument": "keys"
              },
              {
                "t_on": 64.202667,
                "t_off": 64.298669,
                "pitch": 68,
                "velocity": 52,
                "instrument": "keys"
              },
              {
                "t_on": 64.202667,
                "t_off": 64.597667,
                "pitch": 76,
                "velocity": 52,
                "instrument": "keys"
              },
              {
                "t_on": 64.234665,
                "t_off": 64.447999,
                "pitch": 63,
                "velocity": 47,
                "instrument": "keys"
              },
              {
                "t_on": 64.234665,
                "t_off": 64.330666,
                "pitch": 75,
                "velocity": 53,
                "instrument": "keys"
              },
              {
                "t_on": 64.288002,
                "t_off": 64.384003,
                "pitch": 68,
                "velocity": 64,
                "instrument": "keys"
              },
              {
                "t_on": 64.309334,
                "t_off": 64.557331,
                "pitch": 56,
                "velocity": 65,
                "instrument": "keys"
              },
              {
                "t_on": 64.32,
                "t_off": 64.416001,
                "pitch": 75,
                "velocity": 71,
                "instrument": "keys"
              },
              {
                "t_on": 64.373337,
                "t_off": 64.786565,
                "pitch": 68,
                "velocity": 55,
                "instrument": "keys"
              },
              {
                "t_on": 64.405334,
                "t_off": 64.567996,
                "pitch": 75,
                "velocity": 58,
                "instrument": "keys"
              },
              {
                "t_on": 64.437332,
                "t_off": 64.533334,
                "pitch": 63,
                "velocity": 47,
                "instrument": "keys"
              },
              {
                "t_on": 64.522667,
                "t_off": 65.098664,
                "pitch": 63,
                "velocity": 46,
                "instrument": "keys"
              },
              {
                "t_on": 64.565331,
                "t_off": 65.01783,
                "pitch": 56,
                "velocity": 43,
                "instrument": "keys"
              },
              {
                "t_on": 64.575996,
                "t_off": 64.671998,
                "pitch": 75,
                "velocity": 47,
                "instrument": "keys"
              },
              {
                "t_on": 64.661331,
                "t_off": 64.757333,
                "pitch": 75,
                "velocity": 40,
                "instrument": "keys"
              },
              {
                "t_on": 64.746666,
                "t_off": 64.863999,
                "pitch": 75,
                "velocity": 40,
                "instrument": "keys"
              },
              {
                "t_on": 64.810669,
                "t_off": 65.138661,
                "pitch": 87,
                "velocity": 36,
                "instrument": "keys"
              },
              {
                "t_on": 64.853333,
                "t_off": 64.949334,
                "pitch": 75,
                "velocity": 36,
                "instrument": "keys"
              },
              {
                "t_on": 64.88533,
                "t_off": 64.981332,
                "pitch": 92,
                "velocity": 37,
                "instrument": "keys"
              },
              {
                "t_on": 64.938667,
                "t_off": 65.034669,
                "pitch": 75,
                "velocity": 38,
                "instrument": "keys"
              },
              {
                "t_on": 64.970665,
                "t_off": 65.540667,
                "pitch": 92,
                "velocity": 37,
                "instrument": "keys"
              },
              {
                "t_on": 65.024002,
                "t_off": 65.120004,
                "pitch": 75,
                "velocity": 47,
                "instrument": "keys"
              },
              {
                "t_on": 65.066666,
                "t_off": 65.504373,
                "pitch": 68,
                "velocity": 39,
                "instrument": "keys"
              },
              {
                "t_on": 65.077332,
                "t_off": 65.337333,
                "pitch": 76,
                "velocity": 43,
                "instrument": "keys"
              },
              {
                "t_on": 65.077332,
                "t_off": 65.372333,
                "pitch": 80,
                "velocity": 37,
                "instrument": "keys"
              },
              {
                "t_on": 65.087997,
                "t_off": 65.258668,
                "pitch": 56,
                "velocity": 39,
                "instrument": "keys"
              },
              {
                "t_on": 65.087997,
                "t_off": 65.28,
                "pitch": 63,
                "velocity": 41,
                "instrument": "keys"
              },
              {
                "t_on": 65.109337,
                "t_off": 65.205331,
                "pitch": 75,
                "velocity": 54,
                "instrument": "keys"
              },
              {
                "t_on": 65.152,
                "t_off": 65.439788,
                "pitch": 87,
                "velocity": 55,
                "instrument": "keys"
              },
              {
                "t_on": 65.194664,
                "t_off": 65.290665,
                "pitch": 75,
                "velocity": 58,
                "instrument": "keys"
              },
              {
                "t_on": 65.248001,
                "t_off": 65.344003,
                "pitch": 56,
                "velocity": 48,
                "instrument": "keys"
              },
              {
                "t_on": 65.269333,
                "t_off": 65.365334,
                "pitch": 63,
                "velocity": 54,
                "instrument": "keys"
              },
              {
                "t_on": 65.279999,
                "t_off": 65.376,
                "pitch": 75,
                "velocity": 59,
                "instrument": "keys"
              },
              {
                "t_on": 65.333336,
                "t_off": 65.891331,
                "pitch": 56,
                "velocity": 47,
                "instrument": "keys"
              },
              {
                "t_on": 65.354668,
                "t_off": 65.450669,
                "pitch": 63,
                "velocity": 52,
                "instrument": "keys"
              },
              {
                "t_on": 65.365334,
                "t_off": 65.461335,
                "pitch": 75,
                "velocity": 55,
                "instrument": "keys"
              },
              {
                "t_on": 65.440002,
                "t_off": 65.535996,
                "pitch": 63,
                "velocity": 49,
                "instrument": "keys"
              },
              {
                "t_on": 65.450668,
                "t_off": 65.54667,
                "pitch": 75,
                "velocity": 51,
                "instrument": "keys"
              },
              {
                "t_on": 65.514664,
                "t_off": 66.051335,
                "pitch": 87,
                "velocity": 38,
                "instrument": "keys"
              },
              {
                "t_on": 65.52533,
                "t_off": 65.621331,
                "pitch": 63,
                "velocity": 45,
                "instrument": "keys"
              },
              {
                "t_on": 65.536003,
                "t_off": 65.631997,
                "pitch": 75,
                "velocity": 46,
                "instrument": "keys"
              },
              {
                "t_on": 65.610664,
                "t_off": 65.909333,
                "pitch": 63,
                "velocity": 41,
                "instrument": "keys"
              },
              {
                "t_on": 65.62133,
                "t_off": 65.717332,
                "pitch": 75,
                "velocity": 43,
                "instrument": "keys"
              },
              {
                "t_on": 65.706665,
                "t_off": 65.802666,
                "pitch": 75,
                "velocity": 38,
                "instrument": "keys"
              },
              {
                "t_on": 65.792,
                "t_off": 65.888001,
                "pitch": 75,
                "velocity": 35,
                "instrument": "keys"
              },
              {
                "t_on": 65.877335,
                "t_off": 65.973336,
                "pitch": 75,
                "velocity": 39,
                "instrument": "keys"
              },
              {
                "t_on": 65.898666,
                "t_off": 66.047997,
                "pitch": 63,
                "velocity": 39,
                "instrument": "keys"
              },
              {
                "t_on": 65.898666,
                "t_off": 66.298667,
                "pitch": 78,
                "velocity": 41,
                "instrument": "keys"
              },
              {
                "t_on": 65.909332,
                "t_off": 66.005334,
                "pitch": 66,
                "velocity": 48,
                "instrument": "keys"
              },
              {
                "t_on": 65.919998,
                "t_off": 66.016,
                "pitch": 56,
                "velocity": 41,
                "instrument": "keys"
              },
              {
                "t_on": 65.919998,
                "t_off": 66.016,
                "pitch": 64,
                "velocity": 46,
                "instrument": "keys"
              },
              {
                "t_on": 65.962669,
                "t_off": 66.058663,
                "pitch": 75,
                "velocity": 58,
                "instrument": "keys"
              },
              {
                "t_on": 65.994667,
                "t_off": 66.459667,
                "pitch": 66,
                "velocity": 68,
                "instrument": "keys"
              },
              {
                "t_on": 66.005333,
                "t_off": 66.101334,
                "pitch": 56,
                "velocity": 64,
                "instrument": "keys"
              },
              {
                "t_on": 66.005333,
                "t_off": 66.300333,
                "pitch": 64,
                "velocity": 67,
                "instrument": "keys"
              },
              {
                "t_on": 66.037331,
                "t_off": 66.133332,
                "pitch": 63,
                "velocity": 60,
                "instrument": "keys"
              },
              {
                "t_on": 66.047997,
                "t_off": 66.143998,
                "pitch": 75,
                "velocity": 60,
                "instrument": "keys"
              },
              {
                "t_on": 66.090668,
                "t_off": 66.344995,
                "pitch": 56,
                "velocity": 51,
                "instrument": "keys"
              },
              {
                "t_on": 66.122665,
                "t_off": 66.357331,
                "pitch": 63,
                "velocity": 49,
                "instrument": "keys"
              },
              {
                "t_on": 66.133331,
                "t_off": 66.229333,
                "pitch": 75,
                "velocity": 49,
                "instrument": "keys"
              },
              {
                "t_on": 66.218666,
                "t_off": 66.314668,
                "pitch": 75,
                "velocity": 42,
                "instrument": "keys"
              },
              {
                "t_on": 66.304001,
                "t_off": 66.400002,
                "pitch": 75,
                "velocity": 38,
                "instrument": "keys"
              },
              {
                "t_on": 66.346664,
                "t_off": 66.442666,
                "pitch": 63,
                "velocity": 40,
                "instrument": "keys"
              },
              {
                "t_on": 66.389336,
                "t_off": 66.485337,
                "pitch": 75,
                "velocity": 39,
                "instrument": "keys"
              },
              {
                "t_on": 66.431999,
                "t_off": 66.528001,
                "pitch": 63,
                "velocity": 41,
                "instrument": "keys"
              },
              {
                "t_on": 66.47467,
                "t_off": 66.796,
                "pitch": 75,
                "velocity": 39,
                "instrument": "keys"
              },
              {
                "t_on": 66.517334,
                "t_off": 66.796,
                "pitch": 63,
                "velocity": 38,
                "instrument": "keys"
              },
              {
                "t_on": 66.688004,
                "t_off": 66.913,
                "pitch": 91,
                "velocity": 35,
                "instrument": "keys"
              },
              {
                "t_on": 66.796,
                "t_off": 67.318699,
                "pitch": 63,
                "velocity": 47,
                "instrument": "keys"
              },
              {
                "t_on": 66.796,
                "t_off": 67.318699,
                "pitch": 75,
                "velocity": 45,
                "instrument": "keys"
              },
              {
                "t_on": 66.816002,
                "t_off": 67.331333,
                "pitch": 62,
                "velocity": 63,
                "instrument": "keys"
              },
              {
                "t_on": 66.837334,
                "t_off": 67.482333,
                "pitch": 34,
                "velocity": 54,
                "instrument": "keys"
              },
              {
                "t_on": 66.848,
                "t_off": 67.502003,
                "pitch": 68,
                "velocity": 56,
                "instrument": "keys"
              },
              {
                "t_on": 66.890663,
                "t_off": 67.705667,
                "pitch": 29,
                "velocity": 44,
                "instrument": "keys"
              },
              {
                "t_on": 66.975998,
                "t_off": 67.365627,
                "pitch": 90,
                "velocity": 39,
                "instrument": "keys"
              },
              {
                "t_on": 66.99733,
                "t_off": 67.253335,
                "pitch": 67,
                "velocity": 41,
                "instrument": "keys"
              },
              {
                "t_on": 67.008003,
                "t_off": 67.328004,
                "pitch": 79,
                "velocity": 40,
                "instrument": "keys"
              },
              {
                "t_on": 67.082664,
                "t_off": 67.356181,
                "pitch": 80,
                "velocity": 39,
                "instrument": "keys"
              },
              {
                "t_on": 67.242668,
                "t_off": 67.33867,
                "pitch": 67,
                "velocity": 36,
                "instrument": "keys"
              },
              {
                "t_on": 67.317337,
                "t_off": 67.663844,
                "pitch": 79,
                "velocity": 35,
                "instrument": "keys"
              },
              {
                "t_on": 67.328003,
                "t_off": 67.749726,
                "pitch": 67,
                "velocity": 36,
                "instrument": "keys"
              },
              {
                "t_on": 67.594666,
                "t_off": 68.163334,
                "pitch": 55,
                "velocity": 40,
                "instrument": "keys"
              },
              {
                "t_on": 67.605331,
                "t_off": 68.301998,
                "pitch": 68,
                "velocity": 49,
                "instrument": "keys"
              },
              {
                "t_on": 67.605331,
                "t_off": 67.865333,
                "pitch": 71,
                "velocity": 40,
                "instrument": "keys"
              },
              {
                "t_on": 67.615997,
                "t_off": 68.205998,
                "pitch": 66,
                "velocity": 43,
                "instrument": "keys"
              },
              {
                "t_on": 67.722664,
                "t_off": 68.119142,
                "pitch": 62,
                "velocity": 48,
                "instrument": "keys"
              },
              {
                "t_on": 67.73333,
                "t_off": 68.24501,
                "pitch": 49,
                "velocity": 47,
                "instrument": "keys"
              },
              {
                "t_on": 67.797333,
                "t_off": 67.893334,
                "pitch": 79,
                "velocity": 43,
                "instrument": "keys"
              },
              {
                "t_on": 67.839996,
                "t_off": 67.935998,
                "pitch": 67,
                "velocity": 44,
                "instrument": "keys"
              },
              {
                "t_on": 67.882668,
                "t_off": 68.557331,
                "pitch": 79,
                "velocity": 41,
                "instrument": "keys"
              },
              {
                "t_on": 67.925331,
                "t_off": 68.021333,
                "pitch": 67,
                "velocity": 42,
                "instrument": "keys"
              },
              {
                "t_on": 68.010666,
                "t_off": 68.202668,
                "pitch": 67,
                "velocity": 36,
                "instrument": "keys"
              },
              {
                "t_on": 68.192001,
                "t_off": 68.288003,
                "pitch": 67,
                "velocity": 35,
                "instrument": "keys"
              },
              {
                "t_on": 68.277336,
                "t_off": 68.492,
                "pitch": 67,
                "velocity": 42,
                "instrument": "keys"
              },
              {
                "t_on": 68.447998,
                "t_off": 68.543999,
                "pitch": 68,
                "velocity": 45,
                "instrument": "keys"
              },
              {
                "t_on": 68.447998,
                "t_off": 69.053,
                "pitch": 78,
                "velocity": 42,
                "instrument": "keys"
              },
              {
                "t_on": 68.458664,
                "t_off": 68.554665,
                "pitch": 63,
                "velocity": 47,
                "instrument": "keys"
              },
              {
                "t_on": 68.480003,
                "t_off": 68.91,
                "pitch": 56,
                "velocity": 43,
                "instrument": "keys"
              },
              {
                "t_on": 68.492,
                "t_off": 69.23,
                "pitch": 67,
                "velocity": 49,
                "instrument": "keys"
              },
              {
                "t_on": 68.533333,
                "t_off": 69.315335,
                "pitch": 68,
                "velocity": 66,
                "instrument": "keys"
              },
              {
                "t_on": 68.543999,
                "t_off": 68.64,
                "pitch": 63,
                "velocity": 66,
                "instrument": "keys"
              },
              {
                "t_on": 68.554665,
                "t_off": 69.272663,
                "pitch": 75,
                "velocity": 56,
                "instrument": "keys"
              },
              {
                "t_on": 68.565331,
                "t_off": 68.895333,
                "pitch": 79,
                "velocity": 51,
                "instrument": "keys"
              },
              {
                "t_on": 68.629333,
                "t_off": 69.400669,
                "pitch": 63,
                "velocity": 51,
                "instrument": "keys"
              },
              {
                "t_on": 68.704002,
                "t_off": 68.799996,
                "pitch": 91,
                "velocity": 46,
                "instrument": "keys"
              },
              {
                "t_on": 68.78933,
                "t_off": 68.885331,
                "pitch": 91,
                "velocity": 41,
                "instrument": "keys"
              },
              {
                "t_on": 68.874664,
                "t_off": 68.970666,
                "pitch": 91,
                "velocity": 36,
                "instrument": "keys"
              },
              {
                "t_on": 68.959999,
                "t_off": 69.380551,
                "pitch": 91,
                "velocity": 35,
                "instrument": "keys"
              },
              {
                "t_on": 69.290665,
                "t_off": 69.633985,
                "pitch": 78,
                "velocity": 37,
                "instrument": "keys"
              },
              {
                "t_on": 69.301331,
                "t_off": 69.561333,
                "pitch": 66,
                "velocity": 42,
                "instrument": "keys"
              },
              {
                "t_on": 69.333336,
                "t_off": 69.42933,
                "pitch": 62,
                "velocity": 44,
                "instrument": "keys"
              },
              {
                "t_on": 69.354668,
                "t_off": 69.77144,
                "pitch": 65,
                "velocity": 62,
                "instrument": "keys"
              },
              {
                "t_on": 69.418663,
                "t_off": 69.514664,
                "pitch": 62,
                "velocity": 53,
                "instrument": "keys"
              },
              {
                "t_on": 69.503998,
                "t_off": 69.914088,
                "pitch": 62,
                "velocity": 46,
                "instrument": "keys"
              },
              {
                "t_on": 70.143997,
                "t_off": 70.925999,
                "pitch": 54,
                "velocity": 51,
                "instrument": "keys"
              },
              {
                "t_on": 70.165337,
                "t_off": 70.600333,
                "pitch": 39,
                "velocity": 43,
                "instrument": "keys"
              },
              {
                "t_on": 70.165337,
                "t_off": 70.600333,
                "pitch": 48,
                "velocity": 42,
                "instrument": "keys"
              },
              {
                "t_on": 70.176003,
                "t_off": 70.711,
                "pitch": 46,
                "velocity": 46,
                "instrument": "keys"
              },
              {
                "t_on": 70.176003,
                "t_off": 70.711,
                "pitch": 52,
                "velocity": 51,
                "instrument": "keys"
              },
              {
                "t_on": 70.176003,
                "t_off": 71.040002,
                "pitch": 62,
                "velocity": 50,
                "instrument": "keys"
              },
              {
                "t_on": 70.229332,
                "t_off": 70.325333,
                "pitch": 61,
                "velocity": 79,
                "instrument": "keys"
              },
              {
                "t_on": 70.239998,
                "t_off": 70.335999,
                "pitch": 50,
                "velocity": 75,
                "instrument": "keys"
              },
              {
                "t_on": 70.250664,
                "t_off": 70.96867,
                "pitch": 53,
                "velocity": 81,
                "instrument": "keys"
              },
              {
                "t_on": 70.314667,
                "t_off": 70.669401,
                "pitch": 61,
                "velocity": 66,
                "instrument": "keys"
              },
              {
                "t_on": 70.325333,
                "t_off": 70.585333,
                "pitch": 50,
                "velocity": 61,
                "instrument": "keys"
              },
              {
                "t_on": 70.99733,
                "t_off": 71.683331,
                "pitch": 61,
                "velocity": 42,
                "instrument": "keys"
              },
              {
                "t_on": 71.008003,
                "t_off": 71.25721,
                "pitch": 46,
                "velocity": 38,
                "instrument": "keys"
              },
              {
                "t_on": 71.008003,
                "t_off": 71.518099,
                "pitch": 59,
                "velocity": 39,
                "instrument": "keys"
              },
              {
                "t_on": 71.018669,
                "t_off": 71.409742,
                "pitch": 57,
                "velocity": 40,
                "instrument": "keys"
              },
              {
                "t_on": 71.029335,
                "t_off": 71.125336,
                "pitch": 62,
                "velocity": 52,
                "instrument": "keys"
              },
              {
                "t_on": 71.09333,
                "t_off": 71.318333,
                "pitch": 74,
                "velocity": 48,
                "instrument": "keys"
              },
              {
                "t_on": 71.11467,
                "t_off": 71.210664,
                "pitch": 62,
                "velocity": 46,
                "instrument": "keys"
              },
              {
                "t_on": 71.199997,
                "t_off": 71.295998,
                "pitch": 62,
                "velocity": 44,
                "instrument": "keys"
              },
              {
                "t_on": 71.285332,
                "t_off": 71.402665,
                "pitch": 62,
                "velocity": 43,
                "instrument": "keys"
              },
              {
                "t_on": 71.391998,
                "t_off": 71.488,
                "pitch": 62,
                "velocity": 36,
                "instrument": "keys"
              },
              {
                "t_on": 71.477333,
                "t_off": 71.864002,
                "pitch": 62,
                "velocity": 36,
                "instrument": "keys"
              },
              {
                "t_on": 71.82933,
                "t_off": 72.286554,
                "pitch": 71,
                "velocity": 46,
                "instrument": "keys"
              },
              {
                "t_on": 71.872002,
                "t_off": 72.064004,
                "pitch": 62,
                "velocity": 52,
                "instrument": "keys"
              },
              {
                "t_on": 71.872002,
                "t_off": 72.439,
                "pitch": 70,
                "velocity": 47,
                "instrument": "keys"
              },
              {
                "t_on": 71.872002,
                "t_off": 72.064004,
                "pitch": 74,
                "velocity": 46,
                "instrument": "keys"
              },
              {
                "t_on": 71.925331,
                "t_off": 72.021333,
                "pitch": 86,
                "velocity": 65,
                "instrument": "keys"
              },
              {
                "t_on": 71.978668,
                "t_off": 72.255997,
                "pitch": 61,
                "velocity": 60,
                "instrument": "keys"
              },
              {
                "t_on": 72.010666,
                "t_off": 72.299121,
                "pitch": 86,
                "velocity": 54,
                "instrument": "keys"
              },
              {
                "t_on": 72.053337,
                "t_off": 72.149331,
                "pitch": 62,
                "velocity": 52,
                "instrument": "keys"
              },
              {
                "t_on": 72.053337,
                "t_off": 72.304,
                "pitch": 74,
                "velocity": 46,
                "instrument": "keys"
              },
              {
                "t_on": 72.138664,
                "t_off": 72.296,
                "pitch": 62,
                "velocity": 44,
                "instrument": "keys"
              },
              {
                "t_on": 72.245331,
                "t_off": 72.341332,
                "pitch": 61,
                "velocity": 54,
                "instrument": "keys"
              },
              {
                "t_on": 72.245331,
                "t_off": 72.458665,
                "pitch": 73,
                "velocity": 54,
                "instrument": "keys"
              },
              {
                "t_on": 72.277336,
                "t_off": 72.384003,
                "pitch": 72,
                "velocity": 50,
                "instrument": "keys"
              },
              {
                "t_on": 72.304,
                "t_off": 72.508,
                "pitch": 62,
                "velocity": 67,
                "instrument": "keys"
              },
              {
                "t_on": 72.304,
                "t_off": 72.460189,
                "pitch": 74,
                "velocity": 52,
                "instrument": "keys"
              },
              {
                "t_on": 72.330666,
                "t_off": 72.695667,
                "pitch": 61,
                "velocity": 74,
                "instrument": "keys"
              },
              {
                "t_on": 72.373337,
                "t_off": 72.508,
                "pitch": 72,
                "velocity": 64,
                "instrument": "keys"
              },
              {
                "t_on": 72.447998,
                "t_off": 73.079997,
                "pitch": 73,
                "velocity": 69,
                "instrument": "keys"
              },
              {
                "t_on": 72.458664,
                "t_off": 73.133999,
                "pitch": 83,
                "velocity": 68,
                "instrument": "keys"
              },
              {
                "t_on": 72.458664,
                "t_off": 73.383667,
                "pitch": 90,
                "velocity": 66,
                "instrument": "keys"
              },
              {
                "t_on": 72.46933,
                "t_off": 73.359333,
                "pitch": 81,
                "velocity": 64,
                "instrument": "keys"
              },
              {
                "t_on": 72.508,
                "t_off": 72.717334,
                "pitch": 62,
                "velocity": 83,
                "instrument": "keys"
              },
              {
                "t_on": 72.508,
                "t_off": 73.175998,
                "pitch": 72,
                "velocity": 89,
                "instrument": "keys"
              },
              {
                "t_on": 72.618668,
                "t_off": 72.714669,
                "pitch": 74,
                "velocity": 100,
                "instrument": "keys"
              },
              {
                "t_on": 72.704002,
                "t_off": 72.799996,
                "pitch": 74,
                "velocity": 84,
                "instrument": "keys"
              },
              {
                "t_on": 72.725334,
                "t_off": 72.821336,
                "pitch": 62,
                "velocity": 75,
                "instrument": "keys"
              },
              {
                "t_on": 72.78933,
                "t_off": 72.885331,
                "pitch": 74,
                "velocity": 73,
                "instrument": "keys"
              },
              {
                "t_on": 72.810669,
                "t_off": 72.90667,
                "pitch": 62,
                "velocity": 68,
                "instrument": "keys"
              },
              {
                "t_on": 72.874664,
                "t_off": 72.970666,
                "pitch": 74,
                "velocity": 69,
                "instrument": "keys"
              },
              {
                "t_on": 72.88533,
                "t_off": 73.390333,
                "pitch": 93,
                "velocity": 61,
                "instrument": "keys"
              },
              {
                "t_on": 72.896004,
                "t_off": 72.991998,
                "pitch": 62,
                "velocity": 66,
                "instrument": "keys"
              },
              {
                "t_on": 72.959999,
                "t_off": 73.136,
                "pitch": 74,
                "velocity": 66,
                "instrument": "keys"
              },
              {
                "t_on": 72.981331,
                "t_off": 73.136,
                "pitch": 62,
                "velocity": 64,
                "instrument": "keys"
              },
              {
                "t_on": 73.087997,
                "t_off": 73.873,
                "pitch": 73,
                "velocity": 65,
                "instrument": "keys"
              },
              {
                "t_on": 73.098663,
                "t_off": 73.493667,
                "pitch": 71,
                "velocity": 64,
                "instrument": "keys"
              },
              {
                "t_on": 73.109337,
                "t_off": 73.407998,
                "pitch": 60,
                "velocity": 64,
                "instrument": "keys"
              },
              {
                "t_on": 73.144,
                "t_off": 73.894,
                "pitch": 62,
                "velocity": 88,
                "instrument": "keys"
              },
              {
                "t_on": 73.144,
                "t_off": 73.894,
                "pitch": 74,
                "velocity": 90,
                "instrument": "keys"
              },
              {
                "t_on": 73.183998,
                "t_off": 73.290665,
                "pitch": 72,
                "velocity": 101,
                "instrument": "keys"
              },
              {
                "t_on": 73.258667,
                "t_off": 73.354668,
                "pitch": 61,
                "velocity": 89,
                "instrument": "keys"
              },
              {
                "t_on": 73.279999,
                "t_off": 73.442668,
                "pitch": 72,
                "velocity": 85,
                "instrument": "keys"
              },
              {
                "t_on": 73.344002,
                "t_off": 73.674,
                "pitch": 61,
                "velocity": 71,
                "instrument": "keys"
              },
              {
                "t_on": 73.397331,
                "t_off": 73.574,
                "pitch": 60,
                "velocity": 66,
                "instrument": "keys"
              },
              {
                "t_on": 73.397331,
                "t_off": 73.902333,
                "pitch": 80,
                "velocity": 55,
                "instrument": "keys"
              },
              {
                "t_on": 73.450668,
                "t_off": 73.885667,
                "pitch": 72,
                "velocity": 54,
                "instrument": "keys"
              },
              {
                "t_on": 73.536003,
                "t_off": 75.389667,
                "pitch": 42,
                "velocity": 54,
                "instrument": "keys"
              },
              {
                "t_on": 73.536003,
                "t_off": 74.648663,
                "pitch": 49,
                "velocity": 54,
                "instrument": "keys"
              },
              {
                "t_on": 73.546669,
                "t_off": 74.680668,
                "pitch": 43,
                "velocity": 50,
                "instrument": "keys"
              },
              {
                "t_on": 73.546669,
                "t_off": 75.032666,
                "pitch": 53,
                "velocity": 57,
                "instrument": "keys"
              },
              {
                "t_on": 73.557335,
                "t_off": 74.670002,
                "pitch": 55,
                "velocity": 60,
                "instrument": "keys"
              },
              {
                "t_on": 73.574,
                "t_off": 73.944003,
                "pitch": 60,
                "velocity": 78,
                "instrument": "keys"
              },
              {
                "t_on": 73.685333,
                "t_off": 75.191997,
                "pitch": 61,
                "velocity": 99,
                "instrument": "keys"
              },
              {
                "t_on": 73.866669,
                "t_off": 74.029331,
                "pitch": 48,
                "velocity": 79,
                "instrument": "keys"
              },
              {
                "t_on": 73.888,
                "t_off": 74.388,
                "pitch": 44,
                "velocity": 68,
                "instrument": "keys"
              },
              {
                "t_on": 73.898666,
                "t_off": 74.691334,
                "pitch": 35,
                "velocity": 66,
                "instrument": "keys"
              },
              {
                "t_on": 73.930664,
                "t_off": 74.069337,
                "pitch": 68,
                "velocity": 67,
                "instrument": "keys"
              },
              {
                "t_on": 73.952003,
                "t_off": 74.659336,
                "pitch": 56,
                "velocity": 65,
                "instrument": "keys"
              },
              {
                "t_on": 73.952003,
                "t_off": 74.058663,
                "pitch": 60,
                "velocity": 62,
                "instrument": "keys"
              },
              {
                "t_on": 74.026665,
                "t_off": 74.319609,
                "pitch": 41,
                "velocity": 60,
                "instrument": "keys"
              },
              {
                "t_on": 74.037331,
                "t_off": 74.285335,
                "pitch": 48,
                "velocity": 63,
                "instrument": "keys"
              },
              {
                "t_on": 74.037331,
                "t_off": 74.133332,
                "pitch": 54,
                "velocity": 62,
                "instrument": "keys"
              },
              {
                "t_on": 74.047997,
                "t_off": 74.334189,
                "pitch": 60,
                "velocity": 55,
                "instrument": "keys"
              },
              {
                "t_on": 74.05867,
                "t_off": 74.528667,
                "pitch": 68,
                "velocity": 55,
                "instrument": "keys"
              },
              {
                "t_on": 74.122665,
                "t_off": 74.755337,
                "pitch": 54,
                "velocity": 54,
                "instrument": "keys"
              },
              {
                "t_on": 74.293335,
                "t_off": 74.705384,
                "pitch": 48,
                "velocity": 51,
                "instrument": "keys"
              },
              {
                "t_on": 74.335999,
                "t_off": 74.96867,
                "pitch": 33,
                "velocity": 47,
                "instrument": "keys"
              },
              {
                "t_on": 74.367996,
                "t_off": 74.838044,
                "pitch": 66,
                "velocity": 51,
                "instrument": "keys"
              },
              {
                "t_on": 74.389336,
                "t_off": 74.829788,
                "pitch": 81,
                "velocity": 46,
                "instrument": "keys"
              },
              {
                "t_on": 74.400002,
                "t_off": 75.224002,
                "pitch": 69,
                "velocity": 51,
                "instrument": "keys"
              },
              {
                "t_on": 74.453331,
                "t_off": 74.549332,
                "pitch": 41,
                "velocity": 56,
                "instrument": "keys"
              },
              {
                "t_on": 74.453331,
                "t_off": 74.549332,
                "pitch": 72,
                "velocity": 60,
                "instrument": "keys"
              },
              {
                "t_on": 74.463997,
                "t_off": 74.559998,
                "pitch": 64,
                "velocity": 68,
                "instrument": "keys"
              },
              {
                "t_on": 74.485336,
                "t_off": 74.58133,
                "pitch": 60,
                "velocity": 64,
                "instrument": "keys"
              },
              {
                "t_on": 74.496002,
                "t_off": 74.592004,
                "pitch": 76,
                "velocity": 58,
                "instrument": "keys"
              },
              {
                "t_on": 74.538666,
                "t_off": 75.139332,
                "pitch": 41,
                "velocity": 47,
                "instrument": "keys"
              },
              {
                "t_on": 74.538666,
                "t_off": 74.634667,
                "pitch": 72,
                "velocity": 49,
                "instrument": "keys"
              },
              {
                "t_on": 74.549332,
                "t_off": 74.976183,
                "pitch": 64,
                "velocity": 52,
                "instrument": "keys"
              },
              {
                "t_on": 74.570663,
                "t_off": 74.666665,
                "pitch": 60,
                "velocity": 53,
                "instrument": "keys"
              },
              {
                "t_on": 74.581337,
                "t_off": 74.687997,
                "pitch": 76,
                "velocity": 49,
                "instrument": "keys"
              },
              {
                "t_on": 74.624001,
                "t_off": 74.720002,
                "pitch": 72,
                "velocity": 46,
                "instrument": "keys"
              },
              {
                "t_on": 74.655998,
                "t_off": 74.752,
                "pitch": 60,
                "velocity": 50,
                "instrument": "keys"
              },
              {
                "t_on": 74.67733,
                "t_off": 75.277996,
                "pitch": 76,
                "velocity": 43,
                "instrument": "keys"
              },
              {
                "t_on": 74.709335,
                "t_off": 74.816003,
                "pitch": 72,
                "velocity": 44,
                "instrument": "keys"
              },
              {
                "t_on": 74.741333,
                "t_off": 74.837334,
                "pitch": 60,
                "velocity": 46,
                "instrument": "keys"
              },
              {
                "t_on": 74.805336,
                "t_off": 75.254667,
                "pitch": 72,
                "velocity": 55,
                "instrument": "keys"
              },
              {
                "t_on": 74.826668,
                "t_off": 74.922669,
                "pitch": 60,
                "velocity": 46,
                "instrument": "keys"
              },
              {
                "t_on": 74.912003,
                "t_off": 75.007996,
                "pitch": 60,
                "velocity": 48,
                "instrument": "keys"
              },
              {
                "t_on": 74.99733,
                "t_off": 75.254667,
                "pitch": 60,
                "velocity": 55,
                "instrument": "keys"
              },
              {
                "t_on": 75.125336,
                "t_off": 75.525333,
                "pitch": 88,
                "velocity": 46,
                "instrument": "keys"
              },
              {
                "t_on": 75.199997,
                "t_off": 76.05333,
                "pitch": 61,
                "velocity": 53,
                "instrument": "keys"
              },
              {
                "t_on": 75.221336,
                "t_off": 76.286333,
                "pitch": 54,
                "velocity": 54,
                "instrument": "keys"
              },
              {
                "t_on": 75.232002,
                "t_off": 76.104,
                "pitch": 65,
                "velocity": 55,
                "instrument": "keys"
              },
              {
                "t_on": 75.232002,
                "t_off": 76.104,
                "pitch": 69,
                "velocity": 50,
                "instrument": "keys"
              },
              {
                "t_on": 75.254667,
                "t_off": 75.533336,
                "pitch": 60,
                "velocity": 66,
                "instrument": "keys"
              },
              {
                "t_on": 75.254667,
                "t_off": 75.533336,
                "pitch": 72,
                "velocity": 67,
                "instrument": "keys"
              },
              {
                "t_on": 75.391998,
                "t_off": 75.554668,
                "pitch": 64,
                "velocity": 93,
                "instrument": "keys"
              },
              {
                "t_on": 75.41333,
                "t_off": 76.077999,
                "pitch": 73,
                "velocity": 86,
                "instrument": "keys"
              },
              {
                "t_on": 75.424004,
                "t_off": 76.174,
                "pitch": 79,
                "velocity": 82,
                "instrument": "keys"
              },
              {
                "t_on": 75.434669,
                "t_off": 75.693332,
                "pitch": 84,
                "velocity": 75,
                "instrument": "keys"
              },
              {
                "t_on": 75.445335,
                "t_off": 75.84267,
                "pitch": 87,
                "velocity": 75,
                "instrument": "keys"
              },
              {
                "t_on": 75.541336,
                "t_off": 75.63733,
                "pitch": 53,
                "velocity": 68,
                "instrument": "keys"
              },
              {
                "t_on": 75.541336,
                "t_off": 75.63733,
                "pitch": 60,
                "velocity": 69,
                "instrument": "keys"
              },
              {
                "t_on": 75.541336,
                "t_off": 75.839818,
                "pitch": 72,
                "velocity": 66,
                "instrument": "keys"
              },
              {
                "t_on": 75.541336,
                "t_off": 75.63733,
                "pitch": 76,
                "velocity": 67,
                "instrument": "keys"
              },
              {
                "t_on": 75.562668,
                "t_off": 75.658669,
                "pitch": 64,
                "velocity": 68,
                "instrument": "keys"
              },
              {
                "t_on": 75.626663,
                "t_off": 75.874668,
                "pitch": 53,
                "velocity": 64,
                "instrument": "keys"
              },
              {
                "t_on": 75.626663,
                "t_off": 75.874668,
                "pitch": 60,
                "velocity": 65,
                "instrument": "keys"
              },
              {
                "t_on": 75.626663,
                "t_off": 75.743996,
                "pitch": 76,
                "velocity": 59,
                "instrument": "keys"
              },
              {
                "t_on": 75.648003,
                "t_off": 76.293,
                "pitch": 64,
                "velocity": 66,
                "instrument": "keys"
              },
              {
                "t_on": 75.701332,
                "t_off": 75.882668,
                "pitch": 84,
                "velocity": 53,
                "instrument": "keys"
              },
              {
                "t_on": 75.73333,
                "t_off": 75.861337,
                "pitch": 76,
                "velocity": 51,
                "instrument": "keys"
              },
              {
                "t_on": 75.85067,
                "t_off": 75.946664,
                "pitch": 76,
                "velocity": 50,
                "instrument": "keys"
              },
              {
                "t_on": 75.85067,
                "t_off": 75.968003,
                "pitch": 87,
                "velocity": 50,
                "instrument": "keys"
              },
              {
                "t_on": 75.872002,
                "t_off": 76.377,
                "pitch": 84,
                "velocity": 56,
                "instrument": "keys"
              },
              {
                "t_on": 75.882668,
                "t_off": 75.978669,
                "pitch": 53,
                "velocity": 54,
                "instrument": "keys"
              },
              {
                "t_on": 75.882668,
                "t_off": 75.978669,
                "pitch": 60,
                "velocity": 55,
                "instrument": "keys"
              },
              {
                "t_on": 75.882668,
                "t_off": 75.978669,
                "pitch": 72,
                "velocity": 49,
                "instrument": "keys"
              },
              {
                "t_on": 75.935997,
                "t_off": 76.301,
                "pitch": 76,
                "velocity": 47,
                "instrument": "keys"
              },
              {
                "t_on": 75.957336,
                "t_off": 76.182333,
                "pitch": 87,
                "velocity": 52,
                "instrument": "keys"
              },
              {
                "t_on": 75.968002,
                "t_off": 76.117333,
                "pitch": 53,
                "velocity": 60,
                "instrument": "keys"
              },
              {
                "t_on": 75.968002,
                "t_off": 76.298,
                "pitch": 60,
                "velocity": 62,
                "instrument": "keys"
              },
              {
                "t_on": 75.968002,
                "t_off": 76.104,
                "pitch": 72,
                "velocity": 60,
                "instrument": "keys"
              },
              {
                "t_on": 76.042664,
                "t_off": 76.945333,
                "pitch": 61,
                "velocity": 63,
                "instrument": "keys"
              },
              {
                "t_on": 76.064003,
                "t_off": 77.269,
                "pitch": 67,
                "velocity": 64,
                "instrument": "keys"
              },
              {
                "t_on": 76.104,
                "t_off": 76.91,
                "pitch": 65,
                "velocity": 93,
                "instrument": "keys"
              },
              {
                "t_on": 76.104,
                "t_off": 76.867337,
                "pitch": 69,
                "velocity": 88,
                "instrument": "keys"
              },
              {
                "t_on": 76.104,
                "t_off": 76.468,
                "pitch": 72,
                "velocity": 77,
                "instrument": "keys"
              },
              {
                "t_on": 76.106667,
                "t_off": 76.945333,
                "pitch": 53,
                "velocity": 98,
                "instrument": "keys"
              },
              {
                "t_on": 76.202667,
                "t_off": 76.945333,
                "pitch": 73,
                "velocity": 99,
                "instrument": "keys"
              },
              {
                "t_on": 76.213333,
                "t_off": 76.61115,
                "pitch": 79,
                "velocity": 90,
                "instrument": "keys"
              },
              {
                "t_on": 76.223999,
                "t_off": 77.016667,
                "pitch": 87,
                "velocity": 84,
                "instrument": "keys"
              },
              {
                "t_on": 76.298668,
                "t_off": 76.984669,
                "pitch": 66,
                "velocity": 75,
                "instrument": "keys"
              },
              {
                "t_on": 76.554665,
                "t_off": 77.129667,
                "pitch": 84,
                "velocity": 58,
                "instrument": "keys"
              },
              {
                "t_on": 76.704002,
                "t_off": 76.945333,
                "pitch": 64,
                "velocity": 56,
                "instrument": "keys"
              },
              {
                "t_on": 76.746666,
                "t_off": 77.02652,
                "pitch": 41,
                "velocity": 47,
                "instrument": "keys"
              },
              {
                "t_on": 76.757332,
                "t_off": 77.038642,
                "pitch": 76,
                "velocity": 48,
                "instrument": "keys"
              },
              {
                "t_on": 76.778664,
                "t_off": 76.945333,
                "pitch": 72,
                "velocity": 56,
                "instrument": "keys"
              },
              {
                "t_on": 76.778664,
                "t_off": 77.062613,
                "pitch": 79,
                "velocity": 52,
                "instrument": "keys"
              },
              {
                "t_on": 76.78933,
                "t_off": 76.937333,
                "pitch": 60,
                "velocity": 61,
                "instrument": "keys"
              },
              {
                "t_on": 76.945333,
                "t_off": 77.341667,
                "pitch": 53,
                "velocity": 89,
                "instrument": "keys"
              },
              {
                "t_on": 76.945333,
                "t_off": 78.64,
                "pitch": 60,
                "velocity": 72,
                "instrument": "keys"
              },
              {
                "t_on": 76.945333,
                "t_off": 77.265868,
                "pitch": 61,
                "velocity": 74,
                "instrument": "keys"
              },
              {
                "t_on": 76.945333,
                "t_off": 77.084359,
                "pitch": 64,
                "velocity": 63,
                "instrument": "keys"
              },
              {
                "t_on": 76.945333,
                "t_off": 77.383667,
                "pitch": 72,
                "velocity": 63,
                "instrument": "keys"
              },
              {
                "t_on": 76.945333,
                "t_off": 77.065333,
                "pitch": 73,
                "velocity": 86,
                "instrument": "keys"
              },
              {
                "t_on": 77.013336,
                "t_off": 78.478001,
                "pitch": 38,
                "velocity": 92,
                "instrument": "keys"
              },
              {
                "t_on": 77.120003,
                "t_off": 78.64,
                "pitch": 59,
                "velocity": 86,
                "instrument": "keys"
              },
              {
                "t_on": 77.152,
                "t_off": 78.670002,
                "pitch": 57,
                "velocity": 80,
                "instrument": "keys"
              },
              {
                "t_on": 77.162666,
                "t_off": 78.775,
                "pitch": 84,
                "velocity": 77,
                "instrument": "keys"
              },
              {
                "t_on": 77.32267,
                "t_off": 78.64,
                "pitch": 67,
                "velocity": 77,
                "instrument": "keys"
              },
              {
                "t_on": 77.514664,
                "t_off": 77.610665,
                "pitch": 56,
                "velocity": 57,
                "instrument": "keys"
              },
              {
                "t_on": 77.514664,
                "t_off": 77.610665,
                "pitch": 85,
                "velocity": 59,
                "instrument": "keys"
              },
              {
                "t_on": 77.52533,
                "t_off": 77.621331,
                "pitch": 79,
                "velocity": 56,
                "instrument": "keys"
              },
              {
                "t_on": 77.536003,
                "t_off": 77.631997,
                "pitch": 63,
                "velocity": 55,
                "instrument": "keys"
              },
              {
                "t_on": 77.546669,
                "t_off": 77.64267,
                "pitch": 75,
                "velocity": 54,
                "instrument": "keys"
              },
              {
                "t_on": 77.599998,
                "t_off": 77.88818,
                "pitch": 56,
                "velocity": 56,
                "instrument": "keys"
              },
              {
                "t_on": 77.599998,
                "t_off": 77.891763,
                "pitch": 85,
                "velocity": 57,
                "instrument": "keys"
              },
              {
                "t_on": 77.610664,
                "t_off": 77.898452,
                "pitch": 79,
                "velocity": 55,
                "instrument": "keys"
              },
              {
                "t_on": 77.62133,
                "t_off": 77.907523,
                "pitch": 63,
                "velocity": 55,
                "instrument": "keys"
              },
              {
                "t_on": 77.632004,
                "t_off": 77.962,
                "pitch": 75,
                "velocity": 52,
                "instrument": "keys"
              },
              {
                "t_on": 77.73867,
                "t_off": 78.838667,
                "pitch": 78,
                "velocity": 63,
                "instrument": "keys"
              },
              {
                "t_on": 77.749336,
                "t_off": 78.702,
                "pitch": 80,
                "velocity": 62,
                "instrument": "keys"
              },
              {
                "t_on": 77.760002,
                "t_off": 78.594669,
                "pitch": 64,
                "velocity": 63,
                "instrument": "keys"
              },
              {
                "t_on": 78.581337,
                "t_off": 79.555332,
                "pitch": 73,
                "velocity": 57,
                "instrument": "keys"
              },
              {
                "t_on": 78.602669,
                "t_off": 79.482667,
                "pitch": 64,
                "velocity": 57,
                "instrument": "keys"
              },
              {
                "t_on": 78.64,
                "t_off": 78.83,
                "pitch": 59,
                "velocity": 78,
                "instrument": "keys"
              },
              {
                "t_on": 78.64,
                "t_off": 78.83,
                "pitch": 60,
                "velocity": 70,
                "instrument": "keys"
              },
              {
                "t_on": 78.64,
                "t_off": 79.512669,
                "pitch": 67,
                "velocity": 73,
                "instrument": "keys"
              },
              {
                "t_on": 79.434669,
                "t_off": 80.534667,
                "pitch": 78,
                "velocity": 49,
                "instrument": "keys"
              },
              {
                "t_on": 79.482667,
                "t_off": 80.325333,
                "pitch": 50,
                "velocity": 68,
                "instrument": "keys"
              },
              {
                "t_on": 79.482667,
                "t_off": 80.325333,
                "pitch": 52,
                "velocity": 73,
                "instrument": "keys"
              },
              {
                "t_on": 79.482667,
                "t_off": 80.280002,
                "pitch": 64,
                "velocity": 71,
                "instrument": "keys"
              },
              {
                "t_on": 80.288002,
                "t_off": 81.130669,
                "pitch": 64,
                "velocity": 59,
                "instrument": "keys"
              },
              {
                "t_on": 80.309334,
                "t_off": 81.282665,
                "pitch": 65,
                "velocity": 60,
                "instrument": "keys"
              },
              {
                "t_on": 80.325333,
                "t_off": 80.900333,
                "pitch": 50,
                "velocity": 68,
                "instrument": "keys"
              },
              {
                "t_on": 80.325333,
                "t_off": 80.900333,
                "pitch": 52,
                "velocity": 74,
                "instrument": "keys"
              },
              {
                "t_on": 80.863998,
                "t_off": 81.303996,
                "pitch": 80,
                "velocity": 45,
                "instrument": "keys"
              },
              {
                "t_on": 80.896004,
                "t_off": 81.250305,
                "pitch": 46,
                "velocity": 44,
                "instrument": "keys"
              },
              {
                "t_on": 80.959999,
                "t_off": 81.395,
                "pitch": 92,
                "velocity": 44,
                "instrument": "keys"
              },
              {
                "t_on": 81.120003,
                "t_off": 81.688664,
                "pitch": 64,
                "velocity": 44,
                "instrument": "keys"
              },
              {
                "t_on": 81.141335,
                "t_off": 81.69933,
                "pitch": 66,
                "velocity": 47,
                "instrument": "keys"
              },
              {
                "t_on": 81.20533,
                "t_off": 81.676953,
                "pitch": 61,
                "velocity": 58,
                "instrument": "keys"
              },
              {
                "t_on": 81.290665,
                "t_off": 81.748676,
                "pitch": 65,
                "velocity": 58,
                "instrument": "keys"
              },
              {
                "t_on": 81.311996,
                "t_off": 81.407998,
                "pitch": 80,
                "velocity": 55,
                "instrument": "keys"
              },
              {
                "t_on": 81.397331,
                "t_off": 81.493333,
                "pitch": 80,
                "velocity": 47,
                "instrument": "keys"
              },
              {
                "t_on": 81.418663,
                "t_off": 81.987332,
                "pitch": 92,
                "velocity": 42,
                "instrument": "keys"
              },
              {
                "t_on": 81.482666,
                "t_off": 81.794921,
                "pitch": 80,
                "velocity": 40,
                "instrument": "keys"
              },
              {
                "t_on": 81.962669,
                "t_off": 82.520665,
                "pitch": 83,
                "velocity": 43,
                "instrument": "keys"
              },
              {
                "t_on": 81.973335,
                "t_off": 82.744664,
                "pitch": 66,
                "velocity": 50,
                "instrument": "keys"
              },
              {
                "t_on": 81.973335,
                "t_off": 82.163333,
                "pitch": 78,
                "velocity": 49,
                "instrument": "keys"
              },
              {
                "t_on": 81.984001,
                "t_off": 82.242664,
                "pitch": 80,
                "velocity": 44,
                "instrument": "keys"
              },
              {
                "t_on": 81.984001,
                "t_off": 82.28361,
                "pitch": 84,
                "velocity": 46,
                "instrument": "keys"
              },
              {
                "t_on": 81.994667,
                "t_off": 82.744664,
                "pitch": 64,
                "velocity": 47,
                "instrument": "keys"
              },
              {
                "t_on": 82.047997,
                "t_off": 82.744664,
                "pitch": 95,
                "velocity": 73,
                "instrument": "keys"
              },
              {
                "t_on": 82.080002,
                "t_off": 82.327999,
                "pitch": 65,
                "velocity": 78,
                "instrument": "keys"
              },
              {
                "t_on": 82.122665,
                "t_off": 82.766003,
                "pitch": 93,
                "velocity": 58,
                "instrument": "keys"
              },
              {
                "t_on": 82.176003,
                "t_off": 82.66163,
                "pitch": 92,
                "velocity": 52,
                "instrument": "keys"
              },
              {
                "t_on": 82.250664,
                "t_off": 82.346665,
                "pitch": 80,
                "velocity": 57,
                "instrument": "keys"
              },
              {
                "t_on": 82.335999,
                "t_off": 82.432,
                "pitch": 65,
                "velocity": 57,
                "instrument": "keys"
              },
              {
                "t_on": 82.335999,
                "t_off": 82.432,
                "pitch": 80,
                "velocity": 55,
                "instrument": "keys"
              },
              {
                "t_on": 82.421333,
                "t_off": 82.879998,
                "pitch": 65,
                "velocity": 60,
                "instrument": "keys"
              },
              {
                "t_on": 82.421333,
                "t_off": 82.517335,
                "pitch": 80,
                "velocity": 51,
                "instrument": "keys"
              },
              {
                "t_on": 82.506668,
                "t_off": 82.60267,
                "pitch": 80,
                "velocity": 46,
                "instrument": "keys"
              },
              {
                "t_on": 82.592003,
                "t_off": 82.687997,
                "pitch": 80,
                "velocity": 45,
                "instrument": "keys"
              },
              {
                "t_on": 82.67733,
                "t_off": 82.882663,
                "pitch": 80,
                "velocity": 43,
                "instrument": "keys"
              },
              {
                "t_on": 82.816002,
                "t_off": 84.021,
                "pitch": 66,
                "velocity": 55,
                "instrument": "keys"
              },
              {
                "t_on": 82.837334,
                "t_off": 84.007333,
                "pitch": 64,
                "velocity": 57,
                "instrument": "keys"
              },
              {
                "t_on": 82.869331,
                "t_off": 82.965333,
                "pitch": 65,
                "velocity": 73,
                "instrument": "keys"
              },
              {
                "t_on": 82.890663,
                "t_off": 83.138667,
                "pitch": 80,
                "velocity": 89,
                "instrument": "keys"
              },
              {
                "t_on": 82.954666,
                "t_off": 83.448001,
                "pitch": 65,
                "velocity": 80,
                "instrument": "keys"
              },
              {
                "t_on": 83.146667,
                "t_off": 83.242669,
                "pitch": 80,
                "velocity": 58,
                "instrument": "keys"
              },
              {
                "t_on": 83.232002,
                "t_off": 83.394664,
                "pitch": 80,
                "velocity": 56,
                "instrument": "keys"
              },
              {
                "t_on": 83.338669,
                "t_off": 83.834759,
                "pitch": 84,
                "velocity": 45,
                "instrument": "keys"
              },
              {
                "t_on": 83.402664,
                "t_off": 84.012667,
                "pitch": 80,
                "velocity": 46,
                "instrument": "keys"
              },
              {
                "t_on": 83.456001,
                "t_off": 83.552003,
                "pitch": 65,
                "velocity": 46,
                "instrument": "keys"
              },
              {
                "t_on": 83.541336,
                "t_off": 83.722665,
                "pitch": 65,
                "velocity": 58,
                "instrument": "keys"
              },
              {
                "t_on": 83.68,
                "t_off": 84.745,
                "pitch": 61,
                "velocity": 54,
                "instrument": "keys"
              },
              {
                "t_on": 83.690666,
                "t_off": 85.048664,
                "pitch": 42,
                "velocity": 53,
                "instrument": "keys"
              },
              {
                "t_on": 83.690666,
                "t_off": 85.102002,
                "pitch": 54,
                "velocity": 59,
                "instrument": "keys"
              },
              {
                "t_on": 83.701332,
                "t_off": 84.696333,
                "pitch": 40,
                "velocity": 58,
                "instrument": "keys"
              },
              {
                "t_on": 83.711998,
                "t_off": 84.842,
                "pitch": 65,
                "velocity": 79,
                "instrument": "keys"
              },
              {
                "t_on": 83.711998,
                "t_off": 85.08067,
                "pitch": 91,
                "velocity": 67,
                "instrument": "keys"
              },
              {
                "t_on": 84.767998,
                "t_off": 84.863999,
                "pitch": 79,
                "velocity": 51,
                "instrument": "keys"
              },
              {
                "t_on": 84.767998,
                "t_off": 84.863999,
                "pitch": 88,
                "velocity": 51,
                "instrument": "keys"
              },
              {
                "t_on": 84.810669,
                "t_off": 84.90667,
                "pitch": 72,
                "velocity": 51,
                "instrument": "keys"
              },
              {
                "t_on": 84.853333,
                "t_off": 85.016002,
                "pitch": 79,
                "velocity": 47,
                "instrument": "keys"
              },
              {
                "t_on": 84.853333,
                "t_off": 85.026668,
                "pitch": 88,
                "velocity": 46,
                "instrument": "keys"
              },
              {
                "t_on": 84.874664,
                "t_off": 85.341169,
                "pitch": 96,
                "velocity": 40,
                "instrument": "keys"
              },
              {
                "t_on": 84.88533,
                "t_off": 85.024003,
                "pitch": 87,
                "velocity": 44,
                "instrument": "keys"
              },
              {
                "t_on": 84.896004,
                "t_off": 85.058666,
                "pitch": 72,
                "velocity": 45,
                "instrument": "keys"
              },
              {
                "t_on": 84.949333,
                "t_off": 85.371066,
                "pitch": 93,
                "velocity": 37,
                "instrument": "keys"
              },
              {
                "t_on": 85.013336,
                "t_off": 85.342786,
                "pitch": 87,
                "velocity": 37,
                "instrument": "keys"
              },
              {
                "t_on": 85.024002,
                "t_off": 85.356365,
                "pitch": 79,
                "velocity": 39,
                "instrument": "keys"
              },
              {
                "t_on": 85.034668,
                "t_off": 85.499992,
                "pitch": 88,
                "velocity": 37,
                "instrument": "keys"
              },
              {
                "t_on": 85.066666,
                "t_off": 85.237336,
                "pitch": 72,
                "velocity": 38,
                "instrument": "keys"
              },
              {
                "t_on": 85.087997,
                "t_off": 85.215997,
                "pitch": 60,
                "velocity": 36,
                "instrument": "keys"
              },
              {
                "t_on": 85.20533,
                "t_off": 85.475538,
                "pitch": 60,
                "velocity": 36,
                "instrument": "keys"
              },
              {
                "t_on": 85.226669,
                "t_off": 85.386667,
                "pitch": 72,
                "velocity": 35,
                "instrument": "keys"
              },
              {
                "t_on": 85.354668,
                "t_off": 86.189334,
                "pitch": 61,
                "velocity": 52,
                "instrument": "keys"
              },
              {
                "t_on": 85.365334,
                "t_off": 86.072666,
                "pitch": 83,
                "velocity": 47,
                "instrument": "keys"
              },
              {
                "t_on": 85.375999,
                "t_off": 86.083332,
                "pitch": 66,
                "velocity": 49,
                "instrument": "keys"
              },
              {
                "t_on": 85.375999,
                "t_off": 86.904667,
                "pitch": 69,
                "velocity": 48,
                "instrument": "keys"
              },
              {
                "t_on": 85.394667,
                "t_off": 86.787335,
                "pitch": 72,
                "velocity": 58,
                "instrument": "keys"
              },
              {
                "t_on": 85.397331,
                "t_off": 85.762668,
                "pitch": 53,
                "velocity": 61,
                "instrument": "keys"
              },
              {
                "t_on": 85.52533,
                "t_off": 85.749337,
                "pitch": 81,
                "velocity": 60,
                "instrument": "keys"
              },
              {
                "t_on": 85.557335,
                "t_off": 86.031714,
                "pitch": 79,
                "velocity": 60,
                "instrument": "keys"
              },
              {
                "t_on": 85.578667,
                "t_off": 86.840664,
                "pitch": 57,
                "velocity": 62,
                "instrument": "keys"
              },
              {
                "t_on": 85.685333,
                "t_off": 86.144132,
                "pitch": 73,
                "velocity": 56,
                "instrument": "keys"
              },
              {
                "t_on": 85.73867,
                "t_off": 86.165905,
                "pitch": 81,
                "velocity": 51,
                "instrument": "keys"
              },
              {
                "t_on": 85.770668,
                "t_off": 86.345667,
                "pitch": 53,
                "velocity": 52,
                "instrument": "keys"
              },
              {
                "t_on": 86.133331,
                "t_off": 86.358333,
                "pitch": 79,
                "velocity": 46,
                "instrument": "keys"
              },
              {
                "t_on": 86.143997,
                "t_off": 86.657646,
                "pitch": 60,
                "velocity": 48,
                "instrument": "keys"
              },
              {
                "t_on": 86.186668,
                "t_off": 86.489426,
                "pitch": 64,
                "velocity": 54,
                "instrument": "keys"
              },
              {
                "t_on": 86.197334,
                "t_off": 87.402333,
                "pitch": 61,
                "velocity": 51,
                "instrument": "keys"
              },
              {
                "t_on": 86.218666,
                "t_off": 86.681402,
                "pitch": 66,
                "velocity": 57,
                "instrument": "keys"
              },
              {
                "t_on": 86.229332,
                "t_off": 86.648083,
                "pitch": 65,
                "velocity": 55,
                "instrument": "keys"
              },
              {
                "t_on": 86.293335,
                "t_off": 86.990002,
                "pitch": 95,
                "velocity": 69,
                "instrument": "keys"
              },
              {
                "t_on": 86.314667,
                "t_off": 86.990002,
                "pitch": 93,
                "velocity": 60,
                "instrument": "keys"
              },
              {
                "t_on": 86.442665,
                "t_off": 86.954729,
                "pitch": 87,
                "velocity": 45,
                "instrument": "keys"
              },
              {
                "t_on": 86.463997,
                "t_off": 87.231,
                "pitch": 73,
                "velocity": 46,
                "instrument": "keys"
              },
              {
                "t_on": 86.751999,
                "t_off": 87.327,
                "pitch": 64,
                "velocity": 49,
                "instrument": "keys"
              },
              {
                "t_on": 86.816002,
                "t_off": 87.231,
                "pitch": 79,
                "velocity": 48,
                "instrument": "keys"
              },
              {
                "t_on": 86.890663,
                "t_off": 86.986665,
                "pitch": 60,
                "velocity": 54,
                "instrument": "keys"
              },
              {
                "t_on": 86.933334,
                "t_off": 87.298333,
                "pitch": 72,
                "velocity": 48,
                "instrument": "keys"
              },
              {
                "t_on": 86.975998,
                "t_off": 87.446,
                "pitch": 60,
                "velocity": 48,
                "instrument": "keys"
              },
              {
                "t_on": 87.061333,
                "t_off": 88.408665,
                "pitch": 54,
                "velocity": 54,
                "instrument": "keys"
              },
              {
                "t_on": 87.071999,
                "t_off": 88.291333,
                "pitch": 41,
                "velocity": 50,
                "instrument": "keys"
              },
              {
                "t_on": 87.071999,
                "t_off": 89.006001,
                "pitch": 42,
                "velocity": 53,
                "instrument": "keys"
              },
              {
                "t_on": 87.071999,
                "t_off": 88.984669,
                "pitch": 44,
                "velocity": 54,
                "instrument": "keys"
              },
              {
                "t_on": 87.071999,
                "t_off": 88.152668,
                "pitch": 56,
                "velocity": 52,
                "instrument": "keys"
              },
              {
                "t_on": 87.103996,
                "t_off": 87.864666,
                "pitch": 74,
                "velocity": 69,
                "instrument": "keys"
              },
              {
                "t_on": 87.370667,
                "t_off": 87.530663,
                "pitch": 62,
                "velocity": 59,
                "instrument": "keys"
              },
              {
                "t_on": 87.391998,
                "t_off": 87.488,
                "pitch": 55,
                "velocity": 68,
                "instrument": "keys"
              },
              {
                "t_on": 87.402664,
                "t_off": 87.498666,
                "pitch": 43,
                "velocity": 68,
                "instrument": "keys"
              },
              {
                "t_on": 87.424004,
                "t_off": 87.672,
                "pitch": 67,
                "velocity": 56,
                "instrument": "keys"
              },
              {
                "t_on": 87.466667,
                "t_off": 88.056668,
                "pitch": 79,
                "velocity": 52,
                "instrument": "keys"
              },
              {
                "t_on": 87.477333,
                "t_off": 87.640003,
                "pitch": 34,
                "velocity": 54,
                "instrument": "keys"
              },
              {
                "t_on": 87.477333,
                "t_off": 87.573335,
                "pitch": 55,
                "velocity": 64,
                "instrument": "keys"
              },
              {
                "t_on": 87.487999,
                "t_off": 87.650669,
                "pitch": 43,
                "velocity": 65,
                "instrument": "keys"
              },
              {
                "t_on": 87.519997,
                "t_off": 88.376667,
                "pitch": 62,
                "velocity": 54,
                "instrument": "keys"
              },
              {
                "t_on": 87.562668,
                "t_off": 87.658669,
                "pitch": 55,
                "velocity": 61,
                "instrument": "keys"
              },
              {
                "t_on": 87.648003,
                "t_off": 88.783,
                "pitch": 34,
                "velocity": 48,
                "instrument": "keys"
              },
              {
                "t_on": 87.648003,
                "t_off": 87.743996,
                "pitch": 55,
                "velocity": 56,
                "instrument": "keys"
              },
              {
                "t_on": 87.658669,
                "t_off": 87.75467,
                "pitch": 43,
                "velocity": 55,
                "instrument": "keys"
              },
              {
                "t_on": 87.658669,
                "t_off": 87.765336,
                "pitch": 83,
                "velocity": 46,
                "instrument": "keys"
              },
              {
                "t_on": 87.68,
                "t_off": 88.109332,
                "pitch": 67,
                "velocity": 53,
                "instrument": "keys"
              },
              {
                "t_on": 87.73333,
                "t_off": 87.829331,
                "pitch": 55,
                "velocity": 53,
                "instrument": "keys"
              },
              {
                "t_on": 87.744003,
                "t_off": 87.839997,
                "pitch": 43,
                "velocity": 51,
                "instrument": "keys"
              },
              {
                "t_on": 87.754669,
                "t_off": 87.850663,
                "pitch": 83,
                "velocity": 46,
                "instrument": "keys"
              },
              {
                "t_on": 87.797333,
                "t_off": 87.893334,
                "pitch": 90,
                "velocity": 45,
                "instrument": "keys"
              },
              {
                "t_on": 87.818665,
                "t_off": 88.098667,
                "pitch": 55,
                "velocity": 49,
                "instrument": "keys"
              },
              {
                "t_on": 87.82933,
                "t_off": 88.106667,
                "pitch": 43,
                "velocity": 47,
                "instrument": "keys"
              },
              {
                "t_on": 87.839996,
                "t_off": 88.088001,
                "pitch": 83,
                "velocity": 50,
                "instrument": "keys"
              },
              {
                "t_on": 87.882668,
                "t_off": 88.536663,
                "pitch": 90,
                "velocity": 44,
                "instrument": "keys"
              },
              {
                "t_on": 87.903999,
                "t_off": 88.483334,
                "pitch": 80,
                "velocity": 46,
                "instrument": "keys"
              },
              {
                "t_on": 87.914665,
                "t_off": 88.611332,
                "pitch": 89,
                "velocity": 46,
                "instrument": "keys"
              },
              {
                "t_on": 87.968002,
                "t_off": 88.579335,
                "pitch": 92,
                "velocity": 60,
                "instrument": "keys"
              },
              {
                "t_on": 88.0,
                "t_off": 88.456436,
                "pitch": 96,
                "velocity": 49,
                "instrument": "keys"
              },
              {
                "t_on": 88.021332,
                "t_off": 88.400774,
                "pitch": 71,
                "velocity": 49,
                "instrument": "keys"
              },
              {
                "t_on": 88.096001,
                "t_off": 88.192002,
                "pitch": 43,
                "velocity": 42,
                "instrument": "keys"
              },
              {
                "t_on": 88.096001,
                "t_off": 88.520883,
                "pitch": 83,
                "velocity": 45,
                "instrument": "keys"
              },
              {
                "t_on": 88.106667,
                "t_off": 88.234666,
                "pitch": 55,
                "velocity": 44,
                "instrument": "keys"
              },
              {
                "t_on": 88.117332,
                "t_off": 88.447999,
                "pitch": 67,
                "velocity": 42,
                "instrument": "keys"
              },
              {
                "t_on": 88.117332,
                "t_off": 88.458665,
                "pitch": 79,
                "velocity": 42,
                "instrument": "keys"
              },
              {
                "t_on": 88.181335,
                "t_off": 88.32,
                "pitch": 43,
                "velocity": 41,
                "instrument": "keys"
              },
              {
                "t_on": 88.223999,
                "t_off": 88.32,
                "pitch": 55,
                "velocity": 41,
                "instrument": "keys"
              },
              {
                "t_on": 88.309334,
                "t_off": 88.405335,
                "pitch": 43,
                "velocity": 42,
                "instrument": "keys"
              },
              {
                "t_on": 88.309334,
                "t_off": 88.405335,
                "pitch": 55,
                "velocity": 44,
                "instrument": "keys"
              },
              {
                "t_on": 88.394669,
                "t_off": 88.49067,
                "pitch": 43,
                "velocity": 44,
                "instrument": "keys"
              },
              {
                "t_on": 88.394669,
                "t_off": 88.49067,
                "pitch": 55,
                "velocity": 48,
                "instrument": "keys"
              },
              {
                "t_on": 88.437332,
                "t_off": 88.554665,
                "pitch": 67,
                "velocity": 40,
                "instrument": "keys"
              },
              {
                "t_on": 88.447998,
                "t_off": 88.970928,
                "pitch": 79,
                "velocity": 40,
                "instrument": "keys"
              },
              {
                "t_on": 88.480003,
                "t_off": 88.575997,
                "pitch": 43,
                "velocity": 42,
                "instrument": "keys"
              },
              {
                "t_on": 88.480003,
                "t_off": 88.575997,
                "pitch": 55,
                "velocity": 45,
                "instrument": "keys"
              },
              {
                "t_on": 88.543999,
                "t_off": 88.994136,
                "pitch": 67,
                "velocity": 38,
                "instrument": "keys"
              },
              {
                "t_on": 88.565331,
                "t_off": 88.790333,
                "pitch": 43,
                "velocity": 39,
                "instrument": "keys"
              },
              {
                "t_on": 88.565331,
                "t_off": 88.661332,
                "pitch": 55,
                "velocity": 42,
                "instrument": "keys"
              },
              {
                "t_on": 88.650665,
                "t_off": 88.946928,
                "pitch": 55,
                "velocity": 42,
                "instrument": "keys"
              },
              {
                "t_on": 88.736,
                "t_off": 89.217298,
                "pitch": 85,
                "velocity": 39,
                "instrument": "keys"
              },
              {
                "t_on": 88.757332,
                "t_off": 89.422001,
                "pitch": 92,
                "velocity": 36,
                "instrument": "keys"
              },
              {
                "t_on": 89.194664,
                "t_off": 89.322663,
                "pitch": 90,
                "velocity": 36,
                "instrument": "keys"
              },
              {
                "t_on": 89.311996,
                "t_off": 89.922,
                "pitch": 90,
                "velocity": 35,
                "instrument": "keys"
              },
              {
                "t_on": 89.589333,
                "t_off": 90.221997,
                "pitch": 80,
                "velocity": 47,
                "instrument": "keys"
              },
              {
                "t_on": 89.599998,
                "t_off": 90.371334,
                "pitch": 61,
                "velocity": 47,
                "instrument": "keys"
              },
              {
                "t_on": 89.62133,
                "t_off": 90.211331,
                "pitch": 65,
                "velocity": 57,
                "instrument": "keys"
              },
              {
                "t_on": 89.653336,
                "t_off": 90.432,
                "pitch": 83,
                "velocity": 73,
                "instrument": "keys"
              },
              {
                "t_on": 89.727997,
                "t_off": 90.688,
                "pitch": 78,
                "velocity": 64,
                "instrument": "keys"
              },
              {
                "t_on": 89.749336,
                "t_off": 89.856004,
                "pitch": 96,
                "velocity": 57,
                "instrument": "keys"
              },
              {
                "t_on": 89.760002,
                "t_off": 89.856004,
                "pitch": 74,
                "velocity": 59,
                "instrument": "keys"
              },
              {
                "t_on": 89.760002,
                "t_off": 90.039997,
                "pitch": 92,
                "velocity": 55,
                "instrument": "keys"
              },
              {
                "t_on": 89.770668,
                "t_off": 89.866669,
                "pitch": 62,
                "velocity": 60,
                "instrument": "keys"
              },
              {
                "t_on": 89.845337,
                "t_off": 89.941331,
                "pitch": 74,
                "velocity": 53,
                "instrument": "keys"
              },
              {
                "t_on": 89.845337,
                "t_off": 90.007999,
                "pitch": 96,
                "velocity": 49,
                "instrument": "keys"
              },
              {
                "t_on": 89.856003,
                "t_off": 89.951997,
                "pitch": 62,
                "velocity": 51,
                "instrument": "keys"
              },
              {
                "t_on": 89.930664,
                "t_off": 90.25333,
                "pitch": 74,
                "velocity": 48,
                "instrument": "keys"
              },
              {
                "t_on": 89.94133,
                "t_off": 90.726333,
                "pitch": 62,
                "velocity": 46,
                "instrument": "keys"
              },
              {
                "t_on": 90.015999,
                "t_off": 90.661,
                "pitch": 96,
                "velocity": 40,
                "instrument": "keys"
              },
              {
                "t_on": 90.047997,
                "t_off": 90.264003,
                "pitch": 92,
                "velocity": 39,
                "instrument": "keys"
              },
              {
                "t_on": 90.05867,
                "t_off": 90.25333,
                "pitch": 55,
                "velocity": 38,
                "instrument": "keys"
              },
              {
                "t_on": 90.250664,
                "t_off": 90.522328,
                "pitch": 90,
                "velocity": 37,
                "instrument": "keys"
              },
              {
                "t_on": 90.26133,
                "t_off": 90.432,
                "pitch": 55,
                "velocity": 37,
                "instrument": "keys"
              },
              {
                "t_on": 90.26133,
                "t_off": 90.553359,
                "pitch": 74,
                "velocity": 38,
                "instrument": "keys"
              },
              {
                "t_on": 90.272003,
                "t_off": 90.461333,
                "pitch": 92,
                "velocity": 36,
                "instrument": "keys"
              },
              {
                "t_on": 90.421333,
                "t_off": 91.075337,
                "pitch": 55,
                "velocity": 42,
                "instrument": "keys"
              },
              {
                "t_on": 90.421333,
                "t_off": 90.979336,
                "pitch": 83,
                "velocity": 42,
                "instrument": "keys"
              },
              {
                "t_on": 90.431999,
                "t_off": 91.308,
                "pitch": 66,
                "velocity": 49,
                "instrument": "keys"
              },
              {
                "t_on": 90.461333,
                "t_off": 90.686333,
                "pitch": 92,
                "velocity": 38,
                "instrument": "keys"
              },
              {
                "t_on": 90.47467,
                "t_off": 90.990002,
                "pitch": 63,
                "velocity": 57,
                "instrument": "keys"
              },
              {
                "t_on": 90.496002,
                "t_off": 91.331333,
                "pitch": 51,
                "velocity": 63,
                "instrument": "keys"
              },
              {
                "t_on": 90.581337,
                "t_off": 91.066965,
                "pitch": 79,
                "velocity": 53,
                "instrument": "keys"
              },
              {
                "t_on": 90.624001,
                "t_off": 90.831078,
                "pitch": 56,
                "velocity": 51,
                "instrument": "keys"
              },
              {
                "t_on": 90.624001,
                "t_off": 90.904385,
                "pitch": 95,
                "velocity": 47,
                "instrument": "keys"
              },
              {
                "t_on": 90.634666,
                "t_off": 90.816003,
                "pitch": 68,
                "velocity": 61,
                "instrument": "keys"
              },
              {
                "t_on": 90.634666,
                "t_off": 90.917829,
                "pitch": 85,
                "velocity": 50,
                "instrument": "keys"
              },
              {
                "t_on": 90.709335,
                "t_off": 91.310002,
                "pitch": 49,
                "velocity": 43,
                "instrument": "keys"
              },
              {
                "t_on": 90.762665,
                "t_off": 90.858666,
                "pitch": 67,
                "velocity": 48,
                "instrument": "keys"
              },
              {
                "t_on": 90.805336,
                "t_off": 90.912003,
                "pitch": 68,
                "velocity": 46,
                "instrument": "keys"
              },
              {
                "t_on": 90.848,
                "t_off": 90.99733,
                "pitch": 67,
                "velocity": 46,
                "instrument": "keys"
              },
              {
                "t_on": 90.901337,
                "t_off": 91.061333,
                "pitch": 68,
                "velocity": 48,
                "instrument": "keys"
              },
              {
                "t_on": 90.986664,
                "t_off": 91.189332,
                "pitch": 67,
                "velocity": 46,
                "instrument": "keys"
              },
              {
                "t_on": 91.050667,
                "t_off": 91.264001,
                "pitch": 68,
                "velocity": 40,
                "instrument": "keys"
              },
              {
                "t_on": 91.178665,
                "t_off": 91.308,
                "pitch": 67,
                "velocity": 48,
                "instrument": "keys"
              },
              {
                "t_on": 91.253334,
                "t_off": 91.832669,
                "pitch": 68,
                "velocity": 48,
                "instrument": "keys"
              },
              {
                "t_on": 91.308,
                "t_off": 92.109332,
                "pitch": 66,
                "velocity": 57,
                "instrument": "keys"
              },
              {
                "t_on": 91.308,
                "t_off": 91.482743,
                "pitch": 67,
                "velocity": 53,
                "instrument": "keys"
              },
              {
                "t_on": 91.338669,
                "t_off": 91.918003,
                "pitch": 75,
                "velocity": 55,
                "instrument": "keys"
              },
              {
                "t_on": 91.509331,
                "t_off": 91.872002,
                "pitch": 67,
                "velocity": 53,
                "instrument": "keys"
              },
              {
                "t_on": 91.658669,
                "t_off": 92.195332,
                "pitch": 84,
                "velocity": 41,
                "instrument": "keys"
              },
              {
                "t_on": 91.82933,
                "t_off": 92.09954,
                "pitch": 79,
                "velocity": 36,
                "instrument": "keys"
              },
              {
                "t_on": 91.85067,
                "t_off": 91.946664,
                "pitch": 85,
                "velocity": 38,
                "instrument": "keys"
              },
              {
                "t_on": 91.861336,
                "t_off": 92.064004,
                "pitch": 67,
                "velocity": 39,
                "instrument": "keys"
              },
              {
                "t_on": 91.935997,
                "t_off": 92.149333,
                "pitch": 68,
                "velocity": 48,
                "instrument": "keys"
              },
              {
                "t_on": 91.935997,
                "t_off": 92.031998,
                "pitch": 85,
                "velocity": 37,
                "instrument": "keys"
              },
              {
                "t_on": 92.021332,
                "t_off": 92.294454,
                "pitch": 85,
                "velocity": 38,
                "instrument": "keys"
              },
              {
                "t_on": 92.021332,
                "t_off": 92.235275,
                "pitch": 87,
                "velocity": 41,
                "instrument": "keys"
              },
              {
                "t_on": 92.053337,
                "t_off": 92.149333,
                "pitch": 67,
                "velocity": 47,
                "instrument": "keys"
              },
              {
                "t_on": 92.117332,
                "t_off": 93.137667,
                "pitch": 66,
                "velocity": 44,
                "instrument": "keys"
              },
              {
                "t_on": 92.138664,
                "t_off": 92.621333,
                "pitch": 92,
                "velocity": 45,
                "instrument": "keys"
              },
              {
                "t_on": 92.149333,
                "t_off": 92.69333,
                "pitch": 67,
                "velocity": 54,
                "instrument": "keys"
              },
              {
                "t_on": 92.149333,
                "t_off": 92.290668,
                "pitch": 68,
                "velocity": 52,
                "instrument": "keys"
              },
              {
                "t_on": 92.17067,
                "t_off": 93.002667,
                "pitch": 63,
                "velocity": 56,
                "instrument": "keys"
              },
              {
                "t_on": 92.277336,
                "t_off": 92.37333,
                "pitch": 79,
                "velocity": 48,
                "instrument": "keys"
              },
              {
                "t_on": 92.298668,
                "t_off": 92.394669,
                "pitch": 68,
                "velocity": 56,
                "instrument": "keys"
              },
              {
                "t_on": 92.309334,
                "t_off": 92.702789,
                "pitch": 95,
                "velocity": 42,
                "instrument": "keys"
              },
              {
                "t_on": 92.362663,
                "t_off": 92.458665,
                "pitch": 79,
                "velocity": 43,
                "instrument": "keys"
              },
              {
                "t_on": 92.384003,
                "t_off": 92.479997,
                "pitch": 68,
                "velocity": 52,
                "instrument": "keys"
              },
              {
                "t_on": 92.426666,
                "t_off": 92.543999,
                "pitch": 75,
                "velocity": 42,
                "instrument": "keys"
              },
              {
                "t_on": 92.437332,
                "t_off": 92.917449,
                "pitch": 56,
                "velocity": 40,
                "instrument": "keys"
              },
              {
                "t_on": 92.447998,
                "t_off": 92.671998,
                "pitch": 79,
                "velocity": 42,
                "instrument": "keys"
              },
              {
                "t_on": 92.46933,
                "t_off": 92.565331,
                "pitch": 68,
                "velocity": 48,
                "instrument": "keys"
              },
              {
                "t_on": 92.522667,
                "t_off": 92.685336,
                "pitch": 85,
                "velocity": 45,
                "instrument": "keys"
              },
              {
                "t_on": 92.533333,
                "t_off": 93.012662,
                "pitch": 75,
                "velocity": 38,
                "instrument": "keys"
              },
              {
                "t_on": 92.554665,
                "t_off": 92.717334,
                "pitch": 68,
                "velocity": 46,
                "instrument": "keys"
              },
              {
                "t_on": 92.629333,
                "t_off": 93.204333,
                "pitch": 92,
                "velocity": 39,
                "instrument": "keys"
              },
              {
                "t_on": 92.661331,
                "t_off": 93.236333,
                "pitch": 79,
                "velocity": 38,
                "instrument": "keys"
              },
              {
                "t_on": 92.682663,
                "t_off": 93.002667,
                "pitch": 67,
                "velocity": 45,
                "instrument": "keys"
              },
              {
                "t_on": 92.693336,
                "t_off": 92.799996,
                "pitch": 85,
                "velocity": 42,
                "instrument": "keys"
              },
              {
                "t_on": 92.725334,
                "t_off": 92.863999,
                "pitch": 68,
                "velocity": 44,
                "instrument": "keys"
              },
              {
                "t_on": 92.78933,
                "t_off": 92.885331,
                "pitch": 85,
                "velocity": 37,
                "instrument": "keys"
              },
              {
                "t_on": 92.810669,
                "t_off": 93.140667,
                "pitch": 87,
                "velocity": 46,
                "instrument": "keys"
              },
              {
                "t_on": 92.853333,
                "t_off": 93.002663,
                "pitch": 68,
                "velocity": 47,
                "instrument": "keys"
              },
              {
                "t_on": 92.874664,
                "t_off": 93.158378,
                "pitch": 85,
                "velocity": 46,
                "instrument": "keys"
              },
              {
                "t_on": 92.959999,
                "t_off": 93.869999,
                "pitch": 78,
                "velocity": 48,
                "instrument": "keys"
              },
              {
                "t_on": 92.959999,
                "t_off": 93.976666,
                "pitch": 80,
                "velocity": 48,
                "instrument": "keys"
              },
              {
                "t_on": 92.970665,
                "t_off": 94.035667,
                "pitch": 93,
                "velocity": 43,
                "instrument": "keys"
              },
              {
                "t_on": 92.991997,
                "t_off": 94.267,
                "pitch": 68,
                "velocity": 53,
                "instrument": "keys"
              },
              {
                "t_on": 93.002667,
                "t_off": 94.277667,
                "pitch": 63,
                "velocity": 51,
                "instrument": "keys"
              },
              {
                "t_on": 93.002667,
                "t_off": 93.568002,
                "pitch": 67,
                "velocity": 51,
                "instrument": "keys"
              },
              {
                "t_on": 93.130669,
                "t_off": 93.461335,
                "pitch": 86,
                "velocity": 55,
                "instrument": "keys"
              },
              {
                "t_on": 93.141335,
                "t_off": 93.237336,
                "pitch": 75,
                "velocity": 52,
                "instrument": "keys"
              },
              {
                "t_on": 93.152,
                "t_off": 93.495998,
                "pitch": 87,
                "velocity": 53,
                "instrument": "keys"
              },
              {
                "t_on": 93.226669,
                "t_off": 93.472001,
                "pitch": 75,
                "velocity": 47,
                "instrument": "keys"
              },
              {
                "t_on": 93.226669,
                "t_off": 93.752667,
                "pitch": 90,
                "velocity": 47,
                "instrument": "keys"
              },
              {
                "t_on": 93.237335,
                "t_off": 93.687999,
                "pitch": 85,
                "velocity": 49,
                "instrument": "keys"
              },
              {
                "t_on": 93.311996,
                "t_off": 93.461335,
                "pitch": 84,
                "velocity": 43,
                "instrument": "keys"
              },
              {
                "t_on": 93.450668,
                "t_off": 93.599999,
                "pitch": 84,
                "velocity": 38,
                "instrument": "keys"
              },
              {
                "t_on": 93.450668,
                "t_off": 93.784488,
                "pitch": 86,
                "velocity": 40,
                "instrument": "keys"
              },
              {
                "t_on": 93.461334,
                "t_off": 93.610665,
                "pitch": 75,
                "velocity": 37,
                "instrument": "keys"
              },
              {
                "t_on": 93.461334,
                "t_off": 93.741741,
                "pitch": 92,
                "velocity": 43,
                "instrument": "keys"
              },
              {
                "t_on": 93.503998,
                "t_off": 94.079,
                "pitch": 87,
                "velocity": 37,
                "instrument": "keys"
              },
              {
                "t_on": 93.557335,
                "t_off": 93.674668,
                "pitch": 67,
                "velocity": 37,
                "instrument": "keys"
              },
              {
                "t_on": 93.589333,
                "t_off": 94.129333,
                "pitch": 84,
                "velocity": 36,
                "instrument": "keys"
              },
              {
                "t_on": 93.599998,
                "t_off": 93.717332,
                "pitch": 75,
                "velocity": 35,
                "instrument": "keys"
              },
              {
                "t_on": 93.664001,
                "t_off": 94.239,
                "pitch": 67,
                "velocity": 35,
                "instrument": "keys"
              },
              {
                "t_on": 93.695999,
                "t_off": 93.792001,
                "pitch": 85,
                "velocity": 39,
                "instrument": "keys"
              },
              {
                "t_on": 93.706665,
                "t_off": 94.246667,
                "pitch": 75,
                "velocity": 35,
                "instrument": "keys"
              },
              {
                "t_on": 93.781334,
                "t_off": 94.648663,
                "pitch": 85,
                "velocity": 39,
                "instrument": "keys"
              },
              {
                "t_on": 93.802666,
                "t_off": 94.574002,
                "pitch": 92,
                "velocity": 48,
                "instrument": "keys"
              },
              {
                "t_on": 93.834663,
                "t_off": 94.637997,
                "pitch": 83,
                "velocity": 47,
                "instrument": "keys"
              },
              {
                "t_on": 94.090668,
                "t_off": 94.648663,
                "pitch": 74,
                "velocity": 52,
                "instrument": "keys"
              },
              {
                "t_on": 94.154663,
                "t_off": 94.702,
                "pitch": 78,
                "velocity": 53,
                "instrument": "keys"
              },
              {
                "t_on": 94.186668,
                "t_off": 94.904667,
                "pitch": 46,
                "velocity": 50,
                "instrument": "keys"
              },
              {
                "t_on": 94.410667,
                "t_off": 94.506669,
                "pitch": 90,
                "velocity": 44,
                "instrument": "keys"
              },
              {
                "t_on": 94.421333,
                "t_off": 94.517335,
                "pitch": 80,
                "velocity": 46,
                "instrument": "keys"
              },
              {
                "t_on": 94.496002,
                "t_off": 94.791201,
                "pitch": 90,
                "velocity": 42,
                "instrument": "keys"
              },
              {
                "t_on": 94.506668,
                "t_off": 94.60267,
                "pitch": 80,
                "velocity": 47,
                "instrument": "keys"
              },
              {
                "t_on": 94.592003,
                "t_off": 94.904003,
                "pitch": 80,
                "velocity": 47,
                "instrument": "keys"
              },
              {
                "t_on": 94.720001,
                "t_off": 94.890664,
                "pitch": 78,
                "velocity": 59,
                "instrument": "keys"
              },
              {
                "t_on": 94.751999,
                "t_off": 95.053579,
                "pitch": 64,
                "velocity": 51,
                "instrument": "keys"
              },
              {
                "t_on": 94.762665,
                "t_off": 95.21792,
                "pitch": 61,
                "velocity": 51,
                "instrument": "keys"
              },
              {
                "t_on": 94.762665,
                "t_off": 95.220676,
                "pitch": 66,
                "velocity": 55,
                "instrument": "keys"
              },
              {
                "t_on": 94.783997,
                "t_off": 95.224066,
                "pitch": 65,
                "velocity": 48,
                "instrument": "keys"
              },
              {
                "t_on": 94.879997,
                "t_off": 95.479999,
                "pitch": 78,
                "velocity": 45,
                "instrument": "keys"
              },
              {
                "t_on": 94.890663,
                "t_off": 95.329157,
                "pitch": 74,
                "velocity": 44,
                "instrument": "keys"
              },
              {
                "t_on": 94.901337,
                "t_off": 95.310628,
                "pitch": 62,
                "velocity": 43,
                "instrument": "keys"
              },
              {
                "t_on": 94.912003,
                "t_off": 95.007996,
                "pitch": 80,
                "velocity": 43,
                "instrument": "keys"
              },
              {
                "t_on": 94.99733,
                "t_off": 95.093331,
                "pitch": 80,
                "velocity": 40,
                "instrument": "keys"
              },
              {
                "t_on": 94.99733,
                "t_off": 95.093331,
                "pitch": 90,
                "velocity": 41,
                "instrument": "keys"
              },
              {
                "t_on": 95.082664,
                "t_off": 95.178666,
                "pitch": 80,
                "velocity": 38,
                "instrument": "keys"
              },
              {
                "t_on": 95.082664,
                "t_off": 95.178666,
                "pitch": 90,
                "velocity": 36,
                "instrument": "keys"
              },
              {
                "t_on": 95.167999,
                "t_off": 95.490665,
                "pitch": 80,
                "velocity": 36,
                "instrument": "keys"
              },
              {
                "t_on": 95.167999,
                "t_off": 95.264001,
                "pitch": 90,
                "velocity": 37,
                "instrument": "keys"
              },
              {
                "t_on": 95.253334,
                "t_off": 95.349335,
                "pitch": 90,
                "velocity": 40,
                "instrument": "keys"
              },
              {
                "t_on": 95.338669,
                "t_off": 95.614173,
                "pitch": 90,
                "velocity": 40,
                "instrument": "keys"
              },
              {
                "t_on": 95.466667,
                "t_off": 96.131337,
                "pitch": 96,
                "velocity": 48,
                "instrument": "keys"
              },
              {
                "t_on": 95.487999,
                "t_off": 96.322666,
                "pitch": 78,
                "velocity": 49,
                "instrument": "keys"
              },
              {
                "t_on": 95.498665,
                "t_off": 96.333331,
                "pitch": 80,
                "velocity": 44,
                "instrument": "keys"
              },
              {
                "t_on": 95.498665,
                "t_off": 96.035336,
                "pitch": 83,
                "velocity": 47,
                "instrument": "keys"
              },
              {
                "t_on": 95.509331,
                "t_off": 96.205998,
                "pitch": 61,
                "velocity": 45,
                "instrument": "keys"
              },
              {
                "t_on": 95.509331,
                "t_off": 96.248669,
                "pitch": 86,
                "velocity": 47,
                "instrument": "keys"
              },
              {
                "t_on": 95.861336,
                "t_off": 96.44067,
                "pitch": 62,
                "velocity": 40,
                "instrument": "keys"
              },
              {
                "t_on": 95.861336,
                "t_off": 95.95733,
                "pitch": 92,
                "velocity": 42,
                "instrument": "keys"
              },
              {
                "t_on": 95.893333,
                "t_off": 95.989335,
                "pitch": 74,
                "velocity": 40,
                "instrument": "keys"
              },
              {
                "t_on": 95.946663,
                "t_off": 96.556667,
                "pitch": 92,
                "velocity": 37,
                "instrument": "keys"
              },
              {
                "t_on": 95.957336,
                "t_off": 96.289701,
                "pitch": 90,
                "velocity": 39,
                "instrument": "keys"
              },
              {
                "t_on": 95.978668,
                "t_off": 96.096001,
                "pitch": 74,
                "velocity": 41,
                "instrument": "keys"
              },
              {
                "t_on": 96.085335,
                "t_off": 96.336892,
                "pitch": 74,
                "velocity": 38,
                "instrument": "keys"
              },
              {
                "t_on": 96.330666,
                "t_off": 97.05933,
                "pitch": 78,
                "velocity": 42,
                "instrument": "keys"
              },
              {
                "t_on": 96.341331,
                "t_off": 96.437333,
                "pitch": 80,
                "velocity": 44,
                "instrument": "keys"
              },
              {
                "t_on": 96.362663,
                "t_off": 96.708348,
                "pitch": 66,
                "velocity": 43,
                "instrument": "keys"
              },
              {
                "t_on": 96.426666,
                "t_off": 96.522668,
                "pitch": 80,
                "velocity": 55,
                "instrument": "keys"
              },
              {
                "t_on": 96.512001,
                "t_off": 97.112667,
                "pitch": 80,
                "velocity": 47,
                "instrument": "keys"
              },
              {
                "t_on": 96.725334,
                "t_off": 97.315335,
                "pitch": 62,
                "velocity": 36,
                "instrument": "keys"
              },
              {
                "t_on": 96.88533,
                "t_off": 97.194667,
                "pitch": 74,
                "velocity": 35,
                "instrument": "keys"
              },
              {
                "t_on": 97.141335,
                "t_off": 97.880665,
                "pitch": 73,
                "velocity": 49,
                "instrument": "keys"
              },
              {
                "t_on": 97.162666,
                "t_off": 97.557565,
                "pitch": 93,
                "velocity": 48,
                "instrument": "keys"
              },
              {
                "t_on": 97.173332,
                "t_off": 97.632131,
                "pitch": 64,
                "velocity": 49,
                "instrument": "keys"
              },
              {
                "t_on": 97.173332,
                "t_off": 97.363333,
                "pitch": 66,
                "velocity": 46,
                "instrument": "keys"
              },
              {
                "t_on": 97.183998,
                "t_off": 97.450669,
                "pitch": 77,
                "velocity": 51,
                "instrument": "keys"
              },
              {
                "t_on": 97.194667,
                "t_off": 97.594458,
                "pitch": 74,
                "velocity": 41,
                "instrument": "keys"
              },
              {
                "t_on": 97.237335,
                "t_off": 97.869999,
                "pitch": 78,
                "velocity": 71,
                "instrument": "keys"
              },
              {
                "t_on": 97.290665,
                "t_off": 98.007999,
                "pitch": 76,
                "velocity": 64,
                "instrument": "keys"
              },
              {
                "t_on": 97.440002,
                "t_off": 98.062001,
                "pitch": 77,
                "velocity": 52,
                "instrument": "keys"
              },
              {
                "t_on": 97.62133,
                "t_off": 98.016,
                "pitch": 61,
                "velocity": 44,
                "instrument": "keys"
              },
              {
                "t_on": 97.62133,
                "t_off": 98.336333,
                "pitch": 83,
                "velocity": 50,
                "instrument": "keys"
              },
              {
                "t_on": 97.994667,
                "t_off": 98.755337,
                "pitch": 79,
                "velocity": 45,
                "instrument": "keys"
              },
              {
                "t_on": 98.005333,
                "t_off": 99.749333,
                "pitch": 61,
                "velocity": 53,
                "instrument": "keys"
              },
              {
                "t_on": 98.015999,
                "t_off": 98.516,
                "pitch": 76,
                "velocity": 48,
                "instrument": "keys"
              },
              {
                "t_on": 98.015999,
                "t_off": 98.551,
                "pitch": 78,
                "velocity": 51,
                "instrument": "keys"
              },
              {
                "t_on": 98.026665,
                "t_off": 98.850665,
                "pitch": 73,
                "velocity": 55,
                "instrument": "keys"
              },
              {
                "t_on": 98.047997,
                "t_off": 98.670002,
                "pitch": 65,
                "velocity": 54,
                "instrument": "keys"
              },
              {
                "t_on": 98.218666,
                "t_off": 98.606641,
                "pitch": 96,
                "velocity": 58,
                "instrument": "keys"
              },
              {
                "t_on": 98.239998,
                "t_off": 98.335999,
                "pitch": 72,
                "velocity": 65,
                "instrument": "keys"
              },
              {
                "t_on": 98.26133,
                "t_off": 98.357331,
                "pitch": 60,
                "velocity": 61,
                "instrument": "keys"
              },
              {
                "t_on": 98.26133,
                "t_off": 98.735315,
                "pitch": 88,
                "velocity": 57,
                "instrument": "keys"
              },
              {
                "t_on": 98.325333,
                "t_off": 98.421334,
                "pitch": 72,
                "velocity": 54,
                "instrument": "keys"
              },
              {
                "t_on": 98.346664,
                "t_off": 98.442666,
                "pitch": 60,
                "velocity": 51,
                "instrument": "keys"
              },
              {
                "t_on": 98.410667,
                "t_off": 98.506669,
                "pitch": 72,
                "velocity": 48,
                "instrument": "keys"
              },
              {
                "t_on": 98.431999,
                "t_off": 98.680004,
                "pitch": 60,
                "velocity": 43,
                "instrument": "keys"
              },
              {
                "t_on": 98.496002,
                "t_off": 98.771901,
                "pitch": 72,
                "velocity": 41,
                "instrument": "keys"
              },
              {
                "t_on": 98.688004,
                "t_off": 99.363,
                "pitch": 60,
                "velocity": 40,
                "instrument": "keys"
              },
              {
                "t_on": 98.805336,
                "t_off": 98.995333,
                "pitch": 88,
                "velocity": 47,
                "instrument": "keys"
              },
              {
                "t_on": 98.858665,
                "t_off": 99.75467,
                "pitch": 73,
                "velocity": 49,
                "instrument": "keys"
              },
              {
                "t_on": 98.879997,
                "t_off": 99.640667,
                "pitch": 76,
                "velocity": 44,
                "instrument": "keys"
              },
              {
                "t_on": 98.965332,
                "t_off": 99.747334,
                "pitch": 78,
                "velocity": 60,
                "instrument": "keys"
              },
              {
                "t_on": 98.99733,
                "t_off": 99.758,
                "pitch": 91,
                "velocity": 56,
                "instrument": "keys"
              },
              {
                "t_on": 99.381332,
                "t_off": 99.663313,
                "pitch": 60,
                "velocity": 47,
                "instrument": "keys"
              },
              {
                "t_on": 99.381332,
                "t_off": 99.694652,
                "pitch": 93,
                "velocity": 40,
                "instrument": "keys"
              },
              {
                "t_on": 99.541336,
                "t_off": 99.749333,
                "pitch": 84,
                "velocity": 48,
                "instrument": "keys"
              },
              {
                "t_on": 99.690666,
                "t_off": 100.579335,
                "pitch": 83,
                "velocity": 51,
                "instrument": "keys"
              },
              {
                "t_on": 99.701332,
                "t_off": 100.96333,
                "pitch": 76,
                "velocity": 48,
                "instrument": "keys"
              },
              {
                "t_on": 99.701332,
                "t_off": 100.557331,
                "pitch": 90,
                "velocity": 51,
                "instrument": "keys"
              },
              {
                "t_on": 99.744003,
                "t_off": 100.664669,
                "pitch": 69,
                "velocity": 57,
                "instrument": "keys"
              },
              {
                "t_on": 99.744003,
                "t_off": 100.995335,
                "pitch": 73,
                "velocity": 63,
                "instrument": "keys"
              },
              {
                "t_on": 99.749333,
                "t_off": 101.112667,
                "pitch": 61,
                "velocity": 62,
                "instrument": "keys"
              },
              {
                "t_on": 99.749333,
                "t_off": 100.181333,
                "pitch": 84,
                "velocity": 55,
                "instrument": "keys"
              },
              {
                "t_on": 100.234665,
                "t_off": 100.533334,
                "pitch": 79,
                "velocity": 42,
                "instrument": "keys"
              },
              {
                "t_on": 100.522667,
                "t_off": 101.102002,
                "pitch": 79,
                "velocity": 38,
                "instrument": "keys"
              },
              {
                "t_on": 100.565331,
                "t_off": 101.01783,
                "pitch": 85,
                "velocity": 39,
                "instrument": "keys"
              },
              {
                "t_on": 100.565331,
                "t_off": 101.336666,
                "pitch": 90,
                "velocity": 43,
                "instrument": "keys"
              },
              {
                "t_on": 100.639999,
                "t_off": 100.736001,
                "pitch": 43,
                "velocity": 52,
                "instrument": "keys"
              },
              {
                "t_on": 100.671997,
                "t_off": 100.834667,
                "pitch": 67,
                "velocity": 57,
                "instrument": "keys"
              },
              {
                "t_on": 100.671997,
                "t_off": 100.834667,
                "pitch": 74,
                "velocity": 60,
                "instrument": "keys"
              },
              {
                "t_on": 100.704002,
                "t_off": 101.143668,
                "pitch": 86,
                "velocity": 48,
                "instrument": "keys"
              },
              {
                "t_on": 100.725334,
                "t_off": 100.821336,
                "pitch": 43,
                "velocity": 48,
                "instrument": "keys"
              },
              {
                "t_on": 100.810669,
                "t_off": 100.90667,
                "pitch": 43,
                "velocity": 44,
                "instrument": "keys"
              },
              {
                "t_on": 100.842667,
                "t_off": 100.938668,
                "pitch": 67,
                "velocity": 47,
                "instrument": "keys"
              },
              {
                "t_on": 100.842667,
                "t_off": 100.938668,
                "pitch": 74,
                "velocity": 47,
                "instrument": "keys"
              },
              {
                "t_on": 100.853333,
                "t_off": 100.949334,
                "pitch": 62,
                "velocity": 45,
                "instrument": "keys"
              },
              {
                "t_on": 100.896004,
                "t_off": 102.062001,
                "pitch": 43,
                "velocity": 44,
                "instrument": "keys"
              },
              {
                "t_on": 100.928001,
                "t_off": 101.024003,
                "pitch": 67,
                "velocity": 44,
                "instrument": "keys"
              },
              {
                "t_on": 100.928001,
                "t_off": 101.024003,
                "pitch": 74,
                "velocity": 43,
                "instrument": "keys"
              },
              {
                "t_on": 100.938667,
                "t_off": 101.405172,
                "pitch": 62,
                "velocity": 42,
                "instrument": "keys"
              },
              {
                "t_on": 101.013336,
                "t_off": 101.763333,
                "pitch": 67,
                "velocity": 53,
                "instrument": "keys"
              },
              {
                "t_on": 101.013336,
                "t_off": 101.10933,
                "pitch": 74,
                "velocity": 40,
                "instrument": "keys"
              },
              {
                "t_on": 101.034668,
                "t_off": 101.152001,
                "pitch": 68,
                "velocity": 42,
                "instrument": "keys"
              },
              {
                "t_on": 101.098663,
                "t_off": 101.778667,
                "pitch": 74,
                "velocity": 40,
                "instrument": "keys"
              },
              {
                "t_on": 101.141335,
                "t_off": 101.464,
                "pitch": 68,
                "velocity": 40,
                "instrument": "keys"
              },
              {
                "t_on": 101.397331,
                "t_off": 102.221332,
                "pitch": 78,
                "velocity": 44,
                "instrument": "keys"
              },
              {
                "t_on": 101.397331,
                "t_off": 102.242664,
                "pitch": 83,
                "velocity": 49,
                "instrument": "keys"
              },
              {
                "t_on": 101.418663,
                "t_off": 102.360668,
                "pitch": 55,
                "velocity": 44,
                "instrument": "keys"
              },
              {
                "t_on": 101.418663,
                "t_off": 102.239999,
                "pitch": 61,
                "velocity": 47,
                "instrument": "keys"
              },
              {
                "t_on": 101.418663,
                "t_off": 102.264668,
                "pitch": 66,
                "velocity": 48,
                "instrument": "keys"
              },
              {
                "t_on": 101.472,
                "t_off": 102.285334,
                "pitch": 68,
                "velocity": 74,
                "instrument": "keys"
              },
              {
                "t_on": 102.101334,
                "t_off": 102.37485,
                "pitch": 62,
                "velocity": 39,
                "instrument": "keys"
              },
              {
                "t_on": 102.229332,
                "t_off": 103.053997,
                "pitch": 61,
                "velocity": 44,
                "instrument": "keys"
              },
              {
                "t_on": 102.229332,
                "t_off": 103.064663,
                "pitch": 78,
                "velocity": 47,
                "instrument": "keys"
              },
              {
                "t_on": 102.250664,
                "t_off": 103.000668,
                "pitch": 79,
                "velocity": 46,
                "instrument": "keys"
              },
              {
                "t_on": 102.250664,
                "t_off": 103.08533,
                "pitch": 83,
                "velocity": 50,
                "instrument": "keys"
              },
              {
                "t_on": 102.285334,
                "t_off": 103.153333,
                "pitch": 67,
                "velocity": 58,
                "instrument": "keys"
              },
              {
                "t_on": 102.285334,
                "t_off": 102.979336,
                "pitch": 68,
                "velocity": 63,
                "instrument": "keys"
              },
              {
                "t_on": 102.720001,
                "t_off": 102.882663,
                "pitch": 62,
                "velocity": 43,
                "instrument": "keys"
              },
              {
                "t_on": 102.762665,
                "t_off": 102.925334,
                "pitch": 74,
                "velocity": 41,
                "instrument": "keys"
              },
              {
                "t_on": 102.890663,
                "t_off": 102.986665,
                "pitch": 62,
                "velocity": 39,
                "instrument": "keys"
              },
              {
                "t_on": 102.933334,
                "t_off": 103.029336,
                "pitch": 74,
                "velocity": 39,
                "instrument": "keys"
              },
              {
                "t_on": 102.975998,
                "t_off": 103.153333,
                "pitch": 62,
                "velocity": 46,
                "instrument": "keys"
              },
              {
                "t_on": 103.018669,
                "t_off": 103.383667,
                "pitch": 74,
                "velocity": 48,
                "instrument": "keys"
              },
              {
                "t_on": 103.09333,
                "t_off": 104.003331,
                "pitch": 83,
                "velocity": 49,
                "instrument": "keys"
              },
              {
                "t_on": 103.11467,
                "t_off": 104.035336,
                "pitch": 71,
                "velocity": 46,
                "instrument": "keys"
              },
              {
                "t_on": 103.136002,
                "t_off": 104.536663,
                "pitch": 61,
                "velocity": 46,
                "instrument": "keys"
              },
              {
                "t_on": 103.153333,
                "t_off": 104.035336,
                "pitch": 55,
                "velocity": 47,
                "instrument": "keys"
              },
              {
                "t_on": 103.153333,
                "t_off": 103.448001,
                "pitch": 62,
                "velocity": 53,
                "instrument": "keys"
              },
              {
                "t_on": 103.153333,
                "t_off": 103.514368,
                "pitch": 67,
                "velocity": 58,
                "instrument": "keys"
              },
              {
                "t_on": 103.41333,
                "t_off": 103.509332,
                "pitch": 74,
                "velocity": 54,
                "instrument": "keys"
              },
              {
                "t_on": 103.41333,
                "t_off": 103.705902,
                "pitch": 90,
                "velocity": 55,
                "instrument": "keys"
              },
              {
                "t_on": 103.456001,
                "t_off": 103.618663,
                "pitch": 62,
                "velocity": 53,
                "instrument": "keys"
              },
              {
                "t_on": 103.466667,
                "t_off": 103.938663,
                "pitch": 78,
                "velocity": 49,
                "instrument": "keys"
              },
              {
                "t_on": 103.498665,
                "t_off": 103.594666,
                "pitch": 74,
                "velocity": 54,
                "instrument": "keys"
              },
              {
                "t_on": 103.584,
                "t_off": 103.938663,
                "pitch": 74,
                "velocity": 53,
                "instrument": "keys"
              },
              {
                "t_on": 103.626663,
                "t_off": 103.722665,
                "pitch": 62,
                "velocity": 52,
                "instrument": "keys"
              },
              {
                "t_on": 103.68,
                "t_off": 104.070541,
                "pitch": 96,
                "velocity": 40,
                "instrument": "keys"
              },
              {
                "t_on": 103.711998,
                "t_off": 103.874668,
                "pitch": 62,
                "velocity": 44,
                "instrument": "keys"
              },
              {
                "t_on": 103.882668,
                "t_off": 104.739331,
                "pitch": 62,
                "velocity": 45,
                "instrument": "keys"
              },
              {
                "t_on": 103.946663,
                "t_off": 104.84,
                "pitch": 74,
                "velocity": 49,
                "instrument": "keys"
              },
              {
                "t_on": 103.946663,
                "t_off": 104.803334,
                "pitch": 78,
                "velocity": 50,
                "instrument": "keys"
              },
              {
                "t_on": 104.255997,
                "t_off": 104.84,
                "pitch": 66,
                "velocity": 59,
                "instrument": "keys"
              },
              {
                "t_on": 104.351997,
                "t_off": 104.84,
                "pitch": 67,
                "velocity": 54,
                "instrument": "keys"
              },
              {
                "t_on": 104.490669,
                "t_off": 104.618668,
                "pitch": 73,
                "velocity": 42,
                "instrument": "keys"
              },
              {
                "t_on": 104.512001,
                "t_off": 104.608002,
                "pitch": 68,
                "velocity": 45,
                "instrument": "keys"
              },
              {
                "t_on": 104.522667,
                "t_off": 104.671998,
                "pitch": 86,
                "velocity": 39,
                "instrument": "keys"
              },
              {
                "t_on": 104.597336,
                "t_off": 104.69333,
                "pitch": 68,
                "velocity": 45,
                "instrument": "keys"
              },
              {
                "t_on": 104.608002,
                "t_off": 104.704003,
                "pitch": 73,
                "velocity": 40,
                "instrument": "keys"
              },
              {
                "t_on": 104.661331,
                "t_off": 105.026333,
                "pitch": 86,
                "velocity": 51,
                "instrument": "keys"
              },
              {
                "t_on": 104.682663,
                "t_off": 105.012667,
                "pitch": 68,
                "velocity": 45,
                "instrument": "keys"
              },
              {
                "t_on": 104.693336,
                "t_off": 104.78933,
                "pitch": 73,
                "velocity": 42,
                "instrument": "keys"
              },
              {
                "t_on": 104.693336,
                "t_off": 104.936411,
                "pitch": 85,
                "velocity": 51,
                "instrument": "keys"
              },
              {
                "t_on": 104.778664,
                "t_off": 105.64267,
                "pitch": 73,
                "velocity": 49,
                "instrument": "keys"
              },
              {
                "t_on": 104.800003,
                "t_off": 105.731335,
                "pitch": 83,
                "velocity": 47,
                "instrument": "keys"
              },
              {
                "t_on": 104.821335,
                "t_off": 105.851333,
                "pitch": 63,
                "velocity": 48,
                "instrument": "keys"
              },
              {
                "t_on": 104.84,
                "t_off": 105.87,
                "pitch": 66,
                "velocity": 64,
                "instrument": "keys"
              },
              {
                "t_on": 104.84,
                "t_off": 106.005,
                "pitch": 67,
                "velocity": 63,
                "instrument": "keys"
              },
              {
                "t_on": 104.84,
                "t_off": 105.03,
                "pitch": 74,
                "velocity": 57,
                "instrument": "keys"
              },
              {
                "t_on": 104.90667,
                "t_off": 105.831667,
                "pitch": 56,
                "velocity": 72,
                "instrument": "keys"
              },
              {
                "t_on": 105.482666,
                "t_off": 105.917667,
                "pitch": 79,
                "velocity": 40,
                "instrument": "keys"
              },
              {
                "t_on": 105.482666,
                "t_off": 106.200665,
                "pitch": 91,
                "velocity": 41,
                "instrument": "keys"
              },
              {
                "t_on": 105.493332,
                "t_off": 105.772535,
                "pitch": 85,
                "velocity": 44,
                "instrument": "keys"
              },
              {
                "t_on": 105.514664,
                "t_off": 105.802666,
                "pitch": 68,
                "velocity": 45,
                "instrument": "keys"
              },
              {
                "t_on": 105.632004,
                "t_off": 106.286,
                "pitch": 73,
                "velocity": 48,
                "instrument": "keys"
              },
              {
                "t_on": 105.792,
                "t_off": 106.509999,
                "pitch": 68,
                "velocity": 60,
                "instrument": "keys"
              },
              {
                "t_on": 105.877335,
                "t_off": 106.668333,
                "pitch": 51,
                "velocity": 49,
                "instrument": "keys"
              },
              {
                "t_on": 106.015999,
                "t_off": 106.563336,
                "pitch": 63,
                "velocity": 40,
                "instrument": "keys"
              },
              {
                "t_on": 106.250664,
                "t_off": 106.346665,
                "pitch": 75,
                "velocity": 41,
                "instrument": "keys"
              },
              {
                "t_on": 106.272003,
                "t_off": 106.367997,
                "pitch": 80,
                "velocity": 40,
                "instrument": "keys"
              },
              {
                "t_on": 106.293335,
                "t_off": 106.389336,
                "pitch": 85,
                "velocity": 40,
                "instrument": "keys"
              },
              {
                "t_on": 106.335999,
                "t_off": 106.533333,
                "pitch": 75,
                "velocity": 46,
                "instrument": "keys"
              },
              {
                "t_on": 106.35733,
                "t_off": 106.862333,
                "pitch": 80,
                "velocity": 43,
                "instrument": "keys"
              },
              {
                "t_on": 106.37867,
                "t_off": 106.525333,
                "pitch": 85,
                "velocity": 39,
                "instrument": "keys"
              },
              {
                "t_on": 106.485336,
                "t_off": 107.811337,
                "pitch": 83,
                "velocity": 52,
                "instrument": "keys"
              },
              {
                "t_on": 106.506668,
                "t_off": 107.352001,
                "pitch": 89,
                "velocity": 48,
                "instrument": "keys"
              },
              {
                "t_on": 106.506668,
                "t_off": 107.352001,
                "pitch": 93,
                "velocity": 52,
                "instrument": "keys"
              },
              {
                "t_on": 106.533333,
                "t_off": 106.882663,
                "pitch": 75,
                "velocity": 52,
                "instrument": "keys"
              },
              {
                "t_on": 106.533333,
                "t_off": 107.683331,
                "pitch": 85,
                "velocity": 60,
                "instrument": "keys"
              },
              {
                "t_on": 106.848,
                "t_off": 108.056668,
                "pitch": 84,
                "velocity": 59,
                "instrument": "keys"
              },
              {
                "t_on": 106.869331,
                "t_off": 107.372114,
                "pitch": 65,
                "velocity": 59,
                "instrument": "keys"
              },
              {
                "t_on": 106.879997,
                "t_off": 107.17308,
                "pitch": 80,
                "velocity": 59,
                "instrument": "keys"
              },
              {
                "t_on": 106.890663,
                "t_off": 108.184666,
                "pitch": 75,
                "velocity": 57,
                "instrument": "keys"
              },
              {
                "t_on": 107.221336,
                "t_off": 107.864666,
                "pitch": 87,
                "velocity": 44,
                "instrument": "keys"
              },
              {
                "t_on": 107.360001,
                "t_off": 107.753322,
                "pitch": 89,
                "velocity": 44,
                "instrument": "keys"
              },
              {
                "t_on": 107.360001,
                "t_off": 108.205998,
                "pitch": 93,
                "velocity": 45,
                "instrument": "keys"
              },
              {
                "t_on": 107.41333,
                "t_off": 108.429997,
                "pitch": 73,
                "velocity": 51,
                "instrument": "keys"
              },
              {
                "t_on": 107.552002,
                "t_off": 107.648003,
                "pitch": 92,
                "velocity": 49,
                "instrument": "keys"
              },
              {
                "t_on": 107.615997,
                "t_off": 107.765336,
                "pitch": 80,
                "velocity": 41,
                "instrument": "keys"
              },
              {
                "t_on": 107.637337,
                "t_off": 107.776002,
                "pitch": 92,
                "velocity": 49,
                "instrument": "keys"
              },
              {
                "t_on": 107.744003,
                "t_off": 107.839997,
                "pitch": 85,
                "velocity": 42,
                "instrument": "keys"
              },
              {
                "t_on": 107.754669,
                "t_off": 107.872002,
                "pitch": 80,
                "velocity": 38,
                "instrument": "keys"
              },
              {
                "t_on": 107.765335,
                "t_off": 108.080641,
                "pitch": 92,
                "velocity": 41,
                "instrument": "keys"
              },
              {
                "t_on": 107.82933,
                "t_off": 107.925332,
                "pitch": 85,
                "velocity": 41,
                "instrument": "keys"
              },
              {
                "t_on": 107.861336,
                "t_off": 108.000001,
                "pitch": 80,
                "velocity": 36,
                "instrument": "keys"
              },
              {
                "t_on": 107.914665,
                "t_off": 108.010667,
                "pitch": 85,
                "velocity": 37,
                "instrument": "keys"
              },
              {
                "t_on": 107.989334,
                "t_off": 108.096001,
                "pitch": 80,
                "velocity": 36,
                "instrument": "keys"
              },
              {
                "t_on": 108.0,
                "t_off": 108.096001,
                "pitch": 85,
                "velocity": 36,
                "instrument": "keys"
              },
              {
                "t_on": 108.085335,
                "t_off": 108.393495,
                "pitch": 80,
                "velocity": 35,
                "instrument": "keys"
              },
              {
                "t_on": 108.085335,
                "t_off": 108.202668,
                "pitch": 85,
                "velocity": 35,
                "instrument": "keys"
              },
              {
                "t_on": 108.192001,
                "t_off": 108.288003,
                "pitch": 85,
                "velocity": 36,
                "instrument": "keys"
              },
              {
                "t_on": 108.277336,
                "t_off": 108.727857,
                "pitch": 85,
                "velocity": 36,
                "instrument": "keys"
              },
              {
                "t_on": 110.730667,
                "t_off": 111.235667,
                "pitch": 55,
                "velocity": 41,
                "instrument": "keys"
              },
              {
                "t_on": 110.730667,
                "t_off": 111.410667,
                "pitch": 62,
                "velocity": 40,
                "instrument": "keys"
              },
              {
                "t_on": 110.730667,
                "t_off": 111.410667,
                "pitch": 64,
                "velocity": 44,
                "instrument": "keys"
              },
              {
                "t_on": 110.730667,
                "t_off": 111.410667,
                "pitch": 66,
                "velocity": 43,
                "instrument": "keys"
              },
              {
                "t_on": 110.730667,
                "t_off": 110.826669,
                "pitch": 74,
                "velocity": 47,
                "instrument": "keys"
              },
              {
                "t_on": 110.773331,
                "t_off": 110.869332,
                "pitch": 65,
                "velocity": 66,
                "instrument": "keys"
              },
              {
                "t_on": 110.816002,
                "t_off": 110.912003,
                "pitch": 74,
                "velocity": 78,
                "instrument": "keys"
              },
              {
                "t_on": 110.858665,
                "t_off": 111.783667,
                "pitch": 65,
                "velocity": 68,
                "instrument": "keys"
              },
              {
                "t_on": 110.901337,
                "t_off": 110.99733,
                "pitch": 74,
                "velocity": 70,
                "instrument": "keys"
              },
              {
                "t_on": 110.986664,
                "t_off": 111.082665,
                "pitch": 74,
                "velocity": 54,
                "instrument": "keys"
              },
              {
                "t_on": 111.071999,
                "t_off": 111.168,
                "pitch": 74,
                "velocity": 49,
                "instrument": "keys"
              },
              {
                "t_on": 111.157333,
                "t_off": 111.253335,
                "pitch": 74,
                "velocity": 44,
                "instrument": "keys"
              },
              {
                "t_on": 111.242668,
                "t_off": 111.33867,
                "pitch": 74,
                "velocity": 41,
                "instrument": "keys"
              },
              {
                "t_on": 111.328003,
                "t_off": 111.423997,
                "pitch": 74,
                "velocity": 40,
                "instrument": "keys"
              },
              {
                "t_on": 111.41333,
                "t_off": 111.509332,
                "pitch": 74,
                "velocity": 37,
                "instrument": "keys"
              },
              {
                "t_on": 111.498665,
                "t_off": 111.605332,
                "pitch": 74,
                "velocity": 36,
                "instrument": "keys"
              },
              {
                "t_on": 111.594666,
                "t_off": 112.238003,
                "pitch": 74,
                "velocity": 36,
                "instrument": "keys"
              },
              {
                "t_on": 112.853333,
                "t_off": 112.949334,
                "pitch": 77,
                "velocity": 41,
                "instrument": "keys"
              },
              {
                "t_on": 112.938667,
                "t_off": 113.583667,
                "pitch": 77,
                "velocity": 64,
                "instrument": "keys"
              },
              {
                "t_on": 113.226669,
                "t_off": 113.726667,
                "pitch": 83,
                "velocity": 53,
                "instrument": "keys"
              },
              {
                "t_on": 113.248001,
                "t_off": 113.344003,
                "pitch": 82,
                "velocity": 57,
                "instrument": "keys"
              },
              {
                "t_on": 113.269333,
                "t_off": 113.599333,
                "pitch": 94,
                "velocity": 52,
                "instrument": "keys"
              },
              {
                "t_on": 113.333336,
                "t_off": 113.42933,
                "pitch": 82,
                "velocity": 103,
                "instrument": "keys"
              },
              {
                "t_on": 113.418663,
                "t_off": 113.514664,
                "pitch": 82,
                "velocity": 95,
                "instrument": "keys"
              },
              {
                "t_on": 113.503998,
                "t_off": 113.599999,
                "pitch": 82,
                "velocity": 66,
                "instrument": "keys"
              },
              {
                "t_on": 113.589333,
                "t_off": 114.021333,
                "pitch": 82,
                "velocity": 45,
                "instrument": "keys"
              },
              {
                "t_on": 113.984001,
                "t_off": 114.904,
                "pitch": 73,
                "velocity": 44,
                "instrument": "keys"
              },
              {
                "t_on": 114.021333,
                "t_off": 114.771333,
                "pitch": 82,
                "velocity": 45,
                "instrument": "keys"
              },
              {
                "t_on": 114.05867,
                "t_off": 114.873667,
                "pitch": 64,
                "velocity": 60,
                "instrument": "keys"
              },
              {
                "t_on": 114.090668,
                "t_off": 114.870667,
                "pitch": 53,
                "velocity": 70,
                "instrument": "keys"
              },
              {
                "t_on": 114.143997,
                "t_off": 114.889,
                "pitch": 69,
                "velocity": 76,
                "instrument": "keys"
              },
              {
                "t_on": 114.165337,
                "t_off": 114.740333,
                "pitch": 65,
                "velocity": 92,
                "instrument": "keys"
              },
              {
                "t_on": 114.186668,
                "t_off": 114.896667,
                "pitch": 72,
                "velocity": 94,
                "instrument": "keys"
              },
              {
                "t_on": 114.282669,
                "t_off": 114.378663,
                "pitch": 81,
                "velocity": 76,
                "instrument": "keys"
              },
              {
                "t_on": 114.367996,
                "t_off": 114.463998,
                "pitch": 81,
                "velocity": 69,
                "instrument": "keys"
              },
              {
                "t_on": 114.453331,
                "t_off": 114.549332,
                "pitch": 81,
                "velocity": 61,
                "instrument": "keys"
              },
              {
                "t_on": 114.538666,
                "t_off": 114.634667,
                "pitch": 81,
                "velocity": 51,
                "instrument": "keys"
              },
              {
                "t_on": 114.624001,
                "t_off": 114.720002,
                "pitch": 81,
                "velocity": 44,
                "instrument": "keys"
              },
              {
                "t_on": 114.709335,
                "t_off": 114.805337,
                "pitch": 81,
                "velocity": 36,
                "instrument": "keys"
              },
              {
                "t_on": 114.79467,
                "t_off": 114.890664,
                "pitch": 81,
                "velocity": 36,
                "instrument": "keys"
              },
              {
                "t_on": 114.879997,
                "t_off": 114.975999,
                "pitch": 81,
                "velocity": 35,
                "instrument": "keys"
              },
              {
                "t_on": 114.965332,
                "t_off": 115.370168,
                "pitch": 81,
                "velocity": 35,
                "instrument": "keys"
              },
              {
                "t_on": 117.461334,
                "t_off": 118.478001,
                "pitch": 61,
                "velocity": 53,
                "instrument": "keys"
              },
              {
                "t_on": 117.482666,
                "t_off": 118.264668,
                "pitch": 62,
                "velocity": 52,
                "instrument": "keys"
              },
              {
                "t_on": 117.482666,
                "t_off": 118.327999,
                "pitch": 63,
                "velocity": 51,
                "instrument": "keys"
              },
              {
                "t_on": 117.493332,
                "t_off": 118.453333,
                "pitch": 35,
                "velocity": 53,
                "instrument": "keys"
              },
              {
                "t_on": 117.493332,
                "t_off": 118.36,
                "pitch": 41,
                "velocity": 51,
                "instrument": "keys"
              },
              {
                "t_on": 117.493332,
                "t_off": 118.36,
                "pitch": 56,
                "velocity": 53,
                "instrument": "keys"
              },
              {
                "t_on": 117.536003,
                "t_off": 117.922664,
                "pitch": 77,
                "velocity": 94,
                "instrument": "keys"
              },
              {
                "t_on": 117.557335,
                "t_off": 117.653336,
                "pitch": 54,
                "velocity": 100,
                "instrument": "keys"
              },
              {
                "t_on": 117.568001,
                "t_off": 118.423,
                "pitch": 34,
                "velocity": 82,
                "instrument": "keys"
              },
              {
                "t_on": 117.568001,
                "t_off": 117.664002,
                "pitch": 43,
                "velocity": 95,
                "instrument": "keys"
              },
              {
                "t_on": 117.578667,
                "t_off": 117.674668,
                "pitch": 82,
                "velocity": 96,
                "instrument": "keys"
              },
              {
                "t_on": 117.64267,
                "t_off": 117.869335,
                "pitch": 54,
                "velocity": 95,
                "instrument": "keys"
              },
              {
                "t_on": 117.653336,
                "t_off": 118.438333,
                "pitch": 36,
                "velocity": 82,
                "instrument": "keys"
              },
              {
                "t_on": 117.653336,
                "t_off": 118.438333,
                "pitch": 43,
                "velocity": 93,
                "instrument": "keys"
              },
              {
                "t_on": 117.664001,
                "t_off": 117.760003,
                "pitch": 82,
                "velocity": 89,
                "instrument": "keys"
              },
              {
                "t_on": 117.749336,
                "t_off": 118.317997,
                "pitch": 82,
                "velocity": 77,
                "instrument": "keys"
              },
              {
                "t_on": 117.866669,
                "t_off": 118.36,
                "pitch": 42,
                "velocity": 73,
                "instrument": "keys"
              },
              {
                "t_on": 117.877335,
                "t_off": 118.36,
                "pitch": 54,
                "velocity": 76,
                "instrument": "keys"
              },
              {
                "t_on": 117.930664,
                "t_off": 118.505667,
                "pitch": 77,
                "velocity": 70,
                "instrument": "keys"
              },
              {
                "t_on": 117.973335,
                "t_off": 118.36,
                "pitch": 74,
                "velocity": 79,
                "instrument": "keys"
              },
              {
                "t_on": 118.335999,
                "t_off": 118.979336,
                "pitch": 63,
                "velocity": 67,
                "instrument": "keys"
              },
              {
                "t_on": 118.36,
                "t_off": 118.539346,
                "pitch": 41,
                "velocity": 72,
                "instrument": "keys"
              },
              {
                "t_on": 118.36,
                "t_off": 118.445,
                "pitch": 42,
                "velocity": 78,
                "instrument": "keys"
              },
              {
                "t_on": 118.36,
                "t_off": 118.56792,
                "pitch": 54,
                "velocity": 84,
                "instrument": "keys"
              },
              {
                "t_on": 118.36,
                "t_off": 118.623154,
                "pitch": 56,
                "velocity": 78,
                "instrument": "keys"
              },
              {
                "t_on": 118.36,
                "t_off": 118.445,
                "pitch": 74,
                "velocity": 84,
                "instrument": "keys"
              },
              {
                "t_on": 118.410667,
                "t_off": 118.506669,
                "pitch": 82,
                "velocity": 102,
                "instrument": "keys"
              },
              {
                "t_on": 118.496002,
                "t_off": 118.592004,
                "pitch": 82,
                "velocity": 89,
                "instrument": "keys"
              },
              {
                "t_on": 118.538666,
                "t_off": 118.634667,
                "pitch": 70,
                "velocity": 79,
                "instrument": "keys"
              },
              {
                "t_on": 118.581337,
                "t_off": 118.677331,
                "pitch": 82,
                "velocity": 81,
                "instrument": "keys"
              },
              {
                "t_on": 118.624001,
                "t_off": 118.720002,
                "pitch": 70,
                "velocity": 74,
                "instrument": "keys"
              },
              {
                "t_on": 118.666664,
                "t_off": 118.773331,
                "pitch": 82,
                "velocity": 72,
                "instrument": "keys"
              },
              {
                "t_on": 118.709335,
                "t_off": 118.805337,
                "pitch": 70,
                "velocity": 65,
                "instrument": "keys"
              },
              {
                "t_on": 118.730667,
                "t_off": 119.02071,
                "pitch": 78,
                "velocity": 75,
                "instrument": "keys"
              },
              {
                "t_on": 118.762665,
                "t_off": 118.858666,
                "pitch": 82,
                "velocity": 62,
                "instrument": "keys"
              },
              {
                "t_on": 118.773331,
                "t_off": 118.869332,
                "pitch": 77,
                "velocity": 73,
                "instrument": "keys"
              },
              {
                "t_on": 118.79467,
                "t_off": 119.199998,
                "pitch": 70,
                "velocity": 88,
                "instrument": "keys"
              },
              {
                "t_on": 118.848,
                "t_off": 119.159999,
                "pitch": 82,
                "velocity": 83,
                "instrument": "keys"
              },
              {
                "t_on": 118.858665,
                "t_off": 118.954667,
                "pitch": 77,
                "velocity": 90,
                "instrument": "keys"
              },
              {
                "t_on": 118.944,
                "t_off": 119.040002,
                "pitch": 77,
                "velocity": 80,
                "instrument": "keys"
              },
              {
                "t_on": 118.954666,
                "t_off": 119.138667,
                "pitch": 71,
                "velocity": 77,
                "instrument": "keys"
              },
              {
                "t_on": 119.029335,
                "t_off": 119.125336,
                "pitch": 77,
                "velocity": 74,
                "instrument": "keys"
              },
              {
                "t_on": 119.11467,
                "t_off": 119.205333,
                "pitch": 77,
                "velocity": 63,
                "instrument": "keys"
              },
              {
                "t_on": 119.146667,
                "t_off": 119.383998,
                "pitch": 71,
                "velocity": 70,
                "instrument": "keys"
              },
              {
                "t_on": 119.146667,
                "t_off": 119.45351,
                "pitch": 83,
                "velocity": 71,
                "instrument": "keys"
              },
              {
                "t_on": 119.167999,
                "t_off": 119.264001,
                "pitch": 82,
                "velocity": 70,
                "instrument": "keys"
              },
              {
                "t_on": 119.189331,
                "t_off": 119.285332,
                "pitch": 70,
                "velocity": 72,
                "instrument": "keys"
              },
              {
                "t_on": 119.205333,
                "t_off": 119.647253,
                "pitch": 77,
                "velocity": 80,
                "instrument": "keys"
              },
              {
                "t_on": 119.253334,
                "t_off": 119.501331,
                "pitch": 82,
                "velocity": 101,
                "instrument": "keys"
              },
              {
                "t_on": 119.274666,
                "t_off": 119.52267,
                "pitch": 70,
                "velocity": 94,
                "instrument": "keys"
              },
              {
                "t_on": 119.381332,
                "t_off": 119.842667,
                "pitch": 63,
                "velocity": 73,
                "instrument": "keys"
              },
              {
                "t_on": 119.391998,
                "t_off": 119.950001,
                "pitch": 71,
                "velocity": 80,
                "instrument": "keys"
              },
              {
                "t_on": 119.509331,
                "t_off": 119.909333,
                "pitch": 82,
                "velocity": 76,
                "instrument": "keys"
              },
              {
                "t_on": 119.53067,
                "t_off": 119.842667,
                "pitch": 70,
                "velocity": 69,
                "instrument": "keys"
              },
              {
                "t_on": 119.562668,
                "t_off": 119.997667,
                "pitch": 74,
                "velocity": 63,
                "instrument": "keys"
              },
              {
                "t_on": 119.573334,
                "t_off": 119.842667,
                "pitch": 78,
                "velocity": 72,
                "instrument": "keys"
              },
              {
                "t_on": 119.658669,
                "t_off": 119.842667,
                "pitch": 62,
                "velocity": 89,
                "instrument": "keys"
              },
              {
                "t_on": 119.690666,
                "t_off": 119.834667,
                "pitch": 77,
                "velocity": 98,
                "instrument": "keys"
              },
              {
                "t_on": 119.842667,
                "t_off": 120.451336,
                "pitch": 62,
                "velocity": 89,
                "instrument": "keys"
              },
              {
                "t_on": 119.842667,
                "t_off": 120.611332,
                "pitch": 63,
                "velocity": 86,
                "instrument": "keys"
              },
              {
                "t_on": 119.842667,
                "t_off": 119.989335,
                "pitch": 70,
                "velocity": 91,
                "instrument": "keys"
              },
              {
                "t_on": 119.842667,
                "t_off": 120.386669,
                "pitch": 77,
                "velocity": 96,
                "instrument": "keys"
              },
              {
                "t_on": 119.842667,
                "t_off": 119.997667,
                "pitch": 78,
                "velocity": 89,
                "instrument": "keys"
              },
              {
                "t_on": 119.842667,
                "t_off": 120.299996,
                "pitch": 83,
                "velocity": 100,
                "instrument": "keys"
              },
              {
                "t_on": 119.925331,
                "t_off": 120.021333,
                "pitch": 82,
                "velocity": 101,
                "instrument": "keys"
              },
              {
                "t_on": 119.978668,
                "t_off": 120.07467,
                "pitch": 70,
                "velocity": 89,
                "instrument": "keys"
              },
              {
                "t_on": 120.010666,
                "t_off": 120.106667,
                "pitch": 82,
                "velocity": 90,
                "instrument": "keys"
              },
              {
                "t_on": 120.064003,
                "t_off": 120.46992,
                "pitch": 70,
                "velocity": 75,
                "instrument": "keys"
              },
              {
                "t_on": 120.096001,
                "t_off": 120.386669,
                "pitch": 82,
                "velocity": 77,
                "instrument": "keys"
              },
              {
                "t_on": 120.309334,
                "t_off": 121.144665,
                "pitch": 86,
                "velocity": 68,
                "instrument": "keys"
              },
              {
                "t_on": 120.384003,
                "t_off": 121.614003,
                "pitch": 89,
                "velocity": 63,
                "instrument": "keys"
              },
              {
                "t_on": 120.394669,
                "t_off": 120.866664,
                "pitch": 77,
                "velocity": 65,
                "instrument": "keys"
              },
              {
                "t_on": 120.394669,
                "t_off": 121.123333,
                "pitch": 82,
                "velocity": 70,
                "instrument": "keys"
              },
              {
                "t_on": 120.447998,
                "t_off": 121.158,
                "pitch": 61,
                "velocity": 66,
                "instrument": "keys"
              },
              {
                "t_on": 120.512001,
                "t_off": 120.841422,
                "pitch": 69,
                "velocity": 100,
                "instrument": "keys"
              },
              {
                "t_on": 120.512001,
                "t_off": 120.674663,
                "pitch": 74,
                "velocity": 100,
                "instrument": "keys"
              },
              {
                "t_on": 120.512001,
                "t_off": 120.842346,
                "pitch": 81,
                "velocity": 101,
                "instrument": "keys"
              },
              {
                "t_on": 120.543999,
                "t_off": 120.792003,
                "pitch": 62,
                "velocity": 94,
                "instrument": "keys"
              },
              {
                "t_on": 120.682663,
                "t_off": 121.357998,
                "pitch": 74,
                "velocity": 85,
                "instrument": "keys"
              },
              {
                "t_on": 120.800003,
                "t_off": 121.539334,
                "pitch": 62,
                "velocity": 82,
                "instrument": "keys"
              },
              {
                "t_on": 120.874664,
                "t_off": 121.322663,
                "pitch": 49,
                "velocity": 78,
                "instrument": "keys"
              },
              {
                "t_on": 120.874664,
                "t_off": 121.752,
                "pitch": 50,
                "velocity": 79,
                "instrument": "keys"
              },
              {
                "t_on": 120.874664,
                "t_off": 121.752,
                "pitch": 52,
                "velocity": 81,
                "instrument": "keys"
              },
              {
                "t_on": 120.874664,
                "t_off": 121.603337,
                "pitch": 77,
                "velocity": 89,
                "instrument": "keys"
              },
              {
                "t_on": 121.183998,
                "t_off": 121.486727,
                "pitch": 51,
                "velocity": 70,
                "instrument": "keys"
              },
              {
                "t_on": 121.194664,
                "t_off": 121.752,
                "pitch": 70,
                "velocity": 79,
                "instrument": "keys"
              },
              {
                "t_on": 121.216003,
                "t_off": 121.538019,
                "pitch": 75,
                "velocity": 71,
                "instrument": "keys"
              },
              {
                "t_on": 121.216003,
                "t_off": 121.515273,
                "pitch": 81,
                "velocity": 68,
                "instrument": "keys"
              },
              {
                "t_on": 121.269333,
                "t_off": 121.752,
                "pitch": 69,
                "velocity": 66,
                "instrument": "keys"
              },
              {
                "t_on": 121.311996,
                "t_off": 121.752,
                "pitch": 49,
                "velocity": 64,
                "instrument": "keys"
              },
              {
                "t_on": 121.695999,
                "t_off": 122.413998,
                "pitch": 80,
                "velocity": 70,
                "instrument": "keys"
              },
              {
                "t_on": 121.706665,
                "t_off": 122.563336,
                "pitch": 64,
                "velocity": 65,
                "instrument": "keys"
              },
              {
                "t_on": 121.752,
                "t_off": 122.0128,
                "pitch": 49,
                "velocity": 72,
                "instrument": "keys"
              },
              {
                "t_on": 121.752,
                "t_off": 122.727,
                "pitch": 50,
                "velocity": 85,
                "instrument": "keys"
              },
              {
                "t_on": 121.752,
                "t_off": 122.112,
                "pitch": 51,
                "velocity": 74,
                "instrument": "keys"
              },
              {
                "t_on": 121.752,
                "t_off": 122.075513,
                "pitch": 52,
                "velocity": 85,
                "instrument": "keys"
              },
              {
                "t_on": 121.752,
                "t_off": 122.029167,
                "pitch": 69,
                "velocity": 77,
                "instrument": "keys"
              },
              {
                "t_on": 121.752,
                "t_off": 121.989513,
                "pitch": 70,
                "velocity": 86,
                "instrument": "keys"
              },
              {
                "t_on": 121.909332,
                "t_off": 122.616665,
                "pitch": 71,
                "velocity": 76,
                "instrument": "keys"
              },
              {
                "t_on": 121.930664,
                "t_off": 122.592,
                "pitch": 79,
                "velocity": 73,
                "instrument": "keys"
              },
              {
                "t_on": 122.047997,
                "t_off": 122.443462,
                "pitch": 70,
                "velocity": 78,
                "instrument": "keys"
              },
              {
                "t_on": 122.047997,
                "t_off": 122.592,
                "pitch": 82,
                "velocity": 80,
                "instrument": "keys"
              },
              {
                "t_on": 122.05867,
                "t_off": 122.26133,
                "pitch": 75,
                "velocity": 78,
                "instrument": "keys"
              },
              {
                "t_on": 122.101334,
                "t_off": 122.727,
                "pitch": 51,
                "velocity": 65,
                "instrument": "keys"
              },
              {
                "t_on": 122.112,
                "t_off": 122.592,
                "pitch": 78,
                "velocity": 78,
                "instrument": "keys"
              },
              {
                "t_on": 122.133331,
                "t_off": 122.592,
                "pitch": 96,
                "velocity": 73,
                "instrument": "keys"
              },
              {
                "t_on": 122.250664,
                "t_off": 122.592,
                "pitch": 75,
                "velocity": 99,
                "instrument": "keys"
              },
              {
                "t_on": 122.592,
                "t_off": 124.099331,
                "pitch": 69,
                "velocity": 99,
                "instrument": "keys"
              },
              {
                "t_on": 122.592,
                "t_off": 122.782427,
                "pitch": 75,
                "velocity": 99,
                "instrument": "keys"
              },
              {
                "t_on": 122.592,
                "t_off": 122.835077,
                "pitch": 78,
                "velocity": 91,
                "instrument": "keys"
              },
              {
                "t_on": 122.592,
                "t_off": 124.696667,
                "pitch": 79,
                "velocity": 96,
                "instrument": "keys"
              },
              {
                "t_on": 122.592,
                "t_off": 122.849481,
                "pitch": 82,
                "velocity": 91,
                "instrument": "keys"
              },
              {
                "t_on": 122.592,
                "t_off": 122.835077,
                "pitch": 96,
                "velocity": 91,
                "instrument": "keys"
              },
              {
                "t_on": 122.762665,
                "t_off": 124.91,
                "pitch": 88,
                "velocity": 86,
                "instrument": "keys"
              },
              {
                "t_on": 122.773331,
                "t_off": 125.037999,
                "pitch": 85,
                "velocity": 86,
                "instrument": "keys"
              },
              {
                "t_on": 122.890663,
                "t_off": 125.05933,
                "pitch": 82,
                "velocity": 95,
                "instrument": "keys"
              },
              {
                "t_on": 122.944,
                "t_off": 124.707333,
                "pitch": 63,
                "velocity": 86,
                "instrument": "keys"
              },
              {
                "t_on": 123.09333,
                "t_off": 124.878002,
                "pitch": 70,
                "velocity": 95,
                "instrument": "keys"
              },
              {
                "t_on": 123.199997,
                "t_off": 124.771336,
                "pitch": 72,
                "velocity": 79,
                "instrument": "keys"
              },
              {
                "t_on": 123.776001,
                "t_off": 125.528668,
                "pitch": 96,
                "velocity": 78,
                "instrument": "keys"
              },
              {
                "t_on": 124.010666,
                "t_off": 125.058666,
                "pitch": 83,
                "velocity": 87,
                "instrument": "keys"
              },
              {
                "t_on": 124.26667,
                "t_off": 125.347332,
                "pitch": 47,
                "velocity": 66,
                "instrument": "keys"
              },
              {
                "t_on": 124.341331,
                "t_off": 125.056333,
                "pitch": 44,
                "velocity": 80,
                "instrument": "keys"
              },
              {
                "t_on": 124.351997,
                "t_off": 125.347332,
                "pitch": 45,
                "velocity": 81,
                "instrument": "keys"
              },
              {
                "t_on": 124.533333,
                "t_off": 124.828333,
                "pitch": 77,
                "velocity": 72,
                "instrument": "keys"
              },
              {
                "t_on": 124.608002,
                "t_off": 125.087998,
                "pitch": 78,
                "velocity": 70,
                "instrument": "keys"
              },
              {
                "t_on": 124.800003,
                "t_off": 125.37933,
                "pitch": 46,
                "velocity": 72,
                "instrument": "keys"
              },
              {
                "t_on": 124.821335,
                "t_off": 125.293331,
                "pitch": 80,
                "velocity": 75,
                "instrument": "keys"
              },
              {
                "t_on": 124.863998,
                "t_off": 125.326734,
                "pitch": 48,
                "velocity": 69,
                "instrument": "keys"
              },
              {
                "t_on": 124.90667,
                "t_off": 125.507336,
                "pitch": 58,
                "velocity": 73,
                "instrument": "keys"
              },
              {
                "t_on": 124.981331,
                "t_off": 125.130669,
                "pitch": 70,
                "velocity": 76,
                "instrument": "keys"
              },
              {
                "t_on": 125.034668,
                "t_off": 125.742001,
                "pitch": 92,
                "velocity": 57,
                "instrument": "keys"
              },
              {
                "t_on": 125.066666,
                "t_off": 125.624668,
                "pitch": 83,
                "velocity": 58,
                "instrument": "keys"
              },
              {
                "t_on": 125.077332,
                "t_off": 125.482078,
                "pitch": 78,
                "velocity": 62,
                "instrument": "keys"
              },
              {
                "t_on": 125.087997,
                "t_off": 125.614003,
                "pitch": 66,
                "velocity": 59,
                "instrument": "keys"
              },
              {
                "t_on": 125.120003,
                "t_off": 125.624668,
                "pitch": 70,
                "velocity": 66,
                "instrument": "keys"
              },
              {
                "t_on": 125.258667,
                "t_off": 125.76145,
                "pitch": 65,
                "velocity": 62,
                "instrument": "keys"
              },
              {
                "t_on": 125.258667,
                "t_off": 125.901997,
                "pitch": 82,
                "velocity": 68,
                "instrument": "keys"
              },
              {
                "t_on": 125.301331,
                "t_off": 125.838002,
                "pitch": 80,
                "velocity": 61,
                "instrument": "keys"
              },
              {
                "t_on": 125.493332,
                "t_off": 126.126004,
                "pitch": 78,
                "velocity": 61,
                "instrument": "keys"
              },
              {
                "t_on": 125.727997,
                "t_off": 126.135997,
                "pitch": 71,
                "velocity": 67,
                "instrument": "keys"
              },
              {
                "t_on": 126.037331,
                "t_off": 126.570664,
                "pitch": 82,
                "velocity": 77,
                "instrument": "keys"
              },
              {
                "t_on": 126.133331,
                "t_off": 126.621322,
                "pitch": 84,
                "velocity": 60,
                "instrument": "keys"
              },
              {
                "t_on": 126.143997,
                "t_off": 126.723332,
                "pitch": 71,
                "velocity": 64,
                "instrument": "keys"
              },
              {
                "t_on": 126.197334,
                "t_off": 126.378663,
                "pitch": 77,
                "velocity": 72,
                "instrument": "keys"
              },
              {
                "t_on": 126.26133,
                "t_off": 126.850665,
                "pitch": 70,
                "velocity": 58,
                "instrument": "keys"
              },
              {
                "t_on": 126.335999,
                "t_off": 126.64787,
                "pitch": 78,
                "velocity": 56,
                "instrument": "keys"
              },
              {
                "t_on": 126.35733,
                "t_off": 126.453332,
                "pitch": 65,
                "velocity": 54,
                "instrument": "keys"
              },
              {
                "t_on": 126.35733,
                "t_off": 126.453332,
                "pitch": 94,
                "velocity": 49,
                "instrument": "keys"
              },
              {
                "t_on": 126.367996,
                "t_off": 126.463998,
                "pitch": 77,
                "velocity": 52,
                "instrument": "keys"
              },
              {
                "t_on": 126.442665,
                "t_off": 126.538667,
                "pitch": 65,
                "velocity": 73,
                "instrument": "keys"
              },
              {
                "t_on": 126.442665,
                "t_off": 126.772667,
                "pitch": 94,
                "velocity": 66,
                "instrument": "keys"
              },
              {
                "t_on": 126.453331,
                "t_off": 126.701335,
                "pitch": 77,
                "velocity": 68,
                "instrument": "keys"
              },
              {
                "t_on": 126.528,
                "t_off": 126.624001,
                "pitch": 65,
                "velocity": 65,
                "instrument": "keys"
              },
              {
                "t_on": 126.559998,
                "t_off": 126.655999,
                "pitch": 82,
                "velocity": 67,
                "instrument": "keys"
              },
              {
                "t_on": 126.613335,
                "t_off": 126.709336,
                "pitch": 65,
                "velocity": 77,
                "instrument": "keys"
              },
              {
                "t_on": 126.645332,
                "t_off": 126.741334,
                "pitch": 82,
                "velocity": 82,
                "instrument": "keys"
              },
              {
                "t_on": 126.698669,
                "t_off": 126.871997,
                "pitch": 65,
                "velocity": 68,
                "instrument": "keys"
              },
              {
                "t_on": 126.709335,
                "t_off": 126.871997,
                "pitch": 77,
                "velocity": 71,
                "instrument": "keys"
              },
              {
                "t_on": 126.730667,
                "t_off": 127.620667,
                "pitch": 82,
                "velocity": 67,
                "instrument": "keys"
              },
              {
                "t_on": 126.858665,
                "t_off": 127.040002,
                "pitch": 70,
                "velocity": 62,
                "instrument": "keys"
              },
              {
                "t_on": 126.879997,
                "t_off": 127.490665,
                "pitch": 65,
                "velocity": 64,
                "instrument": "keys"
              },
              {
                "t_on": 126.879997,
                "t_off": 126.975999,
                "pitch": 77,
                "velocity": 65,
                "instrument": "keys"
              },
              {
                "t_on": 126.965332,
                "t_off": 127.061333,
                "pitch": 77,
                "velocity": 51,
                "instrument": "keys"
              },
              {
                "t_on": 126.975998,
                "t_off": 127.071999,
                "pitch": 84,
                "velocity": 50,
                "instrument": "keys"
              },
              {
                "t_on": 126.99733,
                "t_off": 127.189332,
                "pitch": 71,
                "velocity": 52,
                "instrument": "keys"
              },
              {
                "t_on": 127.029335,
                "t_off": 127.125336,
                "pitch": 70,
                "velocity": 48,
                "instrument": "keys"
              },
              {
                "t_on": 127.050667,
                "t_off": 127.760667,
                "pitch": 77,
                "velocity": 51,
                "instrument": "keys"
              },
              {
                "t_on": 127.061333,
                "t_off": 127.181333,
                "pitch": 84,
                "velocity": 49,
                "instrument": "keys"
              },
              {
                "t_on": 127.11467,
                "t_off": 127.40533,
                "pitch": 70,
                "velocity": 54,
                "instrument": "keys"
              },
              {
                "t_on": 127.178665,
                "t_off": 127.748667,
                "pitch": 71,
                "velocity": 53,
                "instrument": "keys"
              },
              {
                "t_on": 127.41333,
                "t_off": 127.603333,
                "pitch": 70,
                "velocity": 52,
                "instrument": "keys"
              },
              {
                "t_on": 127.498665,
                "t_off": 127.968667,
                "pitch": 65,
                "velocity": 61,
                "instrument": "keys"
              },
              {
                "t_on": 127.615997,
                "t_off": 128.151,
                "pitch": 91,
                "velocity": 45,
                "instrument": "keys"
              },
              {
                "t_on": 127.626663,
                "t_off": 128.098674,
                "pitch": 88,
                "velocity": 42,
                "instrument": "keys"
              },
              {
                "t_on": 127.637337,
                "t_off": 128.365994,
                "pitch": 61,
                "velocity": 49,
                "instrument": "keys"
              },
              {
                "t_on": 127.744003,
                "t_off": 128.047546,
                "pitch": 33,
                "velocity": 56,
                "instrument": "keys"
              },
              {
                "t_on": 127.744003,
                "t_off": 127.946664,
                "pitch": 73,
                "velocity": 69,
                "instrument": "keys"
              },
              {
                "t_on": 127.839996,
                "t_off": 128.266848,
                "pitch": 53,
                "velocity": 52,
                "instrument": "keys"
              },
              {
                "t_on": 127.903999,
                "t_off": 128.000001,
                "pitch": 60,
                "velocity": 54,
                "instrument": "keys"
              },
              {
                "t_on": 127.903999,
                "t_off": 128.000001,
                "pitch": 72,
                "velocity": 51,
                "instrument": "keys"
              },
              {
                "t_on": 127.935997,
                "t_off": 128.05333,
                "pitch": 73,
                "velocity": 49,
                "instrument": "keys"
              },
              {
                "t_on": 127.989334,
                "t_off": 128.308722,
                "pitch": 60,
                "velocity": 46,
                "instrument": "keys"
              },
              {
                "t_on": 127.989334,
                "t_off": 129.357998,
                "pitch": 72,
                "velocity": 43,
                "instrument": "keys"
              },
              {
                "t_on": 128.042664,
                "t_off": 128.50838,
                "pitch": 73,
                "velocity": 39,
                "instrument": "keys"
              },
              {
                "t_on": 128.106674,
                "t_off": 128.621333,
                "pitch": 88,
                "velocity": 36,
                "instrument": "keys"
              },
              {
                "t_on": 128.202667,
                "t_off": 128.478414,
                "pitch": 33,
                "velocity": 42,
                "instrument": "keys"
              },
              {
                "t_on": 128.629333,
                "t_off": 128.907323,
                "pitch": 88,
                "velocity": 45,
                "instrument": "keys"
              },
              {
                "t_on": 128.714661,
                "t_off": 128.81067,
                "pitch": 33,
                "velocity": 52,
                "instrument": "keys"
              },
              {
                "t_on": 128.800003,
                "t_off": 129.445,
                "pitch": 33,
                "velocity": 48,
                "instrument": "keys"
              },
              {
                "t_on": 130.99733,
                "t_off": 131.093339,
                "pitch": 74,
                "velocity": 44,
                "instrument": "keys"
              },
              {
                "t_on": 131.007996,
                "t_off": 131.104005,
                "pitch": 55,
                "velocity": 44,
                "instrument": "keys"
              },
              {
                "t_on": 131.082672,
                "t_off": 131.178666,
                "pitch": 74,
                "velocity": 53,
                "instrument": "keys"
              },
              {
                "t_on": 131.093338,
                "t_off": 131.189332,
                "pitch": 55,
                "velocity": 53,
                "instrument": "keys"
              },
              {
                "t_on": 131.167999,
                "t_off": 131.863994,
                "pitch": 74,
                "velocity": 46,
                "instrument": "keys"
              },
              {
                "t_on": 131.178665,
                "t_off": 131.274674,
                "pitch": 55,
                "velocity": 47,
                "instrument": "keys"
              },
              {
                "t_on": 131.264008,
                "t_off": 131.360001,
                "pitch": 55,
                "velocity": 40,
                "instrument": "keys"
              },
              {
                "t_on": 131.349335,
                "t_off": 131.445329,
                "pitch": 55,
                "velocity": 39,
                "instrument": "keys"
              },
              {
                "t_on": 131.434662,
                "t_off": 131.530671,
                "pitch": 55,
                "velocity": 37,
                "instrument": "keys"
              },
              {
                "t_on": 131.520004,
                "t_off": 132.355328,
                "pitch": 55,
                "velocity": 42,
                "instrument": "keys"
              },
              {
                "t_on": 131.871994,
                "t_off": 131.968003,
                "pitch": 74,
                "velocity": 36,
                "instrument": "keys"
              },
              {
                "t_on": 131.957336,
                "t_off": 132.246439,
                "pitch": 74,
                "velocity": 36,
                "instrument": "keys"
              },
              {
                "t_on": 132.287994,
                "t_off": 132.384003,
                "pitch": 74,
                "velocity": 38,
                "instrument": "keys"
              },
              {
                "t_on": 132.373337,
                "t_off": 132.469331,
                "pitch": 74,
                "velocity": 43,
                "instrument": "keys"
              },
              {
                "t_on": 132.458664,
                "t_off": 132.554673,
                "pitch": 74,
                "velocity": 48,
                "instrument": "keys"
              },
              {
                "t_on": 132.544006,
                "t_off": 132.64,
                "pitch": 74,
                "velocity": 47,
                "instrument": "keys"
              },
              {
                "t_on": 132.629333,
                "t_off": 132.725327,
                "pitch": 74,
                "velocity": 39,
                "instrument": "keys"
              },
              {
                "t_on": 132.714661,
                "t_off": 133.136787,
                "pitch": 74,
                "velocity": 38,
                "instrument": "keys"
              },
              {
                "t_on": 133.557327,
                "t_off": 133.653336,
                "pitch": 74,
                "velocity": 42,
                "instrument": "keys"
              },
              {
                "t_on": 133.64267,
                "t_off": 133.738663,
                "pitch": 74,
                "velocity": 44,
                "instrument": "keys"
              },
              {
                "t_on": 133.727997,
                "t_off": 133.965328,
                "pitch": 74,
                "velocity": 37,
                "instrument": "keys"
              },
              {
                "t_on": 133.973328,
                "t_off": 134.069337,
                "pitch": 74,
                "velocity": 41,
                "instrument": "keys"
              },
              {
                "t_on": 134.05867,
                "t_off": 134.154664,
                "pitch": 74,
                "velocity": 46,
                "instrument": "keys"
              },
              {
                "t_on": 134.143997,
                "t_off": 134.445339,
                "pitch": 74,
                "velocity": 38,
                "instrument": "keys"
              },
              {
                "t_on": 134.453339,
                "t_off": 134.861339,
                "pitch": 74,
                "velocity": 45,
                "instrument": "keys"
              },
              {
                "t_on": 134.623993,
                "t_off": 135.199,
                "pitch": 31,
                "velocity": 41,
                "instrument": "keys"
              },
              {
                "t_on": 134.869339,
                "t_off": 134.965333,
                "pitch": 74,
                "velocity": 48,
                "instrument": "keys"
              },
              {
                "t_on": 134.954666,
                "t_off": 135.05066,
                "pitch": 74,
                "velocity": 44,
                "instrument": "keys"
              },
              {
                "t_on": 135.039993,
                "t_off": 135.747326,
                "pitch": 74,
                "velocity": 38,
                "instrument": "keys"
              },
              {
                "t_on": 137.824005,
                "t_off": 137.919999,
                "pitch": 53,
                "velocity": 42,
                "instrument": "keys"
              },
              {
                "t_on": 137.909332,
                "t_off": 138.694333,
                "pitch": 53,
                "velocity": 47,
                "instrument": "keys"
              },
              {
                "t_on": 141.248001,
                "t_off": 141.923,
                "pitch": 73,
                "velocity": 37,
                "instrument": "keys"
              },
              {
                "t_on": 141.269333,
                "t_off": 141.809333,
                "pitch": 76,
                "velocity": 41,
                "instrument": "keys"
              },
              {
                "t_on": 141.290665,
                "t_off": 141.830667,
                "pitch": 57,
                "velocity": 56,
                "instrument": "keys"
              },
              {
                "t_on": 141.376007,
                "t_off": 142.056,
                "pitch": 45,
                "velocity": 61,
                "instrument": "keys"
              },
              {
                "t_on": 141.397339,
                "t_off": 142.322333,
                "pitch": 31,
                "velocity": 54,
                "instrument": "keys"
              },
              {
                "t_on": 141.493332,
                "t_off": 142.158001,
                "pitch": 60,
                "velocity": 50,
                "instrument": "keys"
              },
              {
                "t_on": 141.535995,
                "t_off": 141.632005,
                "pitch": 41,
                "velocity": 44,
                "instrument": "keys"
              },
              {
                "t_on": 141.535995,
                "t_off": 141.831,
                "pitch": 56,
                "velocity": 44,
                "instrument": "keys"
              },
              {
                "t_on": 141.610672,
                "t_off": 142.325667,
                "pitch": 30,
                "velocity": 42,
                "instrument": "keys"
              },
              {
                "t_on": 141.621338,
                "t_off": 142.161333,
                "pitch": 41,
                "velocity": 44,
                "instrument": "keys"
              },
              {
                "t_on": 141.653336,
                "t_off": 142.158333,
                "pitch": 36,
                "velocity": 42,
                "instrument": "keys"
              },
              {
                "t_on": 141.77066,
                "t_off": 142.345667,
                "pitch": 33,
                "velocity": 40,
                "instrument": "keys"
              },
              {
                "t_on": 146.442673,
                "t_off": 146.614588,
                "pitch": 42,
                "velocity": 44,
                "instrument": "keys"
              },
              {
                "t_on": 146.442673,
                "t_off": 146.538667,
                "pitch": 50,
                "velocity": 43,
                "instrument": "keys"
              },
              {
                "t_on": 146.453339,
                "t_off": 146.570664,
                "pitch": 54,
                "velocity": 45,
                "instrument": "keys"
              },
              {
                "t_on": 146.464005,
                "t_off": 147.214,
                "pitch": 39,
                "velocity": 48,
                "instrument": "keys"
              },
              {
                "t_on": 146.464005,
                "t_off": 146.559998,
                "pitch": 46,
                "velocity": 49,
                "instrument": "keys"
              },
              {
                "t_on": 146.464005,
                "t_off": 147.284,
                "pitch": 48,
                "velocity": 49,
                "instrument": "keys"
              },
              {
                "t_on": 146.517334,
                "t_off": 147.372333,
                "pitch": 52,
                "velocity": 59,
                "instrument": "keys"
              },
              {
                "t_on": 146.528,
                "t_off": 147.453,
                "pitch": 50,
                "velocity": 61,
                "instrument": "keys"
              },
              {
                "t_on": 146.538666,
                "t_off": 146.63466,
                "pitch": 61,
                "velocity": 62,
                "instrument": "keys"
              },
              {
                "t_on": 146.549332,
                "t_off": 147.439333,
                "pitch": 46,
                "velocity": 60,
                "instrument": "keys"
              },
              {
                "t_on": 146.559998,
                "t_off": 146.677338,
                "pitch": 54,
                "velocity": 60,
                "instrument": "keys"
              },
              {
                "t_on": 146.623993,
                "t_off": 146.720002,
                "pitch": 61,
                "velocity": 56,
                "instrument": "keys"
              },
              {
                "t_on": 146.666672,
                "t_off": 147.451667,
                "pitch": 54,
                "velocity": 51,
                "instrument": "keys"
              },
              {
                "t_on": 146.709335,
                "t_off": 147.529333,
                "pitch": 61,
                "velocity": 50,
                "instrument": "keys"
              },
              {
                "t_on": 146.783997,
                "t_off": 147.534,
                "pitch": 42,
                "velocity": 45,
                "instrument": "keys"
              }
            ],
            "overall": {
              "tp": 10,
              "fp": 2003,
              "fn": 416,
              "f1": 0.0082,
              "precision": 0.005,
              "recall": 0.0235,
              "onset_only_f1": 0.1902,
              "pitch_accuracy": 0.0431,
              "offset_accuracy": 0.2,
              "note_with_offset_f1": 0.0016,
              "note_with_offset_velocity_f1": 0.0008,
              "onset_timing_mae_ms": 31.36,
              "offset_timing_mae_ms": 620.26,
              "velocity_mae": 8.8,
              "duplicate_rate": 0.0
            },
            "gameplay": {
              "role": "keys",
              "note_count": 2013,
              "duration_sec": 147.534,
              "notes_per_minute": 818.659,
              "playable_density_flag": true,
              "duplicate_count": 0,
              "duplicate_rate": 0.0,
              "chatter_count": 544,
              "polyphony_event_rate": 0.991058,
              "max_polyphony": 26,
              "pitch_min": 29,
              "pitch_max": 96,
              "mean_duration_sec": 0.42645,
              "piano_left_hand_notes": 722,
              "piano_right_hand_notes": 1291
            },
            "sync": {
              "status": "ok",
              "start_offset_sec": 0.302375,
              "quarantine": false,
              "threshold_sec": 2.0
            },
            "classifier": {
              "kind": "piano",
              "primary_dimension": "pitch",
              "dimensions": [
                {
                  "name": "pitch",
                  "class_metrics": [
                    {
                      "label": "A#4",
                      "reference_count": 22,
                      "predicted_count": 61,
                      "tp": 0,
                      "fp": 61,
                      "fn": 22,
                      "precision": 0.0,
                      "recall": 0.0,
                      "f1": 0.0
                    },
                    {
                      "label": "F#2",
                      "reference_count": 10,
                      "predicted_count": 17,
                      "tp": 0,
                      "fp": 17,
                      "fn": 10,
                      "precision": 0.0,
                      "recall": 0.0,
                      "f1": 0.0
                    },
                    {
                      "label": "D4",
                      "reference_count": 8,
                      "predicted_count": 60,
                      "tp": 0,
                      "fp": 60,
                      "fn": 8,
                      "precision": 0.0,
                      "recall": 0.0,
                      "f1": 0.0
                    },
                    {
                      "label": "C3",
                      "reference_count": 4,
                      "predicted_count": 33,
                      "tp": 0,
                      "fp": 33,
                      "fn": 4,
                      "precision": 0.0,
                      "recall": 0.0,
                      "f1": 0.0
                    },
                    {
                      "label": "D2",
                      "reference_count": 4,
                      "predicted_count": 21,
                      "tp": 0,
                      "fp": 21,
                      "fn": 4,
                      "precision": 0.0,
                      "recall": 0.0,
                      "f1": 0.0
                    },
                    {
                      "label": "A#1",
                      "reference_count": 3,
                      "predicted_count": 17,
                      "tp": 0,
                      "fp": 17,
                      "fn": 3,
                      "precision": 0.0,
                      "recall": 0.0,
                      "f1": 0.0
                    },
                    {
                      "label": "G3",
                      "reference_count": 3,
                      "predicted_count": 62,
                      "tp": 0,
                      "fp": 62,
                      "fn": 3,
                      "precision": 0.0,
                      "recall": 0.0,
                      "f1": 0.0
                    },
                    {
                      "label": "B1",
                      "reference_count": 2,
                      "predicted_count": 9,
                      "tp": 0,
                      "fp": 9,
                      "fn": 2,
                      "precision": 0.0,
                      "recall": 0.0,
                      "f1": 0.0
                    },
                    {
                      "label": "C5",
                      "reference_count": 2,
                      "predicted_count": 48,
                      "tp": 0,
                      "fp": 48,
                      "fn": 2,
                      "precision": 0.0,
                      "recall": 0.0,
                      "f1": 0.0
                    },
                    {
                      "label": "D#4",
                      "reference_count": 2,
                      "predicted_count": 33,
                      "tp": 0,
                      "fp": 33,
                      "fn": 2,
                      "precision": 0.0,
                      "recall": 0.0,
                      "f1": 0.0
                    },
                    {
                      "label": "D3",
                      "reference_count": 2,
                      "predicted_count": 29,
                      "tp": 0,
                      "fp": 29,
                      "fn": 2,
                      "precision": 0.0,
                      "recall": 0.0,
                      "f1": 0.0
                    },
                    {
                      "label": "A3",
                      "reference_count": 1,
                      "predicted_count": 38,
                      "tp": 0,
                      "fp": 38,
                      "fn": 1,
                      "precision": 0.0,
                      "recall": 0.0,
                      "f1": 0.0
                    },
                    {
                      "label": "D#2",
                      "reference_count": 1,
                      "predicted_count": 9,
                      "tp": 0,
                      "fp": 9,
                      "fn": 1,
                      "precision": 0.0,
                      "recall": 0.0,
                      "f1": 0.0
                    },
                    {
                      "label": "D5",
                      "reference_count": 1,
                      "predicted_count": 77,
                      "tp": 0,
                      "fp": 77,
                      "fn": 1,
                      "precision": 0.0,
                      "recall": 0.0,
                      "f1": 0.0
                    },
                    {
                      "label": "G1",
                      "reference_count": 1,
                      "predicted_count": 6,
                      "tp": 0,
                      "fp": 6,
                      "fn": 1,
                      "precision": 0.0,
                      "recall": 0.0,
                      "f1": 0.0
                    },
                    {
                      "label": "A#5",
                      "reference_count": 0,
                      "predicted_count": 44,
                      "tp": 0,
                      "fp": 44,
                      "fn": 0,
                      "precision": 0.0,
                      "recall": 0.0,
                      "f1": 0.0
                    },
                    {
                      "label": "A#6",
                      "reference_count": 0,
                      "predicted_count": 9,
                      "tp": 0,
                      "fp": 9,
                      "fn": 0,
                      "precision": 0.0,
                      "recall": 0.0,
                      "f1": 0.0
                    },
                    {
                      "label": "A1",
                      "reference_count": 0,
                      "predicted_count": 11,
                      "tp": 0,
                      "fp": 11,
                      "fn": 0,
                      "precision": 0.0,
                      "recall": 0.0,
                      "f1": 0.0
                    },
                    {
                      "label": "A2",
                      "reference_count": 0,
                      "predicted_count": 12,
                      "tp": 0,
                      "fp": 12,
                      "fn": 0,
                      "precision": 0.0,
                      "recall": 0.0,
                      "f1": 0.0
                    },
                    {
                      "label": "A5",
                      "reference_count": 0,
                      "predicted_count": 40,
                      "tp": 0,
                      "fp": 40,
                      "fn": 0,
                      "precision": 0.0,
                      "recall": 0.0,
                      "f1": 0.0
                    },
                    {
                      "label": "A6",
                      "reference_count": 0,
                      "predicted_count": 10,
                      "tp": 0,
                      "fp": 10,
                      "fn": 0,
                      "precision": 0.0,
                      "recall": 0.0,
                      "f1": 0.0
                    },
                    {
                      "label": "B2",
                      "reference_count": 0,
                      "predicted_count": 14,
                      "tp": 0,
                      "fp": 14,
                      "fn": 0,
                      "precision": 0.0,
                      "recall": 0.0,
                      "f1": 0.0
                    },
                    {
                      "label": "B3",
                      "reference_count": 0,
                      "predicted_count": 53,
                      "tp": 0,
                      "fp": 53,
                      "fn": 0,
                      "precision": 0.0,
                      "recall": 0.0,
                      "f1": 0.0
                    },
                    {
                      "label": "B4",
                      "reference_count": 0,
                      "predicted_count": 60,
                      "tp": 0,
                      "fp": 60,
                      "fn": 0,
                      "precision": 0.0,
                      "recall": 0.0,
                      "f1": 0.0
                    },
                    {
                      "label": "B5",
                      "reference_count": 0,
                      "predicted_count": 32,
                      "tp": 0,
                      "fp": 32,
                      "fn": 0,
                      "precision": 0.0,
                      "recall": 0.0,
                      "f1": 0.0
                    },
                    {
                      "label": "B6",
                      "reference_count": 0,
                      "predicted_count": 4,
                      "tp": 0,
                      "fp": 4,
                      "fn": 0,
                      "precision": 0.0,
                      "recall": 0.0,
                      "f1": 0.0
                    },
                    {
                      "label": "C#3",
                      "reference_count": 0,
                      "predicted_count": 17,
                      "tp": 0,
                      "fp": 17,
                      "fn": 0,
                      "precision": 0.0,
                      "recall": 0.0,
                      "f1": 0.0
                    },
                    {
                      "label": "C#4",
                      "reference_count": 0,
                      "predicted_count": 41,
                      "tp": 0,
                      "fp": 41,
                      "fn": 0,
                      "precision": 0.0,
                      "recall": 0.0,
                      "f1": 0.0
                    },
                    {
                      "label": "C#5",
                      "reference_count": 0,
                      "predicted_count": 32,
                      "tp": 0,
                      "fp": 32,
                      "fn": 0,
                      "precision": 0.0,
                      "recall": 0.0,
                      "f1": 0.0
                    },
                    {
                      "label": "C#6",
                      "reference_count": 0,
                      "predicted_count": 28,
                      "tp": 0,
                      "fp": 28,
                      "fn": 0,
                      "precision": 0.0,
                      "recall": 0.0,
                      "f1": 0.0
                    },
                    {
                      "label": "C2",
                      "reference_count": 0,
                      "predicted_count": 14,
                      "tp": 0,
                      "fp": 14,
                      "fn": 0,
                      "precision": 0.0,
                      "recall": 0.0,
                      "f1": 0.0
                    },
                    {
                      "label": "C6",
                      "reference_count": 0,
                      "predicted_count": 19,
                      "tp": 0,
                      "fp": 19,
                      "fn": 0,
                      "precision": 0.0,
                      "recall": 0.0,
                      "f1": 0.0
                    },
                    {
                      "label": "C7",
                      "reference_count": 0,
                      "predicted_count": 11,
                      "tp": 0,
                      "fp": 11,
                      "fn": 0,
                      "precision": 0.0,
                      "recall": 0.0,
                      "f1": 0.0
                    },
                    {
                      "label": "D#5",
                      "reference_count": 0,
                      "predicted_count": 47,
                      "tp": 0,
                      "fp": 47,
                      "fn": 0,
                      "precision": 0.0,
                      "recall": 0.0,
                      "f1": 0.0
                    },
                    {
                      "label": "D#6",
                      "reference_count": 0,
                      "predicted_count": 15,
                      "tp": 0,
                      "fp": 15,
                      "fn": 0,
                      "precision": 0.0,
                      "recall": 0.0,
                      "f1": 0.0
                    },
                    {
                      "label": "D6",
                      "reference_count": 0,
                      "predicted_count": 18,
                      "tp": 0,
                      "fp": 18,
                      "fn": 0,
                      "precision": 0.0,
                      "recall": 0.0,
                      "f1": 0.0
                    },
                    {
                      "label": "E3",
                      "reference_count": 0,
                      "predicted_count": 41,
                      "tp": 0,
                      "fp": 41,
                      "fn": 0,
                      "precision": 0.0,
                      "recall": 0.0,
                      "f1": 0.0
                    },
                    {
                      "label": "E4",
                      "reference_count": 0,
                      "predicted_count": 60,
                      "tp": 0,
                      "fp": 60,
                      "fn": 0,
                      "precision": 0.0,
                      "recall": 0.0,
                      "f1": 0.0
                    },
                    {
                      "label": "E5",
                      "reference_count": 0,
                      "predicted_count": 27,
                      "tp": 0,
                      "fp": 27,
                      "fn": 0,
                      "precision": 0.0,
                      "recall": 0.0,
                      "f1": 0.0
                    },
                    {
                      "label": "E6",
                      "reference_count": 0,
                      "predicted_count": 26,
                      "tp": 0,
                      "fp": 26,
                      "fn": 0,
                      "precision": 0.0,
                      "recall": 0.0,
                      "f1": 0.0
                    },
                    {
                      "label": "F#1",
                      "reference_count": 0,
                      "predicted_count": 1,
                      "tp": 0,
                      "fp": 1,
                      "fn": 0,
                      "precision": 0.0,
                      "recall": 0.0,
                      "f1": 0.0
                    },
                    {
                      "label": "F#3",
                      "reference_count": 0,
                      "predicted_count": 48,
                      "tp": 0,
                      "fp": 48,
                      "fn": 0,
                      "precision": 0.0,
                      "recall": 0.0,
                      "f1": 0.0
                    },
                    {
                      "label": "F#4",
                      "reference_count": 0,
                      "predicted_count": 35,
                      "tp": 0,
                      "fp": 35,
                      "fn": 0,
                      "precision": 0.0,
                      "recall": 0.0,
                      "f1": 0.0
                    },
                    {
                      "label": "F#5",
                      "reference_count": 0,
                      "predicted_count": 30,
                      "tp": 0,
                      "fp": 30,
                      "fn": 0,
                      "precision": 0.0,
                      "recall": 0.0,
                      "f1": 0.0
                    },
                    {
                      "label": "F#6",
                      "reference_count": 0,
                      "predicted_count": 19,
                      "tp": 0,
                      "fp": 19,
                      "fn": 0,
                      "precision": 0.0,
                      "recall": 0.0,
                      "f1": 0.0
                    },
                    {
                      "label": "F1",
                      "reference_count": 0,
                      "predicted_count": 1,
                      "tp": 0,
                      "fp": 1,
                      "fn": 0,
                      "precision": 0.0,
                      "recall": 0.0,
                      "f1": 0.0
                    },
                    {
                      "label": "F2",
                      "reference_count": 0,
                      "predicted_count": 43,
                      "tp": 0,
                      "fp": 43,
                      "fn": 0,
                      "precision": 0.0,
                      "recall": 0.0,
                      "f1": 0.0
                    },
                    {
                      "label": "F5",
                      "reference_count": 0,
                      "predicted_count": 51,
                      "tp": 0,
                      "fp": 51,
                      "fn": 0,
                      "precision": 0.0,
                      "recall": 0.0,
                      "f1": 0.0
                    },
                    {
                      "label": "F6",
                      "reference_count": 0,
                      "predicted_count": 12,
                      "tp": 0,
                      "fp": 12,
                      "fn": 0,
                      "precision": 0.0,
                      "recall": 0.0,
                      "f1": 0.0
                    },
                    {
                      "label": "G#1",
                      "reference_count": 0,
                      "predicted_count": 3,
                      "tp": 0,
                      "fp": 3,
                      "fn": 0,
                      "precision": 0.0,
                      "recall": 0.0,
                      "f1": 0.0
                    },
                    {
                      "label": "G#2",
                      "reference_count": 0,
                      "predicted_count": 15,
                      "tp": 0,
                      "fp": 15,
                      "fn": 0,
                      "precision": 0.0,
                      "recall": 0.0,
                      "f1": 0.0
                    },
                    {
                      "label": "G#3",
                      "reference_count": 0,
                      "predicted_count": 34,
                      "tp": 0,
                      "fp": 34,
                      "fn": 0,
                      "precision": 0.0,
                      "recall": 0.0,
                      "f1": 0.0
                    },
                    {
                      "label": "G#4",
                      "reference_count": 0,
                      "predicted_count": 39,
                      "tp": 0,
                      "fp": 39,
                      "fn": 0,
                      "precision": 0.0,
                      "recall": 0.0,
                      "f1": 0.0
                    },
                    {
                      "label": "G#5",
                      "reference_count": 0,
                      "predicted_count": 48,
                      "tp": 0,
                      "fp": 48,
                      "fn": 0,
                      "precision": 0.0,
                      "recall": 0.0,
                      "f1": 0.0
                    },
                    {
                      "label": "G#6",
                      "reference_count": 0,
                      "predicted_count": 25,
                      "tp": 0,
                      "fp": 25,
                      "fn": 0,
                      "precision": 0.0,
                      "recall": 0.0,
                      "f1": 0.0
                    },
                    {
                      "label": "G2",
                      "reference_count": 0,
                      "predicted_count": 38,
                      "tp": 0,
                      "fp": 38,
                      "fn": 0,
                      "precision": 0.0,
                      "recall": 0.0,
                      "f1": 0.0
                    },
                    {
                      "label": "G4",
                      "reference_count": 0,
                      "predicted_count": 53,
                      "tp": 0,
                      "fp": 53,
                      "fn": 0,
                      "precision": 0.0,
                      "recall": 0.0,
                      "f1": 0.0
                    },
                    {
                      "label": "G5",
                      "reference_count": 0,
                      "predicted_count": 36,
                      "tp": 0,
                      "fp": 36,
                      "fn": 0,
                      "precision": 0.0,
                      "recall": 0.0,
                      "f1": 0.0
                    },
                    {
                      "label": "G6",
                      "reference_count": 0,
                      "predicted_count": 10,
                      "tp": 0,
                      "fp": 10,
                      "fn": 0,
                      "precision": 0.0,
                      "recall": 0.0,
                      "f1": 0.0
                    },
                    {
                      "label": "A#3",
                      "reference_count": 100,
                      "predicted_count": 49,
                      "tp": 1,
                      "fp": 48,
                      "fn": 99,
                      "precision": 0.020408,
                      "recall": 0.01,
                      "f1": 0.013423
                    },
                    {
                      "label": "A#2",
                      "reference_count": 101,
                      "predicted_count": 30,
                      "tp": 1,
                      "fp": 29,
                      "fn": 100,
                      "precision": 0.033333,
                      "recall": 0.009901,
                      "f1": 0.015267
                    },
                    {
                      "label": "F3",
                      "reference_count": 39,
                      "predicted_count": 31,
                      "tp": 1,
                      "fp": 30,
                      "fn": 38,
                      "precision": 0.032258,
                      "recall": 0.025641,
                      "f1": 0.028571
                    },
                    {
                      "label": "C4",
                      "reference_count": 5,
                      "predicted_count": 47,
                      "tp": 1,
                      "fp": 46,
                      "fn": 4,
                      "precision": 0.021277,
                      "recall": 0.2,
                      "f1": 0.038462
                    },
                    {
                      "label": "D#3",
                      "reference_count": 33,
                      "predicted_count": 14,
                      "tp": 1,
                      "fp": 13,
                      "fn": 32,
                      "precision": 0.071429,
                      "recall": 0.030303,
                      "f1": 0.042553
                    },
                    {
                      "label": "A4",
                      "reference_count": 2,
                      "predicted_count": 45,
                      "tp": 1,
                      "fp": 44,
                      "fn": 1,
                      "precision": 0.022222,
                      "recall": 0.5,
                      "f1": 0.042553
                    },
                    {
                      "label": "E2",
                      "reference_count": 34,
                      "predicted_count": 7,
                      "tp": 1,
                      "fp": 6,
                      "fn": 33,
                      "precision": 0.142857,
                      "recall": 0.029412,
                      "f1": 0.048781
                    },
                    {
                      "label": "F4",
                      "reference_count": 32,
                      "predicted_count": 39,
                      "tp": 2,
                      "fp": 37,
                      "fn": 30,
                      "precision": 0.051282,
                      "recall": 0.0625,
                      "f1": 0.056338
                    },
                    {
                      "label": "C#2",
                      "reference_count": 14,
                      "predicted_count": 5,
                      "tp": 1,
                      "fp": 4,
                      "fn": 13,
                      "precision": 0.2,
                      "recall": 0.071429,
                      "f1": 0.105264
                    }
                  ],
                  "confusions": [
                    {
                      "reference_class": "A#2",
                      "predicted_class": "B3",
                      "count": 6
                    },
                    {
                      "reference_class": "A#3",
                      "predicted_class": "D5",
                      "count": 4
                    },
                    {
                      "reference_class": "A#2",
                      "predicted_class": "E4",
                      "count": 4
                    },
                    {
                      "reference_class": "F3",
                      "predicted_class": "A4",
                      "count": 3
                    },
                    {
                      "reference_class": "A#3",
                      "predicted_class": "G#3",
                      "count": 3
                    },
                    {
                      "reference_class": "A#3",
                      "predicted_class": "A4",
                      "count": 3
                    },
                    {
                      "reference_class": "A#3",
                      "predicted_class": "B3",
                      "count": 3
                    },
                    {
                      "reference_class": "A#3",
                      "predicted_class": "D6",
                      "count": 3
                    },
                    {
                      "reference_class": "A#2",
                      "predicted_class": "E6",
                      "count": 3
                    },
                    {
                      "reference_class": "A#2",
                      "predicted_class": "D#4",
                      "count": 3
                    },
                    {
                      "reference_class": "A#3",
                      "predicted_class": "G4",
                      "count": 3
                    },
                    {
                      "reference_class": "A#2",
                      "predicted_class": "C#4",
                      "count": 3
                    },
                    {
                      "reference_class": "A#3",
                      "predicted_class": "G#4",
                      "count": 3
                    },
                    {
                      "reference_class": "F4",
                      "predicted_class": "D5",
                      "count": 3
                    },
                    {
                      "reference_class": "A#3",
                      "predicted_class": "F3",
                      "count": 2
                    },
                    {
                      "reference_class": "A#3",
                      "predicted_class": "A#4",
                      "count": 2
                    },
                    {
                      "reference_class": "A#3",
                      "predicted_class": "F5",
                      "count": 2
                    },
                    {
                      "reference_class": "A#2",
                      "predicted_class": "C2",
                      "count": 2
                    },
                    {
                      "reference_class": "C#2",
                      "predicted_class": "G2",
                      "count": 2
                    },
                    {
                      "reference_class": "A#2",
                      "predicted_class": "A#1",
                      "count": 2
                    },
                    {
                      "reference_class": "E2",
                      "predicted_class": "F2",
                      "count": 2
                    },
                    {
                      "reference_class": "A#2",
                      "predicted_class": "F2",
                      "count": 2
                    },
                    {
                      "reference_class": "A#2",
                      "predicted_class": "A4",
                      "count": 2
                    },
                    {
                      "reference_class": "A#2",
                      "predicted_class": "C#5",
                      "count": 2
                    },
                    {
                      "reference_class": "A#2",
                      "predicted_class": "C5",
                      "count": 2
                    },
                    {
                      "reference_class": "E2",
                      "predicted_class": "A4",
                      "count": 2
                    },
                    {
                      "reference_class": "A#2",
                      "predicted_class": "D#5",
                      "count": 2
                    },
                    {
                      "reference_class": "F3",
                      "predicted_class": "C#4",
                      "count": 2
                    },
                    {
                      "reference_class": "A#3",
                      "predicted_class": "D4",
                      "count": 2
                    },
                    {
                      "reference_class": "F3",
                      "predicted_class": "D4",
                      "count": 2
                    },
                    {
                      "reference_class": "D#3",
                      "predicted_class": "D4",
                      "count": 2
                    },
                    {
                      "reference_class": "D#3",
                      "predicted_class": "C4",
                      "count": 2
                    },
                    {
                      "reference_class": "E2",
                      "predicted_class": "E4",
                      "count": 2
                    },
                    {
                      "reference_class": "A#3",
                      "predicted_class": "F4",
                      "count": 2
                    },
                    {
                      "reference_class": "D4",
                      "predicted_class": "G#5",
                      "count": 2
                    },
                    {
                      "reference_class": "F3",
                      "predicted_class": "G5",
                      "count": 2
                    },
                    {
                      "reference_class": "F3",
                      "predicted_class": "C4",
                      "count": 2
                    },
                    {
                      "reference_class": "D#3",
                      "predicted_class": "G#4",
                      "count": 2
                    },
                    {
                      "reference_class": "A#2",
                      "predicted_class": "C6",
                      "count": 2
                    },
                    {
                      "reference_class": "A#3",
                      "predicted_class": "G2",
                      "count": 2
                    },
                    {
                      "reference_class": "F4",
                      "predicted_class": "B5",
                      "count": 2
                    },
                    {
                      "reference_class": "F3",
                      "predicted_class": "A5",
                      "count": 2
                    },
                    {
                      "reference_class": "C4",
                      "predicted_class": "A5",
                      "count": 2
                    },
                    {
                      "reference_class": "A#3",
                      "predicted_class": "A#5",
                      "count": 2
                    },
                    {
                      "reference_class": "A#4",
                      "predicted_class": "F#3",
                      "count": 1
                    },
                    {
                      "reference_class": "F3",
                      "predicted_class": "F#5",
                      "count": 1
                    },
                    {
                      "reference_class": "F3",
                      "predicted_class": "A#4",
                      "count": 1
                    },
                    {
                      "reference_class": "A#4",
                      "predicted_class": "G#4",
                      "count": 1
                    },
                    {
                      "reference_class": "A#4",
                      "predicted_class": "F5",
                      "count": 1
                    },
                    {
                      "reference_class": "A#3",
                      "predicted_class": "B4",
                      "count": 1
                    },
                    {
                      "reference_class": "A#3",
                      "predicted_class": "C5",
                      "count": 1
                    },
                    {
                      "reference_class": "G3",
                      "predicted_class": "G4",
                      "count": 1
                    },
                    {
                      "reference_class": "A#3",
                      "predicted_class": "C#3",
                      "count": 1
                    },
                    {
                      "reference_class": "A#4",
                      "predicted_class": "D3",
                      "count": 1
                    },
                    {
                      "reference_class": "D#3",
                      "predicted_class": "D3",
                      "count": 1
                    },
                    {
                      "reference_class": "C#2",
                      "predicted_class": "E3",
                      "count": 1
                    },
                    {
                      "reference_class": "D3",
                      "predicted_class": "B2",
                      "count": 1
                    },
                    {
                      "reference_class": "D4",
                      "predicted_class": "E3",
                      "count": 1
                    },
                    {
                      "reference_class": "D3",
                      "predicted_class": "E3",
                      "count": 1
                    },
                    {
                      "reference_class": "A#1",
                      "predicted_class": "C2",
                      "count": 1
                    },
                    {
                      "reference_class": "E2",
                      "predicted_class": "A#2",
                      "count": 1
                    },
                    {
                      "reference_class": "C#2",
                      "predicted_class": "B3",
                      "count": 1
                    },
                    {
                      "reference_class": "A#2",
                      "predicted_class": "E3",
                      "count": 1
                    },
                    {
                      "reference_class": "A#2",
                      "predicted_class": "G#1",
                      "count": 1
                    },
                    {
                      "reference_class": "A#3",
                      "predicted_class": "F#2",
                      "count": 1
                    },
                    {
                      "reference_class": "A#2",
                      "predicted_class": "F3",
                      "count": 1
                    },
                    {
                      "reference_class": "E2",
                      "predicted_class": "B3",
                      "count": 1
                    },
                    {
                      "reference_class": "E2",
                      "predicted_class": "G#2",
                      "count": 1
                    },
                    {
                      "reference_class": "A#2",
                      "predicted_class": "A1",
                      "count": 1
                    },
                    {
                      "reference_class": "A#2",
                      "predicted_class": "F#3",
                      "count": 1
                    },
                    {
                      "reference_class": "D2",
                      "predicted_class": "A#4",
                      "count": 1
                    },
                    {
                      "reference_class": "C3",
                      "predicted_class": "A#3",
                      "count": 1
                    },
                    {
                      "reference_class": "G1",
                      "predicted_class": "D6",
                      "count": 1
                    },
                    {
                      "reference_class": "D#2",
                      "predicted_class": "A#3",
                      "count": 1
                    },
                    {
                      "reference_class": "E2",
                      "predicted_class": "G#6",
                      "count": 1
                    },
                    {
                      "reference_class": "D2",
                      "predicted_class": "F#3",
                      "count": 1
                    },
                    {
                      "reference_class": "A#2",
                      "predicted_class": "C4",
                      "count": 1
                    },
                    {
                      "reference_class": "A#3",
                      "predicted_class": "A3",
                      "count": 1
                    },
                    {
                      "reference_class": "A#2",
                      "predicted_class": "F6",
                      "count": 1
                    },
                    {
                      "reference_class": "A#2",
                      "predicted_class": "E5",
                      "count": 1
                    },
                    {
                      "reference_class": "A#3",
                      "predicted_class": "E4",
                      "count": 1
                    },
                    {
                      "reference_class": "A#2",
                      "predicted_class": "B2",
                      "count": 1
                    },
                    {
                      "reference_class": "C#2",
                      "predicted_class": "A4",
                      "count": 1
                    },
                    {
                      "reference_class": "A#2",
                      "predicted_class": "B1",
                      "count": 1
                    },
                    {
                      "reference_class": "A#2",
                      "predicted_class": "G2",
                      "count": 1
                    },
                    {
                      "reference_class": "A#2",
                      "predicted_class": "G#6",
                      "count": 1
                    },
                    {
                      "reference_class": "A#2",
                      "predicted_class": "A#3",
                      "count": 1
                    },
                    {
                      "reference_class": "A#2",
                      "predicted_class": "A#4",
                      "count": 1
                    },
                    {
                      "reference_class": "E2",
                      "predicted_class": "A2",
                      "count": 1
                    },
                    {
                      "reference_class": "F#2",
                      "predicted_class": "F2",
                      "count": 1
                    },
                    {
                      "reference_class": "F#2",
                      "predicted_class": "A3",
                      "count": 1
                    },
                    {
                      "reference_class": "A#2",
                      "predicted_class": "B4",
                      "count": 1
                    },
                    {
                      "reference_class": "A#3",
                      "predicted_class": "A#2",
                      "count": 1
                    },
                    {
                      "reference_class": "A#3",
                      "predicted_class": "F#3",
                      "count": 1
                    },
                    {
                      "reference_class": "A#2",
                      "predicted_class": "G6",
                      "count": 1
                    },
                    {
                      "reference_class": "A#3",
                      "predicted_class": "C#4",
                      "count": 1
                    },
                    {
                      "reference_class": "E2",
                      "predicted_class": "E6",
                      "count": 1
                    },
                    {
                      "reference_class": "A#3",
                      "predicted_class": "E6",
                      "count": 1
                    },
                    {
                      "reference_class": "A#2",
                      "predicted_class": "G#4",
                      "count": 1
                    },
                    {
                      "reference_class": "C5",
                      "predicted_class": "G#4",
                      "count": 1
                    },
                    {
                      "reference_class": "A#2",
                      "predicted_class": "G4",
                      "count": 1
                    },
                    {
                      "reference_class": "E2",
                      "predicted_class": "G6",
                      "count": 1
                    },
                    {
                      "reference_class": "C3",
                      "predicted_class": "G6",
                      "count": 1
                    },
                    {
                      "reference_class": "A4",
                      "predicted_class": "D4",
                      "count": 1
                    },
                    {
                      "reference_class": "D#3",
                      "predicted_class": "D5",
                      "count": 1
                    },
                    {
                      "reference_class": "A#3",
                      "predicted_class": "C3",
                      "count": 1
                    },
                    {
                      "reference_class": "D#4",
                      "predicted_class": "A4",
                      "count": 1
                    },
                    {
                      "reference_class": "D#4",
                      "predicted_class": "C4",
                      "count": 1
                    },
                    {
                      "reference_class": "A#3",
                      "predicted_class": "E5",
                      "count": 1
                    },
                    {
                      "reference_class": "D#3",
                      "predicted_class": "F4",
                      "count": 1
                    },
                    {
                      "reference_class": "A#2",
                      "predicted_class": "F#4",
                      "count": 1
                    },
                    {
                      "reference_class": "B1",
                      "predicted_class": "C6",
                      "count": 1
                    },
                    {
                      "reference_class": "A#2",
                      "predicted_class": "D2",
                      "count": 1
                    },
                    {
                      "reference_class": "F4",
                      "predicted_class": "F#5",
                      "count": 1
                    },
                    {
                      "reference_class": "A#4",
                      "predicted_class": "A6",
                      "count": 1
                    },
                    {
                      "reference_class": "A#3",
                      "predicted_class": "G#5",
                      "count": 1
                    },
                    {
                      "reference_class": "D5",
                      "predicted_class": "F4",
                      "count": 1
                    },
                    {
                      "reference_class": "C5",
                      "predicted_class": "C#4",
                      "count": 1
                    },
                    {
                      "reference_class": "E2",
                      "predicted_class": "C5",
                      "count": 1
                    },
                    {
                      "reference_class": "E2",
                      "predicted_class": "C4",
                      "count": 1
                    },
                    {
                      "reference_class": "F3",
                      "predicted_class": "G3",
                      "count": 1
                    },
                    {
                      "reference_class": "E2",
                      "predicted_class": "F6",
                      "count": 1
                    },
                    {
                      "reference_class": "E2",
                      "predicted_class": "G2",
                      "count": 1
                    },
                    {
                      "reference_class": "A#3",
                      "predicted_class": "G3",
                      "count": 1
                    },
                    {
                      "reference_class": "A#2",
                      "predicted_class": "G5",
                      "count": 1
                    },
                    {
                      "reference_class": "F4",
                      "predicted_class": "C#6",
                      "count": 1
                    },
                    {
                      "reference_class": "A#2",
                      "predicted_class": "F#5",
                      "count": 1
                    },
                    {
                      "reference_class": "A#2",
                      "predicted_class": "F#6",
                      "count": 1
                    },
                    {
                      "reference_class": "A3",
                      "predicted_class": "C5",
                      "count": 1
                    },
                    {
                      "reference_class": "C4",
                      "predicted_class": "C#5",
                      "count": 1
                    },
                    {
                      "reference_class": "F3",
                      "predicted_class": "A6",
                      "count": 1
                    },
                    {
                      "reference_class": "F#2",
                      "predicted_class": "B5",
                      "count": 1
                    },
                    {
                      "reference_class": "A#3",
                      "predicted_class": "G5",
                      "count": 1
                    },
                    {
                      "reference_class": "F#2",
                      "predicted_class": "G4",
                      "count": 1
                    },
                    {
                      "reference_class": "A#3",
                      "predicted_class": "F#5",
                      "count": 1
                    },
                    {
                      "reference_class": "E2",
                      "predicted_class": "D5",
                      "count": 1
                    },
                    {
                      "reference_class": "A#2",
                      "predicted_class": "G#3",
                      "count": 1
                    },
                    {
                      "reference_class": "D#3",
                      "predicted_class": "C#5",
                      "count": 1
                    },
                    {
                      "reference_class": "D#3",
                      "predicted_class": "B5",
                      "count": 1
                    },
                    {
                      "reference_class": "A#3",
                      "predicted_class": "C6",
                      "count": 1
                    },
                    {
                      "reference_class": "A#2",
                      "predicted_class": "D#6",
                      "count": 1
                    },
                    {
                      "reference_class": "F3",
                      "predicted_class": "D5",
                      "count": 1
                    },
                    {
                      "reference_class": "F3",
                      "predicted_class": "A#5",
                      "count": 1
                    },
                    {
                      "reference_class": "F4",
                      "predicted_class": "C#5",
                      "count": 1
                    },
                    {
                      "reference_class": "G3",
                      "predicted_class": "A#5",
                      "count": 1
                    },
                    {
                      "reference_class": "D4",
                      "predicted_class": "D#4",
                      "count": 1
                    },
                    {
                      "reference_class": "D#3",
                      "predicted_class": "F5",
                      "count": 1
                    },
                    {
                      "reference_class": "D#3",
                      "predicted_class": "A#5",
                      "count": 1
                    },
                    {
                      "reference_class": "A#3",
                      "predicted_class": "D#4",
                      "count": 1
                    },
                    {
                      "reference_class": "A#2",
                      "predicted_class": "D4",
                      "count": 1
                    },
                    {
                      "reference_class": "D#3",
                      "predicted_class": "A#4",
                      "count": 1
                    },
                    {
                      "reference_class": "F4",
                      "predicted_class": "B4",
                      "count": 1
                    },
                    {
                      "reference_class": "F4",
                      "predicted_class": "A#4",
                      "count": 1
                    },
                    {
                      "reference_class": "A#3",
                      "predicted_class": "C4",
                      "count": 1
                    },
                    {
                      "reference_class": "F4",
                      "predicted_class": "G3",
                      "count": 1
                    },
                    {
                      "reference_class": "F#2",
                      "predicted_class": "D5",
                      "count": 1
                    },
                    {
                      "reference_class": "A#4",
                      "predicted_class": "E5",
                      "count": 1
                    },
                    {
                      "reference_class": "F3",
                      "predicted_class": "F#2",
                      "count": 1
                    },
                    {
                      "reference_class": "F3",
                      "predicted_class": "E3",
                      "count": 1
                    }
                  ],
                  "matched_tp": 10,
                  "matched_confusions": 222,
                  "unmatched_predictions": 1781,
                  "unmatched_references": 194,
                  "pitch_error_summary": {
                    "semitone_near_confusions": 11,
                    "octave_confusions": 13
                  }
                },
                {
                  "name": "pitch_class",
                  "class_metrics": [
                    {
                      "label": "B",
                      "reference_count": 2,
                      "predicted_count": 172,
                      "tp": 0,
                      "fp": 172,
                      "fn": 2,
                      "precision": 0.0,
                      "recall": 0.0,
                      "f1": 0.0
                    },
                    {
                      "label": "G#",
                      "reference_count": 0,
                      "predicted_count": 164,
                      "tp": 0,
                      "fp": 164,
                      "fn": 0,
                      "precision": 0.0,
                      "recall": 0.0,
                      "f1": 0.0
                    },
                    {
                      "label": "D",
                      "reference_count": 15,
                      "predicted_count": 205,
                      "tp": 1,
                      "fp": 204,
                      "fn": 14,
                      "precision": 0.004878,
                      "recall": 0.066667,
                      "f1": 0.009091
                    },
                    {
                      "label": "G",
                      "reference_count": 4,
                      "predicted_count": 205,
                      "tp": 1,
                      "fp": 204,
                      "fn": 3,
                      "precision": 0.004878,
                      "recall": 0.25,
                      "f1": 0.009569
                    },
                    {
                      "label": "C",
                      "reference_count": 11,
                      "predicted_count": 172,
                      "tp": 1,
                      "fp": 171,
                      "fn": 10,
                      "precision": 0.005814,
                      "recall": 0.090909,
                      "f1": 0.010929
                    },
                    {
                      "label": "A",
                      "reference_count": 3,
                      "predicted_count": 156,
                      "tp": 1,
                      "fp": 155,
                      "fn": 2,
                      "precision": 0.00641,
                      "recall": 0.333333,
                      "f1": 0.012578
                    },
                    {
                      "label": "C#",
                      "reference_count": 14,
                      "predicted_count": 123,
                      "tp": 1,
                      "fp": 122,
                      "fn": 13,
                      "precision": 0.00813,
                      "recall": 0.071429,
                      "f1": 0.014598
                    },
                    {
                      "label": "F#",
                      "reference_count": 10,
                      "predicted_count": 150,
                      "tp": 2,
                      "fp": 148,
                      "fn": 8,
                      "precision": 0.013333,
                      "recall": 0.2,
                      "f1": 0.024999
                    },
                    {
                      "label": "D#",
                      "reference_count": 36,
                      "predicted_count": 118,
                      "tp": 2,
                      "fp": 116,
                      "fn": 34,
                      "precision": 0.016949,
                      "recall": 0.055556,
                      "f1": 0.025974
                    },
                    {
                      "label": "F",
                      "reference_count": 71,
                      "predicted_count": 177,
                      "tp": 4,
                      "fp": 173,
                      "fn": 67,
                      "precision": 0.022599,
                      "recall": 0.056338,
                      "f1": 0.032258
                    },
                    {
                      "label": "E",
                      "reference_count": 34,
                      "predicted_count": 161,
                      "tp": 6,
                      "fp": 155,
                      "fn": 28,
                      "precision": 0.037267,
                      "recall": 0.176471,
                      "f1": 0.061538
                    },
                    {
                      "label": "A#",
                      "reference_count": 226,
                      "predicted_count": 210,
                      "tp": 24,
                      "fp": 186,
                      "fn": 202,
                      "precision": 0.114286,
                      "recall": 0.106195,
                      "f1": 0.110092
                    }
                  ],
                  "confusions": [
                    {
                      "reference_class": "A#",
                      "predicted_class": "G#",
                      "count": 12
                    },
                    {
                      "reference_class": "A#",
                      "predicted_class": "D",
                      "count": 11
                    },
                    {
                      "reference_class": "A#",
                      "predicted_class": "E",
                      "count": 11
                    },
                    {
                      "reference_class": "A#",
                      "predicted_class": "G",
                      "count": 11
                    },
                    {
                      "reference_class": "A#",
                      "predicted_class": "C",
                      "count": 10
                    },
                    {
                      "reference_class": "A#",
                      "predicted_class": "F",
                      "count": 9
                    },
                    {
                      "reference_class": "A#",
                      "predicted_class": "B",
                      "count": 9
                    },
                    {
                      "reference_class": "A#",
                      "predicted_class": "A",
                      "count": 8
                    },
                    {
                      "reference_class": "A#",
                      "predicted_class": "F#",
                      "count": 7
                    },
                    {
                      "reference_class": "A#",
                      "predicted_class": "C#",
                      "count": 7
                    },
                    {
                      "reference_class": "F",
                      "predicted_class": "A",
                      "count": 6
                    },
                    {
                      "reference_class": "A#",
                      "predicted_class": "D#",
                      "count": 6
                    },
                    {
                      "reference_class": "F",
                      "predicted_class": "D",
                      "count": 6
                    },
                    {
                      "reference_class": "D#",
                      "predicted_class": "D",
                      "count": 4
                    },
                    {
                      "reference_class": "F",
                      "predicted_class": "C#",
                      "count": 4
                    },
                    {
                      "reference_class": "F",
                      "predicted_class": "G",
                      "count": 4
                    },
                    {
                      "reference_class": "F",
                      "predicted_class": "F#",
                      "count": 3
                    },
                    {
                      "reference_class": "F",
                      "predicted_class": "A#",
                      "count": 3
                    },
                    {
                      "reference_class": "E",
                      "predicted_class": "F",
                      "count": 3
                    },
                    {
                      "reference_class": "D#",
                      "predicted_class": "A#",
                      "count": 3
                    },
                    {
                      "reference_class": "E",
                      "predicted_class": "A",
                      "count": 3
                    },
                    {
                      "reference_class": "D#",
                      "predicted_class": "C",
                      "count": 3
                    },
                    {
                      "reference_class": "F",
                      "predicted_class": "B",
                      "count": 3
                    },
                    {
                      "reference_class": "D",
                      "predicted_class": "E",
                      "count": 2
                    },
                    {
                      "reference_class": "C#",
                      "predicted_class": "G",
                      "count": 2
                    },
                    {
                      "reference_class": "E",
                      "predicted_class": "G#",
                      "count": 2
                    },
                    {
                      "reference_class": "E",
                      "predicted_class": "G",
                      "count": 2
                    },
                    {
                      "reference_class": "D#",
                      "predicted_class": "F",
                      "count": 2
                    },
                    {
                      "reference_class": "D",
                      "predicted_class": "G#",
                      "count": 2
                    },
                    {
                      "reference_class": "C",
                      "predicted_class": "C#",
                      "count": 2
                    },
                    {
                      "reference_class": "D#",
                      "predicted_class": "G#",
                      "count": 2
                    },
                    {
                      "reference_class": "C",
                      "predicted_class": "A",
                      "count": 2
                    },
                    {
                      "reference_class": "C#",
                      "predicted_class": "E",
                      "count": 1
                    },
                    {
                      "reference_class": "D",
                      "predicted_class": "B",
                      "count": 1
                    },
                    {
                      "reference_class": "C#",
                      "predicted_class": "B",
                      "count": 1
                    },
                    {
                      "reference_class": "E",
                      "predicted_class": "B",
                      "count": 1
                    },
                    {
                      "reference_class": "D",
                      "predicted_class": "A#",
                      "count": 1
                    },
                    {
                      "reference_class": "C",
                      "predicted_class": "A#",
                      "count": 1
                    },
                    {
                      "reference_class": "G",
                      "predicted_class": "D",
                      "count": 1
                    },
                    {
                      "reference_class": "D",
                      "predicted_class": "F#",
                      "count": 1
                    },
                    {
                      "reference_class": "C#",
                      "predicted_class": "A",
                      "count": 1
                    },
                    {
                      "reference_class": "F#",
                      "predicted_class": "A",
                      "count": 1
                    },
                    {
                      "reference_class": "C",
                      "predicted_class": "G#",
                      "count": 1
                    },
                    {
                      "reference_class": "C",
                      "predicted_class": "G",
                      "count": 1
                    },
                    {
                      "reference_class": "A",
                      "predicted_class": "D",
                      "count": 1
                    },
                    {
                      "reference_class": "D#",
                      "predicted_class": "A",
                      "count": 1
                    },
                    {
                      "reference_class": "B",
                      "predicted_class": "C",
                      "count": 1
                    },
                    {
                      "reference_class": "D",
                      "predicted_class": "F",
                      "count": 1
                    },
                    {
                      "reference_class": "E",
                      "predicted_class": "C",
                      "count": 1
                    },
                    {
                      "reference_class": "A",
                      "predicted_class": "C",
                      "count": 1
                    },
                    {
                      "reference_class": "F",
                      "predicted_class": "C",
                      "count": 1
                    },
                    {
                      "reference_class": "F#",
                      "predicted_class": "G",
                      "count": 1
                    },
                    {
                      "reference_class": "E",
                      "predicted_class": "D",
                      "count": 1
                    },
                    {
                      "reference_class": "D#",
                      "predicted_class": "C#",
                      "count": 1
                    },
                    {
                      "reference_class": "G",
                      "predicted_class": "A#",
                      "count": 1
                    },
                    {
                      "reference_class": "F#",
                      "predicted_class": "D",
                      "count": 1
                    },
                    {
                      "reference_class": "F",
                      "predicted_class": "E",
                      "count": 1
                    }
                  ],
                  "matched_tp": 43,
                  "matched_confusions": 189,
                  "unmatched_predictions": 1781,
                  "unmatched_references": 194,
                  "pitch_error_summary": {
                    "semitone_near_confusions": null,
                    "octave_confusions": null
                  }
                },
                {
                  "name": "octave",
                  "class_metrics": [
                    {
                      "label": "octave 1",
                      "reference_count": 6,
                      "predicted_count": 48,
                      "tp": 0,
                      "fp": 48,
                      "fn": 6,
                      "precision": 0.0,
                      "recall": 0.0,
                      "f1": 0.0
                    },
                    {
                      "label": "octave 6",
                      "reference_count": 0,
                      "predicted_count": 195,
                      "tp": 0,
                      "fp": 195,
                      "fn": 0,
                      "precision": 0.0,
                      "recall": 0.0,
                      "f1": 0.0
                    },
                    {
                      "label": "octave 7",
                      "reference_count": 0,
                      "predicted_count": 11,
                      "tp": 0,
                      "fp": 11,
                      "fn": 0,
                      "precision": 0.0,
                      "recall": 0.0,
                      "f1": 0.0
                    },
                    {
                      "label": "octave 5",
                      "reference_count": 3,
                      "predicted_count": 512,
                      "tp": 1,
                      "fp": 511,
                      "fn": 2,
                      "precision": 0.001953,
                      "recall": 0.333333,
                      "f1": 0.003883
                    },
                    {
                      "label": "octave 4",
                      "reference_count": 71,
                      "predicted_count": 573,
                      "tp": 19,
                      "fp": 554,
                      "fn": 52,
                      "precision": 0.033159,
                      "recall": 0.267606,
                      "f1": 0.059007
                    },
                    {
                      "label": "octave 3",
                      "reference_count": 182,
                      "predicted_count": 449,
                      "tp": 36,
                      "fp": 413,
                      "fn": 146,
                      "precision": 0.080178,
                      "recall": 0.197802,
                      "f1": 0.114104
                    },
                    {
                      "label": "octave 2",
                      "reference_count": 164,
                      "predicted_count": 225,
                      "tp": 26,
                      "fp": 199,
                      "fn": 138,
                      "precision": 0.115556,
                      "recall": 0.158537,
                      "f1": 0.133677
                    }
                  ],
                  "confusions": [
                    {
                      "reference_class": "octave 3",
                      "predicted_class": "octave 4",
                      "count": 31
                    },
                    {
                      "reference_class": "octave 2",
                      "predicted_class": "octave 4",
                      "count": 26
                    },
                    {
                      "reference_class": "octave 3",
                      "predicted_class": "octave 5",
                      "count": 24
                    },
                    {
                      "reference_class": "octave 2",
                      "predicted_class": "octave 3",
                      "count": 14
                    },
                    {
                      "reference_class": "octave 2",
                      "predicted_class": "octave 6",
                      "count": 14
                    },
                    {
                      "reference_class": "octave 2",
                      "predicted_class": "octave 5",
                      "count": 13
                    },
                    {
                      "reference_class": "octave 4",
                      "predicted_class": "octave 5",
                      "count": 8
                    },
                    {
                      "reference_class": "octave 3",
                      "predicted_class": "octave 6",
                      "count": 7
                    },
                    {
                      "reference_class": "octave 3",
                      "predicted_class": "octave 2",
                      "count": 3
                    },
                    {
                      "reference_class": "octave 4",
                      "predicted_class": "octave 3",
                      "count": 2
                    },
                    {
                      "reference_class": "octave 2",
                      "predicted_class": "octave 1",
                      "count": 2
                    },
                    {
                      "reference_class": "octave 1",
                      "predicted_class": "octave 6",
                      "count": 2
                    },
                    {
                      "reference_class": "octave 5",
                      "predicted_class": "octave 4",
                      "count": 2
                    },
                    {
                      "reference_class": "octave 4",
                      "predicted_class": "octave 6",
                      "count": 2
                    },
                    {
                      "reference_class": "octave 1",
                      "predicted_class": "octave 2",
                      "count": 1
                    }
                  ],
                  "matched_tp": 82,
                  "matched_confusions": 151,
                  "unmatched_predictions": 1780,
                  "unmatched_references": 193,
                  "pitch_error_summary": {
                    "semitone_near_confusions": null,
                    "octave_confusions": null
                  }
                },
                {
                  "name": "hand_zone",
                  "class_metrics": [
                    {
                      "label": "high-right",
                      "reference_count": 3,
                      "predicted_count": 718,
                      "tp": 1,
                      "fp": 717,
                      "fn": 2,
                      "precision": 0.001393,
                      "recall": 0.333333,
                      "f1": 0.002774
                    },
                    {
                      "label": "right",
                      "reference_count": 71,
                      "predicted_count": 573,
                      "tp": 19,
                      "fp": 554,
                      "fn": 52,
                      "precision": 0.033159,
                      "recall": 0.267606,
                      "f1": 0.059007
                    },
                    {
                      "label": "left",
                      "reference_count": 182,
                      "predicted_count": 449,
                      "tp": 36,
                      "fp": 413,
                      "fn": 146,
                      "precision": 0.080178,
                      "recall": 0.197802,
                      "f1": 0.114104
                    },
                    {
                      "label": "low-left",
                      "reference_count": 170,
                      "predicted_count": 273,
                      "tp": 32,
                      "fp": 241,
                      "fn": 138,
                      "precision": 0.117216,
                      "recall": 0.188235,
                      "f1": 0.144469
                    }
                  ],
                  "confusions": [
                    {
                      "reference_class": "left",
                      "predicted_class": "high-right",
                      "count": 31
                    },
                    {
                      "reference_class": "left",
                      "predicted_class": "right",
                      "count": 31
                    },
                    {
                      "reference_class": "low-left",
                      "predicted_class": "high-right",
                      "count": 29
                    },
                    {
                      "reference_class": "low-left",
                      "predicted_class": "right",
                      "count": 24
                    },
                    {
                      "reference_class": "low-left",
                      "predicted_class": "left",
                      "count": 13
                    },
                    {
                      "reference_class": "right",
                      "predicted_class": "high-right",
                      "count": 10
                    },
                    {
                      "reference_class": "left",
                      "predicted_class": "low-left",
                      "count": 3
                    },
                    {
                      "reference_class": "right",
                      "predicted_class": "left",
                      "count": 2
                    },
                    {
                      "reference_class": "high-right",
                      "predicted_class": "right",
                      "count": 2
                    }
                  ],
                  "matched_tp": 88,
                  "matched_confusions": 145,
                  "unmatched_predictions": 1780,
                  "unmatched_references": 193,
                  "pitch_error_summary": {
                    "semitone_near_confusions": null,
                    "octave_confusions": null
                  }
                },
                {
                  "name": "sustain_bucket",
                  "class_metrics": [
                    {
                      "label": "long-sustain",
                      "reference_count": 8,
                      "predicted_count": 60,
                      "tp": 1,
                      "fp": 59,
                      "fn": 7,
                      "precision": 0.016667,
                      "recall": 0.125,
                      "f1": 0.029412
                    },
                    {
                      "label": "sustain",
                      "reference_count": 48,
                      "predicted_count": 489,
                      "tp": 12,
                      "fp": 477,
                      "fn": 36,
                      "precision": 0.02454,
                      "recall": 0.25,
                      "f1": 0.044693
                    },
                    {
                      "label": "staccato",
                      "reference_count": 132,
                      "predicted_count": 618,
                      "tp": 34,
                      "fp": 584,
                      "fn": 98,
                      "precision": 0.055016,
                      "recall": 0.257576,
                      "f1": 0.090666
                    },
                    {
                      "label": "short",
                      "reference_count": 238,
                      "predicted_count": 846,
                      "tp": 86,
                      "fp": 760,
                      "fn": 152,
                      "precision": 0.101655,
                      "recall": 0.361345,
                      "f1": 0.158672
                    }
                  ],
                  "confusions": [
                    {
                      "reference_class": "short",
                      "predicted_class": "staccato",
                      "count": 24
                    },
                    {
                      "reference_class": "short",
                      "predicted_class": "sustain",
                      "count": 22
                    },
                    {
                      "reference_class": "staccato",
                      "predicted_class": "short",
                      "count": 18
                    },
                    {
                      "reference_class": "staccato",
                      "predicted_class": "sustain",
                      "count": 16
                    },
                    {
                      "reference_class": "sustain",
                      "predicted_class": "short",
                      "count": 10
                    },
                    {
                      "reference_class": "short",
                      "predicted_class": "long-sustain",
                      "count": 4
                    },
                    {
                      "reference_class": "long-sustain",
                      "predicted_class": "short",
                      "count": 1
                    },
                    {
                      "reference_class": "long-sustain",
                      "predicted_class": "sustain",
                      "count": 1
                    },
                    {
                      "reference_class": "long-sustain",
                      "predicted_class": "staccato",
                      "count": 1
                    },
                    {
                      "reference_class": "sustain",
                      "predicted_class": "staccato",
                      "count": 1
                    },
                    {
                      "reference_class": "staccato",
                      "predicted_class": "long-sustain",
                      "count": 1
                    }
                  ],
                  "matched_tp": 133,
                  "matched_confusions": 99,
                  "unmatched_predictions": 1781,
                  "unmatched_references": 194,
                  "pitch_error_summary": {
                    "semitone_near_confusions": null,
                    "octave_confusions": null
                  }
                }
              ],
              "timeline": [
                {
                  "start": 0.0,
                  "end": 7.060764,
                  "tp": 0,
                  "fp": 55,
                  "fn": 5
                },
                {
                  "start": 7.060764,
                  "end": 14.121528,
                  "tp": 0,
                  "fp": 163,
                  "fn": 28
                },
                {
                  "start": 14.121528,
                  "end": 21.182292,
                  "tp": 0,
                  "fp": 32,
                  "fn": 14
                },
                {
                  "start": 21.182292,
                  "end": 28.243055,
                  "tp": 1,
                  "fp": 106,
                  "fn": 16
                },
                {
                  "start": 28.243055,
                  "end": 35.303819,
                  "tp": 1,
                  "fp": 36,
                  "fn": 21
                },
                {
                  "start": 35.303819,
                  "end": 42.364583,
                  "tp": 0,
                  "fp": 144,
                  "fn": 11
                },
                {
                  "start": 42.364583,
                  "end": 49.425347,
                  "tp": 3,
                  "fp": 101,
                  "fn": 11
                },
                {
                  "start": 49.425347,
                  "end": 56.486111,
                  "tp": 0,
                  "fp": 176,
                  "fn": 18
                },
                {
                  "start": 56.486111,
                  "end": 63.546875,
                  "tp": 0,
                  "fp": 119,
                  "fn": 26
                },
                {
                  "start": 63.546875,
                  "end": 70.607639,
                  "tp": 0,
                  "fp": 140,
                  "fn": 15
                },
                {
                  "start": 70.607639,
                  "end": 77.668403,
                  "tp": 0,
                  "fp": 171,
                  "fn": 27
                },
                {
                  "start": 77.668403,
                  "end": 84.729166,
                  "tp": 0,
                  "fp": 62,
                  "fn": 21
                },
                {
                  "start": 84.729166,
                  "end": 91.78993,
                  "tp": 2,
                  "fp": 144,
                  "fn": 18
                },
                {
                  "start": 91.78993,
                  "end": 98.850694,
                  "tp": 1,
                  "fp": 133,
                  "fn": 14
                },
                {
                  "start": 98.850694,
                  "end": 105.911458,
                  "tp": 1,
                  "fp": 97,
                  "fn": 27
                },
                {
                  "start": 105.911458,
                  "end": 112.972222,
                  "tp": 0,
                  "fp": 54,
                  "fn": 18
                },
                {
                  "start": 112.972222,
                  "end": 120.032986,
                  "tp": 0,
                  "fp": 90,
                  "fn": 21
                },
                {
                  "start": 120.032986,
                  "end": 127.09375,
                  "tp": 1,
                  "fp": 101,
                  "fn": 13
                },
                {
                  "start": 127.09375,
                  "end": 134.154514,
                  "tp": 0,
                  "fp": 45,
                  "fn": 7
                },
                {
                  "start": 134.154514,
                  "end": 141.215277,
                  "tp": 0,
                  "fp": 7,
                  "fn": 25
                },
                {
                  "start": 141.215277,
                  "end": 148.276041,
                  "tp": 0,
                  "fp": 27,
                  "fn": 32
                },
                {
                  "start": 148.276041,
                  "end": 155.336805,
                  "tp": 0,
                  "fp": 0,
                  "fn": 11
                },
                {
                  "start": 155.336805,
                  "end": 162.397569,
                  "tp": 0,
                  "fp": 0,
                  "fn": 10
                },
                {
                  "start": 162.397569,
                  "end": 169.458333,
                  "tp": 0,
                  "fp": 0,
                  "fn": 7
                }
              ],
              "coverage": {
                "reference_events": 426,
                "predicted_events": 2013
              }
            }
          }
        ]
      }
    ]
  },
  "summary": {
    "algorithm_summaries": [
      {
        "algorithm": "piano_auto",
        "mean_f1": 0.0082,
        "case_count": 1
      }
    ],
    "promotion_candidates": [
      {
        "role": "keys",
        "algorithm": "piano_auto",
        "mean_f1": 0.0082,
        "case_count": 1,
        "flagged_case_count": 1,
        "benchmark_winner": true,
        "promotion_status": "blocked_by_gameplay_flags",
        "can_promote_without_review": false,
        "review_required": true
      }
    ],
    "worst_failures": [
      {
        "case_id": "e7a87286c29ac243b523e00932ec1303-keys",
        "role": "keys",
        "algorithm": "piano_auto",
        "f1": 0.0082,
        "note_count": 2013,
        "error": false,
        "gameplay_flags": {
          "error": false,
          "density": true,
          "sync_quarantine": false,
          "duplicates": false
        }
      }
    ],
    "rows": [
      {
        "case_id": "e7a87286c29ac243b523e00932ec1303-keys",
        "role": "keys",
        "algorithm": "piano_auto",
        "f1": 0.0082,
        "note_count": 2013,
        "error": false,
        "gameplay_flags": {
          "error": false,
          "density": true,
          "sync_quarantine": false,
          "duplicates": false
        }
      }
    ]
  }
}
